<?xml version="1.0" standalone="no"?>
<!DOCTYPE svg PUBLIC "-//W3C//DTD SVG 1.1//EN" "http://www.w3.org/Graphics/SVG/1.1/DTD/svg11.dtd" >
<svg xmlns="http://www.w3.org/2000/svg">
<metadata></metadata>
<defs>
<font id="pt_serifitalic" horiz-adv-x="1073" >
<font-face units-per-em="2048" ascent="1593" descent="-455" />
<missing-glyph horiz-adv-x="497" />
<glyph horiz-adv-x="2048" />
<glyph horiz-adv-x="2048" />
<glyph unicode="&#xd;" horiz-adv-x="682" />
<glyph unicode=" "  horiz-adv-x="497" />
<glyph unicode="&#x09;" horiz-adv-x="497" />
<glyph unicode="&#xa0;" horiz-adv-x="497" />
<glyph unicode="!" horiz-adv-x="669" d="M139 117q0 61 39 98t101 37q63 0 102 -37t39 -98q0 -59 -39 -96t-102 -37q-61 0 -100.5 37t-39.5 96zM299 446l8 361l123 606q49 23 102 23t95 -23l-135 -606l-140 -361h-53z" />
<glyph unicode="&#x22;" horiz-adv-x="698" d="M182 1372q16 27 41 44.5t60 17.5q63 0 73 -62l-131 -340h-41zM428 1372q16 27 41 44.5t60 17.5q63 0 73 -62l-131 -340h-41z" />
<glyph unicode="#" d="M63 477l52 94h155l140 308h-158l49 94h150l155 342h107l-154 -342h291l156 342h106l-156 -342h164l-55 -94h-150l-139 -308h158l-57 -94h-142l-162 -358h-106l162 358h-293l-160 -358h-108l161 358h-166zM379 571h291l139 308h-291z" />
<glyph unicode="$" d="M35 90q16 68 39.5 129.5t48.5 102.5h53l82 -199q39 -39 150 -41l124 575l-104 71q-51 36 -91 82t-65.5 104.5t-25.5 138.5q0 74 28.5 144.5t85 125.5t141.5 91t197 42l23 100h106l-22 -100q100 -4 172 -22.5t123 -42.5q-18 -68 -51 -114t-64 -77h-53l-74 139 q-16 2 -34.5 4.5t-39.5 6.5l-110 -527l99 -68q50 -36 90 -85t64.5 -115t24.5 -154q0 -80 -31.5 -151.5t-91 -127.5t-145.5 -94t-192 -48l-25 -123h-107l25 118q-53 2 -107.5 14.5t-101.5 30t-85 36t-56 34.5zM436 1112q0 -84 41 -136t103 -93l100 467q-111 -8 -177.5 -70 t-66.5 -168zM512 88q49 8 93 28.5t79 52.5t55.5 75t20.5 98q0 86 -40 145.5t-99 106.5z" />
<glyph unicode="%" horiz-adv-x="1601" d="M86 51l1360 1403l71 -63l-1362 -1405zM129 1024q0 94 37 174t98 137.5t141 90t166 32.5q141 0 217 -73.5t76 -190.5q0 -106 -40 -187t-102.5 -135.5t-141 -82t-156.5 -27.5q-61 0 -115.5 19.5t-94.5 54t-62.5 83t-22.5 105.5zM299 1022q0 -37 7 -69.5t24.5 -58.5t44 -41 t63.5 -15q45 0 91 22.5t83 69.5t59.5 118.5t22.5 170.5q0 31 -7 59.5t-23.5 52t-43 36.5t-67.5 13q-45 0 -90 -27.5t-82 -74.5t-59.5 -113.5t-22.5 -142.5zM725 240q0 94 37 174t98 137.5t141 90t166 32.5q141 0 217 -73.5t76 -190.5q0 -106 -40 -187t-102.5 -135.5 t-141 -82t-156.5 -27.5q-61 0 -115.5 19.5t-94.5 54t-62.5 83t-22.5 105.5zM895 238q0 -37 7 -69.5t24.5 -58.5t44 -41t63.5 -15q45 0 91 22.5t83 69.5t59.5 118.5t22.5 170.5q0 31 -7 59.5t-23.5 52t-43 36.5t-67.5 13q-45 0 -90 -27.5t-82 -74.5t-59.5 -113.5 t-22.5 -142.5z" />
<glyph unicode="&#x26;" horiz-adv-x="1785" d="M137 309q0 104 51.5 193.5t122 162t143 124t117.5 77.5q-45 66 -61 133.5t-16 139.5q0 66 30.5 124t81.5 101t119 68.5t141 25.5q260 0 260 -207q0 -70 -33.5 -131t-86 -113.5t-113.5 -96.5l-115 -79q61 -104 148.5 -214.5t185.5 -221.5q20 23 57 76t74 125t68.5 157 t44.5 169q-66 12 -111 49l10 53h416l-12 -53q-66 -35 -146 -49q-45 -121 -94 -219.5t-95 -173t-85 -127t-61 -76.5q66 -63 128 -117.5t144 -108.5l104 -49l-12 -51h-291l-95 71q-56 42 -118 117q-37 -39 -88 -76.5t-115.5 -68.5t-140.5 -49.5t-157 -18.5q-100 0 -175 27 t-125.5 73t-75 106.5t-24.5 127.5zM356 348q2 -117 76 -191.5t203 -74.5q92 0 180 42t168 128q-51 55 -107.5 130t-108.5 152.5t-94 149.5t-63 119q-109 -86 -180.5 -195.5t-73.5 -259.5zM649 1155q0 -70 29 -141.5t70 -130.5q43 31 82.5 67.5t72.5 78.5t52.5 89t19.5 101 q0 72 -28.5 112.5t-98.5 38.5q-45 2 -82 -16.5t-62.5 -48t-40 -68.5t-14.5 -82z" />
<glyph unicode="'" horiz-adv-x="452" d="M182 1372q16 27 41 44.5t60 17.5q63 0 73 -62l-131 -340h-41z" />
<glyph unicode="(" horiz-adv-x="702" d="M125 240q0 229 68.5 415.5t174 334t234.5 259t252 189.5l35 -37q-100 -86 -204.5 -203t-190.5 -259t-140.5 -312t-52.5 -363q-2 -184 43 -345t166 -308l-59 -41q-176 152 -251 316.5t-75 353.5z" />
<glyph unicode=")" horiz-adv-x="702" d="M-164 -389q90 74 193.5 188.5t190.5 263t145.5 328.5t58.5 385q0 88 -9 164t-33 149.5t-65 149.5t-104 162l53 37q176 -160 253 -325t77 -357q0 -213 -63.5 -396.5t-166 -333t-230.5 -265t-259 -191.5z" />
<glyph unicode="*" horiz-adv-x="952" d="M295 1007.5q-6 22.5 0 39.5l256 88q31 -18 31 -50l-207 -176q-16 2 -32.5 17.5t-29 37t-18.5 44zM295 1297.5q4 21.5 16.5 43t29.5 38t36 20.5l205 -178q0 -39 -29 -54l-256 95q-6 14 -2 35.5zM567 1509q8 14 29.5 20.5t46.5 6.5t47.5 -6t32.5 -21l-45 -266 q-31 -20 -64 0zM569 795l47 266q33 16 66 0l43 -264q-10 -14 -30.5 -19.5t-45.5 -5.5t-47 5t-33 18zM713 1217l205 182q16 -2 32.5 -17.5t28.5 -37t17 -44t-1 -40.5l-254 -97q-29 20 -28 54zM715 1081q0 33 26 52l252 -86q8 -14 3 -37t-17 -44.5t-28.5 -38t-35.5 -18.5z" />
<glyph unicode="+" d="M76 649v109h405v430h109v-430h407v-109h-407v-440h-109v440h-405z" />
<glyph unicode="," horiz-adv-x="579" d="M-74 -305q43 14 84 44t75 66.5t55.5 80.5t27.5 87q-20 23 -56 45.5t-65 32.5q-2 39 14.5 76t41 65.5t52 46t50.5 19.5q70 -10 104.5 -49t34.5 -117t-34 -151.5t-88 -135t-124.5 -106.5t-144.5 -66z" />
<glyph unicode="-" horiz-adv-x="870" d="M145 512l29 129h578l-27 -129h-580z" />
<glyph unicode="." horiz-adv-x="555" d="M59 117q0 61 39 98t101 37q63 0 102 -37t39 -98q0 -59 -39 -96t-102 -37q-61 0 -100.5 37t-39.5 96z" />
<glyph unicode="/" horiz-adv-x="704" d="M-76 -227l746 1685l86 -37l-748 -1687z" />
<glyph unicode="0" d="M39 416q0 121 18.5 245.5t54 240.5t90 217.5t127 177t164 118.5t199.5 43q121 0 196 -44t117 -110.5t56 -142.5t14 -139q0 -182 -41 -367.5t-122 -337t-203.5 -247t-286.5 -95.5q-121 0 -196.5 44t-116.5 111t-55.5 143.5t-14.5 142.5zM236 408q0 -59 9 -121t31.5 -112 t61.5 -83t98 -33q111 0 194 88.5t138 228.5t83 311t28 337q0 61 -9.5 122.5t-32 112t-61.5 82t-98 33.5q-113 -2 -196 -93t-138 -232.5t-81.5 -311t-26.5 -329.5z" />
<glyph unicode="1" d="M176 0l12 59q55 25 111.5 41.5t114.5 28.5l213 1006l39 120q-59 -23 -127 -32t-133 -6v49q100 31 210.5 75.5t210.5 116.5h52l-281 -1329q100 -23 188 -70l-12 -59h-598z" />
<glyph unicode="2" d="M-12 0l14 66l148 122l181 163q95 89 189 191.5t169 208t122 212t47 204.5q0 82 -50 133.5t-149 51.5q-86 0 -155 -25l-131 -293h-51q-10 59 -17.5 139t-5.5 152q86 59 180 96t211 37q102 0 171 -22.5t111 -62.5t60.5 -92t18.5 -112q0 -119 -71 -244.5t-178.5 -247.5 t-234.5 -233.5t-237 -199.5l-103 -80v-8l115 12h352l150 229h51q-2 -49 -8 -103t-15.5 -107.5t-19.5 -101.5l-18 -85h-846z" />
<glyph unicode="3" d="M12 80l94 184h41l27 -37l35 -47l36 -49l29 -43q20 -4 55.5 -10t88.5 -6q84 0 149.5 33.5t109.5 89t66.5 126t20.5 144.5q2 125 -66.5 177t-193.5 52h-123l2 51l434 465l92 72v8l-110 -12h-332l-125 -209h-51q2 88 9 189.5t24 175.5h790l-2 -64l-422 -457l-121 -90v-4 l72 15q166 -14 243 -98.5t77 -233.5q0 -104 -34 -200.5t-105.5 -168.5t-184.5 -115t-272 -43q-47 0 -99.5 7.5t-100.5 21.5t-88 32.5t-65 43.5z" />
<glyph unicode="4" d="M-35 395l10 47l973 1016h56l-203 -956h262l-25 -107h-260l-61 -286q35 -8 71.5 -20.5t71.5 -29.5l-10 -59h-531l11 59q53 16 102 28.5t98 21.5l60 286h-625zM129 487l150 15h335l111 526l59 148h-6l-108 -148l-445 -473z" />
<glyph unicode="5" d="M31 80l96 184h41q10 -14 23 -37l28 -47l29 -49q14 -25 26 -43q20 -4 45 -10t62 -6q98 0 170 33.5t118 91t68.5 131t22.5 151.5q0 135 -89 192.5t-249 53.5l-146 -2l232 711h489l111 112h51q-6 -31 -17.5 -68.5t-24.5 -75.5t-28.5 -73t-27.5 -57h-506l-131 -395h100 q197 0 304.5 -88.5t107.5 -258.5q0 -123 -41 -225t-115.5 -176t-180 -114t-237.5 -40q-49 0 -97 7.5t-93 21.5t-81 33.5t-60 42.5z" />
<glyph unicode="6" d="M80 375q0 166 67.5 337t194.5 321.5t308 266t409 170.5l8 -61q-270 -98 -453.5 -271t-275.5 -433q49 59 140 103t202 44q178 0 261 -86t83 -225q0 -96 -34 -196.5t-103.5 -182.5t-176 -134.5t-251.5 -52.5q-72 0 -140.5 19.5t-122 67t-85 123t-31.5 190.5zM276 391 q0 -63 9.5 -121.5t34 -102.5t66.5 -70.5t106 -26.5q88 0 151.5 46t104 114.5t60 147t19.5 144.5q0 109 -50 166t-173 57q-92 0 -170 -47t-125 -108q-6 -16 -12 -44t-10 -56.5t-7.5 -56t-3.5 -42.5z" />
<glyph unicode="7" d="M150 0q127 293 294.5 591t395.5 597l82 98l-109 -10h-424l-125 -209h-51q4 88 12 190.5t23 176.5h848v-60q-145 -176 -254 -341t-195 -330.5t-155.5 -339t-137.5 -363.5h-204z" />
<glyph unicode="8" d="M25 279q0 152 107.5 266t311.5 174q-100 72 -150 149.5t-50 178.5q0 86 31.5 161.5t91 131t145.5 87t195 31.5q174 0 258 -75.5t84 -202.5q0 -61 -26 -121t-73 -113t-114.5 -96t-149.5 -72q57 -39 102.5 -76.5t77 -82t49 -97.5t17.5 -123q0 -78 -33 -154.5t-98.5 -136 t-164.5 -96.5t-230 -37q-180 0 -280.5 83.5t-100.5 220.5zM201 289q0 -98 61.5 -158.5t165.5 -60.5q88 0 150.5 27.5t101.5 70.5t57.5 96.5t18.5 104.5q0 53 -20.5 96t-55.5 81t-84 72.5t-107 69.5q-90 -47 -146 -100t-88 -106.5t-43 -103.5t-11 -89zM420 1081 q0 -41 19.5 -79.5t50 -74.5t70.5 -67t83 -55q123 92 177 184t52 178q2 82 -43 138.5t-153 56.5q-61 0 -109.5 -22.5t-81 -61.5t-49 -90.5t-16.5 -106.5z" />
<glyph unicode="9" d="M80 35q272 98 454.5 271t274.5 433q-49 -59 -139 -103t-201 -44q-180 0 -262 86t-82 227q0 96 34 196.5t103.5 182.5t175 134t250.5 52q72 0 140.5 -19t122 -66.5t86 -124t32.5 -189.5q0 -166 -67.5 -337t-195.5 -321.5t-309.5 -266t-408.5 -171.5zM322 924 q0 -109 49 -167.5t172 -58.5q92 0 170 48.5t125 109.5q6 16 12 44t11 56.5t8 55t3 43.5q0 63 -10 121.5t-34.5 102.5t-66.5 69.5t-106 25.5q-88 0 -151.5 -46t-103.5 -113.5t-59 -146t-19 -144.5z" />
<glyph unicode=":" horiz-adv-x="661" d="M155 117q0 61 39 98t101 37q63 0 102 -37t39 -98q0 -59 -39 -96t-102 -37q-61 0 -100.5 37t-39.5 96zM258 905q0 61 39 98t101 37q63 0 102 -37t39 -98q0 -59 -39 -96t-102 -37q-61 0 -100.5 37t-39.5 96z" />
<glyph unicode=";" horiz-adv-x="638" d="M-6 -305q43 14 84 44t75 66.5t55.5 80.5t27.5 87q-20 23 -56 45.5t-65 32.5q-2 39 14.5 76t41 65.5t52 46t50.5 19.5q70 -10 104.5 -49t34.5 -117t-34 -151.5t-88 -135t-124.5 -106.5t-144.5 -66zM247 905q0 61 39 98t101 37q63 0 102 -37t39 -98q0 -59 -39 -96t-102 -37 q-61 0 -100.5 37t-39.5 96z" />
<glyph unicode="&#x3c;" d="M90 664v63l789 481l51 -90l-512 -309l-176 -82l174 -63l542 -320l-81 -133z" />
<glyph unicode="=" d="M27 485v109h921v-109h-921zM27 813v109h921v-109h-921z" />
<glyph unicode="&#x3e;" d="M115 1075l82 133l786 -452v-64l-788 -481l-50 90l512 309l174 82l-172 64z" />
<glyph unicode="?" horiz-adv-x="1011" d="M242 117q0 61 38.5 98t100.5 37q63 0 102 -37t39 -98q0 -59 -39 -96t-102 -37q-61 0 -100 37t-39 96zM324 1289q0 42 4 83q88 47 177 66.5t193 19.5q164 0 252 -72.5t88 -201.5q0 -102 -43 -177t-108.5 -135.5t-143 -112.5t-147.5 -108.5t-121 -124t-61 -157.5h-41 q-8 106 23.5 186t82.5 144.5t114.5 118.5t118 108.5t91.5 113t39 134.5q-2 92 -54.5 135t-136.5 43q-66 0 -109.5 -10.5t-64.5 -26.5l-80 -252h-51l-9 65q-5 37 -9 78t-4 83z" />
<glyph unicode="@" horiz-adv-x="2062" d="M164 483q0 223 73.5 403.5t201.5 307.5t300 195.5t369 68.5q184 0 343 -54t275.5 -155.5t181 -248t64.5 -332.5q0 -133 -45 -252t-124 -209t-181 -143.5t-215 -53.5q-61 0 -104 19.5t-66 63.5t-24 113.5t22 168.5h-8q-23 -66 -63 -130.5t-91 -116.5t-109.5 -85 t-117.5 -33q-123 0 -189.5 85t-66.5 227q0 131 44 255.5t118.5 223t173 158t207.5 59.5q74 0 116.5 -12t91.5 -35q76 35 154 33l-104 -586q-12 -68 -17.5 -123t-0.5 -95t22.5 -61.5t52.5 -21.5q68 0 139.5 38t132 109.5t98 174t37.5 229.5q0 156 -58 282.5t-161.5 215.5 t-242 137.5t-295.5 48.5q-188 0 -339 -66.5t-257.5 -182.5t-163.5 -272.5t-57 -334.5q0 -182 59 -322.5t166.5 -238t256 -147.5t327.5 -50q59 0 134.5 14.5t137.5 42.5l33 -90q-72 -41 -158 -57.5t-190 -16.5q-176 0 -336 53.5t-282 160t-193.5 266t-71.5 372.5zM774 346 q0 -98 31 -153.5t117 -55.5q39 0 84 38t89 99.5t86 138t74 154.5l52 305q-33 20 -67 30.5t-87 8.5q-78 2 -147.5 -52t-120.5 -138t-81 -183.5t-30 -191.5z" />
<glyph unicode="A" horiz-adv-x="1380" d="M-100 0l12 59q80 33 160 50l809 1349h53l231 -1349q37 -8 75 -19.5t69 -30.5l-11 -59h-520l10 59q92 35 181 50l-62 374h-481l-219 -374q88 -12 164 -50l-11 -59h-460zM485 590h406l-66 434l-4 176h-4l-82 -180z" />
<glyph unicode="B" horiz-adv-x="1239" d="M-41 0l10 59q92 39 181 50l256 1214q-41 8 -80 21.5t-78 29.5l14 60h217q76 0 152 6t190 6q82 0 156 -14.5t129 -45t88 -81t33 -123.5q0 -72 -21.5 -136.5t-66.5 -119t-114 -95t-161 -65.5v-8q47 -4 96.5 -20.5t89.5 -48.5t64.5 -80t24.5 -113q0 -109 -41 -201 t-122 -160.5t-204 -107.5t-287 -39q-72 0 -158.5 6t-170.5 6h-197zM334 111q27 -8 65 -14q22 -3 60 -3h20h21.5h23.5h13q77 0 147 23q76 25 133 72t91 115.5t34 156.5q0 68 -23.5 110.5t-67.5 65t-105.5 31t-137.5 8.5h-155zM475 782h103q35 0 83 3t82 8q162 57 224.5 154 t62.5 212q0 80 -57.5 130t-192.5 50q-66 0 -111.5 -3t-76.5 -7z" />
<glyph unicode="C" horiz-adv-x="1300" d="M135 528q0 209 59.5 380t169 293t266 189.5t353.5 67.5q135 0 229.5 -18.5t157.5 -50.5q-6 -33 -17.5 -77t-26.5 -93.5t-32 -96.5l-30 -86h-54l-43 295q-27 10 -81 15.5t-105 5.5q-135 0 -250 -52.5t-198.5 -155t-131 -256t-47.5 -356.5q0 -127 44 -214t110.5 -140 t144.5 -76q68 -20 130 -20h6h12h19q57 0 99 10q48 12 70 27l152 254h51q0 -57 -11.5 -144.5t-33.5 -169.5q-41 -23 -88 -39t-98.5 -26t-100.5 -14.5t-92 -4.5q-174 0 -295 49.5t-195.5 129t-108.5 178t-34 196.5z" />
<glyph unicode="D" horiz-adv-x="1437" d="M-41 0l10 59q84 35 181 50l256 1214q-45 10 -85 23.5t-73 27.5l14 60h207q35 0 83 2t98 5l98 6q47 3 77 3q164 0 279 -39t185.5 -105.5t102 -157.5t31.5 -196q0 -104 -17 -217.5t-58 -221t-110 -204t-172 -169t-244.5 -115.5t-325.5 -43q-31 0 -73 3t-89 6l-94 6 q-47 3 -86 3h-195zM330 94q20 -2 50 -3l59 -2q30 -1 54 -2h14q13 0 21 1h10q186 0 313 76q130 78 209 204t111.5 282.5t32.5 314.5q0 80 -18.5 149.5t-65.5 119.5t-128 79.5t-208 29.5q-53 0 -108 -2t-84 -6z" />
<glyph unicode="E" horiz-adv-x="1171" d="M-41 0l10 59q84 35 181 50l256 1214q-41 10 -80 22.5t-78 28.5l14 60h969q-16 -82 -39 -166t-53 -166h-54l-34 225h-449l-113 -543h332l113 152h51q-16 -102 -37.5 -205.5t-50.5 -208.5h-51l-47 156h-334l-119 -572h469l154 246h51q-4 -80 -16.5 -171t-34.5 -181h-1010z " />
<glyph unicode="F" horiz-adv-x="1095" d="M-41 0l10 59q37 16 78 28.5t82 21.5l256 1214q-41 12 -76 24.5t-61 26.5l14 60h961q-18 -80 -41 -164t-54 -168h-53l-35 225h-458l-123 -584h358l111 152h51q-10 -92 -33.5 -206t-52.5 -208h-51l-45 158h-361l-110 -530q86 -12 163 -50l-10 -59h-520z" />
<glyph unicode="G" horiz-adv-x="1390" d="M135 530q0 207 58.5 378t169 293t269.5 189.5t359 67.5q135 0 231.5 -17.5t159.5 -51.5q-6 -31 -17 -76t-27 -94l-31 -98q-16 -48 -31 -85h-53l-43 295q-37 10 -92.5 15.5t-106.5 5.5q-158 0 -275.5 -64.5t-195.5 -175.5t-117 -259t-39 -318q0 -145 41 -234.5 t101.5 -138.5t129.5 -66q57 -14 106 -14h7h13h11q75 0 140 24q70 27 96 48l91 413q-53 4 -98.5 18.5t-88.5 30.5l15 60h501l-12 -60q-23 -14 -55.5 -26t-83.5 -23l-99 -469q-45 -27 -102 -49t-117.5 -38.5t-121 -26t-111.5 -9.5q-272 0 -427 144.5t-155 410.5z" />
<glyph unicode="H" horiz-adv-x="1472" d="M-41 0l10 59q45 20 90 31.5t91 18.5l256 1214q-92 18 -158 51l14 60h518l-12 -60q-35 -18 -80 -30.5t-86 -20.5l-113 -535h644l114 535q-41 10 -76.5 21.5t-68.5 29.5l14 60h518l-12 -60q-41 -20 -87 -31.5t-91 -19.5l-258 -1214q92 -16 155 -50l-10 -59h-518l10 59 q39 16 81 28.5t85 21.5l121 573h-645l-119 -573q37 -8 74 -20.5t67 -29.5l-10 -59h-518z" />
<glyph unicode="I" horiz-adv-x="702" d="M-2 0l10 59q90 37 176 50l256 1214q-41 8 -77.5 21.5t-75.5 29.5l14 60h524l-12 -60q-41 -16 -88 -29.5t-88 -21.5l-256 -1214q41 -8 81 -20.5t70 -29.5l-10 -59h-524z" />
<glyph unicode="J" horiz-adv-x="677" d="M-66 -297q41 33 75 66.5t62.5 84t53.5 122t47 178.5l246 1169q-88 20 -152 51l13 60h522l-10 -60q-41 -18 -88.5 -30.5t-88.5 -20.5l-241 -1147q-31 -141 -83 -233.5t-112.5 -148.5t-121 -83.5t-107.5 -38.5z" />
<glyph unicode="K" horiz-adv-x="1304" d="M-41 0l10 59q92 37 181 50l256 1214q-45 8 -85 20.5t-73 30.5l14 60h518l-12 -60q-70 -33 -166 -51l-119 -567l123 28l492 539q-41 10 -74 21.5t-63 29.5l14 60h465l-15 -60q-37 -18 -82 -30.5t-83 -20.5l-531 -553l85 -149l102 -170l113 -179l116 -172l88 -49l-10 -51 h-248l-60 49q-92 141 -178 305t-162 332h-108l-121 -577q84 -16 141 -50l-10 -59h-518z" />
<glyph unicode="L" horiz-adv-x="1101" d="M-41 0l10 59q55 23 98.5 33t82.5 17l256 1214q-96 18 -158 51l14 60h561l-14 -60q-51 -18 -103.5 -31.5t-103.5 -19.5l-256 -1217h469l191 330h53q-4 -43 -10.5 -99t-15.5 -116.5t-20.5 -118t-23.5 -102.5h-1030z" />
<glyph unicode="M" horiz-adv-x="1755" d="M-41 0l10 59q82 35 178 52l256 1212q-41 8 -81.5 21.5t-75.5 29.5l12 60h426l145 -936l25 -211h2l107 215l577 932h377l-14 -60q-80 -35 -166 -51l-258 -1217q41 -8 77.5 -19t65.5 -28l-10 -59h-508l10 59q45 16 88 27.5t90 22.5l193 921l61 240h-16l-111 -219 l-647 -1051h-53l-178 1051l-23 239h-18l-54 -260l-194 -921q37 -8 73.5 -20.5t71.5 -29.5l-12 -59h-426z" />
<glyph unicode="N" horiz-adv-x="1480" d="M-41 0l10 59q88 53 185 72l249 1174q-39 16 -74.5 34.5t-64.5 36.5l10 58h340l441 -973l61 -176h8l33 176l176 831q-82 35 -141 82l12 60h436l-12 -60q-41 -29 -90 -49t-94 -33l-281 -1317h-110l-514 1129l-43 160h-7l-20 -160l-205 -973q37 -10 74 -28.5t68 -43.5 l-13 -59h-434z" />
<glyph unicode="O" horiz-adv-x="1495" d="M135 569q0 186 56.5 348t163 282t256 189.5t337.5 69.5q150 0 252.5 -49t164.5 -129t90 -183.5t28 -213.5q0 -164 -46 -327t-142.5 -292t-243 -209t-346.5 -80q-147 0 -255 48.5t-177.5 129t-103.5 188t-34 228.5zM354 567q0 -113 30 -203t82 -153.5t123 -96.5 q67 -32 145 -32h9h8q144 0 241 73q99 75 159.5 192.5t86.5 260t26 277.5q0 104 -23.5 190t-71 147.5t-116 95.5t-158.5 34q-141 0 -243.5 -74t-169 -188.5t-97.5 -254t-31 -268.5z" />
<glyph unicode="P" horiz-adv-x="1198" d="M-41 0l10 59q47 20 91 30.5t90 19.5l256 1214q-45 8 -84 21.5t-74 29.5l14 60h184q82 0 179.5 8t185.5 8q98 0 181 -19.5t141.5 -61.5t91 -104.5t32.5 -148.5q0 -121 -44 -223t-126.5 -178t-199.5 -119t-260 -43h-34q-24 0 -51.5 1t-55 3t-46.5 4l-94 -452 q53 -6 99.5 -19.5t84.5 -30.5l-10 -59h-561zM465 670q10 -2 29.5 -4t41 -3t41 -2.5t31.5 -1.5q213 0 321.5 122t108.5 333q0 51 -11 93t-43 73t-86 47t-140 16q-49 0 -87 -3t-67 -7z" />
<glyph unicode="Q" horiz-adv-x="1536" d="M135 569q0 186 56.5 348t163 282t256 189.5t337.5 69.5q150 0 252.5 -49t164.5 -129t90 -183.5t28 -213.5q0 -164 -46 -327t-142.5 -292t-243 -209t-346.5 -80q-147 0 -255 48.5t-177.5 129t-103.5 188t-34 228.5zM338 -135l72 41q48 6 94 6t91 -6q89 -12 174 -37 t171 -52.5t176 -44.5q81 -16 168 -16h21q98 2 211 37l4 -29q-98 -74 -195 -125q-93 -50 -189 -51h-8q-84 0 -169 31t-180 74l-204 90q-109 47 -237 82zM354 567q0 -113 30 -203t82 -153.5t123 -96.5q67 -32 145 -32h9h8q144 0 241 73q99 75 159.5 192.5t86.5 260t26 277.5 q0 104 -23.5 190t-71 147.5t-116 95.5t-158.5 34q-141 0 -243.5 -74t-169 -188.5t-97.5 -254t-31 -268.5z" />
<glyph unicode="R" horiz-adv-x="1284" d="M-41 0l10 59q49 20 93 30.5t88 19.5l256 1214q-49 12 -89.5 24.5t-68.5 26.5l14 60h180q82 0 181.5 8t189.5 8q203 0 302 -87t99 -247q0 -80 -27.5 -153.5t-77.5 -133t-123 -103.5t-165 -67q59 -139 130 -276l147 -272l96 -60l-10 -51h-234l-69 57q-43 72 -77 141.5 t-61.5 139.5t-49 143.5t-40.5 153.5h-196l-111 -526q90 -16 162 -50l-10 -59h-539zM475 723h146h11q101 0 172 33q75 35 121 93t67.5 132t21.5 158q0 105 -63 154q-65 50 -206 50q-47 0 -80.5 -3t-62.5 -7z" />
<glyph unicode="S" horiz-adv-x="1079" d="M45 72q8 37 23.5 87t33.5 101l37 99q18 48 35 83h53l21 -301q23 -18 76 -40q47 -19 97 -19h5h10h19q57 0 112 10q63 12 114.5 43t82.5 81t31 126q0 84 -40 141.5t-99.5 101.5t-128 84t-128 89t-99.5 115.5t-40 164.5q0 94 34 171t100.5 132.5t162.5 86t219 30.5 q125 0 223.5 -19.5t153.5 -47.5q-8 -35 -24 -81l-31 -96q-16 -49 -35 -95l-33 -81h-53l-25 281q-35 16 -89 24.5t-118 8.5q-61 0 -115.5 -14.5t-94 -44t-62 -74.5t-22.5 -107q0 -82 39.5 -136t99 -97t128 -83t128 -91.5t99.5 -124t40 -179.5q0 -96 -38 -173.5t-108.5 -134 t-174 -87.5t-234.5 -31q-66 0 -126 8.5t-110.5 22.5t-89 31.5t-59.5 34.5z" />
<glyph unicode="T" horiz-adv-x="1249" d="M180 1034q2 41 9.5 93.5t15.5 106.5t17 106.5t20 93.5h1188q-8 -41 -20.5 -92.5t-27 -105.5t-30 -106.5t-29.5 -95.5h-53l-43 293h-314l-258 -1218q49 -10 93.5 -20.5t82.5 -29.5l-10 -59h-575l10 59q49 18 97 29.5t106 20.5l258 1218h-314l-170 -293h-53z" />
<glyph unicode="U" horiz-adv-x="1363" d="M183 364q0 64 16 134l176 825q-41 8 -84 21.5t-74 29.5l12 60h521l-13 -60q-80 -35 -166 -51l-174 -813q-15 -75 -15 -134q0 -27 3 -51q10 -77 49 -126t102.5 -72t147.5 -23q166 0 265.5 92.5t140.5 290.5l174 818q-90 31 -148 69l12 60h439l-15 -60q-35 -23 -82 -41 t-92 -28l-174 -822q-57 -268 -201.5 -384.5t-371.5 -116.5q-135 0 -228.5 38.5t-146.5 107.5t-68 164q-5 35 -5 72z" />
<glyph unicode="V" horiz-adv-x="1380" d="M195 1374l12 60h538l-12 -60q-37 -16 -84 -28.5t-94 -22.5l150 -936l10 -164h4l76 168l503 932q-47 10 -88 22.5t-77 28.5l14 60h455l-13 -60q-35 -16 -72.5 -28.5t-84.5 -22.5l-742 -1323l-112 -25l-238 1348q-47 10 -83 23.5t-62 27.5z" />
<glyph unicode="W" horiz-adv-x="1894" d="M195 1374l12 60h528l-12 -60q-41 -16 -85 -28.5t-93 -22.5l26 -829l-6 -267h4l125 271l477 936h72l86 -936l10 -267h4l109 271l365 821q-41 8 -85 20.5t-79 30.5l12 60h451l-13 -60q-39 -20 -79 -31l-78 -20l-623 -1323l-131 -25l-94 1115l-555 -1090l-127 -25l-76 1348 q-80 18 -145 51z" />
<glyph unicode="X" horiz-adv-x="1353" d="M-82 0l12 59q41 20 82 30.5t82 19.5l537 612l-254 602q-41 10 -78 21.5t-74 29.5l13 60h544l-12 -60q-63 -29 -168 -51l182 -463l383 463l-77 20q-39 10 -80 31l12 60h471l-14 -60q-37 -16 -79 -28.5t-85 -22.5l-488 -555l281 -659q94 -16 154 -50l-11 -59h-544l10 59 q78 37 166 50l-207 514l-430 -517q41 -6 81 -15t74 -32l-12 -59h-471z" />
<glyph unicode="Y" horiz-adv-x="1300" d="M188 1374l15 60h540l-12 -60l-74 -26q-41 -14 -94 -25l207 -602l434 602q-43 10 -81 22.5t-70 28.5l12 60h457l-15 -60q-41 -20 -82 -31.5t-82 -19.5l-538 -713l-107 -501q76 -10 144 -50l-11 -59h-520l11 59q82 37 180 50l106 499l-264 715q-45 8 -83 21.5t-73 29.5z " />
<glyph unicode="Z" horiz-adv-x="1234" d="M10 0v104l1077 1223h-595l-187 -287h-53q2 43 9 94.5t15.5 104.5t17.5 103.5t19 91.5h1018v-107l-1077 -1221h643l186 287h54q-4 -43 -10.5 -94t-14.5 -103.5t-17.5 -103.5t-19.5 -92h-1065z" />
<glyph unicode="[" horiz-adv-x="628" d="M-14 -471l403 1905h387l-18 -88h-213l-369 -1729h213l-16 -88h-387z" />
<glyph unicode="\" horiz-adv-x="782" d="M-96 1413l86 45l848 -1677l-84 -47z" />
<glyph unicode="]" horiz-adv-x="628" d="M-117 -471l19 88h211l368 1729h-213l17 88h387l-404 -1905h-385z" />
<glyph unicode="^" horiz-adv-x="1062" d="M215 889l381 567h68l348 -567h-183l-180 309l-47 137l-67 -139l-203 -307h-117z" />
<glyph unicode="_" horiz-adv-x="839" d="M-92 -293h840v-108h-840v108z" />
<glyph unicode="`" horiz-adv-x="661" d="M281 1485v41q12 10 39.5 19t60.5 15.5t62.5 9.5t45.5 1l177 -357l-45 -34z" />
<glyph unicode="a" horiz-adv-x="1095" d="M88 285q0 143 41 279t119 242.5t189.5 171t252.5 64.5q51 0 82 -9t74 -27q82 43 172 43l-184 -936h149v-52q-41 -33 -98.5 -53t-112.5 -20q-59 0 -84.5 25.5t-25.5 54.5q0 37 14 120.5t43 212.5h-8q-27 -74 -67 -149.5t-92 -137t-115.5 -100.5t-135.5 -39 q-213 0 -213 310zM272 319q0 -104 26 -160.5t89 -56.5q55 0 110.5 52.5t104.5 126t88 153.5t62 133l65 351q-29 20 -55.5 28t-73.5 8q-94 0 -171 -58t-131 -150.5t-84 -205t-30 -221.5z" />
<glyph unicode="b" horiz-adv-x="1077" d="M74 61l262 1336l-143 18v47q33 12 71.5 24.5t78.5 24t79 18.5t72 11l43 -22l-181 -854h11q37 74 81 143.5t94 122.5t105 86t117 33q109 0 172 -76t63 -236q0 -158 -44 -296t-123.5 -241.5t-192.5 -164t-250 -60.5q-100 0 -187 26t-128 60zM260 106q31 -20 77 -31.5 t91 -11.5q80 0 150.5 55.5t124 145.5t83.5 204q29 107 29 216v14v12q0 91 -31 149q-32 63 -106 63q-53 0 -104.5 -47.5t-95.5 -114t-80 -138.5l-60 -122z" />
<glyph unicode="c" horiz-adv-x="876" d="M82 334q0 147 47 277t128 227.5t190.5 154t234.5 56.5q78 0 127 -12.5t74 -35.5q0 -3 0.5 -6t-0.5 -7q0 -17 -3 -37q-5 -28 -16.5 -54.5t-29 -49t-35.5 -30.5l-140 144q-70 -2 -138 -43t-122.5 -117t-88.5 -184q-32 -101 -32 -227q0 -8 1 -15v-9q0 -134 56 -198 q58 -66 159 -66q43 0 80.5 12.5t70.5 31t60 38.5l47 37l30 -39q-23 -39 -57.5 -75.5t-81.5 -66.5t-105.5 -47.5t-127.5 -17.5q-152 0 -240 96.5t-88 262.5z" />
<glyph unicode="d" horiz-adv-x="1095" d="M92 287q0 145 41 281.5t119 241.5t188.5 168.5t251.5 63.5q53 0 80 -7t68 -25l78 387l-144 18v51q31 12 68 23t76.5 21t80.5 18t76 12l43 -16l-280 -1411h149v-52q-41 -33 -98.5 -53t-112.5 -20q-59 0 -84.5 25.5t-25.5 54.5q0 37 14 120.5t43 212.5h-8 q-27 -74 -68 -149.5t-93 -137t-114.5 -100.5t-134.5 -39q-213 0 -213 312zM276 319q0 -104 26 -160.5t89 -56.5q55 0 110.5 52.5t104.5 126t88 153.5t62 133l65 351q-31 20 -56.5 27t-72.5 9q-98 -2 -176 -60t-131 -149.5t-81 -204t-28 -221.5z" />
<glyph unicode="e" horiz-adv-x="929" d="M82 342q0 145 41 274t114.5 225.5t179 152t234.5 55.5q98 0 169 -50.5t71 -148.5q0 -145 -144.5 -229t-465.5 -109q-8 -35 -11.5 -67.5t-3.5 -63.5q0 -123 62.5 -201t183.5 -78q39 0 77 12.5t71.5 31t61.5 38.5l48 37l33 -39q-18 -39 -53 -75.5t-82 -66.5t-106.5 -47.5 t-127.5 -17.5q-170 0 -261 97.5t-91 269.5zM295 600q199 6 309.5 68.5t110.5 173.5q0 43 -25.5 80t-101.5 39q-88 -2 -164 -83t-129 -278z" />
<glyph unicode="f" horiz-adv-x="608" d="M-106 -389q25 12 59.5 44t68 85t63.5 130t46 179l133 873h-149v53q41 23 87 40t87 27l14 72q27 127 73 210t107.5 131t135 66.5t157.5 18.5q35 0 83 -8t81 -25q-4 -45 -21.5 -93t-58.5 -83l-155 127q-37 -10 -68 -22.5t-58.5 -46t-52 -95t-47.5 -168.5l-20 -102h227 q3 -13 3 -26q0 -38 -23 -76h-228l-131 -834q-23 -145 -76 -241.5t-113.5 -156t-117.5 -88t-88 -36.5z" />
<glyph unicode="g" horiz-adv-x="1001" d="M-113 -195q0 57 26 106.5t69 93.5t98 81t115 70q-31 16 -50.5 43.5t-19.5 62.5q0 31 20.5 64.5t48 64.5t55 53.5t42.5 32.5q-25 6 -50.5 22.5t-48 43t-37 61.5t-14.5 78q0 80 34 147.5t93.5 115.5t137 76t167.5 28q98 0 161 -25t97 -53q18 16 49 32.5t66 31t72 26.5 l69 22q6 -10 11 -30q3 -16 3 -36q0 -30 -8 -60q-7 -26 -22 -46l-211 15q6 -18 12.5 -42t6.5 -53q0 -82 -34 -151.5t-93.5 -119.5t-138 -78.5t-167.5 -28.5q-35 0 -56 1t-48 7q-18 -20 -50 -48t-32 -61q0 -35 45 -53t114 -34l148 -33q80 -17 148.5 -46.5t113.5 -77t45 -124.5 q0 -96 -54 -173t-143 -131.5t-203 -84t-230 -29.5q-94 0 -162 19.5t-111 53t-63.5 76.5t-20.5 90zM72 -150q-2 -92 70.5 -144t195.5 -52q63 0 125.5 18.5t113 52t82 84t31.5 113.5q0 61 -50 95t-122 54.5t-148.5 34t-131.5 31.5q-96 -70 -132 -145q-34 -72 -34 -135v-7z M307 686q0 -78 50.5 -114.5t107.5 -36.5q61 0 105 21.5t74 58t44 83.5t14 99q0 76 -35.5 123t-109.5 47q-59 0 -105 -22.5t-79 -60.5t-49.5 -89.5t-16.5 -108.5z" />
<glyph unicode="h" horiz-adv-x="1112" d="M70 0l280 1397l-139 18v47q31 12 68.5 25.5t78.5 25t80 18.5t74 9l43 -18l-184 -860h10q39 82 88 152.5t103.5 122.5t113.5 82t121 30q94 0 136 -54.5t42 -134.5q0 -55 -10 -118.5t-25 -123.5l-116 -503h151v-54q-41 -33 -98.5 -53t-114.5 -20q-59 0 -81.5 24.5 t-22.5 53.5q0 37 10 82l20 94l74 342q14 63 25.5 118.5t11.5 106.5q0 47 -20.5 80t-55.5 33q-63 0 -122.5 -45.5t-110.5 -108.5t-90 -132t-60 -114l-108 -522h-172z" />
<glyph unicode="i" horiz-adv-x="567" d="M111 76q0 41 6 80t16 86l143 661l-131 21v51q31 12 70 25.5t80 23.5t78 17.5t65 7.5l37 -25l-192 -909h151v-54q-43 -33 -100.5 -53t-112.5 -20q-59 0 -84.5 26.5t-25.5 61.5zM309 1378q0 53 33 84t86 31q57 0 90 -30.5t33 -84.5q0 -51 -33 -79.5t-90 -28.5 q-53 0 -86 28.5t-33 79.5z" />
<glyph unicode="j" horiz-adv-x="563" d="M-150 -389q25 12 58 42t65.5 82t64.5 130t54 184l180 856l-122 19v51q63 29 141 51.5t141 22.5l41 -25l-199 -936q-31 -145 -85 -241.5t-113.5 -156t-113.5 -88t-87 -36.5zM299 1378q0 53 33 84t86 31q57 0 90 -30.5t33 -84.5q0 -51 -33 -79.5t-90 -28.5q-53 0 -86 28.5 t-33 79.5z" />
<glyph unicode="k" horiz-adv-x="985" d="M70 0l278 1397l-143 18v51q59 27 144 48.5t157 25.5l43 -22l-193 -957h60q43 27 89 66t88 80t74.5 78.5t51.5 64.5q2 14 3 38.5t0 50.5l-2 49q-1 24 -3 36q76 27 147 27q74 0 123 -27q-27 -68 -82 -135.5t-118.5 -125.5t-125 -106.5t-98.5 -74.5q14 -39 46 -101.5 t70 -130t80 -131t77 -104.5h129v-54q-41 -33 -89.5 -53t-101.5 -20q-49 0 -88 22.5t-74 81.5q-66 111 -110 210l-86 185l-74 21l-96 -508h-176z" />
<glyph unicode="l" horiz-adv-x="567" d="M94 76q0 41 6 80t17 86l239 1155l-145 18v51q29 12 66.5 25t79.5 24t83 18t74 7l41 -22l-283 -1403h150v-54q-41 -33 -99.5 -53t-113.5 -20q-59 0 -87 26.5t-28 61.5z" />
<glyph unicode="m" horiz-adv-x="1638" d="M88 0l191 905l-125 19v51q68 35 146.5 54.5t135.5 19.5l43 -25l-90 -362h8q25 57 69 124.5t101.5 126t123 97.5t130.5 39q25 0 49.5 -8.5t43 -30t30.5 -58.5t12 -94q0 -45 -9 -96t-21 -100q31 70 78 138t102 123.5t117.5 90.5t128.5 35q78 0 117.5 -49.5t39.5 -135.5 q0 -66 -12 -124l-27 -126l-133 -499h152v-54q-41 -33 -100.5 -53t-112.5 -20q-59 0 -82 26.5t-23 63.5q0 59 29 164l96 372q12 49 23.5 102.5t13.5 88.5q-2 53 -17.5 85t-62.5 32q-49 0 -100 -39t-97 -98.5t-84 -129t-63 -131.5l-125 -524h-163l129 575q14 63 24 122t10 122 q0 47 -16 75t-57 28t-90.5 -39t-96.5 -98.5t-87 -129t-64 -133.5l-109 -522h-176z" />
<glyph unicode="n" horiz-adv-x="1130" d="M88 0l180 905l-125 19l4 51q29 14 65 27.5t74 23.5t73.5 16.5t66.5 6.5l41 -25l-78 -362h10q39 82 89.5 152.5t106.5 122.5t117.5 82t125.5 30q86 0 126 -54.5t40 -136.5q0 -45 -10.5 -112.5t-24.5 -127.5l-117 -503h152v-54q-41 -33 -99.5 -53t-113.5 -20 q-59 0 -82 24.5t-23 53.5q0 39 10 85l21 93l74 340l25 117q11 54 11 108q0 47 -21.5 80t-68.5 33q-55 0 -112.5 -45.5t-106.5 -108.5t-89 -132t-60 -114l-109 -522h-172z" />
<glyph unicode="o" horiz-adv-x="1042" d="M84 381q0 109 34 226.5t103.5 216t174 162t243.5 63.5q160 0 241 -98.5t81 -291.5q0 -135 -39 -259t-109 -218t-168 -150.5t-217 -56.5q-158 0 -251 101.5t-93 304.5zM268 336q0 -121 53.5 -197t143.5 -76q72 0 128 54.5t96 143.5t61.5 201.5t21.5 227.5q0 121 -42 195 t-132 76q-100 -2 -163.5 -66t-100.5 -158t-51.5 -202.5t-14.5 -198.5z" />
<glyph unicode="p" horiz-adv-x="1110" d="M2 -391l88 407l191 889l-125 19v51q68 29 142.5 51.5t139.5 22.5l41 -25l-84 -360h8q37 82 81 151.5t95.5 121.5t111 82t126.5 30q45 0 86 -17.5t72 -53.5t48 -89t17 -123q0 -158 -47 -301t-128 -252t-189.5 -173.5t-233.5 -64.5q-35 0 -59.5 2.5t-42.5 7.5t-36 13 l-38 18l-67 -315q72 -12 143 -51v-60h-322zM287 111q29 -25 60.5 -36.5t101.5 -11.5q82 0 154.5 60.5t126.5 155t86 210t32 228.5q0 98 -34 151.5t-93 53.5t-112.5 -46.5t-99.5 -112t-83 -138t-59 -127.5z" />
<glyph unicode="q" horiz-adv-x="1054" d="M82 287q0 145 39 281.5t115.5 241.5t190.5 168.5t265 63.5q45 0 91 -6t87 -15t75 -20.5t54 -21.5l-274 -1278q68 -12 143 -51v-60h-321l-19 17l183 792h-9q-27 -72 -66.5 -147.5t-91.5 -137t-114.5 -100.5t-134.5 -39q-213 0 -213 312zM266 305q0 -94 25 -146 q27 -57 90 -57q55 0 109.5 52.5t103.5 126t88 152.5t61 132l68 361q-23 16 -53.5 22t-77.5 6q-104 0 -182 -58t-130.5 -150.5t-77.5 -204.5q-24 -104 -24 -205v-17v-14z" />
<glyph unicode="r" horiz-adv-x="788" d="M88 0l191 905l-125 19v51q70 33 145.5 50t136.5 24l41 -25l-57 -272h8q59 135 145 216t185 81q27 0 53.5 -5.5t50.5 -19.5q0 -18 -6 -48t-17.5 -60.5t-24.5 -58.5t-28 -42l-161 84q-53 -20 -120 -103t-118 -225l-123 -571h-176z" />
<glyph unicode="s" horiz-adv-x="856" d="M14 37q10 53 24.5 103t59.5 93l185 -170q43 0 85 10.5t75.5 33t55 55.5t23.5 80q-2 49 -27.5 84.5t-65.5 68.5t-85 66t-85 72.5t-65.5 92t-25.5 126.5t28.5 129t79 92t121 56.5t154.5 19.5q53 0 119.5 -9.5t126.5 -44.5q0 -23 -8.5 -52.5t-21.5 -57t-29.5 -51 t-35.5 -31.5l-151 158q-43 -2 -80 -10.5t-64.5 -27t-43 -48t-15.5 -74.5q0 -53 26.5 -91t66.5 -72t86 -65.5t86 -71.5t67 -92.5t27 -123.5q0 -74 -34 -131.5t-92.5 -97.5t-135 -60.5t-162.5 -20.5t-157 17.5t-112 44.5z" />
<glyph unicode="t" horiz-adv-x="690" d="M109 922l2 53q41 23 87 41t91 28l33 156q29 23 66.5 40t78.5 34l43 -25l-49 -225h254q2 -12 2 -25t-2 -26q-4 -27 -21 -51h-254l-129 -594q-8 -39 -12 -69t-4 -54q0 -53 30.5 -78t67.5 -25q51 0 109.5 19.5t107.5 44.5l23 -37q-18 -27 -55 -53.5t-83 -49t-96.5 -37 t-95.5 -14.5q-90 0 -141 41t-51 127q0 29 5 64t13 72l135 643h-155z" />
<glyph unicode="u" horiz-adv-x="1110" d="M109 168q0 45 14 133t35 193l44 214l42 197l-125 19v51q33 12 70.5 24.5t75.5 22.5t73 17.5t63 9.5l45 -25q-33 -154 -66.5 -292t-62.5 -292q-10 -49 -21 -109.5t-11 -131.5q0 -43 23.5 -70t53.5 -27q45 0 90.5 27t85.5 70t75.5 95t64.5 103.5t48 95.5t30 70l90 461h170 l-168 -911h151v-52q-41 -33 -99 -53t-114 -20q-59 0 -84.5 24.5t-25.5 53.5q0 37 10 123.5t45 211.5h-8q-27 -57 -67 -130.5t-95 -139t-125.5 -111t-156.5 -45.5q-72 0 -121 50.5t-49 142.5z" />
<glyph unicode="v" horiz-adv-x="915" d="M31 922v51q12 8 36.5 21.5t54.5 25.5t61.5 20.5t60.5 8.5q45 0 64.5 -22.5t25.5 -55.5l94 -666l10 -129h4l68 133q74 123 131 239t98 232q0 23 -5 59l-10 72q-5 37 -11 69t-11 44q59 25 122 26h5q60 0 105 -26q-31 -127 -84 -259t-122 -263t-149.5 -258t-168.5 -244 l-97 -25l-151 930z" />
<glyph unicode="w" horiz-adv-x="1406" d="M31 922v51q12 8 36.5 21.5t54.5 25.5t61.5 20.5t60.5 8.5q45 0 68.5 -21.5t27.5 -56.5l55 -647l-8 -148h4l62 150l331 673l70 25l41 -288q16 -114 23 -167l32 -245l2 -148h4l54 133q76 123 129 238t92 231q0 23 -5 60l-11 73q-5 37 -11 69t-10 44q29 12 61.5 18.5 t63.5 6.5q61 0 108 -25q-31 -127 -82 -259t-116.5 -263t-143 -258t-165.5 -244l-97 -25l-86 582v168h-6l-82 -168l-137 -279l-139 -278l-113 -25l-98 930z" />
<glyph unicode="x" horiz-adv-x="929" d="M-49 14q18 61 75.5 137t127 148t135.5 130l98 87l-139 377l-131 16v52q12 8 35.5 21t53.5 25.5t60.5 20.5t59.5 8q45 0 65.5 -23.5t32.5 -54.5l100 -356l104 107q56 59 85 112q2 14 2 41t-2 56.5t-4 55t-4 38.5q35 12 68.5 19t68.5 7q66 0 114 -26q-12 -41 -40.5 -88 t-67.5 -94.5t-83 -93.5l-85 -86q-41 -40 -77 -71l-56 -51l147 -399l133 -16v-52q-12 -8 -35.5 -20t-51 -24.5t-59.5 -20.5t-58 -8q-43 0 -65.5 22.5t-33.5 55.5l-112 370q-23 -25 -52.5 -53.5t-58.5 -59t-53.5 -61.5t-38.5 -57q-4 -14 -5 -41t-2 -56.5t-1 -55t2 -38.5 q-35 -14 -71 -20t-69 -6q-68 0 -112 26z" />
<glyph unicode="y" horiz-adv-x="931" d="M-31 -384q0 18 4 40q6 29 19.5 57.5t35 53t48.5 38.5l166 -86q14 10 36.5 30t47 53.5t49 81.5t47.5 116l-242 905l-131 17v51q10 8 33.5 20.5t54.5 24.5t63.5 21.5t61.5 9.5q43 0 62.5 -21.5t29.5 -56.5l170 -717l6 -123h5l47 121q27 57 54 126l54 138q27 70 49.5 137.5 t38.5 124.5q0 23 -5 59.5t-11 73.5t-12.5 69t-10.5 44q29 12 62 18.5t63 6.5q61 0 109 -25q-63 -254 -173 -508t-243 -516q-111 -215 -221.5 -321.5t-249.5 -106.5q-31 0 -58.5 8t-58.5 25q-1 3 -1 6t1 5z" />
<glyph unicode="z" horiz-adv-x="892" d="M-49 55l287 314l450 497q-37 -2 -76 -2q-59 0 -124 5q-108 9 -222 28l-94 -147l-51 12l29 209q12 80 110 80q74 0 214 -21.5t335 -32.5l47 52q27 -4 50.5 -20.5t27.5 -45.5l-705 -776q121 -23 236 -60.5t213 -91.5l119 135l49 -28l-72 -209q-10 -31 -36.5 -51.5 t-65.5 -20.5t-97 26l-130 58q-73 33 -156.5 65.5t-175.5 47.5l-84 -90q-27 4 -51.5 20.5t-26.5 46.5z" />
<glyph unicode="{" horiz-adv-x="718" d="M111 453l12 61q39 0 72.5 16.5t61.5 46t47.5 68.5t29.5 84l104 488q20 98 82 157.5t160 59.5h184l-16 -88h-100q-55 0 -87 -28t-47 -93l-100 -475q-14 -68 -46 -115t-71 -77t-82 -45t-79 -19l-5 -13q31 -4 62 -17t56.5 -38t42 -60.5t16.5 -84.5q0 -31 -7 -64l-102 -481 q-6 -25 -6 -47q0 -76 88 -72h98l-18 -88h-185q-76 0 -117.5 37t-41.5 110q0 35 8 68l102 485q10 47 11 80q0 68 -33 106t-94 38z" />
<glyph unicode="|" horiz-adv-x="485" d="M250 -266v1700h106v-1700h-106z" />
<glyph unicode="}" horiz-adv-x="718" d="M-106 -471l18 88h98q55 0 87 26.5t46 92.5l103 481q14 68 42.5 115t64.5 76.5t76 45t77 19.5l2 12q-29 2 -57.5 15.5t-51 36t-36 57.5t-13.5 82q0 39 8 74l101 475q6 25 6 45q2 78 -88 76h-96l16 88h186q76 0 117 -38t41 -110q0 -35 -8 -67l-103 -482q-10 -47 -10 -80 q0 -143 127 -143l-12 -61q-39 0 -73 -17.5t-61.5 -46.5t-47 -67.5t-29.5 -83.5l-105 -492q-20 -98 -81.5 -157.5t-159.5 -59.5h-184z" />
<glyph unicode="~" d="M135 659q74 111 141.5 153t129.5 42q51 0 100 -21.5t96 -48t95 -48t100 -21.5q37 0 76.5 15t80.5 54l27 -43q-59 -86 -117.5 -121.5t-113.5 -35.5q-53 0 -103.5 21.5t-99.5 48t-98.5 48t-98.5 21.5q-45 0 -91 -24.5t-93 -88.5z" />
<glyph unicode="&#xa2;" d="M96 350q0 129 44 244t120 206t178.5 151.5t218.5 82.5l70 318h107l-66 -305q6 0 12 1t13 -1q37 0 79.5 -3.5t80.5 -9.5t68 -14t42 -19q2 -23 -3 -50t-16.5 -54t-28 -49.5t-34.5 -30.5l-139 141q-51 0 -97 -6l-180 -846q104 4 174 41t111 74l31 -39q-23 -37 -55.5 -70.5 t-75.5 -61t-96.5 -47t-114.5 -23.5l-68 -328h-106l69 328q-174 16 -256 114.5t-82 255.5zM293 367q-2 -111 44 -173.5t124 -80.5l176 811q-80 -31 -144.5 -84.5t-109.5 -125t-68.5 -159.5t-21.5 -188z" />
<glyph unicode="&#xa3;" d="M-53 0l12 63q53 20 94 43t74 48.5t60.5 56.5t56.5 70q39 51 61.5 112.5t22.5 108.5q0 57 -7.5 99t-17.5 73h-219l22 106h175q-16 66 -23.5 130.5t-7.5 109.5q0 100 27.5 181t90 138.5t161 88t239.5 30.5q125 0 226.5 -20.5t156.5 -48.5q-8 -33 -24 -79l-32 -95l-36 -95 l-33 -82h-51l-23 281q-39 16 -91 24.5t-118 8.5q-96 0 -163.5 -31t-102.5 -98q-20 -41 -28.5 -93.5t-6.5 -95.5q2 -68 9.5 -123t19.5 -131h320l-23 -106h-283q2 -23 4.5 -40.5t3.5 -34.5t0 -36.5t-6 -50.5q-4 -68 -49 -148.5t-131 -142.5l-80 -57v-8l113 12h410l149 229h51 q-4 -45 -11 -98t-15.5 -107.5t-17.5 -104.5t-17 -87h-942z" />
<glyph unicode="&#xa5;" d="M78 1374l12 60h539l-13 -60q-33 -12 -73.5 -24.5t-93.5 -26.5l186 -604l424 604q-43 10 -83 22.5t-73 28.5l12 60h453l-12 -60q-88 -39 -166 -51l-465 -637h295l-21 -106h-333l-29 -129h334l-21 -107h-334l-49 -235q78 -10 142 -50l-11 -59h-520l10 59q82 37 183 50 l49 235h-334l20 107h334l29 129h-334l23 106h291l-216 637q-45 10 -82.5 22.5t-72.5 28.5z" />
<glyph unicode="&#xa8;" horiz-adv-x="999" d="M367 1356q0 49 30.5 78.5t81.5 29.5q49 0 80 -29.5t31 -78.5q0 -47 -31 -76t-80 -29q-51 0 -81.5 29t-30.5 76zM780 1356q0 49 31 78.5t80 29.5q51 0 82 -29.5t31 -78.5q0 -47 -31 -76t-82 -29q-49 0 -80 29t-31 76z" />
<glyph unicode="&#xa9;" horiz-adv-x="1652" d="M104 594q0 170 60.5 304t161 226.5t230.5 141.5t271 49t271.5 -49t229.5 -141.5t159.5 -226.5t60.5 -304t-60.5 -304t-159.5 -226.5t-229 -141.5t-272 -49q-147 0 -279 49t-230.5 141.5t-156 226.5t-57.5 304zM211 594q0 -141 48 -257t132 -197t196.5 -126t239.5 -45 t240 45t196 126t131 197t48 257t-51.5 257t-136.5 196.5t-196.5 126t-230.5 45.5q-135 0 -248.5 -45.5t-194.5 -127t-127 -196.5t-46 -256zM424 596q0 106 38 186t98.5 133.5t137 81t154.5 27.5q80 0 143.5 -11.5t104.5 -31.5q2 -18 2 -48t-2 -62.5t-6 -63.5t-11 -51h-51 l-61 170q-14 10 -45 11t-60 3q-117 -2 -181 -93t-64 -251q0 -68 14 -130.5t46 -110.5t83 -75.5t123 -27.5q41 0 66.5 8t33.5 16l57 146h52q8 -31 12 -93.5t-2 -111.5q-18 -14 -46 -23.5t-58.5 -15.5t-63.5 -8t-59 -2q-100 0 -183.5 27.5t-143.5 82t-94 134.5t-34 184z" />
<glyph unicode="&#xab;" horiz-adv-x="944" d="M94 530l527 424l43 -41l-371 -387l223 -370l-61 -43zM492 530l434 420l43 -39l-303 -383l155 -370l-59 -41z" />
<glyph unicode="&#xad;" horiz-adv-x="870" d="M145 512l29 129h578l-27 -129h-580z" />
<glyph unicode="&#xae;" horiz-adv-x="1427" d="M260 924q0 131 44 232t119 171t174 105.5t210 35.5q115 0 214 -35.5t173 -105.5t117 -171t43 -232q0 -133 -44 -234.5t-119 -171t-174 -105.5t-210 -36q-115 0 -214 36t-173 105.5t-117 171t-43 234.5zM356 924q0 -106 36 -191.5t97.5 -146t143.5 -92t174 -29.5 q96 -2 179 29.5t143.5 91t94 144.5t33.5 194q0 106 -35.5 191t-97 144.5t-143.5 92t-174 30.5q-98 2 -180 -30.5t-142.5 -92t-94.5 -144.5t-34 -191zM559 633v49q35 12 72 18v478q-23 2 -39.5 7t-32.5 15v45h78q37 0 88 4t84 4q45 0 87 -9t75 -30.5t51 -54.5t18 -78 q0 -63 -44 -100t-101 -55l71 -116q34 -56 93 -110l47 -24v-43h-102l-58 22q-51 61 -81.5 127t-53.5 125h-74v-207q27 -2 44.5 -7t31.5 -11v-49h-254zM737 967h66q123 0 119 114q-2 53 -36 80t-87 27q-23 0 -36 -1t-26 -5v-215z" />
<glyph unicode="&#xb4;" horiz-adv-x="1048" d="M461 1214l260 357q16 2 43 -1t55.5 -9.5t53 -15.5t36.5 -19v-39l-403 -309z" />
<glyph unicode="&#xb8;" horiz-adv-x="911" d="M188 -453q39 6 78 17.5t70 28t49 40t16 52.5q0 18 -5 34.5t-18 29.5t-38 22.5t-66 13.5l115 217h94l-82 -141q86 -4 123 -40t41 -95q2 -63 -35.5 -109.5t-95 -76t-124 -43t-122.5 -11.5v61z" />
<glyph unicode="&#xba;" horiz-adv-x="892" d="M80 1024q0 94 37 174t98 137.5t141 90t166 32.5q141 0 217 -73.5t76 -190.5q0 -106 -40 -187t-102.5 -135.5t-141 -82t-156.5 -27.5q-61 0 -115.5 19.5t-94.5 54t-62.5 83t-22.5 105.5zM250 1022q0 -37 7 -69.5t24.5 -58.5t44 -41t63.5 -15q45 0 91 22.5t83 69.5 t59.5 118.5t22.5 170.5q0 31 -7 59.5t-23.5 52t-43 36.5t-67.5 13q-45 0 -90 -27.5t-82 -74.5t-59.5 -113.5t-22.5 -142.5z" />
<glyph unicode="&#xbb;" horiz-adv-x="944" d="M57 156l301 383l-153 370l57 41l273 -413l-437 -420zM362 154l371 387l-223 370l61 43l359 -417l-524 -424z" />
<glyph unicode="&#xc0;" horiz-adv-x="1380" d="M-100 0l12 59q80 33 160 50l809 1349h53l231 -1349q37 -8 75 -19.5t69 -30.5l-11 -59h-520l10 59q92 35 181 50l-62 374h-481l-219 -374q88 -12 164 -50l-11 -59h-460zM485 590h406l-66 434l-4 176h-4l-82 -180zM496 1722v41q12 14 38.5 27.5t57.5 23t59.5 13.5t45.5 2 l296 -254l-34 -39z" />
<glyph unicode="&#xc8;" horiz-adv-x="1171" d="M-41 0l10 59q84 35 181 50l256 1214q-41 10 -80 22.5t-78 28.5l14 60h969q-16 -82 -39 -166t-53 -166h-54l-34 225h-449l-113 -543h332l113 152h51q-16 -102 -37.5 -205.5t-50.5 -208.5h-51l-47 156h-334l-119 -572h469l154 246h51q-4 -80 -16.5 -171t-34.5 -181h-1010z M440 1722v41q12 14 38.5 27.5t57.5 23t59.5 13.5t45.5 2l296 -254l-34 -39z" />
<glyph unicode="&#xc9;" horiz-adv-x="1171" d="M-41 0l10 59q84 35 181 50l256 1214q-41 10 -80 22.5t-78 28.5l14 60h969q-16 -82 -39 -166t-53 -166h-54l-34 225h-449l-113 -543h332l113 152h51q-16 -102 -37.5 -205.5t-50.5 -208.5h-51l-47 156h-334l-119 -572h469l154 246h51q-4 -80 -16.5 -171t-34.5 -181h-1010z M652 1575l299 254q18 2 46.5 -2t58.5 -13.5t55.5 -22.5t37.5 -28v-41l-463 -186z" />
<glyph unicode="&#xcc;" horiz-adv-x="702" d="M-2 0l10 59q90 37 176 50l256 1214q-41 8 -77.5 21.5t-75.5 29.5l14 60h524l-12 -60q-41 -16 -88 -29.5t-88 -21.5l-256 -1214q41 -8 81 -20.5t70 -29.5l-10 -59h-524zM238 1722v41q12 14 38.5 27.5t57.5 23t59.5 13.5t45.5 2l296 -254l-34 -39z" />
<glyph unicode="&#xd2;" horiz-adv-x="1495" d="M135 569q0 186 56.5 348t163 282t256 189.5t337.5 69.5q150 0 252.5 -49t164.5 -129t90 -183.5t28 -213.5q0 -164 -46 -327t-142.5 -292t-243 -209t-346.5 -80q-147 0 -255 48.5t-177.5 129t-103.5 188t-34 228.5zM354 567q0 -113 30 -203t82 -153.5t123 -96.5 q67 -32 145 -32h9h8q144 0 241 73q99 75 159.5 192.5t86.5 260t26 277.5q0 104 -23.5 190t-71 147.5t-116 95.5t-158.5 34q-141 0 -243.5 -74t-169 -188.5t-97.5 -254t-31 -268.5zM600 1722v41q12 14 38.5 27.5t57.5 23t59.5 13.5t45.5 2l296 -254l-34 -39z" />
<glyph unicode="&#xd3;" horiz-adv-x="1495" d="M135 569q0 186 56.5 348t163 282t256 189.5t337.5 69.5q150 0 252.5 -49t164.5 -129t90 -183.5t28 -213.5q0 -164 -46 -327t-142.5 -292t-243 -209t-346.5 -80q-147 0 -255 48.5t-177.5 129t-103.5 188t-34 228.5zM354 567q0 -113 30 -203t82 -153.5t123 -96.5 q67 -32 145 -32h9h8q144 0 241 73q99 75 159.5 192.5t86.5 260t26 277.5q0 104 -23.5 190t-71 147.5t-116 95.5t-158.5 34q-141 0 -243.5 -74t-169 -188.5t-97.5 -254t-31 -268.5zM803 1575l299 254q18 2 46.5 -2t58.5 -13.5t55.5 -22.5t37.5 -28v-41l-463 -186z" />
<glyph unicode="&#xd9;" horiz-adv-x="1363" d="M183 364q0 64 16 134l176 825q-41 8 -84 21.5t-74 29.5l12 60h521l-13 -60q-80 -35 -166 -51l-174 -813q-15 -75 -15 -134q0 -27 3 -51q10 -77 49 -126t102.5 -72t147.5 -23q166 0 265.5 92.5t140.5 290.5l174 818q-90 31 -148 69l12 60h439l-15 -60q-35 -23 -82 -41 t-92 -28l-174 -822q-57 -268 -201.5 -384.5t-371.5 -116.5q-135 0 -228.5 38.5t-146.5 107.5t-68 164q-5 35 -5 72zM535 1722v41q12 14 38.5 27.5t57.5 23t59.5 13.5t45.5 2l296 -254l-34 -39z" />
<glyph unicode="&#xe0;" horiz-adv-x="1095" d="M88 285q0 143 41 279t119 242.5t189.5 171t252.5 64.5q51 0 82 -9t74 -27q82 43 172 43l-184 -936h149v-52q-41 -33 -98.5 -53t-112.5 -20q-59 0 -84.5 25.5t-25.5 54.5q0 37 14 120.5t43 212.5h-8q-27 -74 -67 -149.5t-92 -137t-115.5 -100.5t-135.5 -39 q-213 0 -213 310zM272 319q0 -104 26 -160.5t89 -56.5q55 0 110.5 52.5t104.5 126t88 153.5t62 133l65 351q-29 20 -55.5 28t-73.5 8q-94 0 -171 -58t-131 -150.5t-84 -205t-30 -221.5zM381 1485v41q12 10 39.5 19t60.5 15.5t62.5 9.5t45.5 1l177 -357l-45 -34z" />
<glyph unicode="&#xe8;" horiz-adv-x="929" d="M82 342q0 145 41 274t114.5 225.5t179 152t234.5 55.5q98 0 169 -50.5t71 -148.5q0 -145 -144.5 -229t-465.5 -109q-8 -35 -11.5 -67.5t-3.5 -63.5q0 -123 62.5 -201t183.5 -78q39 0 77 12.5t71.5 31t61.5 38.5l48 37l33 -39q-18 -39 -53 -75.5t-82 -66.5t-106.5 -47.5 t-127.5 -17.5q-170 0 -261 97.5t-91 269.5zM295 600q199 6 309.5 68.5t110.5 173.5q0 43 -25.5 80t-101.5 39q-88 -2 -164 -83t-129 -278zM361 1485v41q12 10 39.5 19t60.5 15.5t62.5 9.5t45.5 1l177 -357l-45 -34z" />
<glyph unicode="&#xe9;" horiz-adv-x="929" d="M82 342q0 145 41 274t114.5 225.5t179 152t234.5 55.5q98 0 169 -50.5t71 -148.5q0 -145 -144.5 -229t-465.5 -109q-8 -35 -11.5 -67.5t-3.5 -63.5q0 -123 62.5 -201t183.5 -78q39 0 77 12.5t71.5 31t61.5 38.5l48 37l33 -39q-18 -39 -53 -75.5t-82 -66.5t-106.5 -47.5 t-127.5 -17.5q-170 0 -261 97.5t-91 269.5zM295 600q199 6 309.5 68.5t110.5 173.5q0 43 -25.5 80t-101.5 39q-88 -2 -164 -83t-129 -278zM522 1214l260 357q16 2 43 -1t55.5 -9.5t53 -15.5t36.5 -19v-39l-403 -309z" />
<glyph unicode="&#xec;" horiz-adv-x="567" d="M109 1485v41q12 10 39.5 19t60.5 15.5t62.5 9.5t45.5 1l177 -357l-45 -34zM111 76q0 41 6 80t16 86l143 661l-131 21v51q31 12 70 25.5t80 23.5t78 17.5t65 7.5l37 -25l-192 -909h151v-54q-43 -33 -100.5 -53t-112.5 -20q-59 0 -84.5 26.5t-25.5 61.5z" />
<glyph unicode="&#xf2;" horiz-adv-x="1042" d="M84 381q0 109 34 226.5t103.5 216t174 162t243.5 63.5q160 0 241 -98.5t81 -291.5q0 -135 -39 -259t-109 -218t-168 -150.5t-217 -56.5q-158 0 -251 101.5t-93 304.5zM268 336q0 -121 53.5 -197t143.5 -76q72 0 128 54.5t96 143.5t61.5 201.5t21.5 227.5q0 121 -42 195 t-132 76q-100 -2 -163.5 -66t-100.5 -158t-51.5 -202.5t-14.5 -198.5zM334 1485v41q12 10 39.5 19t60.5 15.5t62.5 9.5t45.5 1l177 -357l-45 -34z" />
<glyph unicode="&#xf3;" horiz-adv-x="1042" d="M84 381q0 109 34 226.5t103.5 216t174 162t243.5 63.5q160 0 241 -98.5t81 -291.5q0 -135 -39 -259t-109 -218t-168 -150.5t-217 -56.5q-158 0 -251 101.5t-93 304.5zM268 336q0 -121 53.5 -197t143.5 -76q72 0 128 54.5t96 143.5t61.5 201.5t21.5 227.5q0 121 -42 195 t-132 76q-100 -2 -163.5 -66t-100.5 -158t-51.5 -202.5t-14.5 -198.5zM535 1214l260 357q16 2 43 -1t55.5 -9.5t53 -15.5t36.5 -19v-39l-403 -309z" />
<glyph unicode="&#xf9;" horiz-adv-x="1110" d="M109 168q0 45 14 133t35 193l44 214l42 197l-125 19v51q33 12 70.5 24.5t75.5 22.5t73 17.5t63 9.5l45 -25q-33 -154 -66.5 -292t-62.5 -292q-10 -49 -21 -109.5t-11 -131.5q0 -43 23.5 -70t53.5 -27q45 0 90.5 27t85.5 70t75.5 95t64.5 103.5t48 95.5t30 70l90 461h170 l-168 -911h151v-52q-41 -33 -99 -53t-114 -20q-59 0 -84.5 24.5t-25.5 53.5q0 37 10 123.5t45 211.5h-8q-27 -57 -67 -130.5t-95 -139t-125.5 -111t-156.5 -45.5q-72 0 -121 50.5t-49 142.5zM336 1485v41q12 10 39.5 19t60.5 15.5t62.5 9.5t45.5 1l177 -357l-45 -34z" />
<glyph unicode="&#x2c6;" horiz-adv-x="903" d="M393 1241l309 381q10 8 27 8q16 0 25 -8l149 -379l-55 -35l-160 219l-235 -219z" />
<glyph unicode="&#x2dc;" horiz-adv-x="884" d="M256 1337q76 72 135.5 96.5t106.5 24.5q37 0 68.5 -10t60 -22.5t58.5 -22.5t60 -10q27 0 53.5 9t59.5 32l27 -58q-66 -66 -120 -91t-101 -25q-37 0 -70 11t-64 23l-60 24q-30 11 -60 11q-27 0 -54.5 -10t-60.5 -39z" />
<glyph unicode="&#x2000;" horiz-adv-x="914" />
<glyph unicode="&#x2001;" horiz-adv-x="1829" />
<glyph unicode="&#x2002;" horiz-adv-x="914" />
<glyph unicode="&#x2003;" horiz-adv-x="1829" />
<glyph unicode="&#x2004;" horiz-adv-x="609" />
<glyph unicode="&#x2005;" horiz-adv-x="457" />
<glyph unicode="&#x2006;" horiz-adv-x="304" />
<glyph unicode="&#x2007;" horiz-adv-x="304" />
<glyph unicode="&#x2008;" horiz-adv-x="228" />
<glyph unicode="&#x2009;" horiz-adv-x="365" />
<glyph unicode="&#x200a;" horiz-adv-x="101" />
<glyph unicode="&#x2010;" horiz-adv-x="870" d="M145 512l29 129h578l-27 -129h-580z" />
<glyph unicode="&#x2011;" horiz-adv-x="870" d="M145 512l29 129h578l-27 -129h-580z" />
<glyph unicode="&#x2012;" horiz-adv-x="870" d="M145 512l29 129h578l-27 -129h-580z" />
<glyph unicode="&#x2013;" horiz-adv-x="1261" d="M133 512l31 129h987l-31 -129h-987z" />
<glyph unicode="&#x2014;" horiz-adv-x="1794" d="M133 512l31 129h1519l-30 -129h-1520z" />
<glyph unicode="&#x2018;" horiz-adv-x="577" d="M287 1317q0 66 29.5 129t77.5 115.5t109.5 90.5t125.5 56l26 -61q-72 -27 -126 -90.5t-64 -139.5q16 -20 52 -38l58 -27q2 -33 -14 -64t-40.5 -55.5t-52.5 -39.5t-46 -15q-57 6 -96 39.5t-39 99.5z" />
<glyph unicode="&#x2019;" horiz-adv-x="577" d="M246 962q74 27 127 90.5t63 139.5q-16 20 -52 38l-58 27q-2 33 14.5 64t41 55.5t52 39.5t45.5 15q59 -6 97.5 -39.5t38.5 -99.5t-30 -129t-78 -115.5t-109.5 -90.5t-122.5 -56z" />
<glyph unicode="&#x201a;" horiz-adv-x="598" d="M0 -236q74 27 127 90.5t63 139.5q-16 20 -52 38l-58 27q-2 33 14.5 64t41 55.5t52 39.5t45.5 15q59 -6 97.5 -39.5t38.5 -99.5t-30 -129t-78 -115.5t-109.5 -90.5t-122.5 -56z" />
<glyph unicode="&#x201c;" horiz-adv-x="952" d="M289 1317q0 66 29.5 129t77.5 115.5t109.5 90.5t125.5 56l26 -61q-72 -27 -126 -90.5t-64 -139.5q16 -20 52 -38l58 -27q2 -33 -14 -64t-40.5 -55.5t-52.5 -39.5t-46 -15q-57 6 -96 39.5t-39 99.5zM662 1317q0 66 29.5 129t77.5 115.5t109.5 90.5t125.5 56l26 -61 q-72 -27 -126 -90.5t-64 -139.5q16 -20 52 -38l58 -27q2 -33 -14 -64t-40.5 -55.5t-52.5 -39.5t-46 -15q-57 6 -96 39.5t-39 99.5z" />
<glyph unicode="&#x201d;" horiz-adv-x="952" d="M246 962q74 27 127 90.5t63 139.5q-16 20 -52 38l-58 27q-2 33 14.5 64t41 55.5t52 39.5t45.5 15q59 -6 97.5 -39.5t38.5 -99.5t-30 -129t-78 -115.5t-109.5 -90.5t-122.5 -56zM618 962q74 27 127 90.5t63 139.5q-16 20 -52 38l-58 27q-2 33 14.5 64t41 55.5t52 39.5 t45.5 15q59 -6 97.5 -39.5t38.5 -99.5t-30 -129t-78 -115.5t-109.5 -90.5t-122.5 -56z" />
<glyph unicode="&#x201e;" horiz-adv-x="970" d="M0 -236q74 27 127 90.5t63 139.5q-16 20 -52 38l-58 27q-2 33 14.5 64t41 55.5t52 39.5t45.5 15q59 -6 97.5 -39.5t38.5 -99.5t-30 -129t-78 -115.5t-109.5 -90.5t-122.5 -56zM373 -236q74 27 127 90.5t63 139.5q-16 20 -52 38l-58 27q-2 33 14.5 64t41 55.5t52 39.5 t45.5 15q59 -6 97.5 -39.5t38.5 -99.5t-30 -129t-78 -115.5t-109.5 -90.5t-122.5 -56z" />
<glyph unicode="&#x2026;" horiz-adv-x="1794" d="M59 117q0 61 39 98t101 37q63 0 102 -37t39 -98q0 -59 -39 -96t-102 -37q-61 0 -100.5 37t-39.5 96zM677 117q0 61 39 98t101 37q63 0 102 -37t39 -98q0 -59 -39 -96t-102 -37q-61 0 -100.5 37t-39.5 96zM1298 117q0 61 39 98t101 37q63 0 102 -37t39 -98q0 -59 -39 -96 t-102 -37q-61 0 -100.5 37t-39.5 96z" />
<glyph unicode="&#x202f;" horiz-adv-x="365" />
<glyph unicode="&#x2039;" horiz-adv-x="552" d="M94 530l441 420l40 -39l-294 -383l147 -370l-57 -41z" />
<glyph unicode="&#x203a;" horiz-adv-x="552" d="M57 158l310 393l-140 360l60 39l264 -418l-455 -413z" />
<glyph unicode="&#x205f;" horiz-adv-x="457" />
<glyph unicode="&#x20ac;" d="M-100 528l55 115h156l8 71q4 36 12 70h-178l57 115h148q39 129 106.5 232.5t157.5 176t199.5 111.5t236.5 39q135 0 225.5 -18.5t153.5 -50.5q-6 -33 -17.5 -77t-26.5 -93.5t-32 -96.5l-31 -86h-53l-43 295q-25 10 -75 15.5t-101 5.5q-166 0 -298 -113t-195 -340h606 l-58 -115h-573l-8 -70l-8 -71h522l-58 -115h-466q0 -129 29.5 -214t79.5 -137t114.5 -73.5t132.5 -21.5q70 0 114 12t64 27l152 252h53q-2 -57 -13.5 -144.5t-31.5 -169.5q-80 -47 -182.5 -65.5t-188.5 -18.5q-162 0 -266.5 49.5t-164.5 128t-84 177t-24 198.5h-206z" />
<glyph unicode="&#x2122;" horiz-adv-x="2015" d="M248 1434h725q-2 -55 -9.5 -131t-19.5 -142h-51l-68 197h-127v-608l62 -19q27 -8 41 -18v-47h-385v47q25 14 52.5 23t53.5 14v608h-129l-67 -197h-50q-12 66 -19 140.5t-9 132.5zM1028 666v47q47 27 100 37l27 583q-33 12 -56.5 25.5t-41.5 25.5v50h334l145 -424l29 -109 h6l31 111l153 422h334v-50q-20 -10 -44 -20t-56 -16l30 -598q51 -10 101 -37v-47h-363v47q16 10 37 18t55 19l-30 591h-13l-239 -675h-72l-238 675h-12l-22 -591q55 -16 92 -37v-47h-287z" />
<glyph unicode="&#xe000;" horiz-adv-x="1040" d="M0 0v1040h1040v-1040h-1040z" />
<glyph unicode="&#xfb01;" horiz-adv-x="1081" d="M-106 -389q25 12 59.5 44t68 85t63.5 130t46 179l133 873h-149v53q41 23 87 40t87 27l14 72q27 127 74 210t108.5 131t137 66.5t159.5 18.5q86 0 162 -26.5t121 -59.5q-4 -45 -36 -101.5t-81 -78.5l-164 184q-49 0 -94 -12t-85 -48t-71.5 -100.5t-54.5 -171.5l-20 -102 h123q43 0 94 2t101 5t96.5 8t78.5 10l37 -25l-172 -909h152v-54q-43 -33 -100.5 -53t-112.5 -20q-59 0 -85 26.5t-26 61.5q0 41 6 80t17 86l131 680h-361l-131 -834q-23 -145 -76 -241.5t-113.5 -156t-117.5 -88t-88 -36.5z" />
<glyph unicode="&#xfb02;" horiz-adv-x="1118" d="M-106 -389q25 12 59.5 44t68 85t63.5 130t46 179l133 873h-149v53q41 23 87 40t87 27l14 72q43 199 151.5 312.5t297.5 113.5q37 0 79.5 -7t77.5 -22q41 10 81 18.5t73 10.5l41 -22l-262 -1403h149v-54q-41 -33 -99 -53t-114 -20q-59 0 -86.5 26.5t-27.5 61.5q0 41 6 80 t16 86l70 347l53 269l39 201q16 84 26 143q23 137 29 182q-31 35 -69.5 55.5t-85.5 20.5q-41 0 -79 -12t-73 -48t-64.5 -101.5t-52.5 -172.5l-20 -102h223q10 -51 -20 -102h-224l-57 -367l-57 -369q-31 -178 -82.5 -291.5t-109.5 -182t-116.5 -100.5t-103.5 -46z" />
<glyph unicode="&#xfb03;" horiz-adv-x="1783" d="M-106 -389q25 12 59.5 44t68 85t63.5 130t46 179l133 873h-149v53q41 23 87 40t87 27l14 72q27 127 73 210t107.5 131t135 66.5t157.5 18.5q35 0 83 -8t81 -25q-4 -45 -21.5 -93t-58.5 -83l-155 127q-37 -10 -68 -22.5t-58.5 -46t-52 -95t-47.5 -168.5l-20 -102h227 q3 -13 3 -26q0 -38 -23 -76h-228l-131 -834q-23 -145 -76 -241.5t-113.5 -156t-117.5 -88t-88 -36.5zM502 -389q25 12 59.5 44t68 85t63.5 130t46 179l133 873h-149v53q41 23 87 40t87 27l14 72q27 127 73 210t107.5 131t135 66.5t157.5 18.5q35 0 83 -8t81 -25 q-4 -45 -21.5 -93t-58.5 -83l-155 127q-37 -10 -68 -22.5t-58.5 -46t-52 -95t-47.5 -168.5l-20 -102h227q3 -13 3 -26q0 -38 -23 -76h-228l-131 -834q-23 -145 -76 -241.5t-113.5 -156t-117.5 -88t-88 -36.5zM1328 76q0 41 6 80t16 86l143 661l-131 21v51q31 12 70 25.5 t80 23.5t78 17.5t65 7.5l37 -25l-192 -909h151v-54q-43 -33 -100.5 -53t-112.5 -20q-59 0 -84.5 26.5t-25.5 61.5zM1526 1378q0 53 33 84t86 31q57 0 90 -30.5t33 -84.5q0 -51 -33 -79.5t-90 -28.5q-53 0 -86 28.5t-33 79.5z" />
<glyph unicode="&#xfb04;" horiz-adv-x="1783" d="M-106 -389q25 12 59.5 44t68 85t63.5 130t46 179l133 873h-149v53q41 23 87 40t87 27l14 72q27 127 73 210t107.5 131t135 66.5t157.5 18.5q35 0 83 -8t81 -25q-4 -45 -21.5 -93t-58.5 -83l-155 127q-37 -10 -68 -22.5t-58.5 -46t-52 -95t-47.5 -168.5l-20 -102h227 q3 -13 3 -26q0 -38 -23 -76h-228l-131 -834q-23 -145 -76 -241.5t-113.5 -156t-117.5 -88t-88 -36.5zM502 -389q25 12 59.5 44t68 85t63.5 130t46 179l133 873h-149v53q41 23 87 40t87 27l14 72q27 127 73 210t107.5 131t135 66.5t157.5 18.5q35 0 83 -8t81 -25 q-4 -45 -21.5 -93t-58.5 -83l-155 127q-37 -10 -68 -22.5t-58.5 -46t-52 -95t-47.5 -168.5l-20 -102h227q3 -13 3 -26q0 -38 -23 -76h-228l-131 -834q-23 -145 -76 -241.5t-113.5 -156t-117.5 -88t-88 -36.5zM1311 76q0 41 6 80t17 86l239 1155l-145 18v51q29 12 66.5 24.5 t79.5 24t83 18.5t74 7l41 -22l-283 -1403h150v-54q-41 -33 -99.5 -53t-113.5 -20q-59 0 -87 26.5t-28 61.5z" />
</font>
</defs>
</svg>
