<?xml version="1.0" encoding="utf-8"?>
<!-- Generator: Adobe Illustrator 15.0.0, SVG Export Plug-In . SVG Version: 6.00 Build 0)  -->
<!DOCTYPE svg PUBLIC "-//W3C//DTD SVG 1.1//EN" "http://www.w3.org/Graphics/SVG/1.1/DTD/svg11.dtd">
<svg version="1.1" id="Layer_1" xmlns="http://www.w3.org/2000/svg" xmlns:xlink="http://www.w3.org/1999/xlink" x="0px" y="0px"
	 width="100px" height="100px" viewBox="0 0 100 100" enable-background="new 0 0 100 100" xml:space="preserve">
<g>
	<g>
		<path fill="#010101" d="M25.863,47.552V9.54h-4.991V5.451c1.406-0.166,2.744-0.698,4.015-1.596
			c1.269-0.898,2.184-1.987,2.742-3.27h4.09v46.967H25.863z"/>
		<path fill="#010101" d="M55.221,38.69c0,2.583-0.908,4.771-2.727,6.569c-1.818,1.797-3.997,2.696-6.539,2.696
			c-2.583,0-4.778-0.905-6.585-2.712c-1.808-1.808-2.712-3.992-2.712-6.554V9.385c0-2.583,0.909-4.777,2.726-6.585
			c1.82-1.806,4.009-2.711,6.571-2.711c2.583,0,4.773,0.909,6.57,2.728c1.797,1.817,2.695,4.008,2.695,6.568V38.69z M49.147,9.263
			c0-0.932-0.331-1.725-0.992-2.386C47.495,6.216,46.7,5.885,45.77,5.885c-0.929,0-1.719,0.331-2.37,0.992
			c-0.651,0.661-0.976,1.455-0.976,2.386v29.333c0,0.93,0.325,1.725,0.976,2.386c0.65,0.661,1.44,0.992,2.37,0.992
			c0.931,0,1.725-0.331,2.386-0.992c0.661-0.661,0.992-1.456,0.992-2.386V9.263z"/>
		<path fill="#010101" d="M78.836,38.69c0,2.583-0.91,4.771-2.729,6.569c-1.818,1.797-3.998,2.696-6.537,2.696
			c-2.582,0-4.779-0.905-6.586-2.712c-1.807-1.808-2.713-3.992-2.713-6.554V9.385c0-2.583,0.91-4.777,2.727-6.585
			c1.82-1.806,4.01-2.711,6.57-2.711c2.582,0,4.775,0.909,6.57,2.728c1.797,1.817,2.695,4.008,2.695,6.568V38.69H78.836z
			 M72.762,9.263c0-0.932-0.332-1.725-0.992-2.386s-1.459-0.992-2.387-0.992s-1.721,0.331-2.371,0.992s-0.975,1.455-0.975,2.386
			v29.333c0,0.93,0.324,1.725,0.975,2.386c0.65,0.661,1.441,0.992,2.371,0.992s1.727-0.331,2.387-0.992
			c0.66-0.661,0.992-1.456,0.992-2.386V9.263z"/>
	</g>
	<g>
		<path fill="#010101" d="M24.783,71.846c-1.124,0-2.078-0.396-2.864-1.188c-0.788-0.789-1.18-1.736-1.18-2.842v-9.216
			c0-1.124,0.396-2.08,1.186-2.864c0.791-0.786,1.743-1.181,2.858-1.181c1.122,0,2.075,0.395,2.857,1.185
			c0.782,0.792,1.172,1.744,1.172,2.858v1.927h-2.641v-1.98c0-0.404-0.143-0.75-0.431-1.038c-0.289-0.287-0.635-0.431-1.039-0.431
			c-0.403,0-0.748,0.144-1.031,0.431c-0.282,0.288-0.423,0.634-0.423,1.038v9.243c0,0.405,0.141,0.747,0.423,1.031
			c0.284,0.282,0.627,0.425,1.031,0.425c0.404,0,0.75-0.141,1.039-0.423c0.288-0.282,0.431-0.625,0.431-1.027v-3.32h-1.416v-2.561
			h4.057v5.903c0,1.123-0.396,2.076-1.185,2.857C26.835,71.454,25.888,71.846,24.783,71.846z"/>
		<path fill="#010101" d="M35.297,71.629H32.75V54.744h2.547V71.629z"/>
		<path fill="#010101" d="M43.304,54.53c1.124,0,2.078,0.395,2.863,1.185c0.786,0.79,1.18,1.743,1.18,2.856v9.217
			c0,1.124-0.396,2.077-1.186,2.864c-0.792,0.786-1.744,1.18-2.858,1.18c-1.122,0-2.073-0.394-2.857-1.186
			c-0.782-0.791-1.172-1.742-1.172-2.856v-9.217c0-1.122,0.396-2.077,1.185-2.864C41.252,54.922,42.201,54.53,43.304,54.53z
			 M44.694,58.517c0-0.402-0.142-0.747-0.425-1.03c-0.283-0.282-0.628-0.426-1.032-0.426c-0.405,0-0.749,0.144-1.036,0.426
			c-0.29,0.283-0.433,0.628-0.433,1.03v9.245c0,0.403,0.144,0.748,0.433,1.03c0.287,0.283,0.631,0.425,1.036,0.425
			c0.404,0,0.749-0.142,1.032-0.425c0.283-0.282,0.425-0.627,0.425-1.03V58.517z"/>
		<path fill="#010101" d="M55.342,54.744c1.42,0,2.461,0.393,3.127,1.173c0.584,0.684,0.877,1.637,0.877,2.857v2.451
			c0,1.196-0.453,2.205-1.361,3.032l1.887,7.371h-2.756l-1.543-6.359c-0.072,0-0.148,0-0.23,0h-1.469v6.359h-2.545V54.744H55.342z
			 M56.865,58.814c0-0.979-0.486-1.469-1.455-1.469h-1.537v5.404h1.537c0.404,0,0.748-0.146,1.029-0.434
			c0.285-0.287,0.426-0.633,0.426-1.037V58.814z"/>
		<path fill="#010101" d="M66.641,54.731l3.379,11.355V54.731h2.549v16.897h-2.736L66.33,60.808v10.821h-2.549V54.731H66.641z"/>
		<path fill="#010101" d="M79.119,71.629h-2.547V54.744h2.547V71.629z"/>
	</g>
	<g>
		<path fill="#010101" d="M48.651,80.97c0,0.641-0.225,1.187-0.674,1.641s-0.991,0.682-1.626,0.682h-2.299v-9.711h2.299
			c0.641,0,1.182,0.229,1.63,0.683c0.445,0.454,0.67,0.998,0.67,1.634V80.97z M45.516,81.845h0.884c0.231,0,0.428-0.085,0.587-0.252
			c0.16-0.169,0.241-0.364,0.241-0.592V75.92c0-0.232-0.083-0.432-0.245-0.597c-0.163-0.165-0.358-0.246-0.583-0.246h-0.884V81.845z
			"/>
		<path fill="#010101" d="M52,81.063l-0.354,2.229h-1.525l1.65-9.704h2.014l1.625,9.704h-1.539l-0.342-2.229H52z M52.77,75.813
			l-0.543,3.825h1.084L52.77,75.813z"/>
	</g>
	<g>
		<path fill="#010101" d="M24.354,84.948c1.05,0,1.885,0.33,2.507,0.992c0.578,0.631,0.868,1.437,0.868,2.417v2.076
			c0,0.943-0.33,1.749-0.986,2.419c-0.658,0.668-1.453,1.004-2.389,1.004h-1.243v5.38h-2.155V84.948H24.354z M25.643,88.393
			c0-0.374-0.112-0.674-0.337-0.9c-0.225-0.229-0.522-0.343-0.896-0.343h-1.298v4.573h1.298c0.343,0,0.633-0.12,0.874-0.365
			c0.239-0.242,0.359-0.536,0.359-0.88V88.393L25.643,88.393z"/>
		<path fill="#010101" d="M31.202,99.438V85.141h6.135v2.167h-3.98v3.9h2.909v2.166h-2.909v3.899h3.98v2.167h-6.135V99.438z"/>
		<path fill="#010101" d="M43.99,99.622c-0.951,0-1.76-0.333-2.423-0.998c-0.665-0.665-0.998-1.469-0.998-2.412v-7.8
			c0-0.949,0.333-1.758,1.001-2.424c0.67-0.665,1.476-0.999,2.419-0.999c0.95,0,1.756,0.336,2.418,1.005
			c0.661,0.669,0.991,1.475,0.991,2.418v1.631h-2.234v-1.677c0-0.342-0.124-0.635-0.365-0.877c-0.244-0.244-0.537-0.365-0.878-0.365
			c-0.342,0-0.632,0.121-0.872,0.365c-0.239,0.242-0.359,0.535-0.359,0.877v7.823c0,0.343,0.12,0.634,0.359,0.873
			c0.241,0.239,0.531,0.358,0.872,0.358c0.343,0,0.634-0.119,0.878-0.358c0.242-0.239,0.365-0.53,0.365-0.873v-1.972h2.234v1.994
			c0,0.951-0.334,1.758-1.002,2.419C45.727,99.291,44.926,99.622,43.99,99.622z"/>
		<path fill="#010101" d="M54.295,84.97c0.949,0,1.756,0.334,2.422,1.002c0.666,0.67,0.998,1.477,0.998,2.419v7.8
			c0,0.951-0.334,1.759-1.002,2.423c-0.672,0.664-1.477,0.998-2.418,0.998c-0.953,0-1.758-0.334-2.42-1.004
			s-0.991-1.475-0.991-2.418v-7.8c0-0.951,0.334-1.758,1.002-2.424C52.555,85.302,53.359,84.97,54.295,84.97z M55.469,88.344
			c0-0.344-0.119-0.633-0.359-0.873c-0.238-0.238-0.531-0.357-0.873-0.357s-0.635,0.119-0.877,0.357
			c-0.244,0.24-0.365,0.529-0.365,0.873v7.821c0,0.345,0.121,0.634,0.365,0.874c0.242,0.238,0.535,0.358,0.877,0.358
			s0.635-0.12,0.873-0.358c0.24-0.24,0.359-0.529,0.359-0.874V88.344z"/>
		<path fill="#010101" d="M64.766,85.15c1.201,0,2.084,0.332,2.646,0.992c0.494,0.578,0.74,1.384,0.74,2.419v2.074
			c0,1.013-0.383,1.866-1.15,2.565l1.596,6.237h-2.33l-1.307-5.382c-0.063,0-0.125,0-0.195,0h-1.242v5.382h-2.154V85.15H64.766z
			 M66.057,88.595c0-0.827-0.412-1.243-1.232-1.243h-1.301v4.573h1.301c0.344,0,0.635-0.122,0.873-0.363
			c0.238-0.245,0.359-0.538,0.359-0.88V88.595z"/>
		<path fill="#010101" d="M74.039,96.156l-0.523,3.282h-2.244l2.43-14.286h2.963l2.395,14.286h-2.266l-0.504-3.282H74.039z
			 M75.172,88.424l-0.799,5.633h1.598L75.172,88.424z"/>
	</g>
</g>
</svg>
