<?xml version="1.0" encoding="utf-8"?>
<!-- Generator: Adobe Illustrator 15.0.0, SVG Export Plug-In . SVG Version: 6.00 Build 0)  -->
<!DOCTYPE svg PUBLIC "-//W3C//DTD SVG 1.1//EN" "http://www.w3.org/Graphics/SVG/1.1/DTD/svg11.dtd">
<svg version="1.1" id="Layer_1" xmlns="http://www.w3.org/2000/svg" xmlns:xlink="http://www.w3.org/1999/xlink" x="0px" y="0px"
	 width="100px" height="100px" viewBox="0 0 100 100" enable-background="new 0 0 100 100" xml:space="preserve">
<g id="XMLID_1_">
	<g>
		<circle fill="#010101" cx="96.614" cy="48.307" r="3.41"/>
		<path fill="#010101" d="M98.003,28.203c-0.512,0-0.955-0.18-1.316-0.533c-0.361-0.354-0.547-0.793-0.547-1.307
			c0-0.513,0.186-0.954,0.547-1.311c0.361-0.355,0.807-0.535,1.316-0.535c0.514,0,0.958,0.18,1.317,0.535
			c0.359,0.356,0.545,0.797,0.545,1.311c0,0.51-0.186,0.948-0.545,1.306C98.961,28.022,98.517,28.203,98.003,28.203z M96.929,27.423
			c0.295,0.288,0.656,0.435,1.07,0.435c0.418,0,0.778-0.147,1.075-0.435c0.291-0.289,0.439-0.646,0.439-1.062
			c0-0.418-0.148-0.776-0.439-1.064c-0.297-0.288-0.657-0.433-1.075-0.433c-0.416,0-0.779,0.147-1.072,0.437
			c-0.295,0.289-0.443,0.645-0.443,1.062C96.483,26.778,96.634,27.134,96.929,27.423z"/>
		<path fill="#010101" d="M89.117,27.189v-3.054c0-0.245,0.102-0.342,0.352-0.342h1.285c0.151,0,0.228,0.06,0.228,0.176
			c0,0.113-0.074,0.171-0.228,0.171h-1.289v3.048c0,0.228,0.098,0.402,0.293,0.521c0.16,0.099,0.363,0.149,0.609,0.149
			c0.201,0,0.432-0.031,0.688-0.091c0.271-0.064,0.488-0.142,0.646-0.237c0.061-0.035,0.104-0.053,0.133-0.053
			c0.107,0,0.166,0.058,0.166,0.173c0,0.127-0.221,0.256-0.67,0.396c-0.326,0.103-0.642,0.155-0.94,0.155
			c-0.35,0-0.646-0.08-0.877-0.235C89.25,27.787,89.117,27.525,89.117,27.189z"/>
		<path fill="#010101" d="M83.754,44.897c1.884,0,3.409,1.527,3.409,3.411c0,1.883-1.525,3.409-3.409,3.409H60.056v6.529h16.846
			c5.668,0,10.262,4.594,10.262,10.264c0,5.666-4.594,10.262-10.262,10.262H56.646c-1.886,0-3.412-1.527-3.412-3.41
			c0-1.884,1.526-3.411,3.412-3.411h20.255c1.899,0,3.441-1.542,3.441-3.44c0-1.901-1.542-3.442-3.441-3.442H56.646
			c-1.886,0-3.412-1.526-3.412-3.409v-13.35c0-1.884,1.526-3.411,3.412-3.411H83.754z"/>
		<path fill="#010101" d="M80.962,25.052c0.363-0.355,0.807-0.535,1.318-0.535c0.514,0,0.956,0.18,1.315,0.535
			c0.361,0.356,0.545,0.797,0.545,1.311c0,0.51-0.184,0.948-0.545,1.306c-0.359,0.354-0.802,0.535-1.315,0.535
			s-0.955-0.18-1.318-0.533c-0.361-0.354-0.545-0.793-0.545-1.307C80.417,25.85,80.599,25.408,80.962,25.052z M81.206,27.423
			c0.295,0.288,0.654,0.435,1.072,0.435c0.416,0,0.778-0.147,1.071-0.435c0.295-0.289,0.443-0.646,0.443-1.062
			c0-0.418-0.148-0.776-0.443-1.064c-0.293-0.288-0.655-0.433-1.071-0.433c-0.42,0-0.779,0.147-1.074,0.437
			c-0.295,0.289-0.441,0.645-0.441,1.062C80.763,26.778,80.911,27.134,81.206,27.423z"/>
		<path fill="#010101" d="M75.438,23.555c0.135-0.057,0.287-0.12,0.523-0.12c0.188,0,0.336,0.151,0.336,0.338v4.104
			c0,0.004,0.002,0.097-0.055,0.155c-0.027,0.031-0.068,0.045-0.115,0.045c-0.049,0-0.092-0.016-0.119-0.045
			c-0.057-0.058-0.055-0.151-0.055-0.155v-4.061c-0.207,0.004-0.555,0.171-0.958,0.366c-0.045,0.022-0.088,0.044-0.133,0.065
			l-0.041,0.015c-0.152,0.06-0.264,0.104-0.383,0.105c-0.123-0.002-0.234-0.045-0.387-0.105l-0.039-0.015
			c-0.045-0.021-0.092-0.043-0.135-0.065c-0.402-0.195-0.75-0.362-0.957-0.366v4.061c0,0.004,0.002,0.097-0.055,0.155
			c-0.031,0.031-0.068,0.045-0.117,0.045s-0.09-0.016-0.119-0.045c-0.057-0.058-0.053-0.151-0.053-0.155v-4.104
			c0-0.093,0.035-0.178,0.098-0.242c0.064-0.062,0.148-0.096,0.238-0.096c0.238,0,0.389,0.063,0.521,0.12l0.027,0.011
			c0.07,0.027,0.152,0.069,0.242,0.115c0.225,0.111,0.504,0.251,0.73,0.254c0.229-0.003,0.506-0.144,0.731-0.254
			c0.09-0.045,0.174-0.087,0.242-0.115L75.438,23.555z"/>
		<path fill="#010101" d="M61.694,27.858c0.421,0,0.78-0.147,1.075-0.435c0.293-0.289,0.441-0.646,0.441-1.062
			c0-0.418-0.148-0.776-0.441-1.064c-0.295-0.288-0.654-0.433-1.075-0.433c-0.418,0-0.777,0.147-1.07,0.437
			c-0.295,0.289-0.443,0.645-0.443,1.062c0,0.416,0.148,0.771,0.445,1.062C60.921,27.711,61.28,27.858,61.694,27.858z
			 M63.559,26.363c0,0.51-0.182,0.948-0.543,1.306c-0.359,0.354-0.805,0.535-1.317,0.535c-0.512,0-0.957-0.18-1.316-0.533
			c-0.361-0.354-0.547-0.793-0.547-1.307c0-0.513,0.186-0.954,0.547-1.311c0.359-0.355,0.805-0.535,1.316-0.535
			c0.513,0,0.958,0.18,1.317,0.535C63.377,25.408,63.559,25.85,63.559,26.363z"/>
		<path fill="#010101" d="M55.026,28.047c-0.326,0.103-0.643,0.155-0.939,0.155c-0.354,0-0.647-0.08-0.878-0.235
			c-0.264-0.18-0.395-0.442-0.395-0.778v-3.054c0-0.245,0.102-0.342,0.352-0.342h1.286c0.15,0,0.227,0.06,0.227,0.176
			c0,0.113-0.074,0.171-0.227,0.171H53.16v3.048c0,0.228,0.098,0.402,0.293,0.521c0.16,0.099,0.363,0.149,0.61,0.149
			c0.201,0,0.434-0.031,0.688-0.091c0.271-0.064,0.49-0.142,0.646-0.237c0.059-0.035,0.102-0.053,0.133-0.053
			c0.109,0,0.164,0.058,0.164,0.173C55.694,27.778,55.476,27.907,55.026,28.047z"/>
		<path fill="#010101" d="M46.201,27.858c0.202,0,0.433-0.031,0.688-0.091c0.271-0.064,0.489-0.142,0.646-0.237
			c0.06-0.035,0.104-0.053,0.132-0.053c0.109,0,0.166,0.058,0.166,0.173c0,0.127-0.22,0.256-0.67,0.396
			c-0.325,0.103-0.641,0.155-0.938,0.155c-0.351,0-0.647-0.08-0.875-0.235c-0.266-0.18-0.398-0.442-0.398-0.778v-3.054
			c0-0.245,0.102-0.342,0.353-0.342h1.284c0.152,0,0.229,0.06,0.229,0.176c0,0.113-0.077,0.171-0.229,0.171h-1.291v3.048
			c0,0.228,0.099,0.402,0.293,0.52C45.751,27.807,45.957,27.858,46.201,27.858z"/>
		<path fill="#010101" d="M36.371,65.066H24.854c-1.884,0-3.41-1.525-3.41-3.409s1.526-3.411,3.41-3.411h11.694
			c1.802,0,3.263-1.463,3.263-3.265s-1.461-3.265-3.263-3.265H16.121c-1.883,0-3.41-1.525-3.41-3.409
			c0-1.884,1.526-3.411,3.41-3.411h20.428c8.72,0,13.33,10.32,7.511,16.813c5.856,6.627,1.153,17.062-7.688,17.062h-20.25
			c-1.883,0-3.41-1.527-3.41-3.41c0-1.884,1.526-3.411,3.41-3.411h20.25c1.899,0,3.441-1.542,3.441-3.439
			C39.812,66.607,38.27,65.066,36.371,65.066z"/>
		<path fill="#010101" d="M39.259,25.201c-0.28-0.222-0.616-0.336-0.996-0.336s-0.715,0.113-0.994,0.335
			c-0.276,0.222-0.451,0.521-0.52,0.892h3.03C39.711,25.724,39.537,25.423,39.259,25.201z M36.988,27.661
			c-0.393-0.365-0.591-0.829-0.591-1.379c0-0.505,0.189-0.932,0.559-1.269c0.362-0.33,0.8-0.497,1.309-0.497
			c0.591,0,0.998,0.162,1.355,0.54c0.329,0.348,0.479,0.789,0.479,1.053c0,0.191-0.131,0.329-0.311,0.329h-3.041
			c0.059,0.432,0.24,0.779,0.539,1.034c0.3,0.255,0.675,0.386,1.113,0.386c0.584,0,0.771-0.105,1.15-0.402
			c0.051-0.04,0.094-0.062,0.133-0.062c0.109,0,0.166,0.058,0.166,0.173c0,0.043-0.022,0.089-0.065,0.134
			c-0.164,0.169-0.275,0.231-0.508,0.342c-0.247,0.116-0.625,0.158-0.875,0.158C37.846,28.203,37.372,28.02,36.988,27.661z"/>
		<path fill="#010101" d="M29.912,24.752c0.229-0.154,0.524-0.234,0.875-0.234c0.294,0,0.609,0.053,0.936,0.154
			c0.447,0.14,0.665,0.27,0.665,0.396c0,0.115-0.054,0.173-0.163,0.173c-0.031,0-0.075-0.018-0.135-0.053
			c-0.155-0.094-0.373-0.173-0.644-0.236c-0.253-0.06-0.482-0.091-0.683-0.091c-0.246,0-0.449,0.051-0.607,0.149
			c-0.195,0.118-0.293,0.293-0.293,0.521v2.351c0,0.004-0.017,0.203-0.176,0.203c-0.16,0-0.169-0.201-0.169-0.203v-2.351
			C29.517,25.194,29.65,24.932,29.912,24.752z"/>
		<path fill="#010101" d="M23.379,25.684c0.226-0.102,0.396-0.242,0.505-0.417c0.097-0.157,0.146-0.317,0.146-0.479
			c0-0.295-0.125-0.542-0.376-0.739c-0.229-0.18-0.5-0.271-0.803-0.271h-1.175v2.051h1.055C22.95,25.83,23.17,25.781,23.379,25.684z
			 M23.89,23.795c0.322,0.256,0.484,0.589,0.484,0.993c0,0.417-0.162,0.749-0.48,0.985c-0.196,0.147-0.404,0.257-0.613,0.326
			c-0.152,0.051-0.346,0.075-0.572,0.075h-1.034v1.702c0,0.004,0.004,0.099-0.053,0.159c-0.029,0.029-0.067,0.043-0.114,0.043
			c-0.173,0-0.177-0.2-0.177-0.202v-4.102c0-0.209,0.127-0.338,0.333-0.338h1.156C23.234,23.435,23.594,23.556,23.89,23.795z"/>
		<path fill="#010101" d="M99.719,33.121c-1.38,0-97.967,0-99.61,0c-0.119,0-0.168-0.047-0.168-0.167
			c0-0.119,0.049-0.167,0.167-0.167c1.644,0,98.231,0,99.611,0c0.117,0,0.166,0.049,0.166,0.167
			C99.887,33.074,99.838,33.121,99.719,33.121z"/>
		<path fill="#010101" d="M8.634,25.199c-0.277,0.222-0.452,0.521-0.521,0.892h3.03c-0.067-0.367-0.242-0.667-0.52-0.891
			c-0.282-0.222-0.617-0.336-0.996-0.336C9.248,24.864,8.913,24.977,8.634,25.199z M8.35,27.661
			c-0.391-0.365-0.589-0.829-0.589-1.379c0-0.505,0.188-0.932,0.559-1.269c0.36-0.33,0.8-0.497,1.309-0.497
			c0.591,0,0.998,0.162,1.354,0.54c0.33,0.348,0.48,0.789,0.48,1.053c0,0.191-0.131,0.329-0.313,0.329H8.109
			c0.06,0.432,0.24,0.779,0.54,1.034c0.302,0.255,0.677,0.386,1.115,0.386c0.583,0,0.77-0.105,1.147-0.402
			c0.051-0.04,0.097-0.062,0.135-0.062c0.109,0,0.165,0.058,0.165,0.173c0,0.043-0.021,0.089-0.063,0.134
			c-0.166,0.169-0.276,0.231-0.507,0.342c-0.248,0.116-0.626,0.158-0.875,0.158C9.209,28.203,8.735,28.02,8.35,27.661z"/>
		<path fill="#010101" d="M3.558,25.885v-0.262c0-0.193-0.033-0.553-0.1-0.717c-0.093-0.233-0.229-0.457-0.403-0.666
			c-0.249-0.307-0.589-0.46-1.01-0.46c0,0-1.413,0-1.747,0c0,1.315,0,2.633,0,3.949c0.334,0,1.747,0,1.747,0
			c0.273,0,0.539-0.093,0.786-0.275c0.236-0.171,0.418-0.389,0.544-0.651C3.493,26.557,3.558,26.146,3.558,25.885z M3.9,25.693v0.12
			c0,0.839-0.366,1.585-0.979,1.997c-0.258,0.175-0.564,0.262-0.91,0.262H0.225c-0.149,0-0.226-0.058-0.226-0.171v-4.294v-0.005
			C0,23.492,0.077,23.435,0.225,23.435h1.787c0.548,0,0.984,0.193,1.298,0.571c0.186,0.225,0.338,0.507,0.444,0.82
			C3.851,25.115,3.9,25.417,3.9,25.693z"/>
	</g>
	<g>
		
			<line fill="none" stroke="#010101" stroke-width="0.25" stroke-miterlimit="10" x1="56.646" y1="78.771" x2="76.901" y2="78.771"/>
		<line fill="none" stroke="#010101" stroke-width="0.25" stroke-miterlimit="10" x1="56.646" y1="71.95" x2="76.901" y2="71.95"/>
		
			<line fill="none" stroke="#010101" stroke-width="0.25" stroke-miterlimit="10" x1="56.646" y1="65.066" x2="76.901" y2="65.066"/>
		
			<line fill="none" stroke="#010101" stroke-width="0.25" stroke-miterlimit="10" x1="56.646" y1="44.897" x2="83.754" y2="44.897"/>
		
			<line fill="none" stroke="#010101" stroke-width="0.25" stroke-miterlimit="10" x1="60.056" y1="51.717" x2="83.754" y2="51.717"/>
		<path fill="none" stroke="#010101" stroke-width="0.25" stroke-miterlimit="10" d="M56.646,71.95
			c-1.886,0-3.412,1.527-3.412,3.411c0,1.883,1.526,3.41,3.412,3.41"/>
		<path fill="none" stroke="#010101" stroke-width="0.25" stroke-miterlimit="10" d="M76.901,65.066
			c1.899,0,3.441,1.541,3.441,3.443c0,1.897-1.542,3.439-3.441,3.439"/>
		<path fill="none" stroke="#010101" stroke-width="0.25" stroke-miterlimit="10" d="M76.901,58.246
			c5.668,0,10.262,4.596,10.262,10.264s-4.594,10.263-10.262,10.263"/>
		<path fill="none" stroke="#010101" stroke-width="0.25" stroke-miterlimit="10" d="M83.754,44.897
			c1.884,0,3.409,1.527,3.409,3.411c0,1.883-1.525,3.409-3.409,3.409"/>
		
			<line fill="none" stroke="#010101" stroke-width="0.25" stroke-miterlimit="10" x1="60.056" y1="58.246" x2="76.901" y2="58.246"/>
		<path fill="none" stroke="#010101" stroke-width="0.25" stroke-miterlimit="10" d="M53.234,61.657
			c0,1.884,1.526,3.409,3.412,3.409"/>
		
			<line fill="none" stroke="#010101" stroke-width="0.25" stroke-miterlimit="10" x1="53.234" y1="48.308" x2="53.234" y2="61.657"/>
		<path fill="none" stroke="#010101" stroke-width="0.25" stroke-miterlimit="10" d="M56.646,44.897
			c-1.886,0-3.412,1.527-3.412,3.411"/>
		
			<line fill="none" stroke="#010101" stroke-width="0.25" stroke-miterlimit="10" x1="60.056" y1="51.717" x2="60.056" y2="58.246"/>
		
			<line fill="none" stroke="#010101" stroke-width="0.25" stroke-miterlimit="10" x1="24.854" y1="58.246" x2="36.548" y2="58.246"/>
		
			<line fill="none" stroke="#010101" stroke-width="0.25" stroke-miterlimit="10" x1="16.121" y1="78.771" x2="36.371" y2="78.771"/>
		<line fill="none" stroke="#010101" stroke-width="0.25" stroke-miterlimit="10" x1="16.121" y1="71.95" x2="36.371" y2="71.95"/>
		<polyline fill="none" stroke="#010101" stroke-width="0.25" stroke-miterlimit="10" points="24.854,65.066 36.371,65.066 
			36.548,65.066 		"/>
		<path fill="none" stroke="#010101" stroke-width="0.25" stroke-miterlimit="10" d="M36.548,44.897
			c8.72,0,13.33,10.32,7.511,16.813"/>
		<path fill="none" stroke="#010101" stroke-width="0.25" stroke-miterlimit="10" d="M36.371,65.066
			c1.899,0,3.441,1.541,3.441,3.443c0,1.897-1.542,3.439-3.441,3.439"/>
		<path fill="none" stroke="#010101" stroke-width="0.25" stroke-miterlimit="10" d="M44.059,61.711
			c5.856,6.627,1.153,17.062-7.688,17.062"/>
		<path fill="none" stroke="#010101" stroke-width="0.25" stroke-miterlimit="10" d="M24.854,65.066c-1.884,0-3.41-1.525-3.41-3.409
			s1.526-3.411,3.41-3.411"/>
		<path fill="none" stroke="#010101" stroke-width="0.25" stroke-miterlimit="10" d="M16.121,78.771c-1.883,0-3.41-1.527-3.41-3.41
			c0-1.884,1.526-3.411,3.41-3.411"/>
		
			<line fill="none" stroke="#010101" stroke-width="0.25" stroke-miterlimit="10" x1="16.121" y1="44.897" x2="36.548" y2="44.897"/>
		
			<line fill="none" stroke="#010101" stroke-width="0.25" stroke-miterlimit="10" x1="16.121" y1="51.717" x2="36.548" y2="51.717"/>
		<path fill="none" stroke="#010101" stroke-width="0.25" stroke-miterlimit="10" d="M36.548,51.717
			c1.802,0,3.263,1.463,3.263,3.265s-1.461,3.265-3.263,3.265"/>
		<path fill="none" stroke="#010101" stroke-width="0.25" stroke-miterlimit="10" d="M16.121,51.717c-1.883,0-3.41-1.525-3.41-3.409
			c0-1.884,1.526-3.411,3.41-3.411"/>
		<circle fill="none" stroke="#010101" stroke-width="0.25" stroke-miterlimit="10" cx="96.614" cy="48.307" r="3.41"/>
		<path fill="none" stroke="#010101" stroke-width="0.25" stroke-miterlimit="10" d="M76.128,28.077
			c-0.049,0-0.09-0.016-0.117-0.045c-0.057-0.058-0.055-0.151-0.055-0.155v-4.061c-0.207,0.004-0.555,0.171-0.96,0.366
			c-0.043,0.022-0.088,0.044-0.133,0.065l-0.039,0.015c-0.154,0.06-0.264,0.104-0.385,0.105c-0.121-0.002-0.232-0.045-0.387-0.105
			l-0.039-0.015c-0.045-0.021-0.09-0.043-0.133-0.065c-0.402-0.195-0.75-0.362-0.957-0.366v4.061c0,0.004,0.002,0.097-0.055,0.155
			c-0.031,0.031-0.07,0.045-0.119,0.045s-0.088-0.016-0.117-0.045c-0.057-0.058-0.053-0.151-0.053-0.155v-4.104
			c0-0.093,0.033-0.178,0.098-0.242c0.064-0.062,0.146-0.096,0.238-0.096c0.236,0,0.387,0.063,0.521,0.12l0.027,0.011
			c0.068,0.027,0.152,0.069,0.242,0.115c0.223,0.111,0.504,0.251,0.73,0.254c0.227-0.003,0.506-0.144,0.731-0.254
			c0.09-0.045,0.172-0.087,0.242-0.115l0.023-0.011c0.137-0.057,0.289-0.12,0.525-0.12c0.186,0,0.336,0.151,0.336,0.338v4.104
			c0,0.004,0.002,0.097-0.055,0.155C76.216,28.062,76.177,28.077,76.128,28.077z"/>
		<path fill="none" stroke="#010101" stroke-width="0.25" stroke-miterlimit="10" d="M98.003,28.203
			c-0.512,0-0.955-0.18-1.316-0.533c-0.361-0.354-0.547-0.793-0.547-1.307c0-0.513,0.186-0.954,0.547-1.311
			c0.361-0.355,0.807-0.535,1.316-0.535c0.514,0,0.958,0.18,1.317,0.535c0.359,0.356,0.545,0.797,0.545,1.311
			c0,0.51-0.186,0.948-0.545,1.306C98.961,28.022,98.517,28.203,98.003,28.203z"/>
		<path fill="none" stroke="#010101" stroke-width="0.25" stroke-miterlimit="10" d="M97.999,24.864
			c-0.416,0-0.779,0.147-1.072,0.437c-0.295,0.289-0.443,0.645-0.443,1.062c0,0.416,0.15,0.771,0.445,1.062
			c0.295,0.288,0.656,0.435,1.07,0.435c0.418,0,0.778-0.147,1.075-0.435c0.291-0.289,0.439-0.646,0.439-1.062
			c0-0.418-0.148-0.776-0.439-1.064C98.777,25.01,98.417,24.864,97.999,24.864z"/>
		<path fill="none" stroke="#010101" stroke-width="0.25" stroke-miterlimit="10" d="M29.686,28.085
			c-0.16,0-0.169-0.201-0.169-0.203v-2.351c0-0.336,0.134-0.6,0.396-0.779c0.229-0.154,0.524-0.234,0.875-0.234
			c0.294,0,0.609,0.053,0.936,0.154c0.447,0.14,0.665,0.27,0.665,0.396c0,0.115-0.054,0.173-0.163,0.173
			c-0.031,0-0.075-0.018-0.135-0.053c-0.155-0.094-0.373-0.173-0.644-0.236c-0.253-0.06-0.482-0.091-0.683-0.091
			c-0.246,0-0.449,0.051-0.607,0.149c-0.195,0.118-0.293,0.293-0.293,0.521v2.351C29.863,27.886,29.846,28.085,29.686,28.085z"/>
		<path fill="none" stroke="#010101" stroke-width="0.25" stroke-miterlimit="10" d="M90.391,28.203
			c-0.352,0-0.646-0.08-0.877-0.235c-0.264-0.18-0.396-0.442-0.396-0.778v-3.054c0-0.245,0.102-0.342,0.354-0.342h1.285
			c0.151,0,0.228,0.06,0.228,0.176c0,0.113-0.076,0.171-0.228,0.171h-1.291v3.048c0,0.228,0.098,0.402,0.293,0.521
			c0.16,0.099,0.363,0.149,0.609,0.149c0.203,0,0.434-0.031,0.688-0.091c0.271-0.064,0.49-0.142,0.646-0.237
			c0.061-0.035,0.104-0.053,0.133-0.053c0.109,0,0.166,0.058,0.166,0.173c0,0.127-0.221,0.256-0.67,0.396
			C91.005,28.15,90.688,28.203,90.391,28.203z"/>
		<path fill="none" stroke="#010101" stroke-width="0.25" stroke-miterlimit="10" d="M54.087,28.203
			c-0.354,0-0.647-0.08-0.878-0.235c-0.264-0.18-0.396-0.442-0.396-0.778v-3.054c0-0.245,0.102-0.342,0.354-0.342h1.284
			c0.152,0,0.229,0.06,0.229,0.176c0,0.113-0.076,0.171-0.229,0.171h-1.29v3.048c0,0.228,0.098,0.402,0.293,0.521
			c0.16,0.099,0.363,0.149,0.61,0.149c0.201,0,0.434-0.031,0.688-0.091c0.271-0.064,0.49-0.142,0.646-0.237
			c0.059-0.035,0.102-0.053,0.133-0.053c0.109,0,0.164,0.058,0.164,0.173c0,0.127-0.219,0.256-0.668,0.396
			C54.7,28.15,54.384,28.203,54.087,28.203z"/>
		<path fill="none" stroke="#010101" stroke-width="0.25" stroke-miterlimit="10" d="M46.225,28.203
			c-0.351,0-0.647-0.08-0.875-0.235c-0.266-0.18-0.398-0.442-0.398-0.778v-3.054c0-0.245,0.102-0.342,0.353-0.342h1.284
			c0.152,0,0.229,0.06,0.229,0.176c0,0.113-0.077,0.171-0.229,0.171h-1.291v3.048c0,0.228,0.099,0.402,0.293,0.521
			c0.16,0.099,0.365,0.149,0.609,0.149c0.202,0,0.433-0.031,0.688-0.091c0.271-0.064,0.489-0.142,0.646-0.237
			c0.06-0.035,0.104-0.053,0.132-0.053c0.109,0,0.166,0.058,0.166,0.173c0,0.127-0.22,0.256-0.67,0.396
			C46.838,28.15,46.523,28.203,46.225,28.203z"/>
		<path fill="none" stroke="#010101" stroke-width="0.25" stroke-miterlimit="10" d="M82.28,28.203c-0.514,0-0.955-0.18-1.318-0.533
			c-0.361-0.354-0.545-0.793-0.545-1.307c0-0.513,0.184-0.954,0.545-1.311c0.363-0.355,0.807-0.535,1.318-0.535
			c0.514,0,0.956,0.18,1.315,0.535c0.361,0.356,0.545,0.797,0.545,1.311c0,0.51-0.184,0.948-0.545,1.306
			C83.236,28.022,82.794,28.203,82.28,28.203z"/>
		<path fill="none" stroke="#010101" stroke-width="0.25" stroke-miterlimit="10" d="M82.278,24.864
			c-0.42,0-0.779,0.147-1.074,0.437c-0.295,0.289-0.441,0.645-0.441,1.062c0,0.416,0.148,0.771,0.443,1.062
			c0.295,0.288,0.654,0.435,1.072,0.435c0.416,0,0.778-0.147,1.071-0.435c0.295-0.289,0.443-0.646,0.443-1.062
			c0-0.418-0.148-0.776-0.443-1.064C83.057,25.01,82.694,24.864,82.278,24.864z"/>
		<path fill="none" stroke="#010101" stroke-width="0.25" stroke-miterlimit="10" d="M61.698,28.203
			c-0.512,0-0.957-0.18-1.316-0.533c-0.361-0.354-0.547-0.793-0.547-1.307c0-0.513,0.186-0.954,0.547-1.311
			c0.359-0.355,0.805-0.535,1.316-0.535c0.513,0,0.958,0.18,1.317,0.535c0.361,0.356,0.543,0.797,0.543,1.311
			c0,0.51-0.182,0.948-0.543,1.306C62.656,28.022,62.213,28.203,61.698,28.203z"/>
		<path fill="none" stroke="#010101" stroke-width="0.25" stroke-miterlimit="10" d="M61.694,24.864
			c-0.418,0-0.777,0.147-1.07,0.437c-0.295,0.289-0.443,0.645-0.443,1.062c0,0.416,0.148,0.771,0.445,1.062
			c0.295,0.288,0.654,0.435,1.068,0.435c0.421,0,0.78-0.147,1.075-0.435c0.293-0.289,0.441-0.646,0.441-1.062
			c0-0.418-0.148-0.776-0.441-1.064C62.475,25.01,62.115,24.864,61.694,24.864z"/>
		<path fill="none" stroke="#010101" stroke-width="0.25" stroke-miterlimit="10" d="M21.508,28.077c-0.173,0-0.177-0.2-0.177-0.203
			v-4.101c0-0.209,0.127-0.338,0.333-0.338h1.156c0.414,0,0.773,0.122,1.07,0.36c0.322,0.256,0.484,0.589,0.484,0.993
			c0,0.417-0.162,0.749-0.48,0.985c-0.196,0.147-0.404,0.257-0.613,0.326c-0.152,0.051-0.346,0.075-0.572,0.075h-1.034v1.702
			c0,0.004,0.004,0.099-0.053,0.159C21.594,28.062,21.555,28.077,21.508,28.077z"/>
		<path fill="none" stroke="#010101" stroke-width="0.25" stroke-miterlimit="10" d="M21.675,25.83h1.054
			c0.222,0,0.441-0.049,0.65-0.146c0.226-0.102,0.396-0.242,0.505-0.417c0.097-0.157,0.146-0.317,0.146-0.479
			c0-0.295-0.125-0.542-0.376-0.739c-0.229-0.18-0.5-0.271-0.803-0.271h-1.175L21.675,25.83L21.675,25.83z"/>
		<path fill="none" stroke="#010101" stroke-width="0.25" stroke-miterlimit="10" d="M9.762,28.203
			c-0.553,0-1.028-0.183-1.412-0.542c-0.391-0.365-0.589-0.829-0.589-1.379c0-0.505,0.188-0.932,0.559-1.269
			c0.36-0.33,0.8-0.497,1.309-0.497c0.591,0,0.998,0.162,1.354,0.54c0.33,0.348,0.48,0.789,0.48,1.053
			c0,0.191-0.131,0.329-0.313,0.329H8.109c0.06,0.432,0.24,0.779,0.54,1.034c0.302,0.255,0.677,0.386,1.115,0.386
			c0.583,0,0.77-0.105,1.147-0.402c0.051-0.04,0.097-0.062,0.135-0.062c0.109,0,0.165,0.058,0.165,0.173
			c0,0.043-0.021,0.089-0.063,0.134c-0.166,0.169-0.276,0.231-0.507,0.342C10.391,28.161,10.012,28.203,9.762,28.203z"/>
		<path fill="none" stroke="#010101" stroke-width="0.25" stroke-miterlimit="10" d="M8.114,26.092h3.03
			c-0.067-0.367-0.242-0.667-0.52-0.891c-0.282-0.222-0.617-0.336-0.996-0.336c-0.38,0-0.715,0.113-0.993,0.335
			C8.358,25.421,8.183,25.72,8.114,26.092z"/>
		<path fill="none" stroke="#010101" stroke-width="0.25" stroke-miterlimit="10" d="M38.397,28.203
			c-0.551,0-1.026-0.183-1.41-0.542c-0.393-0.365-0.591-0.829-0.591-1.379c0-0.505,0.189-0.932,0.559-1.269
			c0.362-0.33,0.8-0.497,1.309-0.497c0.591,0,0.998,0.162,1.355,0.54c0.329,0.348,0.479,0.789,0.479,1.053
			c0,0.191-0.131,0.329-0.311,0.329h-3.041c0.059,0.432,0.24,0.779,0.539,1.034c0.3,0.255,0.675,0.386,1.113,0.386
			c0.584,0,0.771-0.105,1.15-0.402c0.051-0.04,0.094-0.062,0.133-0.062c0.109,0,0.166,0.058,0.166,0.173
			c0,0.043-0.022,0.089-0.065,0.134c-0.164,0.169-0.275,0.231-0.508,0.342C39.025,28.161,38.647,28.203,38.397,28.203z"/>
		<path fill="none" stroke="#010101" stroke-width="0.25" stroke-miterlimit="10" d="M36.749,26.092h3.03
			c-0.067-0.367-0.242-0.667-0.521-0.891c-0.28-0.222-0.615-0.336-0.995-0.336c-0.38,0-0.715,0.113-0.994,0.335
			C36.993,25.421,36.817,25.72,36.749,26.092z"/>
		<path fill="none" stroke="#010101" stroke-width="0.25" stroke-miterlimit="10" d="M0.298,23.779c0,1.315,0,2.633,0,3.949
			c0.334,0,1.747,0,1.747,0c0.273,0,0.539-0.093,0.786-0.275c0.236-0.171,0.418-0.389,0.544-0.651
			c0.118-0.245,0.182-0.655,0.182-0.917v-0.262c0-0.193-0.033-0.553-0.1-0.717c-0.093-0.233-0.229-0.457-0.403-0.666
			c-0.249-0.307-0.589-0.46-1.01-0.46C2.045,23.779,0.632,23.779,0.298,23.779z"/>
		<path fill="none" stroke="#010101" stroke-width="0.25" stroke-miterlimit="10" d="M0,23.6c0.001-0.109,0.078-0.166,0.226-0.166
			h1.786c0.548,0,0.984,0.193,1.298,0.571c0.186,0.224,0.338,0.507,0.444,0.82C3.85,25.114,3.9,25.414,3.9,25.692v0.12
			c0,0.839-0.366,1.584-0.979,1.997c-0.258,0.175-0.564,0.262-0.91,0.262H0.225c-0.149,0-0.226-0.058-0.226-0.171"/>
		<polyline fill="none" stroke="#010101" stroke-width="0.25" stroke-miterlimit="10" points="0,27.9 0,23.606 0,23.6 		"/>
		<path fill="none" stroke="#010101" stroke-width="0.25" stroke-miterlimit="10" d="M99.719,33.121c-1.38,0-97.967,0-99.61,0
			c-0.119,0-0.168-0.047-0.168-0.167c0-0.119,0.049-0.167,0.167-0.167c1.644,0,98.231,0,99.611,0c0.117,0,0.166,0.049,0.166,0.167
			C99.887,33.074,99.838,33.121,99.719,33.121z"/>
	</g>
</g>
</svg>
