<?xml version="1.0" encoding="utf-8"?>
<!-- Generator: Adobe Illustrator 16.0.0, SVG Export Plug-In . SVG Version: 6.00 Build 0)  -->
<!DOCTYPE svg PUBLIC "-//W3C//DTD SVG 1.1//EN" "http://www.w3.org/Graphics/SVG/1.1/DTD/svg11.dtd">
<svg version="1.1" id="Layer_1" xmlns="http://www.w3.org/2000/svg" xmlns:xlink="http://www.w3.org/1999/xlink" x="0px" y="0px"
	 width="100px" height="100px" viewBox="0 0 100 100" enable-background="new 0 0 100 100" xml:space="preserve">
<g>
	<path d="M47.601,73.834c-0.579-0.182-1.142-0.274-1.673-0.274c-0.648,0-1.192,0.146-1.619,0.435
		c-0.508,0.346-0.766,0.85-0.766,1.496v4.057c0.008,0.212,0.144,0.524,0.479,0.524c0.309,0,0.47-0.268,0.49-0.533v-4.049
		c0-0.329,0.137-0.571,0.421-0.741c0.453-0.281,1.175-0.296,2.094-0.077c0.452,0.104,0.809,0.234,1.064,0.387
		c0.137,0.079,0.235,0.115,0.324,0.115c0.289,0,0.469-0.185,0.469-0.481C48.884,74.368,48.499,74.11,47.601,73.834z"/>
	<g>
		<path d="M97.215,55.359c-0.544,0-1.014-0.186-1.355-0.537c-0.594-0.608-0.604-1.49-0.601-1.639V22.208
			c-1.553,0.283-3.943,1.432-6.653,2.734c-0.341,0.166-0.688,0.331-1.041,0.5l-0.046,0.02l-0.306,0.117
			c-1.204,0.469-2.154,0.838-3.222,0.856h-0.012h-0.012c-1.065-0.017-2.019-0.388-3.225-0.858l-0.346-0.136
			c-0.348-0.167-0.692-0.331-1.03-0.494c-2.713-1.307-5.107-2.457-6.661-2.741v30.976c0.003,0.146-0.01,1.03-0.605,1.639
			c-0.341,0.352-0.812,0.537-1.356,0.537c-0.546,0-1.015-0.186-1.357-0.54c-0.589-0.605-0.599-1.484-0.594-1.638V21.192
			c0.002-1.786,1.458-3.24,3.248-3.24c1.972,0,3.226,0.521,4.332,0.981l0.209,0.086c0.559,0.221,1.233,0.557,1.945,0.911
			c1.698,0.844,3.812,1.896,5.454,1.923c1.644-0.026,3.759-1.079,5.461-1.925c0.71-0.352,1.383-0.687,1.948-0.912l0.199-0.083
			c1.104-0.46,2.361-0.981,4.333-0.981c1.79,0,3.246,1.455,3.246,3.24v31.99c0.003,0.152-0.008,1.031-0.597,1.637
			C98.23,55.174,97.761,55.359,97.215,55.359z"/>
	</g>
	<g>
		<path d="M40.769,55.547c-1.45,0-1.997-1.305-2.011-2.181V21.209c0-1.947,1.301-3.257,3.235-3.257h9.1
			c3.398,0,6.366,0.998,8.822,2.963c2.681,2.121,4.043,4.9,4.043,8.254c0,3.465-1.356,6.227-4.032,8.207
			c-1.61,1.196-3.299,2.083-5.019,2.638c-1.261,0.412-2.839,0.622-4.688,0.622h-7.532v12.708c0.004,0.166,0.001,1.059-0.584,1.67
			C41.766,55.362,41.305,55.547,40.769,55.547z M42.687,36.727h7.689c1.66,0,3.294-0.366,4.862-1.087
			c1.684-0.751,2.938-1.772,3.735-3.037c0.701-1.126,1.056-2.282,1.056-3.432c0-2.14-0.896-3.876-2.738-5.309
			c-1.7-1.327-3.701-1.999-5.95-1.999h-8.654V36.727z"/>
	</g>
	<path d="M27.879,22.651c-2.588-3.118-6.186-4.699-10.69-4.699H3.114c-1.541,0-2.405,0.858-2.405,2.032v0.528L0.711,54.16h0.087
		c0.183,0.621,0.736,1.345,2.315,1.345h14.075c2.841,0,5.362-0.725,7.5-2.153c4.996-3.345,7.982-9.379,7.982-16.146v-0.952
		C32.67,31.488,30.789,26.149,27.879,22.651z M17.438,51.596H4.283V21.863h13.155c3.164,0,5.614,1.107,7.496,3.387
		c1.323,1.595,2.356,3.299,3.075,5.067c0.437,1.058,0.73,3.635,0.73,5.378v2.066c0,2.008-0.512,5.147-1.369,6.924
		c-0.942,1.955-2.318,3.592-4.093,4.87C21.428,50.91,19.463,51.596,17.438,51.596z"/>
	<g>
		<path d="M0.711,64.479c0,0.384,0.365,0.695,0.811,0.695H98.35c0.445,0,0.811-0.312,0.811-0.695c0-0.381-0.365-0.695-0.811-0.695
			H1.522C1.078,63.784,0.711,64.099,0.711,64.479z"/>
	</g>
	<path d="M10.087,74.842C9.916,74.43,9.652,74.104,9.3,73.874c-0.353-0.232-0.761-0.349-1.218-0.349c-0.486,0-0.945,0.135-1.367,0.4
		c-0.353,0.223-0.658,0.533-0.909,0.926c-0.111-0.262-0.238-0.475-0.378-0.634c-0.186-0.209-0.426-0.38-0.716-0.506
		c-0.289-0.125-0.597-0.188-0.916-0.188c-0.472,0-0.925,0.129-1.354,0.387c-0.312,0.192-0.603,0.541-0.615,0.557
		c-0.019,0.021-0.035,0.037-0.048,0.047c-0.003-0.017-0.005-0.037-0.005-0.065v-0.194c0-0.313-0.238-0.57-0.531-0.57
		c-0.295,0-0.534,0.257-0.534,0.57v5.349c0,0.313,0.238,0.57,0.534,0.57c0.293,0,0.531-0.257,0.531-0.57v-2.199
		c0-0.759,0.077-1.326,0.226-1.686c0.145-0.354,0.371-0.639,0.673-0.846c0.301-0.206,0.628-0.312,0.971-0.312
		c0.293,0,0.549,0.074,0.76,0.221c0.212,0.146,0.358,0.338,0.442,0.582c0.073,0.206,0.11,0.83,0.119,1.054
		c0.009,0.24,0.016,0.636,0.016,0.878v2.306c0,0.315,0.238,0.572,0.532,0.572c0.296,0,0.534-0.257,0.534-0.572v-1.997
		c0-0.874,0.072-1.501,0.213-1.866c0.14-0.355,0.362-0.644,0.663-0.857c0.299-0.212,0.634-0.32,0.994-0.32
		c0.294,0,0.55,0.071,0.758,0.207c0.21,0.14,0.354,0.317,0.441,0.543c0.072,0.188,0.108,0.711,0.114,0.896
		c0.011,0.239,0.02,0.633,0.02,0.876v2.52c0,0.315,0.243,0.572,0.542,0.572c0.298,0,0.542-0.257,0.542-0.572v-2.96
		C10.339,75.84,10.256,75.251,10.087,74.842z"/>
	<path d="M29.738,73.686c-0.291,0-0.528,0.257-0.528,0.571v0.332c-0.269-0.308-0.573-0.549-0.905-0.723
		c-0.434-0.227-0.924-0.341-1.457-0.341c-0.922,0-1.723,0.334-2.378,0.994c-0.655,0.66-0.987,1.465-0.987,2.395
		c0,0.946,0.329,1.762,0.978,2.423c0.65,0.664,1.445,0.999,2.365,0.999c0.518,0,1-0.109,1.437-0.323
		c0.434-0.213,0.841-0.617,0.86-0.635c0.041-0.042,0.067-0.054,0.073-0.062c0.006,0.012,0.016,0.042,0.016,0.099v0.189
		c0,0.313,0.238,0.571,0.528,0.571c0.291,0,0.528-0.258,0.528-0.571v-5.348C30.267,73.942,30.028,73.686,29.738,73.686z
		 M29.263,76.962c0,0.448-0.104,0.855-0.304,1.213c-0.2,0.355-0.49,0.64-0.861,0.848c-0.743,0.416-1.629,0.422-2.352-0.001
		c-0.359-0.211-0.649-0.509-0.862-0.888c-0.214-0.379-0.324-0.781-0.324-1.195c0-0.418,0.108-0.819,0.321-1.195
		c0.211-0.374,0.499-0.669,0.857-0.875c0.357-0.205,0.753-0.311,1.176-0.311c0.658,0,1.22,0.231,1.669,0.688
		C29.034,75.703,29.263,76.279,29.263,76.962z"/>
	<path d="M59.756,73.686c-0.295,0-0.533,0.257-0.533,0.571v5.348c0,0.313,0.238,0.571,0.533,0.571c0.294,0,0.533-0.258,0.533-0.571
		v-5.348C60.289,73.942,60.049,73.686,59.756,73.686z"/>
	<path d="M79.147,74.915c-0.185-0.423-0.469-0.765-0.854-1.014c-0.382-0.249-0.825-0.376-1.315-0.376
		c-0.481,0-0.933,0.11-1.343,0.332c-0.405,0.221-0.79,0.641-0.805,0.659c-0.027,0.029-0.047,0.047-0.062,0.055
		c-0.006-0.016-0.011-0.043-0.011-0.081v-0.234c0-0.313-0.238-0.571-0.534-0.571c-0.294,0-0.533,0.258-0.533,0.571v5.348
		c0,0.314,0.239,0.571,0.533,0.571c0.296,0,0.534-0.257,0.534-0.571V77.76c0-0.807,0.039-1.366,0.111-1.663
		c0.115-0.444,0.356-0.822,0.72-1.123c0.359-0.3,0.773-0.451,1.227-0.451c0.394,0,0.716,0.095,0.955,0.284
		c0.239,0.188,0.404,0.476,0.493,0.86c0.045,0.186,0.069,0.761,0.074,0.968c0.006,0.242,0.011,0.638,0.011,0.879v2.09
		c0,0.314,0.239,0.571,0.534,0.571s0.533-0.257,0.533-0.571v-2.767C79.416,75.965,79.329,75.337,79.147,74.915z"/>
	<path d="M99.175,76.489c0-0.493-0.278-1.314-0.888-1.955c-0.665-0.699-1.414-0.996-2.502-0.996c-0.938,0-1.747,0.306-2.41,0.909
		c-0.691,0.622-1.041,1.41-1.041,2.344c0,1.009,0.367,1.861,1.092,2.534c0.708,0.655,1.582,0.987,2.593,0.987
		c0.454,0,1.147-0.077,1.608-0.294c0.43-0.203,0.634-0.317,0.943-0.635c0.108-0.114,0.162-0.236,0.162-0.36
		c0-0.297-0.18-0.483-0.47-0.483c-0.113,0-0.228,0.048-0.349,0.145c-0.64,0.498-0.929,0.66-1.896,0.66
		c-0.731,0-1.329-0.205-1.829-0.627c-0.443-0.377-0.721-0.86-0.841-1.473h5.095C98.859,77.247,99.175,76.921,99.175,76.489z
		 M94.162,75.054c0.453-0.359,0.999-0.543,1.623-0.543c0.618,0,1.165,0.184,1.621,0.546c0.403,0.317,0.663,0.716,0.795,1.217H93.37
		C93.504,75.77,93.766,75.369,94.162,75.054z"/>
</g>
</svg>
