<?xml version="1.0" encoding="utf-8"?>
<!-- Generator: Adobe Illustrator 15.0.0, SVG Export Plug-In . SVG Version: 6.00 Build 0)  -->
<!DOCTYPE svg PUBLIC "-//W3C//DTD SVG 1.1//EN" "http://www.w3.org/Graphics/SVG/1.1/DTD/svg11.dtd">
<svg version="1.1" id="Layer_1" xmlns="http://www.w3.org/2000/svg" xmlns:xlink="http://www.w3.org/1999/xlink" x="0px" y="0px"
	 width="100px" height="100px" viewBox="0 0 100 100" enable-background="new 0 0 100 100" xml:space="preserve">
<circle fill="#010101" cx="50.09" cy="49.7" r="49.7"/>
<line fill="none" stroke="#FFFFFF" stroke-width="0.1867" x1="24.92" y1="54.002" x2="75.586" y2="54.002"/>
<g>
	<path fill="#FFFFFF" d="M4.917,58.066c0-0.613,0.38-0.822,1.019-0.822c0.197,0,0.367,0.03,0.551,0.051v0.494
		c-0.122-0.008-0.241-0.014-0.354-0.014c-0.413,0-0.583,0.052-0.583,0.322v0.462h0.937v0.493H5.551v2.825H4.917v-2.825H4.241V58.56
		h0.676V58.066z"/>
	<path fill="#FFFFFF" d="M10.935,59.599c0.083-0.829,0.652-1.152,1.645-1.152c0.678,0,1.526,0.172,1.526,0.942v1.787
		c0,0.196,0.088,0.283,0.286,0.283c0.069,0,0.158-0.012,0.221-0.023v0.442c-0.152,0.025-0.341,0.037-0.493,0.037
		c-0.317,0-0.526-0.089-0.57-0.462c-0.253,0.342-0.874,0.538-1.412,0.538c-1.102,0-1.348-0.569-1.348-1.001
		c0-0.607,0.36-0.918,1.424-1.03l0.721-0.078c0.354-0.036,0.577-0.1,0.577-0.396c0-0.457-0.443-0.545-0.955-0.545
		c-0.545,0-1.007,0.146-1.026,0.658H10.935z M13.51,60.144c-0.095,0.107-0.267,0.152-0.62,0.195l-0.716,0.089
		c-0.494,0.063-0.754,0.196-0.754,0.546c0,0.309,0.311,0.524,0.773,0.524c0.714,0,1.316-0.381,1.316-0.932L13.51,60.144
		L13.51,60.144z"/>
	<path fill="#FFFFFF" d="M19.596,60.834c0,0.297,0.241,0.664,1.044,0.664c0.817,0,1.013-0.284,1.013-0.518
		c0-0.234-0.12-0.374-0.626-0.444l-1.045-0.14c-0.475-0.062-0.899-0.366-0.899-0.879c0-0.67,0.583-1.07,1.512-1.07
		c1.089,0,1.564,0.469,1.621,1.114h-0.632c-0.019-0.336-0.335-0.62-0.994-0.62c-0.405,0-0.873,0.113-0.873,0.507
		c0,0.223,0.102,0.349,0.55,0.411l0.899,0.121c0.836,0.113,1.159,0.41,1.159,0.879c0,0.772-0.651,1.134-1.665,1.134
		c-0.759,0-1.627-0.196-1.696-1.159H19.596L19.596,60.834z"/>
	<path fill="#FFFFFF" d="M27.017,57.319h0.633v1.741h0.013c0.297-0.462,0.823-0.614,1.298-0.614c0.798,0,1.393,0.343,1.393,1.171
		v2.261h-0.633v-2.134c0-0.487-0.305-0.767-0.982-0.767c-0.576,0-1.088,0.337-1.088,0.988v1.912h-0.633V57.319z"/>
	<path fill="#FFFFFF" d="M35.236,57.319h0.632v0.696h-0.632V57.319z M35.236,58.56h0.632v3.318h-0.632V58.56z"/>
	<path fill="#FFFFFF" d="M42.532,58.446c1.292,0,1.924,0.816,1.924,1.773c0,0.956-0.632,1.771-1.924,1.771
		c-1.291,0-1.925-0.815-1.925-1.771C40.607,59.263,41.241,58.446,42.532,58.446z M42.532,58.978c-0.917,0-1.253,0.64-1.253,1.242
		c0,0.601,0.336,1.239,1.253,1.239c0.918,0,1.254-0.64,1.254-1.239C43.786,59.617,43.45,58.978,42.532,58.978z"/>
	<path fill="#FFFFFF" d="M49.193,58.56h0.633v0.501h0.012c0.297-0.462,0.825-0.614,1.299-0.614c0.796,0,1.391,0.343,1.391,1.171
		v2.261h-0.634v-2.134c0-0.487-0.303-0.767-0.981-0.767c-0.575,0-1.088,0.337-1.088,0.988v1.912h-0.633L49.193,58.56L49.193,58.56z"
		/>
	<path fill="#FFFFFF" d="M59.191,58.446c1.292,0,1.925,0.816,1.925,1.773c0,0.956-0.633,1.771-1.925,1.771s-1.926-0.815-1.926-1.771
		C57.266,59.263,57.899,58.446,59.191,58.446z M59.191,58.978c-0.918,0-1.254,0.64-1.254,1.242c0,0.601,0.336,1.239,1.254,1.239
		c0.917,0,1.255-0.64,1.255-1.239C60.445,59.617,60.108,58.978,59.191,58.978z"/>
	<path fill="#FFFFFF" d="M69.188,61.878h-0.633v-0.501h-0.013c-0.297,0.464-0.823,0.614-1.298,0.614
		c-0.798,0-1.394-0.342-1.394-1.172v-2.26h0.635v2.135c0,0.488,0.303,0.767,0.981,0.767c0.574,0,1.088-0.336,1.088-0.987v-1.912
		h0.633V61.878z"/>
	<path fill="#FFFFFF" d="M74.351,57.541h0.633v1.019h0.95v0.493h-0.95v2.046c0,0.268,0.188,0.36,0.513,0.36
		c0.146,0,0.291-0.019,0.438-0.043v0.53c-0.216,0.038-0.449,0.045-0.708,0.045c-0.622,0-0.875-0.304-0.875-0.785v-2.153h-0.684
		V58.56h0.684V57.541z"/>
	<path fill="#FFFFFF" d="M80.523,57.319h0.634v4.559h-0.634V57.319z"/>
	<path fill="#FFFFFF" d="M86.568,60.409c0.051,0.685,0.656,1.052,1.222,1.052c0.36,0,0.854-0.119,1.07-0.589h0.671
		c-0.317,0.797-1.058,1.121-1.709,1.121c-1.293,0-1.928-0.816-1.928-1.773c0-0.955,0.635-1.772,1.928-1.772
		c0.872,0,1.796,0.507,1.796,1.882v0.081L86.568,60.409L86.568,60.409z M88.946,59.915c-0.094-0.6-0.563-0.936-1.157-0.936
		c-0.583,0-1.105,0.343-1.203,0.936H88.946z"/>
	<path fill="#FFFFFF" d="M94.652,57.541h0.634v1.019h0.95v0.493h-0.95v2.046c0,0.268,0.191,0.36,0.514,0.36
		c0.146,0,0.292-0.019,0.437-0.043v0.53c-0.216,0.038-0.45,0.045-0.709,0.045c-0.62,0-0.875-0.304-0.875-0.785v-2.153h-0.684V58.56
		h0.684V57.541z"/>
</g>
<path fill="#EC2227" d="M55.553,46.7c-0.379,0.863-0.868,1.405-1.472,1.623c-0.413,0.151-0.837,0.177-1.269,0.078
	s-0.805-0.304-1.119-0.614c-0.646,1.172-1.462,1.938-2.447,2.297c-0.808,0.294-1.594,0.301-2.354,0.019
	c-0.818-0.284-1.37-0.818-1.657-1.608c-0.436-1.192,0.017-2.636,1.355-4.328c-1.07-0.393-1.698-0.923-1.885-1.591
	c-0.165-0.577-0.067-1.138,0.292-1.681c0.341-0.504,0.813-0.865,1.414-1.083c0.64-0.233,1.217-0.275,1.729-0.127
	c0.576,0.17,0.976,0.564,1.202,1.187c0.159,0.435,0.12,0.878-0.117,1.332c-0.083,0.142-0.356,0.51-0.822,1.104
	c0.453,0.17,1.085,0.542,1.897,1.119c0.811,0.576,1.37,1.047,1.673,1.417c0.287-1.266,0.328-2.18,0.124-2.742
	c-0.083-0.228-0.271-0.358-0.563-0.397c-0.243-0.024-0.489,0.021-0.738,0.134l-0.139-0.384l2.965-1.097l0.149,0.415
	c-0.54,0.23-0.905,0.895-1.099,1.991c-0.102,0.83-0.2,1.659-0.3,2.489c0.32,0.239,0.646,0.484,0.97,0.734
	c0.423,0.27,0.792,0.349,1.106,0.234c0.346-0.125,0.569-0.37,0.674-0.73L55.553,46.7z M48.463,41.258
	c-0.141-0.385-0.389-0.676-0.746-0.875c-0.357-0.199-0.725-0.231-1.098-0.095c-0.276,0.101-0.497,0.309-0.661,0.625
	c-0.164,0.317-0.196,0.614-0.095,0.889c0.172,0.474,0.815,0.909,1.933,1.306c0.198-0.284,0.39-0.577,0.577-0.879
	C48.558,41.926,48.589,41.603,48.463,41.258z M51.311,47.473c-0.379-0.488-1.004-1.058-1.879-1.711
	c-0.854-0.627-1.577-1.067-2.171-1.319c-0.751,1.188-0.997,2.138-0.739,2.848c0.241,0.662,0.654,1.169,1.242,1.523
	c0.628,0.376,1.263,0.445,1.903,0.212C50.326,48.785,50.875,48.268,51.311,47.473z"/>
<g>
	<path fill="#FFFFFF" d="M12.909,41.805h-0.435c-0.235-0.758-0.447-1.227-0.638-1.407c-0.244-0.223-0.752-0.335-1.522-0.335
		l-2.513-0.017c-0.446,0-0.669,0.133-0.669,0.402v3.884l2.396,0.017c0.613,0,1.048-0.111,1.305-0.335
		c0.256-0.223,0.436-0.647,0.536-1.272h0.419v3.884h-0.419c-0.066-0.57-0.19-0.96-0.368-1.172c-0.224-0.256-0.609-0.391-1.155-0.401
		l-2.713-0.049l-0.017,3.766c0,0.537,0.129,0.905,0.385,1.105c0.201,0.168,0.581,0.263,1.138,0.286v0.334H3.935v-0.334
		c0.514-0.012,0.876-0.09,1.088-0.235c0.257-0.179,0.385-0.525,0.385-1.038v-7.818c0-0.525-0.118-0.876-0.351-1.056
		c-0.179-0.133-0.554-0.229-1.123-0.285V39.41h8.907L12.909,41.805z"/>
	<path fill="#FFFFFF" d="M22.955,47.647l-0.771,2.847h-9.057V50.16c0.524-0.012,0.9-0.109,1.129-0.293
		c0.229-0.184,0.344-0.528,0.344-1.03v-7.768c0-0.547-0.123-0.899-0.368-1.056c-0.125-0.088-0.492-0.184-1.105-0.285v-0.318h8.957
		l0.067,2.377l-0.485,0.018c-0.057-0.257-0.179-0.625-0.368-1.104c-0.224-0.357-0.865-0.581-1.926-0.67
		c-0.256-0.022-0.994-0.033-2.21-0.033c-0.558,0-0.836,0.191-0.836,0.568v3.802h2.913c0.513,0,0.882-0.151,1.104-0.452
		c0.168-0.224,0.291-0.613,0.369-1.172h0.401v3.884h-0.401c-0.045-0.581-0.185-1.002-0.418-1.264
		c-0.235-0.262-0.632-0.394-1.189-0.394h-2.779v4.386c0,0.359,0.535,0.538,1.607,0.538c1.328,0,2.231-0.095,2.712-0.285
		c0.736-0.279,1.339-0.933,1.808-1.96h0.503V47.647z"/>
	<path fill="#FFFFFF" d="M33.503,47.647l-0.771,2.847h-9.058V50.16c0.524-0.012,0.901-0.109,1.129-0.293
		c0.229-0.184,0.344-0.528,0.344-1.03v-7.768c0-0.547-0.124-0.899-0.369-1.056c-0.123-0.088-0.491-0.184-1.104-0.285v-0.318h8.957
		l0.067,2.377l-0.485,0.018c-0.056-0.257-0.179-0.625-0.368-1.104c-0.223-0.357-0.864-0.581-1.926-0.67
		c-0.257-0.022-0.993-0.033-2.21-0.033c-0.558,0-0.836,0.191-0.836,0.568v3.802h2.914c0.513,0,0.881-0.151,1.104-0.452
		c0.168-0.224,0.29-0.613,0.369-1.172h0.401v3.884H31.26c-0.044-0.581-0.185-1.002-0.418-1.264c-0.233-0.262-0.63-0.394-1.188-0.394
		h-2.779v4.386c0,0.359,0.535,0.538,1.607,0.538c1.328,0,2.232-0.095,2.712-0.285c0.735-0.279,1.339-0.933,1.808-1.96h0.502V47.647z
		"/>
	<path fill="#FFFFFF" d="M43.833,47.581l-0.805,2.913h-9.008V50.16c0.525-0.012,0.898-0.107,1.122-0.286
		c0.224-0.178,0.335-0.519,0.335-1.02V40.9c0-0.458-0.14-0.764-0.42-0.921c-0.166-0.111-0.513-0.195-1.037-0.251V39.41h4.739v0.318
		c-0.569,0.067-0.938,0.151-1.104,0.251c-0.302,0.167-0.453,0.497-0.453,0.988v8.171c0,0.491,0.396,0.735,1.188,0.735
		c1.508,0,2.507-0.083,2.998-0.25c0.881-0.28,1.551-0.96,2.009-2.042H43.833z"/>
	<path fill="#FFFFFF" d="M66.552,48.601c-1.094,1.419-2.623,2.128-4.586,2.128c-1.674,0-3.021-0.524-4.043-1.574
		c-1.02-1.049-1.531-2.417-1.531-4.101c0-1.742,0.535-3.156,1.606-4.244c1.072-1.089,2.472-1.633,4.202-1.633
		c0.336,0,0.816,0.093,1.449,0.276c0.631,0.184,1.101,0.276,1.413,0.276c0.403,0,0.647-0.184,0.738-0.552h0.384l0.151,3.766h-0.419
		c-0.536-2.064-1.736-3.097-3.602-3.097c-1.326,0-2.349,0.53-3.061,1.589c-0.604,0.916-0.905,2.077-0.905,3.483
		c0,1.45,0.317,2.622,0.953,3.516c0.726,1.037,1.781,1.555,3.167,1.555c1.371,0,2.628-0.567,3.766-1.707L66.552,48.601z"/>
	<path fill="#FFFFFF" d="M78.44,50.494h-4.673V50.16c0.549-0.012,0.931-0.1,1.148-0.267c0.217-0.168,0.326-0.538,0.326-1.105v-3.567
		h-5.039v3.7c0,0.492,0.14,0.826,0.419,1.005c0.212,0.145,0.562,0.223,1.055,0.235v0.334h-4.67V50.16c0.522,0,0.9-0.09,1.13-0.267
		c0.229-0.178,0.343-0.519,0.343-1.022v-7.919c0-0.48-0.135-0.804-0.401-0.972c-0.168-0.1-0.524-0.185-1.071-0.251v-0.318h4.671
		v0.318c-0.549,0.067-0.904,0.151-1.073,0.251c-0.266,0.167-0.399,0.491-0.399,0.972v3.517h5.039v-3.114
		c0-0.648-0.072-1.058-0.218-1.23s-0.563-0.305-1.257-0.394v-0.318h4.673v0.318c-0.604,0.079-0.989,0.185-1.158,0.318
		c-0.211,0.189-0.317,0.569-0.317,1.138v7.602c0,0.535,0.118,0.898,0.353,1.087c0.201,0.179,0.575,0.274,1.123,0.286v0.333H78.44z"
		/>
	<path fill="#FFFFFF" d="M84.669,50.494h-5.007V50.16c0.581,0,0.977-0.063,1.188-0.185c0.303-0.168,0.453-0.519,0.453-1.055v-7.935
		c0-0.502-0.157-0.843-0.469-1.021c-0.212-0.123-0.604-0.202-1.173-0.235v-0.318h5.007v0.318c-0.58,0.034-0.972,0.106-1.173,0.218
		c-0.313,0.179-0.47,0.524-0.47,1.039v7.935c0,0.525,0.156,0.87,0.47,1.039c0.211,0.122,0.603,0.188,1.173,0.2L84.669,50.494
		L84.669,50.494z"/>
	<path fill="#FFFFFF" d="M95.668,48.601c-1.094,1.419-2.623,2.128-4.587,2.128c-1.675,0-3.023-0.524-4.044-1.574
		c-1.02-1.049-1.53-2.417-1.53-4.101c0-1.742,0.534-3.156,1.605-4.244c1.072-1.089,2.472-1.633,4.203-1.633
		c0.335,0,0.818,0.093,1.446,0.276c0.635,0.184,1.104,0.276,1.417,0.276c0.402,0,0.646-0.184,0.737-0.552h0.383l0.152,3.766h-0.418
		c-0.537-2.064-1.737-3.097-3.6-3.097c-1.329,0-2.351,0.53-3.065,1.589c-0.604,0.916-0.902,2.077-0.902,3.483
		c0,1.45,0.316,2.622,0.953,3.516c0.727,1.037,1.781,1.555,3.165,1.555c1.374,0,2.63-0.567,3.766-1.707L95.668,48.601z"/>
</g>
</svg>
