<?xml version="1.0" encoding="utf-8"?>
<!-- Generator: Adobe Illustrator 16.0.0, SVG Export Plug-In . SVG Version: 6.00 Build 0)  -->
<!DOCTYPE svg PUBLIC "-//W3C//DTD SVG 1.1//EN" "http://www.w3.org/Graphics/SVG/1.1/DTD/svg11.dtd">
<svg version="1.1" id="Layer_1" xmlns="http://www.w3.org/2000/svg" xmlns:xlink="http://www.w3.org/1999/xlink" x="0px" y="0px"
	 width="100px" height="100px" viewBox="0 0 100 100" enable-background="new 0 0 100 100" xml:space="preserve">
<g id="EvCCW0.tif">
	<g>
		<g>
			<path fill="none" d="M0.433,39.413c0-9.668,0-19.336,0-29.004c33.333,0,66.667,0,100,0c0,26.695,0,53.391,0,80.086
				c-33.333,0-66.667,0-100,0c0-15.007,0-30.014,0-45.021c0.913,2.095,1.772,4.216,2.75,6.281c1.509,3.185,3.178,6.295,4.636,9.502
				c2.008,4.414,1.526,8.535-1.798,12.205c-1.183,1.306-2.344,2.632-3.662,4.114c1.574-0.104,3.195-0.086,4.771-0.348
				c1.584-0.263,2.529-0.013,3.1,1.706c0.85,2.558,2.004,5.015,3.046,7.557c0.437-0.212,0.65-0.271,0.804-0.402
				c0.218-0.184,0.417-0.402,0.578-0.637c3.68-5.351,5.095-11.34,5.041-17.757c-0.056-6.661-2.414-12.341-7.145-17.032
				c-0.013-0.466-0.025-0.933-0.038-1.399c0.239-1.408,0.46-2.818,0.718-4.222c0.902-4.907,1.816-9.81,2.726-14.715
				c0.497-1.477,0.995-2.953,1.583-4.701c6.16,7.011,14.106,10.199,22.309,12.935l-0.036-0.031c0.497,1.271,0.968,2.553,1.495,3.811
				c1.228,2.935,1.253,2.957-1.569,4.416c-1.262,0.652-2.118,1.329-0.822,2.87c1.423-0.786,2.847-1.572,4.374-2.415
				c0.633,0.947,1.185,1.772,1.735,2.596c-2.261,1.207-4.545,2.375-6.76,3.661c-0.332,0.192-0.342,0.938-0.501,1.428
				c0.417-0.021,0.912,0.094,1.241-0.089c2.172-1.206,4.309-2.477,6.457-3.727c0.724,1.121,1.448,2.242,2.224,3.442
				c1.206-0.838,2.22-1.542,3.233-2.245c0.151,0.147,0.302,0.296,0.453,0.443c-0.895,1.1-1.79,2.198-2.771,3.402
				c1.215,1.666,2.356,3.422,3.7,5.004c0.96,1.13,0.975,2.115,0.288,3.319c-2.028,3.562-3.806,7.29-6.079,10.688
				c-3.493,5.219-7.822,9.614-13.942,11.816c-5.655,2.035-10.553,0.651-14.189-4.001c-0.146-0.188-0.445-0.257-1.059-0.592
				c0.147,0.886,0.124,1.454,0.337,1.91c1.081,2.301,2.709,4.089,5.173,4.918c5.426,1.826,10.526,0.841,15.324-2.019
				c7.742-4.614,12.646-11.617,16.317-19.633c0.345-0.752,0.714-1.492,1.151-2.405c8.442,7.46,17.112,9.873,26.539,2.242
				c0.373,0.494,0.577,0.897,0.897,1.157c0.532,0.431,1.14,0.77,1.715,1.147c-0.104-0.681-0.188-1.364-0.314-2.041
				c-0.163-0.866-0.738-1.865-0.479-2.563c1.417-3.834,3.035-7.593,4.434-11.008c1.164,1.76,2.521,4.05,4.138,6.138
				c0.688,0.889,1.923,1.354,2.909,2.012c-0.306-1.105-0.414-2.318-0.951-3.297c-2.806-5.117-3.062-10.095-0.313-15.438
				c2.193-4.264,4.208-8.741,5.442-13.353c2.379-8.883-5.795-18.011-14.702-16.49c-2.709,0.463-3.958-0.014-4.726-2.43
				c-0.03-0.095-0.239-0.134-0.703-0.374C67.137,21.358,53.129,28.047,35.861,26.024c0.943,3.358,1.75,6.23,2.622,9.334
				c-0.57-0.111-0.859-0.104-1.083-0.22c-4.084-2.124-8.297-4.045-12.185-6.485c-2.195-1.377-3.978-3.507-5.679-5.523
				c-0.537-0.637-0.207-2.004-0.274-3.037c0.926,0.08,1.863,0.101,2.774,0.263c0.463,0.083,0.88,0.418,1.417,0.691
				c0.582-0.712,1.104-1.352,1.623-1.986c-1.867-1.589-2.674-1.808-5.978-1.722c-2.498,0.065-3.301,0.811-3.768,3.214
				c-0.603,3.099-1.305,6.179-1.965,9.267c-5.92,0.365-10.348,2.811-12.286,8.769C0.979,38.9,0.654,39.14,0.433,39.413z
				 M20.565,38.317c0.849,0.078,1.54,0.104,2.217,0.209c4.982,0.774,9.719,4.212,8.438,11.446c-0.744,4.204-2.662,7.86-4.787,11.48
				c-0.853,1.453-1.254,3.189,0.478,4.446c0.916,0.665,3.96-0.394,5.034-1.889c-0.895,0.213-1.469,0.386-2.056,0.479
				c-0.72,0.113-1.452,0.159-2.178,0.234c-0.041-0.885-0.233-1.797-0.076-2.645c0.124-0.664,0.722-1.228,1.038-1.87
				c1.204-2.443,2.671-4.807,3.51-7.373c2.616-7.997-1.145-14.468-9.03-15.885C22.159,36.771,20.992,36.48,20.565,38.317z
				 M17.213,40.979c0.04,0.326,0.079,0.652,0.119,0.977c4.556,0.815,8.676,2.456,11.802,6.701c-0.073-3.551-4.264-6.73-9.626-7.877
				C18.789,40.626,17.979,40.901,17.213,40.979z M21.401,71.673c-0.084,1.79,0.646,2.871,2.178,2.573
				c1.67-0.325,2.492,0.312,3.368,1.526c1.392,1.933,5.711,1.82,6.413-0.41c-1.38,0.09-3.489,0.803-4.059,0.158
				c-1.998-2.263-4.603-2.802-7.202-3.562C21.97,71.921,21.849,71.857,21.401,71.673z M34.994,73.063
				c-1.604-0.526-2.814-0.754-3.849-1.309c-1.122-0.602-2.052-1.551-3.123-2.263c-0.458-0.305-1.048-0.497-1.6-0.563
				c-1.766-0.212-3.542-0.342-5.267-0.498c0.172,1.517,0.473,2.052,2.448,1.641c2.806-0.585,4.64,0.452,6.393,2.404
				C31.196,73.813,32.784,74.073,34.994,73.063z M17.781,43.814c0.242,3.749,5.898,6.685,9.367,4.782
				C23.237,48.158,20.221,46.561,17.781,43.814z M40.263,55.24c1.947,2.396,6.482,2.266,7.542,0
				C45.377,55.24,42.981,55.24,40.263,55.24z"/>
			<path fill-rule="evenodd" clip-rule="evenodd" fill="#989898" d="M0.433,39.413C0.654,39.14,0.979,38.9,1.08,38.588
				c1.938-5.958,6.365-8.403,12.286-8.769c0.865,0.169,1.73,0.338,2.595,0.507c-0.91,4.905-1.824,9.808-2.726,14.715
				c-0.258,1.404-0.479,2.814-0.718,4.223c-0.719,0.091-1.438,0.182-2.442,0.309c-1.02,8.799,0.406,17.475,3.563,25.948
				c0.357-0.772,0.402-1.529,0.238-2.237c-1.542-6.679-2.424-13.427-2.086-20.291c0.039-0.788,0.5-1.555,0.765-2.331
				c4.731,4.691,7.089,10.371,7.145,17.032c0.054,6.417-1.361,12.406-5.041,17.757c-0.162,0.234-0.36,0.453-0.578,0.637
				c-0.154,0.131-0.368,0.19-0.804,0.402c-1.042-2.542-2.196-4.999-3.046-7.557c-0.571-1.719-1.516-1.969-3.1-1.706
				c-1.575,0.262-3.196,0.244-4.771,0.348c1.318-1.482,2.479-2.809,3.662-4.114c3.324-3.67,3.806-7.791,1.798-12.205
				c-1.458-3.207-3.127-6.317-4.636-9.502c-0.979-2.064-1.838-4.186-2.75-6.281C0.433,43.454,0.433,41.434,0.433,39.413z
				 M13.107,31.528c-3.65,0.585-6.451,3.319-6.995,6.41c-0.657,3.73,1.505,8.709,4.132,9.829
				C11.189,42.405,12.125,37.1,13.107,31.528z"/>
			<path fill-rule="evenodd" clip-rule="evenodd" fill="#989898" d="M15.961,30.327c-0.865-0.169-1.73-0.338-2.595-0.507
				c0.659-3.088,1.361-6.168,1.964-9.267c0.467-2.403,1.27-3.149,3.768-3.214c3.304-0.086,4.11,0.133,5.978,1.722
				c-0.519,0.635-1.041,1.274-1.623,1.986c-0.538-0.272-0.955-0.608-1.417-0.691c-0.911-0.162-1.848-0.184-2.774-0.263
				c0.067,1.033-0.262,2.4,0.274,3.037c1.701,2.016,3.483,4.146,5.679,5.523c3.888,2.44,8.101,4.361,12.185,6.485
				c0.224,0.117,0.513,0.109,1.083,0.22c-0.872-3.104-1.679-5.976-2.622-9.334c17.268,2.022,31.275-4.667,43.651-15.193
				c0.464,0.24,0.673,0.279,0.703,0.374c0.768,2.416,2.017,2.893,4.726,2.43c8.907-1.521,17.081,7.607,14.702,16.49
				c-1.234,4.612-3.249,9.089-5.442,13.353c-2.749,5.343-2.492,10.321,0.313,15.438c0.537,0.979,0.646,2.191,0.951,3.297
				c-0.986-0.657-2.222-1.123-2.909-2.012c-1.617-2.088-2.974-4.378-4.138-6.138c-1.398,3.415-3.017,7.174-4.434,11.008
				c-0.259,0.698,0.316,1.697,0.479,2.563c0.127,0.677,0.211,1.36,0.314,2.041c-0.575-0.378-1.183-0.717-1.715-1.147
				c-0.32-0.26-0.524-0.663-0.897-1.157c-9.427,7.631-18.097,5.218-26.539-2.242c-0.438,0.913-0.807,1.653-1.151,2.405
				c-3.671,8.016-8.575,15.019-16.317,19.633c-4.798,2.859-9.898,3.845-15.324,2.019c-2.464-0.829-4.093-2.617-5.173-4.918
				c-0.214-0.456-0.19-1.024-0.337-1.91c0.614,0.335,0.912,0.404,1.059,0.592c3.636,4.652,8.534,6.036,14.189,4.001
				c6.12-2.202,10.449-6.598,13.942-11.816c2.273-3.397,4.051-7.125,6.079-10.688c0.687-1.204,0.672-2.189-0.288-3.319
				c-1.344-1.582-2.484-3.338-3.7-5.004c0.981-1.204,1.876-2.303,2.771-3.402c-0.151-0.147-0.302-0.296-0.453-0.443
				c-1.014,0.703-2.027,1.407-3.233,2.245c-0.775-1.2-1.5-2.321-2.224-3.442l-0.021,0.035c1.902-0.323,3.804-0.647,5.706-0.971
				c-0.033-0.265-0.067-0.53-0.101-0.795c-2.017,0.146-4.033,0.292-6.049,0.438l0.029,0.02c-0.551-0.824-1.102-1.649-1.735-2.596
				c-1.526,0.843-2.951,1.629-4.374,2.415c-1.295-1.541-0.439-2.218,0.822-2.87c2.822-1.459,2.797-1.481,1.569-4.416
				c-0.526-1.258-0.998-2.54-1.495-3.811c4.604,1.096,9.203,2.22,13.823,3.248c0.535,0.119,1.19-0.299,1.791-0.468
				c-0.47-0.353-0.888-0.869-1.416-1.032c-4.249-1.308-8.516-2.56-12.787-3.798c-0.65-0.188-1.346-0.219-2.391-0.378
				c0.43,1.043,0.723,1.752,1.016,2.46c-8.203-2.736-16.149-5.924-22.309-12.935C16.956,27.374,16.458,28.851,15.961,30.327z
				 M86.842,33.918c-3.069,3.543-6.155,6.888-8.981,10.439c-2.245,2.821-3.396,6.213-2.055,9.71c1.505,3.929,3.52,7.662,5.35,11.463
				c0.194,0.403,0.633,0.689,0.958,1.03c0.223-0.047,0.445-0.094,0.668-0.142c-0.047-0.703,0.035-1.445-0.166-2.102
				c-0.733-2.402-1.789-4.728-2.308-7.171c-1.289-6.072,2.185-13.152,7.683-15.719c0.157,1.33,0.305,2.582,0.452,3.834
				c2.067-3.811,3.748-7.632,5.095-11.568c1.235-3.609,1.431-7.377-0.071-10.984c-1.56-3.745-3.982-6.704-8.301-7.371
				c-0.883-0.136-1.829,0.139-2.745,0.225c-0.038,0.267-0.076,0.535-0.114,0.802c3.759,0.487,5.583,3.038,6.894,6.102
				c1.764,4.122,1.759,8.412,0.943,12.709c-0.307,1.615-1.047,3.148-1.589,4.719c-0.201-0.043-0.401-0.086-0.603-0.13
				C87.573,37.773,87.194,35.78,86.842,33.918z M64.438,50.9c0.253,2.53,2.101,1.865,3.109,2.384
				c1.518,0.778,2.783-0.013,2.878-1.471c0.104-1.614-0.234-3.382-0.854-4.888c-1.086-2.637-2.884-5.011-3.76-7.698
				c-2.049-6.279,1.441-12.364,7.755-14.15c0.829-0.234,1.629-0.573,2.441-0.864c-0.032-0.232-0.065-0.465-0.098-0.697
				c-1.013,0-2.056-0.158-3.034,0.026c-6.185,1.161-10.689,7.265-9.422,13.43c0.68,3.306,2.362,6.416,3.68,9.577
				c0.465,1.117,1.312,2.078,1.742,3.203c0.215,0.562,0.075,1.473-0.275,1.96c-0.216,0.301-1.15,0.207-1.725,0.096
				C66.199,51.677,65.565,51.334,64.438,50.9z M61.46,44.538c-2.085-0.299-2.546,0.751-2.952,2.122
				c-1.428,4.815-2.892,9.624-4.487,14.386c-0.597,1.781-0.019,2.657,1.761,3.389C58.432,57.958,61.025,51.623,61.46,44.538z
				 M86.705,30.944c1.568-4.689,0.289-12.259-3.488-12.895C84.354,22.252,85.466,26.364,86.705,30.944z M61.81,60.502
				c1.379-0.116,2.603-0.144,3.798-0.34c1.301-0.213,2.667-0.388,3.841-0.933c1.609-0.746,3.064-1.824,4.646-2.796
				c-1.091-1.172-2.433-0.759-3.626,0.347c-1.765,1.634-3.581,2.374-6.05,1.567C62.61,57.756,61.801,58.663,61.81,60.502z
				 M74.142,58.852c-0.894,0.503-1.62,1.247-2.356,1.257c-1.654,0.021-2.566,0.834-3.516,2.044
				c-1.469,1.873-2.642,1.818-4.471,0.156c-0.269-0.244-0.634-0.383-1.122-0.668c0.984,3.423,3.745,4.226,5.973,1.979
				c0.824-0.831,1.363-1.934,2.979-1.628C73.679,62.382,74.58,61.145,74.142,58.852z M79.811,28.669
				c-0.152-0.232-0.306-0.464-0.459-0.697c-4.545,0.698-8.679,2.258-11.716,6.004c-0.296,0.365-0.25,1.006-0.363,1.52
				c0.167,0.093,0.335,0.187,0.502,0.28c2.718-3.807,6.727-5.247,10.967-6.294C79.14,29.383,79.456,28.948,79.811,28.669z
				 M69.845,35.879c3.763,2.083,9.2-0.33,10.381-4.387c-0.983-0.903-1.574-0.532-2.41,0.407c-1.008,1.132-2.257,2.162-3.6,2.847
				C72.991,35.371,71.502,35.476,69.845,35.879z M52.518,44.733c-1.723-1.384-7.003-1.407-9.031,0.3
				c-0.25,0.211-0.276,0.69-0.405,1.045c0.42,0.143,0.878,0.473,1.256,0.398C47.126,45.929,49.9,45.301,52.518,44.733z"/>
			<path fill-rule="evenodd" clip-rule="evenodd" fill="#999999" d="M20.565,38.317c0.427-1.837,1.594-1.546,2.588-1.368
				c7.886,1.417,11.646,7.888,9.03,15.885c-0.839,2.566-2.307,4.93-3.51,7.373c-0.316,0.643-0.915,1.206-1.038,1.87
				c-0.158,0.848,0.035,1.76,0.076,2.645c0.727-0.075,1.458-0.121,2.178-0.234c0.587-0.093,1.162-0.266,2.056-0.479
				c-1.073,1.495-4.118,2.554-5.034,1.889c-1.732-1.257-1.331-2.993-0.478-4.446c2.125-3.62,4.042-7.276,4.787-11.48
				c1.28-7.233-3.456-10.672-8.438-11.446C22.104,38.421,21.414,38.396,20.565,38.317z"/>
			<path fill-rule="evenodd" clip-rule="evenodd" fill="none" d="M12.556,50.663c-0.265,0.776-0.726,1.543-0.765,2.331
				c-0.338,6.864,0.544,13.612,2.086,20.291c0.164,0.708,0.119,1.465-0.238,2.237c-3.157-8.474-4.583-17.149-3.563-25.948
				c1.004-0.127,1.723-0.218,2.442-0.309C12.53,49.73,12.543,50.197,12.556,50.663z"/>
			<path fill-rule="evenodd" clip-rule="evenodd" fill="#9B9B9B" d="M17.213,40.979c0.767-0.077,1.576-0.353,2.294-0.199
				c5.362,1.147,9.553,4.327,9.626,7.877c-3.125-4.246-7.246-5.886-11.802-6.701C17.292,41.63,17.252,41.304,17.213,40.979z"/>
			<path fill-rule="evenodd" clip-rule="evenodd" fill="#9B9B9B" d="M21.401,71.673c0.448,0.185,0.568,0.248,0.697,0.285
				c2.6,0.761,5.205,1.3,7.202,3.562c0.57,0.645,2.679-0.068,4.059-0.158c-0.701,2.23-5.021,2.343-6.413,0.41
				c-0.875-1.214-1.697-1.852-3.368-1.526C22.047,74.544,21.317,73.463,21.401,71.673z"/>
			<path fill-rule="evenodd" clip-rule="evenodd" fill="#9C9C9C" d="M34.994,73.063c-2.209,1.01-3.797,0.75-4.999-0.588
				c-1.753-1.952-3.586-2.989-6.393-2.404c-1.975,0.411-2.276-0.124-2.448-1.641c1.725,0.156,3.501,0.286,5.267,0.498
				c0.552,0.066,1.141,0.259,1.6,0.563c1.071,0.712,2.001,1.661,3.123,2.263C32.179,72.31,33.39,72.537,34.994,73.063z"/>
			<path fill-rule="evenodd" clip-rule="evenodd" fill="#9C9C9C" d="M17.781,43.814c2.44,2.747,5.457,4.344,9.367,4.782
				C23.679,50.499,18.022,47.562,17.781,43.814z"/>
			<path fill-rule="evenodd" clip-rule="evenodd" fill="#9B9B9B" d="M45.466,51.08c-2.148,1.25-4.285,2.521-6.457,3.727
				c-0.329,0.183-0.823,0.067-1.241,0.089c0.159-0.489,0.169-1.235,0.501-1.428c2.215-1.286,4.499-2.454,6.76-3.661l-0.029-0.02
				c0.148,0.443,0.296,0.886,0.444,1.328L45.466,51.08z"/>
			<path fill-rule="evenodd" clip-rule="evenodd" fill="#9D9D9D" d="M40.263,55.24c2.719,0,5.114,0,7.542,0
				C46.745,57.506,42.209,57.636,40.263,55.24z"/>
			<path fill-rule="evenodd" clip-rule="evenodd" fill="none" d="M13.107,31.528c-0.982,5.571-1.918,10.877-2.863,16.238
				c-2.626-1.119-4.789-6.099-4.132-9.829C6.656,34.847,9.458,32.113,13.107,31.528z"/>
			<path fill-rule="evenodd" clip-rule="evenodd" fill="none" d="M86.842,33.918c0.353,1.862,0.731,3.854,1.109,5.848
				c0.201,0.044,0.401,0.087,0.603,0.13c0.542-1.57,1.282-3.104,1.589-4.719c0.815-4.297,0.82-8.587-0.943-12.709
				c-1.311-3.064-3.135-5.615-6.894-6.102c0.038-0.268,0.076-0.535,0.114-0.802c0.916-0.086,1.862-0.36,2.745-0.225
				c4.318,0.667,6.741,3.626,8.301,7.371c1.502,3.606,1.307,7.375,0.071,10.984c-1.347,3.936-3.027,7.758-5.095,11.568
				c-0.147-1.252-0.295-2.504-0.452-3.834c-5.498,2.567-8.972,9.647-7.683,15.719c0.519,2.443,1.574,4.769,2.308,7.171
				c0.201,0.656,0.119,1.398,0.166,2.102c-0.223,0.048-0.445,0.095-0.668,0.142c-0.325-0.341-0.764-0.627-0.958-1.03
				c-1.83-3.801-3.845-7.534-5.35-11.463c-1.341-3.497-0.19-6.89,2.055-9.71C80.687,40.806,83.772,37.461,86.842,33.918z"/>
			<path fill-rule="evenodd" clip-rule="evenodd" fill="none" d="M64.438,50.9c1.128,0.434,1.762,0.776,2.438,0.907
				c0.574,0.111,1.509,0.205,1.725-0.096c0.351-0.487,0.49-1.398,0.275-1.96c-0.43-1.125-1.277-2.086-1.742-3.203
				c-1.317-3.162-3-6.271-3.68-9.577c-1.268-6.165,3.237-12.269,9.422-13.43c0.979-0.184,2.021-0.026,3.034-0.026
				c0.032,0.232,0.065,0.465,0.098,0.697c-0.812,0.291-1.612,0.629-2.441,0.864c-6.313,1.786-9.804,7.871-7.755,14.15
				c0.876,2.687,2.674,5.061,3.76,7.698c0.62,1.506,0.959,3.274,0.854,4.888c-0.095,1.458-1.36,2.249-2.878,1.471
				C66.538,52.766,64.69,53.431,64.438,50.9z"/>
			<path fill-rule="evenodd" clip-rule="evenodd" fill="none" d="M61.46,44.538c-0.435,7.085-3.028,13.42-5.679,19.896
				c-1.779-0.731-2.357-1.607-1.761-3.389c1.596-4.762,3.06-9.57,4.487-14.386C58.914,45.289,59.375,44.239,61.46,44.538z"/>
			<path fill-rule="evenodd" clip-rule="evenodd" fill="none" d="M39.854,38.562c-0.292-0.708-0.585-1.417-1.016-2.46
				c1.044,0.16,1.741,0.19,2.391,0.378c4.271,1.239,8.538,2.491,12.787,3.798c0.528,0.163,0.946,0.679,1.416,1.032
				c-0.601,0.169-1.256,0.587-1.791,0.468c-4.62-1.028-9.218-2.152-13.823-3.248L39.854,38.562z"/>
			<path fill-rule="evenodd" clip-rule="evenodd" fill="none" d="M86.705,30.944c-1.239-4.58-2.352-8.692-3.488-12.895
				C86.994,18.685,88.273,26.255,86.705,30.944z"/>
			<path fill-rule="evenodd" clip-rule="evenodd" fill="none" d="M61.81,60.502c-0.009-1.839,0.801-2.746,2.608-2.154
				c2.469,0.807,4.285,0.066,6.05-1.567c1.193-1.105,2.535-1.519,3.626-0.347c-1.581,0.972-3.036,2.05-4.646,2.796
				c-1.174,0.545-2.54,0.72-3.841,0.933C64.412,60.358,63.188,60.386,61.81,60.502z"/>
			<path fill-rule="evenodd" clip-rule="evenodd" fill="none" d="M74.142,58.852c0.438,2.293-0.463,3.53-2.514,3.141
				c-1.615-0.306-2.154,0.797-2.979,1.628c-2.228,2.246-4.988,1.443-5.973-1.979c0.488,0.285,0.854,0.424,1.122,0.668
				c1.829,1.662,3.002,1.717,4.471-0.156c0.949-1.21,1.861-2.022,3.516-2.044C72.521,60.099,73.248,59.354,74.142,58.852z"/>
			<path fill-rule="evenodd" clip-rule="evenodd" fill="none" d="M79.811,28.669c-0.354,0.279-0.671,0.713-1.069,0.812
				c-4.24,1.047-8.249,2.487-10.967,6.294c-0.167-0.093-0.335-0.187-0.502-0.28c0.113-0.513,0.067-1.154,0.363-1.52
				c3.037-3.746,7.171-5.306,11.716-6.004C79.505,28.205,79.658,28.437,79.811,28.669z"/>
			<path fill-rule="evenodd" clip-rule="evenodd" fill="none" d="M69.845,35.879c1.657-0.403,3.146-0.508,4.371-1.133
				c1.343-0.685,2.592-1.715,3.6-2.847c0.836-0.939,1.427-1.31,2.41-0.407C79.045,35.549,73.607,37.962,69.845,35.879z"/>
			<path fill-rule="evenodd" clip-rule="evenodd" fill="none" d="M52.518,44.733c-2.618,0.568-5.391,1.196-8.18,1.744
				c-0.378,0.075-0.836-0.256-1.256-0.398c0.129-0.355,0.155-0.834,0.405-1.045C45.514,43.326,50.795,43.349,52.518,44.733z"/>
			<path fill-rule="evenodd" clip-rule="evenodd" fill="none" d="M45.445,51.115c-0.148-0.442-0.296-0.885-0.444-1.328
				c2.016-0.146,4.032-0.292,6.049-0.438c0.033,0.265,0.067,0.53,0.101,0.795C49.249,50.468,47.347,50.792,45.445,51.115z"/>
		</g>
	</g>
</g>
</svg>
