<?xml version="1.0" encoding="utf-8"?>
<!-- Generator: Adobe Illustrator 16.0.0, SVG Export Plug-In . SVG Version: 6.00 Build 0)  -->
<!DOCTYPE svg PUBLIC "-//W3C//DTD SVG 1.1//EN" "http://www.w3.org/Graphics/SVG/1.1/DTD/svg11.dtd">
<svg version="1.1" id="Layer_1" xmlns="http://www.w3.org/2000/svg" xmlns:xlink="http://www.w3.org/1999/xlink" x="0px" y="0px"
	 width="100px" height="100px" viewBox="0 0 100 100" enable-background="new 0 0 100 100" xml:space="preserve">
<g>
	<g>
		<path fill-rule="evenodd" clip-rule="evenodd" fill="#231F20" d="M61.91,51.267l0.169,0.01l0.298-0.032
			c0.171-0.062-0.067,0.89-0.246,0.736l-0.255-0.153"/>
	</g>
	<g>
		<path fill-rule="evenodd" clip-rule="evenodd" fill="#231F20" d="M58.847,45.098l-0.251,0.026c0-0.041-0.045-0.078-0.045-0.118
			c-0.295-0.109-0.303,0.595-0.736,0.552c-0.088-0.477,1.055-2.819,1.349-1.227v0.307l0.246,0.184
			c-0.118,0.127-0.194,0.297-0.308,0.429L58.847,45.098z"/>
	</g>
	<g>
		<path fill-rule="evenodd" clip-rule="evenodd" fill="#231F20" d="M20.39,50.475l-0.245-0.183c0.087-0.396,0.883-0.271,0.761,0.366
			l-0.229-0.013l-0.226,0.137"/>
	</g>
	<g>
		<path fill-rule="evenodd" clip-rule="evenodd" fill="#231F20" d="M51.303,47.87c0.56-0.11,0.444,0.597-0.185,0.49
			C50.859,48.316,50.943,47.939,51.303,47.87z"/>
	</g>
	<g>
		<path fill-rule="evenodd" clip-rule="evenodd" fill="#231F20" d="M29.478,50.812c0.32-0.956,1.22-0.128,1.471,0.367l-0.118,0.269
			l-0.065,0.284c-0.491-0.021-0.526-0.496-0.919-0.613l-0.17-0.17L29.478,50.812z"/>
	</g>
	<g>
		<path fill-rule="evenodd" clip-rule="evenodd" fill="#231F20" d="M26.281,50.846l-0.196-0.129
			c0.062-0.253,0.842-1.259,1.125-0.763c0.228,0.4-0.499,0.418-0.34,0.912l-0.249-0.022"/>
	</g>
	<g>
		<path fill-rule="evenodd" clip-rule="evenodd" fill="#231F20" d="M93.266,45.553l-0.074-0.242l-0.16-0.176
			c0.303-0.152,1.138-0.792,1.398-0.379c0.297,0.469-0.448,0.95-0.612,1.345l-0.138-0.149l-0.292,0.03"/>
	</g>
	<g>
		<path fill-rule="evenodd" clip-rule="evenodd" fill="#231F20" d="M83.09,52.89l0.024,0.209c-0.358-0.009-0.619,0.188-0.729-0.141
			l0.03-0.245l-0.03-0.245c0.312-0.244,0.635-0.049,0.797,0.184L83.09,52.89z"/>
	</g>
	<g>
		<path fill-rule="evenodd" clip-rule="evenodd" fill="#231F20" d="M80.209,53.035l0.021,0.23c-0.403,0.048-0.649,0.251-0.983,0.367
			l-0.156-0.168l-0.201-0.2c-0.041-0.307-0.564-0.425-0.489-0.736c0.025-0.107,1.284-0.896,1.839-0.551
			c0.242,0.15,0.234,0.47,0.183,0.857L80.209,53.035z"/>
	</g>
	<g>
		<path fill-rule="evenodd" clip-rule="evenodd" fill="#231F20" d="M76.306,52.947l-0.093-0.27c0.112-0.181,0.823-0.833,1.042-0.429
			c0.152,0.281-0.313,0.515-0.368,0.797l-0.314-0.029"/>
	</g>
	<g>
		<path fill-rule="evenodd" clip-rule="evenodd" fill="#231F20" d="M69.274,51.374l-0.106,0.246
			c-0.173-0.012-0.163-0.303-0.394-0.256l-0.081-0.266l-0.165-0.12c0.251-0.693,1.021-0.412,0.978,0.341L69.274,51.374z"/>
	</g>
	<g>
		<path fill-rule="evenodd" clip-rule="evenodd" fill="#231F20" d="M10.963,33.585c0.083-0.479,0.908-0.468,0.919,0.061L11.668,33.8
			l-0.153,0.214c-0.062,0-0.123,0-0.185,0l-0.134-0.257L10.963,33.585z"/>
	</g>
	<g>
		<path fill-rule="evenodd" clip-rule="evenodd" fill="#231F20" d="M9.86,41.984l0.245,0.185c-0.363,0.311-0.67,0.678-0.736,1.287
			l-0.276-0.031l-0.275-0.031c-0.05-0.011-0.062-0.062-0.123-0.062v-0.306L8.45,42.843c0.458-0.327,0.691-0.538,0.736-1.104
			l0.283,0.031l0.269-0.092c0.041,0,0.082,0,0.123,0V41.984z"/>
	</g>
	<g>
		<path fill-rule="evenodd" clip-rule="evenodd" fill="#231F20" d="M6.863,52.716l-0.512,0.098l-0.025-0.27l-0.155-0.111
			c0.231-0.239,0.345-0.701,0.619-0.896l0.114,0.297l0.245,0.184"/>
	</g>
	<g>
		<path fill-rule="evenodd" clip-rule="evenodd" fill="#231F20" d="M2.34,64.013l0.225,0.165c-0.231,0.254-0.377,1.075-0.859,0.858
			c-0.405-0.184-0.109-1.273-0.061-1.534l0.223,0.154l0.268-0.031c-0.022,0.105,0.047,0.115,0.122,0.123L2.34,64.013z"/>
	</g>
	<g>
		<path fill-rule="evenodd" clip-rule="evenodd" fill="#231F20" d="M42.83,48.439c0.021,0,0.04,0,0.061,0l0.221,0.112l0.283-0.007
			c0.027,0.547-0.307,0.937-0.429,1.349c-0.098,0.331-0.184,0.728-0.289,0.987c-0.032,0.08-0.08,0.186-0.078,0.177
			c-0.022,0.101,0.105,0.532,0.061,0.921c-0.032,0.284-0.256,1.738-0.735,1.226c-0.466-0.497,0.234-2.942,0.306-3.434
			c0.087-0.587,0.018-0.898,0.172-1.372l0.197,0.146L42.83,48.439z"/>
	</g>
	<g>
		<path fill-rule="evenodd" clip-rule="evenodd" fill="#231F20" d="M45.46,50.257l0.141,0.188h0.307c0,0.062,0,0.123,0,0.184
			l-0.215,0.162l0.03,0.267c-0.603,0.148-1.087,0.795-1.716,1.104c-1.085,0.533-1.197-0.421-0.368-1.042
			c0.169-0.128,0.345-0.141,0.551-0.246"/>
	</g>
	<g>
		<path fill-rule="evenodd" clip-rule="evenodd" fill="#231F20" d="M49.862,51.501l-0.185-0.172c0.067-0.54,0.881-1.934,1.318-1.498
			c0.329,0.327-0.244,0.551-0.306,0.796c-0.112,0.451-0.124,0.876-0.224,1.334l-0.197-0.077l-0.216,0.026
			c0-0.041-0.037-0.078-0.037-0.117c-0.061,0-0.119-0.032-0.181-0.032L49.862,51.501z"/>
	</g>
	<g>
		<g>
			<path fill="#231F20" d="M62.225,51.57c-0.016,0-0.032-0.002-0.05-0.005c-0.127-0.027-0.21-0.154-0.182-0.282
				c0.133-0.612-0.222-1.162-0.542-1.515c-0.754-0.83-1.922-1.303-2.364-1.251c-0.13,0.014-0.248-0.078-0.264-0.208
				c-0.015-0.13,0.078-0.248,0.208-0.263c0.637-0.074,1.96,0.509,2.771,1.403c0.567,0.625,0.793,1.293,0.654,1.934
				C62.433,51.494,62.335,51.57,62.225,51.57z"/>
		</g>
		<g>
			<path fill="#231F20" d="M57.284,52.693c-0.025,0-0.051-0.004-0.077-0.011c-0.15-0.041-0.24-0.197-0.199-0.351
				c0.193-0.702,0.322-1.441,0.447-2.154c0.111-0.635,0.227-1.292,0.388-1.932c0.037-0.152,0.192-0.245,0.346-0.207
				c0.152,0.038,0.245,0.192,0.206,0.346c-0.155,0.62-0.269,1.267-0.378,1.891c-0.127,0.727-0.259,1.478-0.459,2.208
				C57.523,52.609,57.409,52.693,57.284,52.693z"/>
		</g>
		<g>
			<path fill="#231F20" d="M58.119,48.599c-0.01,0-0.02,0-0.03-0.002c-0.155-0.016-0.27-0.155-0.252-0.311
				c0.089-0.85,0.332-1.672,0.566-2.467c0.074-0.25,0.149-0.502,0.218-0.753c0.041-0.151,0.197-0.24,0.349-0.197
				c0.15,0.041,0.239,0.197,0.198,0.348c-0.071,0.255-0.146,0.509-0.222,0.763c-0.227,0.771-0.463,1.567-0.547,2.365
				C58.385,48.491,58.262,48.599,58.119,48.599z"/>
		</g>
		<g>
			<path fill="#231F20" d="M59.185,48.387c-0.067,0-0.134-0.028-0.182-0.084c-0.085-0.101-0.073-0.251,0.026-0.336
				c0.203-0.171,0.461-0.372,0.733-0.584c1.016-0.792,2.552-1.99,2.468-2.742c-0.024-0.234-0.123-0.38-0.31-0.462
				c-0.616-0.27-1.933,0.231-2.569,0.696c-0.105,0.078-0.255,0.055-0.333-0.052c-0.077-0.106-0.054-0.255,0.053-0.333
				c0.62-0.455,2.149-1.141,3.042-0.749c0.342,0.15,0.546,0.443,0.592,0.846c0.113,1.017-1.418,2.211-2.65,3.17
				c-0.269,0.21-0.521,0.407-0.716,0.572C59.294,48.368,59.239,48.387,59.185,48.387z"/>
		</g>
		<g>
			<path fill="#231F20" d="M58.571,48.6c-0.178,0-0.347-0.03-0.495-0.058c-0.124-0.023-0.208-0.143-0.184-0.268
				c0.022-0.125,0.145-0.208,0.268-0.185c0.271,0.05,0.479,0.08,0.671,0.009c0.119-0.044,0.251,0.018,0.295,0.137
				s-0.019,0.251-0.137,0.295C58.848,48.583,58.707,48.6,58.571,48.6z"/>
		</g>
		<g>
			<path fill="#231F20" d="M60.404,53.262c-0.116,0-0.222-0.082-0.244-0.201c-0.028-0.135,0.062-0.268,0.195-0.294
				c0.813-0.162,1.283-0.631,1.437-0.981c0.056-0.127,0.202-0.185,0.329-0.13c0.127,0.057,0.185,0.203,0.129,0.33
				c-0.271,0.617-0.958,1.104-1.796,1.271C60.437,53.26,60.421,53.262,60.404,53.262z"/>
		</g>
		<g>
			<path fill="#231F20" d="M59.087,53.579c-0.312,0-0.572-0.078-0.71-0.259c-0.142-0.185-0.203-0.514,0.303-1.034
				c0.814-0.837,2.585-1.019,3.217-1.019c0.005,0,0.008,0,0.013,0c0.122,0,0.22,0.1,0.219,0.22c0,0.121-0.098,0.22-0.22,0.22
				c-0.007,0.001-0.008,0-0.013,0c-0.675,0-2.249,0.214-2.901,0.887c-0.262,0.27-0.295,0.427-0.27,0.458
				c0.114,0.149,0.871,0.138,1.604-0.271c0.106-0.06,0.24-0.021,0.3,0.085c0.058,0.105,0.021,0.24-0.085,0.298
				C60.088,53.418,59.533,53.579,59.087,53.579z"/>
		</g>
		<g>
			<path fill="#231F20" d="M36.64,48.155c-0.125,0-0.235-0.093-0.253-0.221c-0.049-0.371-0.213-0.697-0.458-0.917
				c-0.104-0.094-0.113-0.254-0.02-0.359c0.094-0.105,0.255-0.113,0.36-0.02c0.336,0.301,0.558,0.737,0.624,1.229
				c0.019,0.14-0.079,0.268-0.218,0.286C36.663,48.154,36.651,48.155,36.64,48.155z"/>
		</g>
		<g>
			<path fill="#231F20" d="M21.737,51.645c-0.709,0-1.15-0.315-1.345-0.958c-0.04-0.133,0.035-0.27,0.167-0.31
				c0.132-0.04,0.271,0.034,0.311,0.166c0.14,0.464,0.417,0.633,0.986,0.6c0.271-0.015,1.272-0.347,1.282-0.827
				c0.008-0.393-0.46-0.525-0.738-0.541c-0.319-0.019-0.6,0.089-0.613,0.235c-0.014,0.137-0.135,0.238-0.272,0.225
				c-0.137-0.013-0.238-0.134-0.225-0.271c0.042-0.44,0.512-0.721,1.138-0.686c0.591,0.034,1.222,0.377,1.208,1.049
				c-0.018,0.9-1.4,1.295-1.752,1.315C21.834,51.643,21.785,51.645,21.737,51.645z"/>
		</g>
		<g>
			<path fill="#231F20" d="M18.738,51.271c-0.104,0-0.206-0.008-0.304-0.023c-0.398-0.06-0.712-0.243-0.909-0.527
				c-0.502-0.725-0.131-2.312,0.269-3.516c0.041-0.124,0.174-0.19,0.299-0.149c0.123,0.041,0.19,0.174,0.149,0.298
				c-0.501,1.513-0.625,2.67-0.329,3.097c0.153,0.223,0.407,0.303,0.592,0.331c0.518,0.08,1.182-0.126,1.693-0.523
				c0.102-0.079,0.251-0.06,0.331,0.042c0.08,0.104,0.061,0.251-0.042,0.331C19.964,51.038,19.318,51.271,18.738,51.271z"/>
		</g>
		<g>
			<path fill="#231F20" d="M14.418,51.47c-0.037,0-0.073-0.01-0.104-0.025c-0.952-0.178-1.085-0.709-1.08-1.012
				c0.013-0.74,0.908-1.625,1.772-1.751c0.591-0.086,1.04,0.207,1.228,0.804c0.079,0.248,0.038,0.524-0.119,0.798
				c-0.326,0.57-1.108,1.056-1.646,1.179C14.452,51.467,14.435,51.47,14.418,51.47z M15.203,49.132c-0.042,0-0.084,0.003-0.13,0.009
				c-0.621,0.09-1.366,0.794-1.375,1.3c-0.005,0.276,0.233,0.46,0.709,0.547c0.008,0.002,0.015,0.004,0.022,0.006
				c0.433-0.123,1.043-0.522,1.282-0.941c0.092-0.161,0.119-0.304,0.08-0.427C15.686,49.293,15.493,49.132,15.203,49.132z"/>
		</g>
		<g>
			<path fill="#231F20" d="M34.983,52.819c-0.093,0-0.185-0.048-0.237-0.134c-0.688-1.124-1.819-1.06-3.017-0.993
				c-0.297,0.018-0.605,0.034-0.901,0.032c-0.153-0.001-0.277-0.126-0.276-0.278c0.001-0.154,0.131-0.276,0.279-0.276
				c0.28,0,0.564-0.016,0.866-0.032c1.247-0.07,2.66-0.149,3.521,1.259c0.081,0.13,0.038,0.302-0.092,0.382
				C35.083,52.806,35.033,52.819,34.983,52.819z"/>
		</g>
		<g>
			<path fill="#231F20" d="M27.779,51.996c-0.171,0-0.335-0.021-0.489-0.067c-0.33-0.1-0.757-0.358-0.916-1.027
				c-0.032-0.136,0.052-0.272,0.188-0.305c0.135-0.031,0.272,0.052,0.305,0.188c0.083,0.354,0.27,0.57,0.568,0.66
				c0.612,0.184,1.563-0.205,2.067-0.68c0.102-0.095,0.262-0.091,0.358,0.011c0.096,0.102,0.091,0.263-0.01,0.357
				C29.348,51.605,28.512,51.996,27.779,51.996z"/>
		</g>
		<g>
			<path fill="#231F20" d="M24.373,52.047c-0.137,0-0.275-0.021-0.416-0.066c-0.12-0.04-0.186-0.17-0.146-0.289
				c0.039-0.121,0.17-0.186,0.289-0.146c0.549,0.181,1.117-0.228,1.666-0.62c0.136-0.099,0.264-0.189,0.392-0.272
				c0.106-0.068,0.248-0.038,0.317,0.067c0.068,0.106,0.038,0.249-0.068,0.318c-0.121,0.077-0.245,0.166-0.373,0.259
				C25.557,51.637,24.986,52.047,24.373,52.047z"/>
		</g>
		<g>
			<path fill="#231F20" d="M80.55,53.301c-0.126,0-0.252-0.009-0.382-0.031c-0.129-0.022-0.217-0.145-0.194-0.275
				c0.021-0.129,0.146-0.216,0.274-0.194c0.45,0.076,0.9-0.038,1.379-0.16c0.245-0.062,0.499-0.126,0.755-0.164
				c0.129-0.017,0.25,0.072,0.27,0.204c0.019,0.13-0.07,0.251-0.202,0.27c-0.23,0.032-0.462,0.092-0.706,0.153
				C81.358,53.2,80.961,53.301,80.55,53.301z"/>
		</g>
		<g>
			<path fill="#231F20" d="M77.844,54.021c-0.31,0-0.61-0.054-0.858-0.179c-0.36-0.181-0.572-0.487-0.616-0.888
				c-0.015-0.135,0.081-0.256,0.216-0.27c0.135-0.015,0.256,0.082,0.27,0.216c0.026,0.234,0.141,0.399,0.35,0.505
				c0.479,0.24,1.312,0.113,1.764-0.151c0.115-0.067,0.265-0.029,0.334,0.087c0.068,0.118,0.028,0.267-0.088,0.335
				C78.864,53.882,78.344,54.021,77.844,54.021z"/>
		</g>
		<g>
			<path fill="#231F20" d="M74.074,53.921c-0.247,0-0.482-0.036-0.703-0.111c-0.87-0.291-1.212-1.061-1.297-1.289
				c-0.044-0.12,0.018-0.255,0.14-0.3c0.12-0.044,0.254,0.018,0.298,0.138c0.067,0.181,0.334,0.784,1.009,1.011
				c0.696,0.233,1.604-0.004,2.7-0.706c0.107-0.069,0.253-0.038,0.321,0.07c0.069,0.109,0.038,0.252-0.069,0.322
				C75.572,53.633,74.769,53.921,74.074,53.921z"/>
		</g>
		<g>
			<path fill="#231F20" d="M66.062,53.268c-0.297,0-0.592-0.101-0.873-0.341c-0.558-0.478-0.894-1.947-0.258-2.854
				c0.076-0.106,0.224-0.132,0.33-0.057s0.132,0.223,0.058,0.329c-0.496,0.707-0.189,1.908,0.178,2.223
				c0.807,0.692,1.929-0.371,3.019-1.624c0.086-0.098,0.234-0.109,0.333-0.023s0.109,0.234,0.023,0.333
				C68.215,52.007,67.118,53.268,66.062,53.268z"/>
		</g>
		<g>
			<path fill="#231F20" d="M72.177,52.51c-0.08,0-0.157-0.036-0.207-0.105c-0.215-0.307-0.578-0.296-1.152-0.242
				c-0.618,0.057-1.385,0.127-1.77-0.681c-0.059-0.125-0.006-0.274,0.12-0.334c0.126-0.061,0.275-0.007,0.335,0.119
				c0.221,0.467,0.626,0.453,1.268,0.394c0.568-0.052,1.212-0.112,1.612,0.453c0.079,0.115,0.052,0.271-0.062,0.351
				C72.276,52.496,72.227,52.51,72.177,52.51z"/>
		</g>
		<g>
			<path fill="#231F20" d="M72.294,52.608c-0.02,0-0.038-0.004-0.058-0.011c-0.087-0.031-0.133-0.128-0.101-0.215
				c0.065-0.183,0.313-0.793,0.767-0.986c0.085-0.036,0.184,0.002,0.22,0.087c0.037,0.086-0.003,0.186-0.088,0.222
				c-0.261,0.112-0.477,0.496-0.582,0.792C72.428,52.564,72.362,52.608,72.294,52.608z"/>
		</g>
		<g>
			<path fill="#231F20" d="M83.09,53.099c-0.089,0-0.171-0.058-0.2-0.146c-0.033-0.109,0.027-0.228,0.137-0.263
				c2.644-0.837,4.701-2.785,6.693-4.668c1.057-1,2.148-2.034,3.317-2.891c0.093-0.068,0.224-0.048,0.292,0.045
				c0.068,0.093,0.05,0.224-0.044,0.292c-1.149,0.842-2.231,1.867-3.28,2.858c-2.022,1.916-4.117,3.898-6.853,4.763
				C83.131,53.096,83.111,53.099,83.09,53.099z"/>
		</g>
		<g>
			<path fill="#231F20" d="M93.253,54.46c-0.761,0-1.327-0.327-1.649-0.958c-0.698-1.367-0.125-3.014,0.383-4.465
				c0.113-0.33,0.222-0.641,0.316-0.947c0.187-0.606,0.456-1.058,0.739-1.537c0.134-0.224,0.271-0.457,0.41-0.718
				c0.058-0.11,0.191-0.152,0.302-0.094c0.11,0.057,0.152,0.193,0.095,0.303c-0.143,0.271-0.285,0.509-0.422,0.739
				c-0.28,0.475-0.524,0.884-0.695,1.439c-0.097,0.314-0.207,0.628-0.322,0.962c-0.5,1.434-1.017,2.917-0.406,4.114
				c0.281,0.55,0.803,0.782,1.548,0.693c1.598-0.189,3.56-1.79,3.801-2.8c0.069-0.288,0.022-0.361,0.022-0.362
				c-0.007-0.001-0.274-0.117-1.579,0.896c-0.099,0.076-0.238,0.059-0.315-0.04c-0.075-0.098-0.058-0.238,0.039-0.315
				c1.12-0.869,1.748-1.143,2.102-0.915c0.319,0.207,0.206,0.683,0.168,0.84c-0.311,1.297-2.5,2.941-4.185,3.141
				C93.482,54.452,93.366,54.46,93.253,54.46z"/>
		</g>
		<g>
			<path fill="#231F20" d="M65.258,50.459L65.258,50.459c-0.083,0-0.159-0.015-0.225-0.045l-0.112-0.05l-0.019-0.118
				c-0.087-0.535,0.312-1.295,0.72-1.775c0.22-0.257,0.655-0.687,1.129-0.687c0.139,0,0.267,0.037,0.384,0.109
				c0.258,0.163,0.354,0.443,0.259,0.771C67.181,49.403,65.923,50.459,65.258,50.459z M66.751,48.235
				c-0.211,0-0.503,0.197-0.785,0.528c-0.335,0.396-0.581,0.897-0.619,1.235c0.481-0.097,1.454-0.904,1.613-1.459
				c0.054-0.188-0.021-0.235-0.066-0.264C66.851,48.248,66.804,48.235,66.751,48.235z"/>
		</g>
		<g>
			<path fill="#231F20" d="M11.06,52.134c-0.133,0-0.245-0.033-0.34-0.1c-0.223-0.155-0.262-0.433-0.298-0.7
				c-0.024-0.178-0.05-0.36-0.126-0.481c-0.467-0.724-0.965-0.52-1.878-0.065c-0.315,0.157-0.641,0.319-0.985,0.425
				c-0.119,0.037-0.246-0.03-0.283-0.149c-0.037-0.119,0.03-0.246,0.15-0.282c0.308-0.095,0.617-0.249,0.916-0.398
				c0.821-0.409,1.751-0.873,2.459,0.227c0.131,0.204,0.165,0.448,0.194,0.665c0.021,0.154,0.047,0.349,0.108,0.39
				c0.033,0.022,0.112,0.022,0.212,0.001c0.122-0.025,0.243,0.051,0.27,0.172c0.027,0.122-0.049,0.243-0.172,0.27
				C11.206,52.124,11.13,52.134,11.06,52.134z"/>
		</g>
		<g>
			<path fill="#231F20" d="M6.917,52.169c-0.077,0-0.153-0.027-0.214-0.084c-0.127-0.118-0.135-0.317-0.017-0.444
				c0.155-0.166,0.243-0.393,0.336-0.631l0.052-0.131c0.065-0.161,0.248-0.239,0.409-0.174c0.161,0.064,0.238,0.248,0.173,0.408
				l-0.049,0.125c-0.106,0.27-0.225,0.576-0.461,0.829C7.085,52.135,7.001,52.169,6.917,52.169z"/>
		</g>
		<g>
			<path fill="#231F20" d="M1.868,63.866c-0.014,0-0.029-0.001-0.044-0.003c-0.114-0.024-0.187-0.137-0.163-0.251
				c0.837-4.008,2.394-7.867,4.502-11.161c0.062-0.099,0.193-0.126,0.291-0.064c0.099,0.063,0.127,0.194,0.064,0.292
				c-2.08,3.251-3.617,7.062-4.444,11.02C2.053,63.799,1.965,63.866,1.868,63.866z"/>
		</g>
		<g>
			<path fill="#231F20" d="M7.367,51.243c-0.013,0-0.027,0-0.041-0.004C7.19,51.218,7.1,51.091,7.123,50.954
				c0.249-1.483,0.626-2.994,0.991-4.456c0.255-1.024,0.52-2.084,0.738-3.125c0.028-0.134,0.16-0.22,0.293-0.191
				c0.134,0.028,0.22,0.16,0.192,0.294c-0.219,1.049-0.485,2.113-0.742,3.142c-0.362,1.452-0.737,2.954-0.983,4.42
				C7.591,51.158,7.486,51.243,7.367,51.243z"/>
		</g>
		<g>
			<path fill="#231F20" d="M6.486,44.416c-0.098,0-0.183-0.018-0.256-0.053c-0.093-0.045-0.252-0.16-0.27-0.432
				c-0.009-0.132,0.091-0.247,0.224-0.256c0.132-0.006,0.247,0.091,0.256,0.224c0.001,0.029,0.007,0.04,0.007,0.04
				c0.023,0.007,0.361,0.115,2.078-1.087l0.033-0.022c0.108-0.076,0.258-0.049,0.334,0.059c0.076,0.109,0.05,0.258-0.059,0.334
				L8.8,43.246C7.657,44.047,6.933,44.416,6.486,44.416z"/>
		</g>
		<g>
			<path fill="#231F20" d="M9.468,42.02c-0.017,0-0.034-0.001-0.051-0.005c-0.135-0.028-0.222-0.161-0.194-0.296
				c0.126-0.607,0.229-1.248,0.339-1.927c0.109-0.673,0.222-1.37,0.361-2.055c0.06-0.293,0.113-0.591,0.167-0.891
				c0.192-1.067,0.39-2.171,0.881-3.196c0.06-0.125,0.209-0.177,0.333-0.118c0.125,0.061,0.177,0.209,0.118,0.334
				c-0.461,0.964-0.654,2.035-0.84,3.069c-0.055,0.304-0.108,0.605-0.169,0.901c-0.137,0.675-0.249,1.367-0.357,2.037
				c-0.11,0.684-0.215,1.33-0.343,1.948C9.689,41.938,9.585,42.02,9.468,42.02z"/>
		</g>
		<g>
			<path fill="#231F20" d="M9.86,42.256c-0.069,0-0.14-0.028-0.192-0.081c-0.106-0.107-0.104-0.278,0.002-0.383
				c2.071-2.045,3.344-5.397,1.771-7.845c-0.081-0.126-0.044-0.294,0.082-0.374c0.126-0.081,0.293-0.044,0.374,0.081
				c1.81,2.816,0.312,6.393-1.846,8.524C9.998,42.229,9.929,42.256,9.86,42.256z"/>
		</g>
		<g>
			<path fill="#231F20" d="M2.339,64.268c-0.037,0-0.075-0.009-0.111-0.026c-0.125-0.061-0.178-0.213-0.117-0.338
				c2.01-4.14,3.405-7.829,4.263-11.282c0.033-0.136,0.171-0.219,0.307-0.186c0.136,0.034,0.219,0.173,0.185,0.309
				C6,56.231,4.594,59.953,2.567,64.124C2.524,64.214,2.433,64.268,2.339,64.268z"/>
		</g>
		<g>
			<path fill="#231F20" d="M45.601,50.697c-0.06,0-0.121-0.021-0.169-0.066c-0.104-0.092-0.112-0.252-0.019-0.357
				c1.517-1.677,2.606-4.88,1.717-6.23c-0.383-0.582-1.05-0.371-1.415-0.195c-0.928,0.452-1.439,2.055-1.85,3.343
				c-0.175,0.55-0.342,1.069-0.524,1.467c-0.059,0.127-0.209,0.182-0.336,0.124s-0.182-0.209-0.124-0.336
				c0.169-0.369,0.332-0.874,0.502-1.408c0.462-1.453,0.987-3.099,2.11-3.644c0.86-0.418,1.629-0.28,2.058,0.37
				c1.141,1.729-0.282,5.212-1.763,6.85C45.739,50.67,45.67,50.697,45.601,50.697z"/>
		</g>
		<g>
			<path fill="#231F20" d="M47.149,52.572c-0.005,0-0.009,0-0.014,0c-0.135-0.005-0.241-0.117-0.238-0.251
				c0.003-0.137,0.115-0.236,0.251-0.238c0.257,0.004,1.542-0.407,2.627-0.81c0.127-0.049,0.267,0.017,0.315,0.143
				c0.046,0.127-0.019,0.268-0.146,0.315C49.713,51.818,47.674,52.572,47.149,52.572z"/>
		</g>
		<g>
			<path fill="#231F20" d="M49.966,53.141c-0.094,0-0.179-0.065-0.2-0.16c-0.062-0.291,0.056-0.523,0.161-0.729
				c0.067-0.132,0.13-0.255,0.136-0.376c0.006-0.113,0.104-0.2,0.216-0.195c0.113,0.006,0.2,0.103,0.194,0.216
				c-0.01,0.209-0.1,0.386-0.181,0.54c-0.096,0.192-0.155,0.317-0.125,0.457c0.025,0.11-0.045,0.22-0.156,0.243
				C49.996,53.139,49.981,53.141,49.966,53.141z"/>
		</g>
		<g>
			<path fill="#231F20" d="M47.135,52.545c-0.079,0-0.156-0.035-0.208-0.102c-0.131-0.169-0.236-0.353-0.337-0.529
				c-0.253-0.439-0.455-0.787-0.938-0.867c-0.142-0.022-0.239-0.156-0.215-0.298c0.022-0.143,0.157-0.238,0.299-0.216
				c0.729,0.119,1.035,0.652,1.307,1.12c0.097,0.17,0.189,0.329,0.298,0.471c0.088,0.114,0.066,0.278-0.047,0.366
				C47.246,52.526,47.189,52.545,47.135,52.545z"/>
		</g>
		<g>
			<path fill="#231F20" d="M42.598,48.759c-0.007,0-0.015,0-0.022,0c-0.119-0.012-0.205-0.118-0.193-0.236
				c0.165-1.634,0.497-3.229,0.96-4.614c0.038-0.113,0.16-0.173,0.272-0.136c0.113,0.038,0.173,0.16,0.136,0.272
				c-0.454,1.355-0.78,2.918-0.94,4.521C42.8,48.676,42.707,48.759,42.598,48.759z"/>
		</g>
	</g>
</g>
<g>
	<path fill="#231F20" d="M11.837,48.446c-0.125,0-0.234-0.092-0.252-0.221c-0.05-0.371-0.213-0.697-0.458-0.917
		c-0.105-0.094-0.114-0.255-0.021-0.36c0.094-0.105,0.255-0.114,0.36-0.021c0.336,0.302,0.557,0.738,0.624,1.229
		c0.019,0.139-0.079,0.268-0.219,0.286C11.86,48.445,11.849,48.446,11.837,48.446z"/>
</g>
</svg>
