<?xml version="1.0" encoding="utf-8"?>
<!-- Generator: Adobe Illustrator 15.0.0, SVG Export Plug-In . SVG Version: 6.00 Build 0)  -->
<!DOCTYPE svg PUBLIC "-//W3C//DTD SVG 1.1//EN" "http://www.w3.org/Graphics/SVG/1.1/DTD/svg11.dtd">
<svg version="1.1" id="Layer_1" xmlns="http://www.w3.org/2000/svg" xmlns:xlink="http://www.w3.org/1999/xlink" x="0px" y="0px"
	 width="100px" height="100px" viewBox="0 0 100 100" enable-background="new 0 0 100 100" xml:space="preserve">
<g>
	<rect y="29.967" fill="#020202" width="100.5" height="2.753"/>
	<rect y="67.139" fill="#020202" width="100.5" height="2.753"/>
	<rect y="29.967" fill="#020202" width="2.755" height="39.925"/>
	<rect x="9.637" y="44.423" fill="#020202" width="2.754" height="11.014"/>
	<rect x="23.404" y="36.162" fill="#020202" width="2.754" height="27.534"/>
	<rect x="9.637" y="44.423" fill="#020202" width="11.014" height="2.753"/>
	<rect x="9.637" y="52.682" fill="#020202" width="13.768" height="2.753"/>
	<rect x="37.172" y="44.423" fill="#020202" width="2.753" height="11.014"/>
	<rect x="42.678" y="44.423" fill="#020202" width="2.754" height="11.012"/>
	<rect x="50.939" y="49.929" fill="#020202" width="2.754" height="5.505"/>
	<rect x="59.199" y="44.423" fill="#020202" width="2.754" height="11.012"/>
	<rect x="28.912" y="52.682" fill="#020202" width="11.013" height="2.753"/>
	<rect x="26.158" y="44.423" fill="#020202" width="13.767" height="2.753"/>
	<rect x="42.678" y="44.423" fill="#020202" width="19.275" height="2.753"/>
	<rect x="97.748" y="29.967" fill="#020202" width="2.752" height="39.925"/>
</g>
</svg>
