<?xml version="1.0" encoding="utf-8"?>
<!-- Generator: Adobe Illustrator 16.0.0, SVG Export Plug-In . SVG Version: 6.00 Build 0)  -->
<!DOCTYPE svg PUBLIC "-//W3C//DTD SVG 1.1//EN" "http://www.w3.org/Graphics/SVG/1.1/DTD/svg11.dtd">
<svg version="1.1" id="Layer_1" xmlns="http://www.w3.org/2000/svg" xmlns:xlink="http://www.w3.org/1999/xlink" x="0px" y="0px"
	 width="100px" height="100px" viewBox="0 0 100 100" enable-background="new 0 0 100 100" xml:space="preserve">
<g>
	<path fill="none" stroke="#000000" stroke-width="3" stroke-miterlimit="10" d="M50.158,2.134c-26.574,0-48.101,21.6-48.101,48.253
		c0,26.651,21.527,48.259,48.101,48.259c26.56,0,48.095-21.607,48.095-48.259C98.253,23.734,76.718,2.134,50.158,2.134z
		 M42.099,61.57c-0.244,0-1.166-2.227-2.047-4.947l-2.032-6.276c-0.883-2.72-1.608-4.957-1.612-4.969
		c-0.004-0.014-0.027-0.074-0.039-0.112c-0.012-0.038,1.878-1.454,4.212-3.106l4.26-3.021c2.333-1.654,4.447-3.154,4.7-3.333
		c0.251-0.18,0.676-0.324,0.81-0.232c0.133,0.094,2.699,1.91,5.033,3.564l4.263,3.022c2.335,1.651,4.236,3.025,4.226,3.051
		c-0.01,0.025-0.041,0.133-0.044,0.145c-0.007,0.011-0.737,2.27-1.623,4.988l-2.039,6.278c-0.884,2.722-1.691,4.946-1.795,4.946
		c0,0,0,0-0.169,0c-0.474,0-1.312,0-2.369,0c-3.877,0-10.711,0-13.245,0C42.099,61.57,42.099,61.57,42.099,61.57z M38.208,12.02
		c0.761-1.497,1.587-3.121,1.834-3.611c0.248-0.489,3.084-1.893,5.907-2.351c0,0,0.839-0.136,3.96-0.136s3.966,0.136,3.966,0.136
		c2.822,0.454,5.316,1.164,5.543,1.578c0.227,0.412,1.603,2.911,2.421,4.401c0.823,1.49,1.789,3.422,1.689,3.46
		c-0.102,0.038-0.878,0.342-1.354,0.526c-0.479,0.185-3.677,1.437-5.619,2.197c-1.944,0.759-5.632,2.196-5.894,2.299
		c-0.262,0.104-0.659,0.177-0.779,0.129c-0.123-0.047-2.173-0.85-3.841-1.503c-1.67-0.652-6.605-2.577-7.252-2.828
		c-0.645-0.25-1.898-0.747-2.008-0.789C36.669,15.484,37.448,13.516,38.208,12.02z M61.986,88.752
		c-0.763,1.497-1.586,3.12-1.837,3.611c-0.247,0.492-3.081,1.892-5.903,2.351c0,0-0.839,0.136-3.961,0.136
		c-3.119,0-3.965-0.136-3.965-0.136c-2.823-0.454-5.317-1.163-5.544-1.576c-0.226-0.413-1.6-2.911-2.421-4.401
		c-0.82-1.49-1.789-3.422-1.687-3.462c0.102-0.038,0.878-0.341,1.355-0.524c0.477-0.184,3.675-1.438,5.618-2.198
		c1.943-0.76,5.63-2.195,5.892-2.299c0.263-0.104,0.659-0.176,0.78-0.13c0.123,0.047,2.171,0.852,3.842,1.504
		c1.668,0.652,6.604,2.578,7.251,2.828c0.646,0.251,1.897,0.747,2.009,0.789C63.524,85.286,62.747,87.255,61.986,88.752z
		 M78.22,21.78c1.676-0.032,3.493-0.068,4.039-0.08c0.547-0.011,3.113,1.833,4.844,4.109c0,0,0.522,0.688,1.993,3.449
		c1.472,2.759,1.754,3.584,1.754,3.584c0.931,2.704,1.481,5.239,1.225,5.634c-0.256,0.396-1.807,2.79-2.73,4.219
		c-0.924,1.429-2.163,3.195-2.245,3.124s-0.713-0.615-1.101-0.951c-0.387-0.335-2.995-2.575-4.58-3.936
		c-1.584-1.36-4.584-3.946-4.798-4.129c-0.216-0.183-0.466-0.498-0.481-0.63c-0.016-0.131-0.274-2.321-0.488-4.107
		c-0.212-1.784-0.848-7.059-0.932-7.749c-0.086-0.688-0.242-2.029-0.255-2.149C74.449,22.053,76.547,21.813,78.22,21.78z
		 M21.974,78.991c-1.674,0.031-3.492,0.068-4.039,0.079c-0.546,0.013-3.115-1.833-4.845-4.107c0,0-0.521-0.687-1.993-3.449
		c-1.47-2.76-1.754-3.585-1.754-3.585c-0.929-2.704-1.48-5.241-1.223-5.635c0.256-0.396,1.806-2.789,2.728-4.218
		c0.923-1.429,2.164-3.194,2.246-3.124s0.714,0.617,1.101,0.949c0.388,0.335,2.997,2.575,4.582,3.937
		c1.583,1.36,4.585,3.945,4.798,4.128c0.215,0.184,0.465,0.501,0.48,0.631c0.016,0.13,0.275,2.32,0.489,4.106
		c0.214,1.783,0.849,7.059,0.932,7.748c0.085,0.689,0.239,2.031,0.255,2.149C25.746,78.721,23.649,78.96,21.974,78.991z
		 M89.006,59.909c0.887,1.426,1.851,2.972,2.14,3.435c0.291,0.466,0.035,3.623-1.024,6.278c0,0-0.32,0.807-1.928,3.492
		c-1.606,2.683-2.162,3.346-2.162,3.346c-1.839,2.191-3.726,3.967-4.194,3.948c-0.472-0.019-3.313-0.122-5.009-0.182
		c-1.696-0.061-3.844-0.223-3.825-0.331c0.018-0.104,0.16-0.93,0.246-1.433c0.09-0.507,0.664-3.903,1.015-5.964
		c0.352-2.063,1.023-5.976,1.067-6.252c0.046-0.277,0.188-0.656,0.292-0.737c0.105-0.079,1.845-1.429,3.261-2.528
		c1.418-1.1,5.604-4.356,6.15-4.781c0.547-0.429,1.614-1.249,1.708-1.323C86.836,56.804,88.118,58.485,89.006,59.909z
		 M11.189,40.863c-0.887-1.425-1.851-2.971-2.142-3.437c-0.29-0.465-0.032-3.62,1.026-6.277c0,0,0.321-0.804,1.929-3.49
		c1.604-2.683,2.162-3.347,2.162-3.347c1.838-2.191,3.726-3.967,4.196-3.949c0.47,0.018,3.312,0.122,5.008,0.183
		c1.697,0.061,3.845,0.223,3.827,0.329c-0.02,0.107-0.161,0.931-0.249,1.437c-0.088,0.505-0.664,3.9-1.015,5.962
		c-0.35,2.062-1.021,5.973-1.067,6.251c-0.046,0.279-0.188,0.656-0.292,0.737c-0.104,0.081-1.844,1.43-3.262,2.529
		c-1.417,1.1-5.603,4.354-6.149,4.78c-0.546,0.427-1.615,1.248-1.709,1.323C13.358,43.97,12.076,42.288,11.189,40.863z"/>
</g>
</svg>
