<?xml version="1.0" encoding="utf-8"?>
<!-- Generator: Adobe Illustrator 16.0.0, SVG Export Plug-In . SVG Version: 6.00 Build 0)  -->
<!DOCTYPE svg PUBLIC "-//W3C//DTD SVG 1.1//EN" "http://www.w3.org/Graphics/SVG/1.1/DTD/svg11.dtd">
<svg version="1.1" id="Layer_1" xmlns="http://www.w3.org/2000/svg" xmlns:xlink="http://www.w3.org/1999/xlink" x="0px" y="0px"
	 width="100px" height="100px" viewBox="0 0 100 100" enable-background="new 0 0 100 100" xml:space="preserve">
<path fill="#161616" d="M3.509,33.357h16.438l-1.579,4.914h-0.595c0.199-0.831,0.281-1.576,0.298-2.235
	c0.022-0.861-0.256-1.255-0.531-1.426c-0.4-0.249-1.486-0.357-2.98-0.357h-2.117L7.954,49.513c-0.542,1.874-0.812,3.026-0.812,3.46
	c0,0.409,0.168,0.741,0.505,0.999c0.336,0.257,0.942,0.386,1.814,0.386h0.734l-0.199,0.594H1.401l0.179-0.594h0.417
	c0.833,0,1.474-0.131,1.924-0.396c0.304-0.185,0.581-0.51,0.833-0.979c0.251-0.468,0.595-1.466,1.031-2.996l4.708-15.736H8.77
	c-1.243,0-2.103-0.007-3.004,0.269c-0.787,0.243-1.301,0.567-1.843,1.179c-0.51,0.574-0.85,1.464-1.141,2.571H2.188L3.509,33.357z"
	/>
<path fill="#161616" d="M15.148,39.273l-2.242,7.737c0.965-1.458,1.719-2.426,2.262-2.904s1.062-0.718,1.559-0.718
	c0.258,0,0.471,0.09,0.641,0.268c0.168,0.178,0.252,0.413,0.252,0.703c0,0.35-0.073,0.775-0.219,1.277L16.43,48.97
	c-0.126,0.402-0.189,0.626-0.189,0.673c0,0.072,0.023,0.132,0.07,0.177c0.046,0.047,0.1,0.069,0.159,0.069
	c0.065,0,0.145-0.033,0.237-0.098c0.304-0.239,0.605-0.561,0.904-0.97l0.248,0.148c-0.186,0.284-0.438,0.594-0.759,0.93
	c-0.321,0.337-0.597,0.569-0.829,0.698c-0.231,0.13-0.438,0.192-0.615,0.192c-0.199,0-0.361-0.062-0.486-0.187
	c-0.126-0.126-0.189-0.285-0.189-0.477c0-0.237,0.093-0.672,0.278-1.306l0.922-3.186c0.113-0.402,0.169-0.716,0.169-0.94
	c0-0.106-0.034-0.192-0.1-0.257c-0.066-0.066-0.152-0.099-0.258-0.099c-0.152,0-0.327,0.06-0.526,0.177
	c-0.364,0.225-0.78,0.641-1.25,1.248c-0.132,0.165-0.559,0.828-1.28,1.988c-0.225,0.37-0.41,0.775-0.555,1.217l-0.506,1.634h-1.201
	l2.629-9.114l0.277-0.989c0-0.139-0.057-0.261-0.173-0.366c-0.116-0.106-0.256-0.159-0.422-0.159c-0.092,0-0.237,0.017-0.436,0.05
	l-0.17,0.02v-0.308L15.148,39.273z"/>
<path fill="#161616" d="M19.026,47.604c-0.033,0.264-0.05,0.482-0.05,0.654c0,0.475,0.167,0.879,0.501,1.212
	c0.334,0.333,0.742,0.5,1.225,0.5c0.383,0,0.753-0.08,1.107-0.237c0.353-0.159,0.878-0.505,1.572-1.04l0.168,0.228
	c-1.264,1.246-2.467,1.87-3.611,1.87c-0.774,0-1.358-0.243-1.751-0.732c-0.394-0.487-0.59-1.025-0.59-1.612
	c0-0.792,0.245-1.602,0.734-2.429c0.488-0.828,1.102-1.473,1.84-1.935s1.5-0.693,2.288-0.693c0.561,0,0.979,0.116,1.25,0.347
	c0.271,0.23,0.407,0.501,0.407,0.812c0,0.442-0.175,0.864-0.526,1.266c-0.463,0.528-1.144,0.954-2.043,1.276
	C20.95,47.307,20.11,47.479,19.026,47.604z M19.085,47.209c0.787-0.092,1.428-0.248,1.925-0.465
	c0.655-0.291,1.146-0.638,1.473-1.044c0.328-0.405,0.491-0.793,0.491-1.163c0-0.217-0.071-0.395-0.213-0.534
	c-0.143-0.138-0.342-0.208-0.601-0.208c-0.542,0-1.118,0.288-1.727,0.861C19.827,45.23,19.376,46.081,19.085,47.209z"/>
<path fill="#161616" d="M30.377,47.604c-0.034,0.264-0.051,0.482-0.051,0.654c0,0.475,0.167,0.879,0.502,1.212
	c0.334,0.333,0.742,0.5,1.225,0.5c0.383,0,0.752-0.08,1.105-0.237c0.354-0.159,0.879-0.505,1.574-1.04l0.168,0.228
	c-1.264,1.246-2.467,1.87-3.611,1.87c-0.774,0-1.358-0.243-1.752-0.732c-0.393-0.487-0.59-1.025-0.59-1.612
	c0-0.792,0.245-1.602,0.735-2.429c0.489-0.828,1.103-1.473,1.84-1.935c0.737-0.462,1.5-0.693,2.286-0.693
	c0.562,0,0.98,0.116,1.251,0.347c0.271,0.23,0.407,0.501,0.407,0.812c0,0.442-0.175,0.864-0.526,1.266
	c-0.463,0.528-1.145,0.954-2.044,1.276C32.301,47.307,31.461,47.479,30.377,47.604z M30.437,47.209
	c0.787-0.092,1.428-0.248,1.924-0.465c0.656-0.291,1.147-0.638,1.474-1.044c0.328-0.405,0.491-0.793,0.491-1.163
	c0-0.217-0.071-0.395-0.214-0.534c-0.142-0.138-0.341-0.208-0.6-0.208c-0.542,0-1.117,0.288-1.727,0.861
	C31.176,45.23,30.728,46.081,30.437,47.209z"/>
<path fill="#161616" d="M35.219,43.884l2.311-0.496c0.166,0.396,0.298,0.798,0.397,1.208c0.145,0.601,0.264,1.313,0.356,2.137
	c0.04,0.416,0.096,1.289,0.169,2.622c0.667-0.732,1.065-1.183,1.19-1.355c0.708-0.951,1.115-1.508,1.22-1.673
	c0.172-0.283,0.294-0.531,0.367-0.742c0.06-0.158,0.09-0.31,0.09-0.455c0-0.138-0.124-0.298-0.373-0.479
	c-0.248-0.181-0.372-0.385-0.372-0.609c0-0.165,0.068-0.314,0.203-0.45c0.136-0.136,0.296-0.204,0.482-0.204
	c0.225,0,0.421,0.094,0.59,0.278c0.168,0.185,0.252,0.412,0.252,0.683c0,0.27-0.043,0.531-0.128,0.781
	c-0.132,0.402-0.39,0.895-0.77,1.474c-0.381,0.581-0.99,1.363-1.831,2.345c-0.106,0.119-0.698,0.733-1.775,1.84h-0.289
	c-0.132-3.358-0.4-5.455-0.803-6.293c-0.132-0.27-0.354-0.406-0.665-0.406c-0.132,0-0.32,0.027-0.564,0.08L35.219,43.884z"/>
<path fill="#161616" d="M48.769,45.882c0,0.798-0.212,1.588-0.636,2.371c-0.423,0.781-1.011,1.399-1.765,1.855
	c-0.754,0.455-1.488,0.682-2.203,0.682c-0.728,0-1.322-0.231-1.785-0.697c-0.463-0.465-0.694-1.063-0.694-1.795
	c0-0.786,0.224-1.57,0.674-2.355c0.449-0.785,1.051-1.406,1.805-1.865c0.755-0.458,1.482-0.688,2.184-0.688
	c0.707,0,1.288,0.233,1.74,0.698C48.542,44.552,48.769,45.15,48.769,45.882z M47.449,45.339c0-0.495-0.123-0.875-0.367-1.139
	c-0.246-0.263-0.56-0.396-0.943-0.396c-0.78,0-1.5,0.559-2.158,1.678c-0.658,1.118-0.987,2.23-0.987,3.339
	c0,0.501,0.128,0.889,0.387,1.163c0.257,0.273,0.579,0.41,0.962,0.41c0.754,0,1.46-0.555,2.118-1.667S47.449,46.487,47.449,45.339z"
	/>
<path fill="#161616" d="M52.766,39.273l-2.729,9.479c-0.133,0.475-0.199,0.766-0.199,0.871c0,0.078,0.025,0.145,0.075,0.197
	c0.049,0.053,0.11,0.08,0.184,0.08c0.105,0,0.214-0.046,0.327-0.139c0.277-0.217,0.567-0.554,0.874-1.009L51.533,49
	c-0.502,0.712-0.968,1.21-1.397,1.494c-0.312,0.198-0.609,0.296-0.893,0.296c-0.199,0-0.366-0.07-0.501-0.207
	c-0.136-0.139-0.204-0.297-0.204-0.476c0-0.19,0.083-0.583,0.248-1.177l2.173-7.47c0.173-0.614,0.259-0.963,0.259-1.05
	c0-0.131-0.051-0.238-0.154-0.321c-0.103-0.082-0.259-0.123-0.472-0.123c-0.119,0-0.304,0.02-0.555,0.059v-0.296L52.766,39.273z"/>
<path fill="#161616" d="M58.9,43.587l-1.389,4.749c-0.205,0.706-0.309,1.151-0.309,1.336c0,0.093,0.017,0.163,0.052,0.208
	c0.032,0.045,0.077,0.069,0.138,0.069c0.094,0,0.194-0.041,0.302-0.124c0.11-0.082,0.384-0.41,0.82-0.984l0.248,0.188
	c-0.423,0.659-0.858,1.148-1.3,1.465c-0.292,0.198-0.573,0.296-0.844,0.296c-0.213,0-0.377-0.059-0.491-0.173
	c-0.117-0.115-0.173-0.266-0.173-0.451s0.032-0.425,0.098-0.722c0.087-0.388,0.33-1.243,0.734-2.562
	c-0.907,1.484-1.662,2.506-2.272,3.067c-0.608,0.561-1.174,0.841-1.695,0.841c-0.245,0-0.453-0.084-0.626-0.252
	c-0.171-0.168-0.258-0.384-0.258-0.648c0-0.395,0.115-1.005,0.347-1.831l0.706-2.463c0.163-0.587,0.247-0.954,0.247-1.099
	c0-0.059-0.021-0.112-0.065-0.158c-0.042-0.046-0.091-0.069-0.143-0.069c-0.112,0-0.225,0.04-0.339,0.118
	c-0.112,0.08-0.367,0.373-0.762,0.881l-0.248-0.168c0.402-0.621,0.825-1.076,1.27-1.366c0.344-0.231,0.657-0.347,0.942-0.347
	c0.198,0,0.359,0.063,0.486,0.188c0.126,0.125,0.187,0.288,0.187,0.485c0,0.29-0.104,0.802-0.315,1.534l-0.755,2.573
	c-0.206,0.705-0.307,1.15-0.307,1.335c0,0.099,0.033,0.18,0.099,0.243c0.065,0.062,0.156,0.093,0.269,0.093
	c0.171,0,0.399-0.087,0.683-0.262c0.285-0.175,0.662-0.564,1.132-1.168c0.47-0.603,0.857-1.169,1.167-1.697
	c0.306-0.527,0.633-1.369,0.977-2.523l0.178-0.603H58.9L58.9,43.587z"/>
<path fill="#161616" d="M62.85,41.42l-0.624,2.167h1.26l-0.14,0.504h-1.239l-1.38,4.69c-0.145,0.509-0.22,0.835-0.22,0.979
	c0,0.093,0.021,0.164,0.061,0.213c0.04,0.05,0.089,0.075,0.149,0.075c0.132,0,0.307-0.096,0.526-0.288
	c0.131-0.105,0.419-0.431,0.863-0.979l0.257,0.208c-0.488,0.706-0.951,1.208-1.389,1.505c-0.297,0.198-0.599,0.296-0.902,0.296
	c-0.231,0-0.424-0.072-0.57-0.218c-0.15-0.145-0.225-0.333-0.225-0.563c0-0.284,0.082-0.719,0.248-1.306l1.339-4.612h-1.211
	l0.08-0.317c0.589-0.158,1.077-0.395,1.463-0.712c0.389-0.317,0.823-0.864,1.305-1.643H62.85L62.85,41.42z"/>
<path fill="#161616" d="M65.924,43.592l-1.52,5.388c-0.107,0.375-0.159,0.6-0.159,0.672c0,0.086,0.023,0.155,0.075,0.208
	c0.049,0.053,0.107,0.08,0.173,0.08c0.087,0,0.183-0.043,0.288-0.129c0.304-0.238,0.612-0.577,0.923-1.019l0.278,0.188
	c-0.364,0.547-0.793,1.012-1.281,1.395C64.344,50.652,64,50.79,63.67,50.79c-0.22,0-0.397-0.062-0.537-0.192
	c-0.139-0.128-0.208-0.292-0.208-0.49c0-0.199,0.067-0.525,0.198-0.979l1.043-3.572c0.166-0.58,0.248-0.947,0.248-1.098
	c0-0.112-0.043-0.207-0.124-0.283c-0.082-0.075-0.171-0.061-0.309-0.061c-0.119,0-0.33-0.035-0.807-0.023l0.311-0.504L65.924,43.592
	z M65.882,40.232c0.225,0,0.414,0.078,0.565,0.233c0.152,0.155,0.229,0.341,0.229,0.559c0,0.219-0.079,0.406-0.233,0.564
	c-0.157,0.158-0.344,0.237-0.562,0.237s-0.407-0.08-0.565-0.237c-0.159-0.158-0.238-0.346-0.238-0.564
	c0-0.217,0.079-0.403,0.233-0.559C65.466,40.311,65.657,40.232,65.882,40.232z"/>
<path fill="#161616" d="M72.76,45.882c0,0.798-0.21,1.588-0.633,2.371c-0.424,0.781-1.013,1.399-1.768,1.855
	c-0.753,0.455-1.487,0.682-2.202,0.682c-0.728,0-1.323-0.231-1.787-0.697c-0.463-0.465-0.694-1.063-0.694-1.795
	c0-0.786,0.225-1.57,0.676-2.355c0.449-0.785,1.053-1.406,1.806-1.865c0.755-0.458,1.481-0.688,2.184-0.688
	c0.708,0,1.288,0.233,1.741,0.698C72.533,44.552,72.76,45.15,72.76,45.882z M71.441,45.339c0-0.495-0.124-0.875-0.367-1.139
	c-0.245-0.263-0.559-0.396-0.941-0.396c-0.781,0-1.501,0.559-2.161,1.678c-0.656,1.118-0.986,2.23-0.986,3.339
	c0,0.501,0.131,0.889,0.388,1.163c0.258,0.273,0.578,0.41,0.964,0.41c0.753,0,1.459-0.555,2.116-1.667
	C71.112,47.616,71.441,46.487,71.441,45.339z"/>
<path fill="#161616" d="M75.652,43.389l-1.062,3.632c0.994-1.485,1.756-2.461,2.289-2.93c0.53-0.468,1.043-0.703,1.531-0.703
	c0.265,0,0.484,0.09,0.654,0.268c0.174,0.178,0.26,0.406,0.26,0.683c0,0.324-0.077,0.748-0.229,1.276l-0.972,3.354
	c-0.112,0.389-0.169,0.626-0.169,0.713c0,0.072,0.021,0.133,0.065,0.183c0.042,0.05,0.087,0.075,0.134,0.075
	c0.059,0,0.136-0.033,0.227-0.1c0.285-0.224,0.596-0.563,0.933-1.019l0.248,0.148c-0.496,0.706-0.966,1.211-1.407,1.514
	c-0.312,0.204-0.59,0.307-0.835,0.307c-0.198,0-0.355-0.059-0.47-0.178c-0.117-0.118-0.176-0.277-0.176-0.475
	c0-0.257,0.092-0.695,0.27-1.316l0.933-3.206c0.112-0.396,0.168-0.706,0.168-0.931c0-0.105-0.035-0.19-0.103-0.257
	c-0.07-0.065-0.154-0.099-0.255-0.099c-0.146,0-0.323,0.063-0.535,0.188c-0.391,0.237-0.798,0.633-1.226,1.183
	c-0.426,0.551-0.877,1.251-1.354,2.102c-0.253,0.456-0.461,0.95-0.627,1.484l-0.395,1.317h-1.202l1.459-4.988
	c0.173-0.601,0.257-0.96,0.257-1.079c0-0.118-0.046-0.222-0.143-0.311c-0.096-0.09-0.21-0.134-0.344-0.134
	c-0.065,0-0.178,0.014-0.336,0.04l-0.307,0.04l-0.052-0.287L75.652,43.389z"/>
<path fill="#161616" d="M22.253,56.346c0,0.799-0.211,1.587-0.635,2.37c-0.423,0.781-1.012,1.4-1.767,1.854
	c-0.754,0.456-1.488,0.683-2.202,0.683c-0.729,0-1.323-0.231-1.786-0.697c-0.463-0.465-0.694-1.063-0.694-1.795
	c0-0.786,0.224-1.571,0.674-2.354c0.45-0.786,1.052-1.407,1.806-1.866c0.754-0.458,1.481-0.688,2.183-0.688
	c0.707,0,1.288,0.231,1.742,0.697C22.026,55.015,22.253,55.613,22.253,56.346z M20.934,55.801c0-0.493-0.123-0.872-0.367-1.137
	c-0.244-0.264-0.559-0.397-0.942-0.397c-0.781,0-1.5,0.562-2.158,1.679c-0.659,1.118-0.988,2.23-0.988,3.339
	c0,0.5,0.128,0.889,0.387,1.162c0.259,0.273,0.579,0.411,0.962,0.411c0.754,0,1.461-0.557,2.119-1.667
	C20.605,58.08,20.934,56.948,20.934,55.801z"/>
<path fill="#161616" d="M27.027,53.019l-0.138,0.488l-1.514-0.002l-1.183,4.694c-0.505,1.979-1.01,3.514-1.514,4.605
	c-0.727,1.527-1.505,2.579-2.334,3.159c-0.633,0.453-1.266,0.678-1.899,0.678c-0.418,0-0.769-0.124-1.051-0.369
	c-0.214-0.173-0.322-0.393-0.322-0.666c0-0.223,0.088-0.414,0.263-0.575c0.175-0.162,0.387-0.243,0.635-0.243
	c0.188,0,0.347,0.058,0.475,0.173c0.128,0.114,0.193,0.248,0.193,0.402s-0.072,0.294-0.217,0.423
	c-0.112,0.094-0.167,0.166-0.167,0.218c0,0.058,0.026,0.104,0.077,0.14c0.06,0.052,0.153,0.077,0.282,0.077
	c0.299,0,0.611-0.094,0.937-0.282c0.325-0.188,0.616-0.466,0.872-0.83c0.257-0.367,0.5-0.896,0.732-1.588
	c0.093-0.29,0.351-1.241,0.77-2.853l1.853-7.187l-1.809,0.005l0.096-0.468c0.573,0,0.972-0.042,1.199-0.122
	c0.227-0.082,0.434-0.233,0.622-0.453c0.188-0.223,0.437-0.641,0.745-1.256c0.402-0.817,0.791-1.454,1.167-1.906
	c0.504-0.614,0.731-0.892,1.603-1.381c0.739-0.414,2.057-0.561,2.554-0.561c0.521,0,0.237,0.089,0.294,0.497
	c0.05,0.359-0.219,0.588-0.219,0.896c0,0.248,0.323,0.345,0.456,0.575c0.112,0.196-0.361,0.243-0.61,0.243
	c-0.214,0-0.389-0.062-0.526-0.185c-0.137-0.124-0.205-0.271-0.205-0.442c0-0.111,0.044-0.248,0.134-0.409
	c0.09-0.162,0.135-0.269,0.135-0.32c0-0.093-0.029-0.166-0.089-0.217c-0.086-0.068,0.064-0.22-0.106-0.22
	c-0.436,0-1.105,0.253-1.447,0.527c-0.46,0.367-0.875,0.938-1.244,1.713c-0.188,0.401-0.531,1.407-1.026,3.021H27.027L27.027,53.019
	z"/>
<path fill="#161616" d="M32.411,53.339l-0.58,1.919c0.608-0.708,1.149-1.206,1.626-1.491s0.96-0.428,1.45-0.428
	c0.497,0,0.92,0.196,1.268,0.587c0.35,0.393,0.524,0.902,0.524,1.528c0,1.219-0.497,2.46-1.492,3.718
	c-0.994,1.26-2.153,1.892-3.479,1.892c-0.277,0-0.521-0.03-0.735-0.089c-0.215-0.059-0.452-0.166-0.715-0.325l-0.61,2.148
	c-0.125,0.419-0.187,0.692-0.187,0.816s0.033,0.229,0.098,0.315c0.065,0.084,0.17,0.152,0.311,0.201
	c0.142,0.047,0.427,0.07,0.854,0.07l-0.072,0.311h-3.924l0.082-0.311c0.518-0.019,0.868-0.107,1.046-0.262
	c0.18-0.154,0.37-0.587,0.569-1.296l2.112-7.28c0.125-0.463,0.187-0.748,0.187-0.858c0-0.151-0.041-0.269-0.124-0.351
	c-0.083-0.084-0.214-0.124-0.394-0.124c-0.166,0-0.391,0.02-0.673,0.062v-0.32L32.411,53.339z M30.464,59.988
	c0.345,0.413,0.811,0.619,1.398,0.619c0.283,0,0.574-0.079,0.876-0.241c0.299-0.161,0.592-0.399,0.879-0.713
	c0.286-0.313,0.543-0.676,0.771-1.089c0.228-0.414,0.434-0.9,0.616-1.462c0.184-0.561,0.274-1.117,0.274-1.667
	c0-0.441-0.102-0.778-0.305-1.012c-0.204-0.234-0.444-0.354-0.72-0.354c-0.601,0-1.192,0.344-1.776,1.029
	c-0.583,0.685-1.014,1.489-1.29,2.41L30.464,59.988z"/>
<path fill="#161616" d="M40.85,48.675l-2.599,8.989c0.966-1.457,1.72-2.425,2.262-2.904c0.542-0.477,1.061-0.718,1.558-0.718
	c0.257,0,0.471,0.092,0.64,0.27c0.168,0.178,0.253,0.411,0.253,0.701c0,0.351-0.074,0.776-0.219,1.276l-0.972,3.334
	c-0.126,0.404-0.188,0.627-0.188,0.674c0,0.072,0.023,0.133,0.069,0.178c0.047,0.046,0.1,0.069,0.159,0.069
	c0.066,0,0.145-0.032,0.238-0.098c0.304-0.238,0.604-0.562,0.903-0.971l0.248,0.147c-0.185,0.285-0.438,0.594-0.759,0.931
	c-0.321,0.337-0.597,0.57-0.829,0.699c-0.231,0.128-0.436,0.191-0.615,0.191c-0.199,0-0.36-0.063-0.486-0.187
	c-0.125-0.127-0.188-0.285-0.188-0.475c0-0.239,0.092-0.674,0.278-1.308l0.922-3.187c0.112-0.402,0.168-0.715,0.168-0.939
	c0-0.105-0.033-0.192-0.1-0.258c-0.065-0.065-0.152-0.098-0.257-0.098c-0.153,0-0.327,0.059-0.526,0.178
	c-0.365,0.225-0.781,0.641-1.25,1.246c-0.132,0.166-0.559,0.827-1.279,1.989c-0.226,0.369-0.41,0.774-0.556,1.216l-0.506,1.635
	h-1.201l2.635-9.109l0.04-0.151c0-0.141-0.059-0.263-0.174-0.367c-0.116-0.105-0.145-0.107-0.311-0.107
	c-0.093,0-0.237,0.016-0.437,0.049l-0.169,0.021v-0.103c0,0,0.506-0.362,1.433-1.103C40.001,49.637,40.85,48.675,40.85,48.675z"/>
<path fill="#161616" d="M49.998,56.537c0,0.797-0.211,1.587-0.635,2.371c-0.423,0.78-1.012,1.397-1.766,1.854
	s-1.488,0.683-2.203,0.683c-0.727,0-1.323-0.231-1.786-0.696c-0.463-0.466-0.694-1.064-0.694-1.796c0-0.785,0.225-1.571,0.675-2.356
	c0.45-0.783,1.052-1.405,1.806-1.863c0.754-0.459,1.482-0.69,2.183-0.69c0.708,0,1.288,0.234,1.742,0.699
	C49.771,55.207,49.998,55.806,49.998,56.537z M48.679,55.992c0-0.493-0.122-0.874-0.367-1.139c-0.245-0.262-0.559-0.395-0.942-0.395
	c-0.781,0-1.5,0.559-2.158,1.676c-0.658,1.12-0.987,2.232-0.987,3.341c0,0.501,0.129,0.889,0.387,1.162
	c0.258,0.273,0.58,0.411,0.963,0.411c0.754,0,1.46-0.556,2.118-1.666C48.35,58.27,48.679,57.141,48.679,55.992z"/>
<path fill="#161616" d="M53.383,52.074l-0.624,2.167h1.26l-0.14,0.505H52.64l-1.38,4.69c-0.145,0.507-0.217,0.834-0.217,0.979
	c0,0.091,0.019,0.163,0.059,0.213c0.039,0.049,0.089,0.074,0.149,0.074c0.131,0,0.306-0.096,0.526-0.287
	c0.131-0.105,0.418-0.433,0.862-0.979l0.257,0.208c-0.488,0.706-0.951,1.206-1.389,1.503c-0.297,0.199-0.599,0.297-0.902,0.297
	c-0.232,0-0.421-0.072-0.571-0.218c-0.149-0.145-0.224-0.332-0.224-0.563c0-0.285,0.083-0.72,0.249-1.307l1.338-4.61h-1.209
	l0.079-0.318c0.587-0.156,1.077-0.395,1.464-0.71c0.386-0.318,0.82-0.865,1.305-1.644H53.383L53.383,52.074z"/>
<path fill="#161616" d="M59.722,56.616c0,0.798-0.213,1.588-0.637,2.368c-0.423,0.781-1.012,1.401-1.765,1.856
	c-0.755,0.454-1.489,0.683-2.202,0.683c-0.729,0-1.323-0.233-1.786-0.698c-0.463-0.466-0.695-1.064-0.695-1.796
	c0-0.785,0.225-1.568,0.674-2.354c0.451-0.785,1.052-1.407,1.808-1.865c0.753-0.459,1.479-0.688,2.181-0.688
	c0.709,0,1.289,0.233,1.742,0.696C59.494,55.284,59.722,55.883,59.722,56.616z M58.4,56.071c0-0.495-0.121-0.874-0.367-1.138
	c-0.245-0.265-0.559-0.396-0.942-0.396c-0.78,0-1.501,0.559-2.157,1.677c-0.66,1.117-0.987,2.229-0.987,3.338
	c0,0.503,0.129,0.891,0.386,1.165c0.26,0.273,0.58,0.409,0.964,0.409c0.753,0,1.459-0.555,2.118-1.668
	C58.07,58.349,58.4,57.22,58.4,56.071z"/>
<path fill="#161616" d="M66.567,55.63c0.067,0.229,0.154,0.58,0.154,0.832c0,0.734-0.309,1.387-0.929,1.955
	c-0.627,0.561-1.482,0.874-2.567,0.935c-0.591,0.181-1.03,0.391-1.32,0.639c-0.11,0.082-0.164,0.171-0.164,0.267
	c0,0.109,0.049,0.21,0.149,0.304c0.099,0.092,0.349,0.183,0.746,0.273l1.62,0.379c0.887,0.206,1.474,0.454,1.763,0.741
	c0.281,0.295,0.424,0.631,0.424,1.008c0,0.451-0.166,0.867-0.501,1.244c-0.334,0.376-0.822,0.671-1.471,0.884
	c-0.645,0.212-1.355,0.32-2.134,0.32c-0.688,0-1.312-0.085-1.875-0.248c-0.563-0.164-0.969-0.384-1.212-0.659
	c-0.245-0.274-0.366-0.557-0.366-0.854c0-0.231,0.079-0.478,0.235-0.734c0.159-0.257,0.355-0.468,0.59-0.631
	c0.149-0.11,0.572-0.36,1.267-0.751c-0.255-0.198-0.381-0.418-0.381-0.659c0-0.22,0.114-0.451,0.342-0.699
	c0.227-0.245,0.698-0.521,1.421-0.823c-0.61-0.116-1.094-0.369-1.449-0.76c-0.354-0.391-0.531-0.827-0.531-1.307
	c0-0.781,0.344-1.482,1.031-2.102c0.688-0.62,1.606-0.931,2.754-0.931c0.412,0,0.751,0.042,1.015,0.129
	c0.265,0.084,0.578,0.247,0.779,0.386C66.16,54.905,66.497,55.4,66.567,55.63z M61.339,61.748c-0.446,0.206-0.785,0.468-1.015,0.786
	c-0.231,0.32-0.346,0.634-0.346,0.942c0,0.362,0.164,0.664,0.493,0.904c0.481,0.342,1.181,0.515,2.095,0.515
	c0.788,0,1.466-0.136,2.029-0.402s0.847-0.612,0.847-1.038c0-0.22-0.105-0.426-0.313-0.617c-0.21-0.191-0.614-0.349-1.213-0.473
	C63.593,62.303,62.735,62.097,61.339,61.748z M65.318,56.071c0-0.443-0.124-0.795-0.372-1.047c-0.247-0.255-0.57-0.381-0.968-0.381
	c-0.626,0-1.141,0.312-1.548,0.939c-0.404,0.629-0.607,1.281-0.607,1.959c0,0.426,0.129,0.774,0.386,1.046
	c0.26,0.269,0.572,0.404,0.944,0.404c0.295,0,0.58-0.08,0.855-0.241c0.274-0.161,0.506-0.381,0.69-0.664
	c0.187-0.28,0.336-0.638,0.448-1.073C65.263,56.577,65.318,56.264,65.318,56.071z"/>
<path fill="#161616" d="M67.168,54.498l2.759-0.456l-1.15,3.879c0.933-1.59,1.779-2.7,2.539-3.334
	c0.431-0.362,0.781-0.545,1.052-0.545c0.178,0,0.318,0.054,0.416,0.159c0.101,0.105,0.15,0.258,0.15,0.456
	c0,0.349-0.089,0.683-0.27,0.998c-0.123,0.239-0.311,0.358-0.554,0.358c-0.119,0-0.225-0.04-0.313-0.119
	c-0.089-0.08-0.145-0.201-0.163-0.367c-0.008-0.099-0.031-0.164-0.07-0.196c-0.047-0.04-0.096-0.062-0.147-0.062
	c-0.094,0-0.18,0.021-0.26,0.062c-0.138,0.072-0.351,0.28-0.634,0.621c-0.444,0.521-0.923,1.195-1.439,2.021
	c-0.218,0.349-0.409,0.743-0.575,1.186c-0.218,0.607-0.344,0.975-0.377,1.099l-0.26,1.001h-1.22l1.479-4.947
	c0.166-0.575,0.248-0.984,0.248-1.228c0-0.094-0.04-0.171-0.119-0.238c-0.105-0.085-0.246-0.129-0.416-0.129
	c-0.112,0-0.318,0.023-0.615,0.07L67.168,54.498z"/>
<path fill="#161616" d="M79.15,53.951l-1.578,5.494l-0.181,0.732c-0.012,0.067-0.019,0.123-0.019,0.168
	c0,0.086,0.025,0.161,0.08,0.229c0.039,0.045,0.091,0.068,0.158,0.068c0.065,0,0.154-0.042,0.267-0.129
	c0.206-0.151,0.484-0.468,0.835-0.949l0.267,0.188c-0.362,0.554-0.739,0.975-1.13,1.263c-0.39,0.287-0.752,0.43-1.082,0.43
	c-0.225,0-0.396-0.056-0.512-0.168c-0.115-0.112-0.173-0.276-0.173-0.493c0-0.265,0.061-0.608,0.18-1.031l0.168-0.604
	c-0.701,0.912-1.344,1.548-1.924,1.91c-0.426,0.257-0.837,0.386-1.241,0.386c-0.391,0-0.728-0.161-1.008-0.479
	c-0.281-0.32-0.421-0.76-0.421-1.32c0-0.845,0.252-1.737,0.758-2.678c0.507-0.939,1.152-1.69,1.94-2.251
	c0.607-0.449,1.185-0.674,1.728-0.674c0.329,0,0.604,0.087,0.818,0.258c0.215,0.173,0.379,0.456,0.491,0.851l0.304-1.021
	L79.15,53.951z M76.281,54.459c-0.337,0-0.696,0.161-1.08,0.486c-0.55,0.446-1.036,1.115-1.459,2.003
	c-0.423,0.887-0.636,1.69-0.636,2.408c0,0.355,0.091,0.641,0.273,0.852c0.183,0.21,0.391,0.315,0.629,0.315
	c0.575,0,1.204-0.428,1.887-1.286c0.912-1.134,1.368-2.298,1.368-3.493c0-0.446-0.087-0.773-0.263-0.979
	C76.826,54.562,76.585,54.459,76.281,54.459z"/>
<path fill="#161616" d="M89.652,49.927l-2.242,7.737c0.966-1.457,1.719-2.425,2.261-2.904c0.542-0.477,1.063-0.718,1.56-0.718
	c0.257,0,0.47,0.092,0.639,0.27c0.17,0.178,0.254,0.411,0.254,0.701c0,0.351-0.072,0.776-0.22,1.276l-0.973,3.334
	c-0.123,0.404-0.187,0.627-0.187,0.674c0,0.072,0.023,0.133,0.067,0.178c0.047,0.046,0.101,0.069,0.159,0.069
	c0.068,0,0.147-0.032,0.238-0.098c0.305-0.238,0.605-0.562,0.902-0.971l0.251,0.147c-0.188,0.285-0.439,0.594-0.76,0.931
	s-0.597,0.57-0.828,0.699c-0.233,0.128-0.438,0.191-0.617,0.191c-0.198,0-0.36-0.063-0.484-0.187
	c-0.126-0.127-0.188-0.285-0.188-0.475c0-0.239,0.091-0.674,0.277-1.308l0.922-3.187c0.112-0.402,0.17-0.715,0.17-0.939
	c0-0.105-0.035-0.192-0.1-0.258c-0.066-0.065-0.152-0.098-0.258-0.098c-0.152,0-0.327,0.059-0.525,0.178
	c-0.365,0.225-0.781,0.641-1.251,1.246c-0.134,0.166-0.56,0.827-1.279,1.989c-0.227,0.369-0.411,0.774-0.557,1.216l-0.505,1.635
	h-1.201l2.63-9.114l0.275-0.988c0-0.141-0.056-0.262-0.173-0.367c-0.114-0.105-0.257-0.159-0.421-0.159
	c-0.093,0-0.238,0.017-0.437,0.052l-0.169,0.019v-0.307L89.652,49.927z"/>
<path fill="#161616" d="M81.645,53.572l-0.557,1.84c0.582-0.678,1.104-1.154,1.56-1.431c0.456-0.273,0.919-0.409,1.389-0.409
	c0.478,0,0.882,0.188,1.216,0.563c0.335,0.377,0.5,0.865,0.5,1.464c0,1.169-0.477,2.356-1.428,3.562
	c-0.952,1.207-2.064,1.812-3.334,1.812c-0.265,0-0.501-0.03-0.704-0.087c-0.206-0.056-0.435-0.159-0.685-0.311l-0.585,2.058
	c-0.119,0.404-0.18,0.664-0.18,0.783s0.032,0.22,0.094,0.302c0.062,0.081,0.163,0.146,0.299,0.191
	c0.136,0.047,0.407,0.07,0.818,0.07l-0.07,0.297h-3.76l0.08-0.297c0.495-0.019,0.83-0.104,1-0.253
	c0.174-0.147,0.355-0.561,0.548-1.241l2.022-6.977c0.119-0.442,0.18-0.716,0.18-0.82c0-0.146-0.04-0.258-0.119-0.337
	c-0.08-0.08-0.206-0.119-0.377-0.119c-0.158,0-0.374,0.021-0.645,0.061v-0.307L81.645,53.572z M79.779,59.943
	c0.332,0.397,0.778,0.594,1.339,0.594c0.271,0,0.552-0.077,0.84-0.231c0.287-0.156,0.568-0.383,0.842-0.683
	c0.275-0.302,0.521-0.647,0.741-1.045c0.217-0.396,0.413-0.862,0.589-1.4c0.176-0.535,0.265-1.068,0.265-1.597
	c0-0.424-0.099-0.746-0.295-0.971c-0.194-0.225-0.423-0.337-0.689-0.337c-0.575,0-1.142,0.33-1.7,0.987
	c-0.559,0.654-0.973,1.426-1.236,2.31L79.779,59.943z"/>
<path fill="#161616" d="M94.62,56.586l0.347,3.919c0.324-0.382,0.787-0.989,1.391-1.819c0.297-0.402,0.659-0.954,1.09-1.653
	c0.26-0.423,0.418-0.718,0.477-0.891c0.033-0.084,0.049-0.17,0.049-0.257c0-0.059-0.016-0.107-0.054-0.143
	c-0.037-0.037-0.133-0.082-0.292-0.134c-0.159-0.054-0.29-0.146-0.393-0.282s-0.154-0.29-0.154-0.461
	c0-0.218,0.065-0.393,0.194-0.528c0.128-0.136,0.29-0.203,0.481-0.203c0.231,0,0.43,0.098,0.596,0.292
	c0.164,0.194,0.248,0.463,0.248,0.807c0,0.416-0.145,0.894-0.433,1.434c-0.287,0.542-0.842,1.369-1.662,2.484
	c-0.82,1.113-1.812,2.331-2.977,3.65c-0.807,0.904-1.402,1.475-1.791,1.711c-0.386,0.238-0.72,0.357-0.995,0.357
	c-0.166,0-0.312-0.062-0.438-0.188c-0.126-0.124-0.189-0.27-0.189-0.436c0-0.203,0.086-0.393,0.26-0.563
	c0.17-0.171,0.359-0.257,0.565-0.257c0.105,0,0.191,0.023,0.257,0.07c0.047,0.025,0.094,0.101,0.143,0.227
	c0.052,0.124,0.099,0.21,0.146,0.257c0.025,0.026,0.056,0.04,0.089,0.04c0.032,0,0.089-0.028,0.168-0.079
	c0.292-0.186,0.632-0.473,1.021-0.86c0.518-0.521,0.898-0.947,1.144-1.277l-0.458-5.047c-0.072-0.838-0.183-1.347-0.332-1.527
	c-0.149-0.183-0.28-0.306-0.641-0.29c0,0,0.005-0.222-0.023-0.322l-0.023-0.089l1.929-0.449"/>
</svg>
