<?xml version="1.0" encoding="utf-8"?>
<!-- Generator: Adobe Illustrator 15.0.0, SVG Export Plug-In . SVG Version: 6.00 Build 0)  -->
<!DOCTYPE svg PUBLIC "-//W3C//DTD SVG 1.1//EN" "http://www.w3.org/Graphics/SVG/1.1/DTD/svg11.dtd">
<svg version="1.1" id="Layer_1" xmlns="http://www.w3.org/2000/svg" xmlns:xlink="http://www.w3.org/1999/xlink" x="0px" y="0px"
	 width="100px" height="100px" viewBox="0 0 100 100" enable-background="new 0 0 100 100" xml:space="preserve">
<rect fill="#C02528" width="100" height="100"/>
<g>
	<polygon fill="#FFFFFF" points="75.805,1.612 98.305,1.612 98.305,24.112 87.055,24.112 87.055,12.862 75.805,12.862 	"/>
	<rect x="74.305" y="14.112" fill="#FFFFFF" width="11.25" height="11.25"/>
</g>
<g>
	<path fill="#FFFFFF" d="M1.69,85.014V73.466h3.739c1.415,0,2.338,0.06,2.771,0.177c0.66,0.176,1.213,0.553,1.661,1.133
		c0.447,0.58,0.671,1.326,0.671,2.244c0,0.711-0.128,1.309-0.385,1.791c-0.257,0.484-0.585,0.863-0.984,1.14
		c-0.4,0.274-0.801,0.456-1.204,0.544c-0.557,0.109-1.364,0.165-2.419,0.165H4.021v4.354H1.69z M4.021,75.424V78.7h1.276
		c0.916,0,1.528-0.062,1.836-0.181c0.308-0.121,0.55-0.311,0.726-0.566c0.176-0.256,0.264-0.559,0.264-0.902
		c0-0.418-0.123-0.764-0.369-1.039c-0.246-0.273-0.555-0.445-0.929-0.511c-0.279-0.052-0.839-0.077-1.683-0.077H4.021L4.021,75.424z
		"/>
	<path fill="#FFFFFF" d="M12.646,79.316c0-1.182,0.177-2.17,0.528-2.969c0.257-0.588,0.612-1.113,1.067-1.578
		c0.455-0.467,0.953-0.813,1.496-1.039c0.718-0.31,1.547-0.463,2.485-0.463c1.701,0,3.063,0.527,4.085,1.584
		c1.023,1.056,1.534,2.524,1.534,4.409c0,1.862-0.506,3.319-1.518,4.371c-1.012,1.052-2.368,1.578-4.069,1.578
		c-1.715,0-3.079-0.524-4.091-1.573C13.153,82.59,12.646,81.148,12.646,79.316z M15.044,79.229c0,1.313,0.302,2.307,0.907,2.98
		s1.373,1.012,2.304,1.012c0.924,0,1.684-0.336,2.282-1.007c0.598-0.671,0.896-1.673,0.896-3.008c0-1.326-0.29-2.313-0.869-2.963
		c-0.58-0.649-1.349-0.974-2.31-0.974c-0.968,0-1.745,0.328-2.331,0.983C15.337,76.91,15.044,77.9,15.044,79.229z"/>
	<path fill="#FFFFFF" d="M25.75,81.252l2.265-0.22c0.139,0.763,0.418,1.323,0.836,1.683c0.417,0.358,0.979,0.538,1.682,0.538
		c0.755,0,1.323-0.159,1.705-0.479c0.381-0.317,0.572-0.689,0.572-1.114c0-0.271-0.081-0.505-0.242-0.699
		c-0.162-0.192-0.444-0.36-0.847-0.5c-0.271-0.095-0.891-0.265-1.858-0.506c-1.254-0.308-2.13-0.687-2.628-1.134
		c-0.711-0.637-1.067-1.413-1.067-2.33c0-0.586,0.167-1.137,0.5-1.649s0.814-0.903,1.44-1.171c0.627-0.268,1.384-0.4,2.271-0.4
		c1.452,0,2.542,0.317,3.271,0.955c0.729,0.639,1.112,1.485,1.149,2.541l-2.332,0.109c-0.095-0.594-0.308-1.021-0.638-1.281
		s-0.821-0.39-1.474-0.39c-0.682,0-1.213,0.139-1.595,0.417c-0.242,0.177-0.363,0.415-0.363,0.715c0,0.271,0.114,0.506,0.341,0.704
		c0.293,0.242,1.006,0.497,2.139,0.765c1.132,0.269,1.972,0.545,2.518,0.83c0.546,0.286,0.971,0.678,1.276,1.178
		c0.304,0.498,0.456,1.109,0.456,1.836c0,0.66-0.183,1.278-0.55,1.857c-0.367,0.579-0.885,1.012-1.556,1.292
		c-0.67,0.282-1.508,0.425-2.513,0.425c-1.459,0-2.579-0.338-3.359-1.013C26.369,83.535,25.903,82.55,25.75,81.252z"/>
	<path fill="#FFFFFF" d="M48.176,85.014h-2.529l-1.012-2.617h-4.619l-0.946,2.617h-2.474l4.498-11.548h2.463L48.176,85.014z
		 M43.888,80.449l-1.595-4.289l-1.551,4.289H43.888z"/>
</g>
<g>
	<path fill="#FFFFFF" d="M13.397,98.382v-2.101l6.059-7.488H14.08v-1.958h8.445v1.813l-6.323,7.787h6.576v1.945L13.397,98.382
		L13.397,98.382z"/>
	<path fill="#FFFFFF" d="M35.33,98.382h-2.529l-1.012-2.616H27.17l-0.946,2.616H23.75l4.498-11.547h2.463L35.33,98.382z
		 M31.042,93.818l-1.595-4.289l-1.551,4.289H31.042z"/>
	<path fill="#FFFFFF" d="M37.27,98.382V86.835h2.265l4.729,7.709v-7.709h2.167v11.547h-2.342l-4.652-7.521v7.521H37.27L37.27,98.382
		z"/>
	<path fill="#FFFFFF" d="M49.096,92.686c0-1.181,0.176-2.17,0.528-2.969c0.257-0.587,0.612-1.111,1.067-1.578
		c0.453-0.466,0.951-0.813,1.494-1.039c0.719-0.309,1.547-0.461,2.485-0.461c1.7,0,3.063,0.526,4.085,1.582
		c1.021,1.057,1.534,2.525,1.534,4.41c0,1.862-0.506,3.319-1.519,4.371c-1.012,1.053-2.367,1.578-4.067,1.578
		c-1.716,0-3.079-0.523-4.091-1.573C49.602,95.959,49.096,94.52,49.096,92.686z M51.493,92.598c0,1.313,0.303,2.307,0.907,2.98
		s1.373,1.012,2.305,1.012c0.923,0,1.684-0.336,2.281-1.007c0.597-0.671,0.896-1.673,0.896-3.008c0-1.326-0.29-2.314-0.868-2.964
		c-0.58-0.648-1.35-0.973-2.31-0.973c-0.968,0-1.745,0.326-2.332,0.983C51.787,90.279,51.493,91.271,51.493,92.598z"/>
	<path fill="#FFFFFF" d="M62.813,98.382V86.835h2.267l4.729,7.709v-7.709h2.166v11.547h-2.343l-4.651-7.522v7.521L62.813,98.382
		L62.813,98.382z"/>
</g>
</svg>
