<?xml version="1.0" encoding="utf-8"?>
<!-- Generator: Adobe Illustrator 15.0.0, SVG Export Plug-In . SVG Version: 6.00 Build 0)  -->
<!DOCTYPE svg PUBLIC "-//W3C//DTD SVG 1.1//EN" "http://www.w3.org/Graphics/SVG/1.1/DTD/svg11.dtd">
<svg version="1.1" id="Layer_1" xmlns="http://www.w3.org/2000/svg" xmlns:xlink="http://www.w3.org/1999/xlink" x="0px" y="0px"
	 width="100px" height="100px" viewBox="0 0 100 100" enable-background="new 0 0 100 100" xml:space="preserve">
<g>
	<g>
		<g>
			<path fill="#010101" d="M46.877,7.873c0.041,0.336-0.039,0.552-0.266,0.619c-0.283-0.012-0.39-0.201-0.354-0.53
				C46.373,7.838,46.642,7.873,46.877,7.873z"/>
			<path fill="#010101" d="M48.645,9.375c-0.127,0.344-0.23,0.713-0.796,0.619C47.043,9.531,48.172,8.802,48.645,9.375z"/>
			<path fill="#010101" d="M52.002,33.863c-0.168,0.582-0.875,0.146-1.326,0.177c-0.6,0.04-1.371,0.569-1.678,0
				C49.532,33.108,50.924,34.023,52.002,33.863z"/>
			<path fill="#010101" d="M55.364,33.863c-0.327,0.497-1.219,0.215-1.504-0.089C54.192,33.339,54.996,33.766,55.364,33.863z"/>
			<path fill="#010101" d="M48.645,33.774c0.297,0.809-0.997,0.967-1.414,0.441C47.389,33.768,48.199,33.662,48.645,33.774z"/>
			<path fill="#010101" d="M44.932,34.128c-1.098,0.781-2.614,0.436-3.979,0.441c-0.91,0.005-1.781,0.455-2.652,0.177
				c0.242-1.079,1.629-0.428,2.563-0.442c0.55-0.008,1.179-0.057,1.769-0.089C43.479,34.17,44.414,33.396,44.932,34.128z"/>
			<path fill="#010101" d="M46.522,34.393c-0.206,0-0.413,0-0.619,0C45.73,33.897,46.695,33.897,46.522,34.393z"/>
			<path fill="#010101" d="M36.976,34.57c-0.074,0.574-0.443,0.114-0.795,0.177c-0.438,0.078-0.863,0.444-1.238,0.441
				c-0.532-0.004-1.063-0.441-1.502-0.441C34.043,34.217,36.141,34.286,36.976,34.57z"/>
			<path fill="#010101" d="M37.594,34.393c0.277-0.041,0.396,0.077,0.354,0.354c-0.116,0-0.235,0-0.354,0
				C37.594,34.628,37.594,34.511,37.594,34.393z"/>
			<path fill="#010101" d="M32.82,34.66c-0.006,0.38-0.561,0.265-0.796,0.177C31.938,34.439,32.73,34.331,32.82,34.66z"/>
			<path fill="#010101" d="M62.097,34.531c0.321,0.001,0.897,0.081,0.78,0.393c-0.073,0.203-0.543,0.242-0.707,0.087
				C61.838,34.945,61.74,34.709,62.097,34.531z"/>
			<path fill="#010101" d="M57.926,50.128c0.125,0.752-3.676,0.581-3.625,0.265C54.301,49.841,57.494,49.593,57.926,50.128z"/>
			<path fill="#010101" d="M48.732,50.395c-0.139,0.422-0.693,0.359-1.22,0.359C46.893,50.322,48.252,49.979,48.732,50.395z"/>
			<path fill="#010101" d="M52.092,50.482c-0.026,0.158-0.579,0.305-0.973,0.354c-0.771-0.305-1.279,0.223-1.945-0.354
				C49.467,49.932,51.806,49.904,52.092,50.482z"/>
			<path fill="#010101" d="M53.86,50.307c-0.002,0.273-0.663,0.438-0.618,0C53.41,50.13,53.66,50.263,53.86,50.307z"/>
			<path fill="#010101" d="M50.219,52.033c0,0.705-2.811,0.611-2.9,0.219c-0.011-0.219,0.148-0.533,0.402-0.52
				C48.766,51.799,49.439,51.59,50.219,52.033z"/>
			<path fill="#010101" d="M51.474,58.002c0.868,0.104,1.448,0.494,1.769,1.148C52.51,59.252,51.625,58.773,51.474,58.002z"/>
			<path fill="#010101" d="M46.435,59.15c-1.332-0.271-1.954,0.854-2.829,1.326c-0.544-0.85,0.441-1.518,1.326-1.502
				C45.375,58.455,47.021,57.859,46.435,59.15z"/>
			<path fill="#010101" d="M51.562,60.477c0,0.176,0,0.354,0,0.529c-0.444,0.135-0.957,0.01-0.974-0.529
				C50.84,60.236,51.285,60.297,51.562,60.477z"/>
			<path fill="#010101" d="M45.728,61.803c-0.478,0.18-1.39,0.486-1.681,0.09C44.059,61.35,45.785,61.324,45.728,61.803z"/>
			<path fill="#010101" d="M42.898,67.373c0.003-0.15-0.066-0.229-0.178-0.266c0.137-0.396,0.402-0.66,0.707-0.887
				c0.021-0.67-0.297-1.35,0.354-1.502C44.875,65.551,44.688,67.768,42.898,67.373z"/>
			<path fill="#010101" d="M59.849,68.785c-0.022-0.711,0.055-1.195-0.007-1.49c0.011-0.563,0.07-0.563,0.058-0.893
				c-0.019-0.381,0.004-0.369,0.026-0.758c0.039-0.676-0.114-0.385-0.145-1.146c-0.035-0.955,0.126-0.879,0-1.67
				c-0.055-0.352-0.021-0.666-0.068-1.049c-0.071-0.586-0.168-0.158-0.106-0.887c0.11-1.348,0.035-0.957,0.151-1.896
				c0.037-0.289-0.079-0.27-0.063-0.563c0.037-0.631,0.063-0.689,0.089-1.291c0.021-0.529-0.029-1.078,0-1.623
				c0.051-0.92,0-2.605-0.089-2.918c-0.729-0.955-3.508-0.328-5.039-0.266c-0.483,0.021-1.479-0.129-2.299-0.088
				c-0.638,0.031-1.295,0.561-1.586-0.32c0.058-0.828,2.89-0.287,4.179-0.438c1.911-0.092,3.309-0.27,5.188-0.215
				c-0.025-0.301,0.067-0.717-0.089-0.885c-0.334-0.132-1.401,0.162-1.592-0.354c0.193-0.305,0.74-0.26,1.062-0.441
				c0.006-1.074-0.052-1.661,0.088-2.829c-0.045-0.722-1.981-0.271-3.537-0.384c-1.254-0.092-2.312,0.038-3.491,0.084
				c-0.693,0.027-0.964,0.189-2.141,0.046c-0.282-0.034-1.063,0.009-1.352-0.011c-0.881-0.063-1.182,0.118-2.125,0.087
				c-0.217,0.078-0.371,0.126-0.703,0.089c-1.67,0.018-2.889-0.05-4.5,0.096c-1.145,0.038-2.643-0.029-3.457,0.523
				c-0.541,0.809,0.08,1.759-0.088,2.564c1.062,1.241,3.689,0.297,5.379,0.48c0.353-0.039,0.676-0.044,0.99-0.084
				c0.461,0.046,0.758-0.05,1.297,0.046c0.345-0.015,0.736-0.212,0.732,0.354c-0.172,0.42-0.609,0.123-0.887,0.115
				c-1.29,0.086-2.596-0.066-4.064,0.148c-0.309,0.047-0.72,0.088-1.043,0.096c-0.666,0.02-3.119-0.346-3.377,0.436
				c-0.072,0.338,0.014,0.379,0.354,0.441c1.208,0.029,1.597,0.037,2.728-0.047c1.336,0,1.721-0.051,2.809,0.029
				c0.861,0,1.461-0.135,2.166-0.092c0.668,0.041,1.289,0,1.492,0.373c-0.234,0.609-2.317,0.324-3.537,0.354
				c-0.369,0.01-0.77,0.012-1.164,0.008c-0.959-0.01-1.918-0.074-2.726,0.436c-0.213,0.883-0.344,1.818-0.265,2.828
				c0.027,0.377,0.051,0.729,0.047,1.082c-0.005,0.463-0.102,0.945-0.137,1.48c-0.071,1.139,0.031,2.646,0.021,3.641
				c-0.012,1.082-0.216,0.645-0.021,1.82c0.041,0.236,0.031,0.553,0.041,0.811c0.015,0.414-0.012,0.252-0.041,0.688
				c-0.063,0.939-0.098-0.633,0,0.328c0.037,0.363,0.08,0.504,0.087,1.047c0.014,1.268-0.136-0.408,0.18,0.863
				c1.435-0.047,2.431,1.508,2.368,1.668c0.107,0.148-1.112,0.211-1.251-0.051c-0.31-0.426-0.414-0.922-0.853-0.994
				c-0.438,0.072-0.492,0.969-0.521,1.078c-0.063,0.338-0.783,0.66-0.805,0.246c-0.068-1.346-0.271-0.041-0.178-2.354
				c0.029-0.746,0.057-1.031,0.122-1.98c0.093-1.303-0.073-0.133-0.034-1.26c0.047-1.357,0.034,0.104-0.088-1.215
				c0.146-2.84-0.277-6.363,0.022-9.256c-0.039-0.33-0.095-0.371-0.2-0.561c-0.376-0.186-0.813,0.061-1.148-0.09
				c-1.213-0.533-0.799-2.045,0.442-2.475c0.271-1.2,0.3-2.216-0.067-3.4c-0.149-0.582-2.25-1.563-4-1.727
				c-0.752-0.475-0.776-2.354-0.441-3.359c-0.557-1.299-1.571-2.141-2.299-3.271c-0.666-0.274-1.637-0.702-2.299-1.15
				c-0.229-0.155-0.364-0.554-0.617-0.708c-0.354-0.212-0.842-0.131-1.149-0.441c-0.286-0.289-0.272-0.865-0.53-1.15
				c-0.104-0.116-0.477-0.061-0.707-0.264c-0.207-0.185-0.192-0.506-0.354-0.62c-0.103-0.072-0.435-0.038-0.53-0.087
				c-1.1-0.57-2.027-2.382-0.354-3.094c0.342-0.146,0.652-0.161,0.986-0.273c0.121-0.041,0.116-0.044,0.34-0.169
				c0.642-0.362,1.041-0.843,1.641-1.396c0.261-0.556,0.604-0.909,0.923-1.168c0.32-0.259,3.073-0.31,4.155-0.53
				c-0.111-0.869-0.645-1.936-0.354-3.094c-1.443-0.207-2.856-0.444-3.892-1.062c-0.481-0.564-0.742-0.539-1.235-1.325
				c-0.496-0.787-0.787-1.6-0.798-2.476c-0.01-0.791,0.2-1.382,0.619-2.034c0.419-0.651,0.856-1.324,2.034-1.237
				c0.869,1.439,0.476,5.296,1.503,5.657c1.026,0.362,1.073,0.062,1.679-0.088c0.182-0.556,0.694-0.78,1.063-1.15
				c-0.15-2.223,0.865-5.687,1.06-6.188c0.196-0.5,1.335-1.672,2.653-1.856c0.185-0.374-0.004-0.522,0.795-0.884
				c0.8-0.362,1.888-0.308,2.563-0.53c0.676-0.223,2-0.281,2.123-1.149c-0.843-0.425-1.865-0.671-3.095-0.708
				c-0.651-0.477-1.672-1.937-2.651-2.122c-0.808-0.151-1.695,0.2-2.563-0.265c-1.222-1.398-3.004-2.411-5.445-2.702
				c-0.964-0.438-2.53-0.226-2.688-1.542c0.936-1.11,3.396-0.3,4.468-0.333c1.139,0.11,2.336-0.146,3.578-0.02
				c0.989,0.099,2.163,0.499,2.651-0.089c0.356,0.096,0.851,0.022,1.326,0c0.137-0.006,0.279,0.244,0.442,0.265
				c1.134,0.148,2.563-0.416,3.534-0.088c0.246-0.138,0.492-0.274,0.797-0.354c0.794,0.372,1.955-0.761,2.387,0.089
				c-0.66,1.309-2.971,0.32-4.066,0.884c-0.358,0.006-0.427-0.28-0.795-0.265c-0.996,0.63-2.957-0.206-3.891,0.53
				C36,3.85,36.978,3.158,37.418,3.797c0.334-0.196,0.94-0.119,1.326-0.265c0.312,0.071,0.299,0.465,0.705,0.442
				c1.803-0.616,4.02-0.248,5.747,0.177c0.015,0.356-0.264,0.733,0.177,0.795c0.713-0.243,0.084-0.873,0.885-1.06
				c1.352-0.155,3.18,0.24,4.51,0c0.479-0.087,1.23-0.513,1.236-1.15c-0.316-0.524-1.146-0.344-1.592-0.089
				c-1.27-0.611-3.736,0.48-4.598-0.441c0.8-0.567,1.975-0.253,3.006-0.354c0.725-0.07,1.477-0.315,2.21,0
				c-0.075-0.595,0.849-0.003,1.238,0.177c1.313,0.606,1.138-0.376,1.769-0.354c0.385-0.327,0.901-0.803,1.297-1.096
				c0.932-0.699,1.948-0.299,3.211-0.406c0.656,1.052,1.969,1.302,2.389,2.563c0.178,0.534,0.07,1.286,0.266,1.945
				c0.094,0.313,0.371,0.578,0.441,0.883c0.074,0.317-0.014,0.654,0.088,0.973c0.295,0.918,1.191,1.557,1.416,2.387
				c-0.021,1.948,0.295,3.294,0.088,5.039c1.02,0.277,2.166,0.426,3.006,0.884c0.342,0.518,0.365,1.031,0.797,1.503
				c0.371,0.408,1.088,0.492,1.413,0.885c0.175,0.209,0.077,0.579,0.265,0.883c0.334,0.544,0.806,0.504,0.886,1.062
				c0.034,0.239-0.14,0.568-0.179,0.884c-0.069,0.604,0.049,1.303,0,1.856c-0.045,0.555-0.309,1.146-0.354,1.68
				c-0.123,1.476,0.289,2.887,0,4.508c0.912,1.15,2.313,1.813,2.563,3.625c1.248,0.727,2.309,1.641,2.74,3.182
				c0.543,0.01,0.52,0.633,0.885,0.972c0.301,0.277,0.789,0.291,1.063,0.619c0.572,0.694,0.859,1.787,0.977,2.581
				c-0.373,0.718-0.832,1.07-1.686,1.309c-0.549,0.774-0.787,1.435-1.871,1.651c-0.484,0.096-1.014,0.173-1.486,0.205
				c-0.598,0.041-0.987,0.012-1.502,0.354c-0.506,0.272-0.291,0.756-0.619,1.503c-0.309,0.697-0.961,0.925-1.063,1.326
				c-0.164,0.66,0.416,1.284,0,2.033c-0.75,0.959-2.201,1.217-3.357,1.769c-0.744,0.96-0.68,1.94-0.44,3.448
				c0.42,0.518,1.78,1.277,0.883,2.211c-0.416,0.432-0.86,0.107-1.149,0.529c-0.281,0.414-0.01,0.67,0,1.414
				c0.014,0.826-0.051,1.984,0,3.184c0.041,0.904-0.056,1.459-0.104,2.203c-0.021,0.293-0.041,0.893-0.07,1.156
				c-0.053,0.459,0.049,1.396,0.088,2.295c0.154,3.439,0.086,1.439,0.088,1.814c0.006,0.527,0.185,1.191,0.09,1.326
				c-0.112,0.24-0.805,0.24-0.885,0c-0.307-1.109,0.172-0.494,0-1.684c-0.043-0.299-0.09-1.438-0.088-1.68
				c0.01-0.992-0.16-4.447-0.072-6.133c0.045-0.871,0.14-3.186-0.192-4.074c-0.135-0.361-0.405-0.736-0.797-0.973
				c-0.99-0.547-1.937-1.469-2.121-0.797c-0.615,1.82-0.14,2.344-0.343,4.508c-0.03,0.328,0,1.25-0.01,1.584
				c-0.047,1.482,0.074,0.24,0.033,1.947c-0.051,2.025,0.16,1.652,0.055,3.754c0.043,0.391-0.028-0.145-0.045,1.006
				c-0.008,0.629,0.082,0.9,0.133,1.385c0.037,0.348,0.062,0.15,0.078,0.486c0.039,0.699,0.078,1.059-0.1,1.336
				C60.707,69.77,59.853,69.426,59.849,68.785z M29.459,3.717c0.246,0.596,2.008,0.779,2.389,0.177
				C31.297,3.441,30.1,3.737,29.459,3.717z M56.688,4.69c0.119,0.426,0.621,0.506,1.237,0.354c1.062,0.346,0.552,1.808,0.531,2.651
				c0.396,0.3,0.941,0.099,1.502,0.089c0-0.294,0-0.589,0-0.884c-0.922-0.44-0.668-2.026-0.44-2.741
				C58.728,3.606,56.349,3.456,56.688,4.69z M48.379,5.131c0.188,0.227,0.394,0.155,0.619,0c0.08-0.375-0.146-0.445-0.354-0.531
				C48.596,4.816,48.301,4.79,48.379,5.131z M38.479,4.956c-1.527-0.352-3.916,0.103-5.835,0c0.041,0.52,0.585,0.535,0.884,0.795
				c2.071-0.213,4.053,0.096,6.102-0.177c0.094-0.506-0.125-0.701-0.354-0.883C38.84,4.608,38.635,4.758,38.479,4.956z
				 M50.676,8.315c0.523-0.312,0.414-0.969,0.709-1.503c0.269-0.486,1.459-1.31,0.908-1.934c-0.176,0-0.645,0.431-0.819,0.431
				C51.287,6.297,49.916,7.456,50.676,8.315z M47.054,6.017c0.036-0.112,0.114-0.181,0.265-0.177
				c0.023-0.289-0.104-0.425-0.354-0.441C46.735,5.564,46.78,5.906,47.054,6.017z M55.806,6.105c0.088,1.039,0.93,1.461,1.768,1.502
				c0.308-0.419,0.371-1.209-0.088-1.502C56.756,6.357,56.424,5.747,55.806,6.105z M45.197,7.961
				c-1.503,0.665-2.861-0.125-4.154-0.442c-0.207-0.051-0.5,0.048-0.707,0c-0.68-0.159-1.572-0.662-2.033,0.353
				c0.65,0.145,0.875,0.716,1.326,1.062c1.3,0.064,2.935,0.153,4.686-0.089c0.277,0.075,0.369,0.336,0.618,0.441
				c0.385,0.002,1.048-0.518,0.973,0.266c-0.716,0.258-2.889-0.376-3.271,0.531c0.845,1.258,2.756,0.632,4.42,1.238
				c0.48-0.48,1.265-0.681,1.945-0.531c0.586-0.75-0.258-1.378-0.354-2.21c-0.233-0.001-0.521,0.049-0.53-0.177
				c0.004-0.121-0.041-0.194-0.088-0.265c0.119-0.382,0.61-0.392,1.148-0.354c0-0.234,0.033-0.504-0.088-0.619
				c-0.405-0.021-0.344,0.422-0.707,0.442C47.895,7.251,46.91,7.5,46.26,7.52c-0.176,0.119,0.027,0.617-0.266,0.619
				C45.6,8.208,45.405,8.078,45.197,7.961z M53.506,8.755c-0.646,0.304,0.351,0.313,0.507,0.334c0-0.089-0.152-0.334-0.152-0.423
				C53.692,8.648,53.666,8.769,53.506,8.755z M54.037,10.436c0.231,0.025,0.381-0.032,0.354-0.265
				c-0.123,0.003-0.211-0.297-0.595-0.162C53.771,10.128,54,10.251,54.037,10.436z M47.496,12.205
				c-0.75-0.232-1.593-0.179-2.476-0.62c-0.229,0.035-0.267,0.265-0.53,0.266c-0.396-0.253-1.244-0.052-1.503-0.442
				c-1.257-0.328-2.353-0.268-3.448,0c-1.097,0.268-3.06,1.89-3.801,3.625c0,0.294,0,0.589,0,0.884
				c-0.484,1.843-2.104,4.442-2.211,4.773c-0.105,0.332-0.357,0.703-0.617,0.973c-0.052,1.163-0.629,2.051-0.441,3.182
				c-0.04,0.313-0.299,0.41-0.354,0.707c0.099,1.412,0.826,2.124,2.3,1.945c0.65-1.056-0.082-1.758-0.267-2.387
				c-0.353-1.205,0.592-1.793,0.619-2.829c0.016-0.577-0.522-0.995,0.089-1.592c0.627-0.051,0.855-0.253,1.464-0.322
				c0.397,0.056,0.458,0.138,0.394,0.411c-0.379,0.122-0.707,0.052-0.609,0.65c-0.061,0.276,0.75,0.299,1.316,0.234
				c1.617-1.647,3.85-2.327,3.889-5.659c0.264-0.149,0.516-0.31,0.885-0.353c0.313-1.206,1.363-3.487,2.564-3.006
				c-0.65,1.118-2.713,2.257-1.416,3.978c0.846-0.322,1.363,0.23,1.681,0.707c1.426-0.018,2.491-0.097,4.065-0.087
				c0.271,0.143,0.264,0.561,0.619,0.619c0.309-0.104,0.193-0.632,0.619-0.619c0.959,0.16,0.317,1.919,1.325,2.033
				c0.396-0.405-0.182-0.56-0.267-0.973c0.152-1.051-0.295-1.678-0.44-2.299c0.022-0.181,0.236-0.176,0.354-0.265
				c0.492,0.223,0.604,0.576,0.973,1.061c-0.207,0.932,0.348,1.505,0.354,2.476c0.19,0.519,0.703,1.005,0.885,1.679
				c0.318,1.181-0.23,2.705,0.619,3.448c0.063-0.705,0.508-1.023,1.063-1.238c0.021-1.463-1.193-1.781-0.885-3.005
				c0.104-0.415,0.629-0.532,0.885-0.708c0.377-0.262,0.932-1.175,0.973-1.503c0.066-0.559-0.274-0.936-0.531-1.415
				c0.271-0.229,0.662-0.339,0.798-0.707c-0.978-0.793-2.087-1.451-2.83-2.475c-0.521,0.173-0.951,0.17-1.502,0
				c-0.531-0.794-1.187-1.467-2.39-1.592c0.045,0.457-0.121,0.704-0.529,0.708C48.963,11.855,48.063,12.046,47.496,12.205z
				 M33.439,19.188c1.064-0.388,1.383-2.434,0.973-3.713C33.688,16.114,33.523,18.126,33.439,19.188z M61.549,16.801
				c0.291,0.388,0.974,0.385,1.416,0.619C63.692,16.914,61.086,15.092,61.549,16.801z M60.313,18.126
				c0.065,0.206,0.688,0.31,0.619-0.088C60.912,17.912,60.205,17.833,60.313,18.126z M56.867,18.126
				c-0.716,1.462,0.01,3.121-0.619,4.686c0.328,0.144,0.203,0.739,0.619,0.796c0.104-0.074,0.235-0.116,0.442-0.089
				c0.252-1.393,0.229-3.674,0.088-5.393C57.119,18.17,57.051,17.935,56.867,18.126z M52.711,24.582
				c-0.211-1.562,0.529-2.966-0.442-4.156c-1.211-0.352-2.795-0.775-3.712-1.679c-0.639,0.178-1.188-0.372-1.77-0.531
				c-0.8,0.108-0.984-0.065-1.768-0.089c-1.16,1.317-2.663,3.671-1.945,5.747c0.891-0.101,0.999,0.295,1.77,0.442
				c0.287,0.979,1.381,1.152,1.148,2.651c0.453,0.483,1.18,0.244,1.773,0.226c0.374-0.012,0.527,0.009,0.967,0.04
				c1.589,0.111,3.637-0.26,4.686-0.265C53.492,26.074,52.819,25.379,52.711,24.582z M60.138,19.275
				c-0.248-1.447-1.81,0.72-0.531,1.238C59.885,20.353,60.174,19.499,60.138,19.275z M64.558,19.629
				c0.185-0.211,0.053-0.641-0.179-0.708C64.256,19.072,64.176,19.713,64.558,19.629z M68.537,19.718
				c-0.214,0.886-0.252,2.019-0.179,3.183c0.468-0.446,0.19-1.072,0.267-1.768c0.326-0.372,0.146-0.726,0.176-1.415
				C68.711,19.718,68.625,19.718,68.537,19.718z M64.379,21.044c-0.028,0.207-0.104,0.365-0.176,0.53
				c0.829,0.045,2.293,0.567,2.65-0.177C66.272,20.81,65.244,21.134,64.379,21.044z M62.524,21.839c0.088,0,0.177,0,0.267,0
				c0.022-0.202-0.021-0.333-0.179-0.354C62.584,21.606,62.485,21.655,62.524,21.839z M36.27,22.458
				c-0.73,0.625-1.4,1.312-1.239,2.829c0.665,0.45,1.034,0.195,1.856,0.088c0.744,0.478,0.488,1.409,0.973,2.122
				c0.951-0.144,1.251-0.305,1.919-0.328c1.104-0.243,1.437,0.285,1.795-0.203c-0.309-1.048-1.171-1.541-0.973-3.094
				c-0.519-0.484-0.589-1.415-0.884-2.122C38.086,21.588,37.689,22.309,36.27,22.458z M41.129,22.282
				c0.244,0.218-0.021,0.81,0.707,0.707c0.131-0.416,0.109-0.919-0.354-0.972C41.459,22.199,41.092,22.039,41.129,22.282z
				 M61.375,22.458c-0.104,0.781,0.328,1.026,0.795,1.238c0.428,0.539-0.156,1.138-0.354,1.591
				C63.383,26.33,63.099,21.706,61.375,22.458z M59.078,22.9c0.403,0.958-0.656,2.457,0.616,2.652
				c0.164-0.572,0.541-0.932,0.619-1.591c-0.519-0.268-0.465-0.752-0.53-1.326C59.446,22.623,59.356,22.857,59.078,22.9z
				 M66.414,25.289c0.248,0.013,0.256-0.216,0.266-0.442c-0.113-0.006-0.121-0.113-0.266-0.088
				C66.24,24.922,66.385,25.081,66.414,25.289z M64.646,27.232c-2.994,0.361-5.125,0.048-7.336,0.249
				c-0.381,0.081-1.05,0.149-1.729,0.218c-1.808,0.277-2.127,0-3.763,0.185c-0.453,0.069-1.377,0.079-1.796,0.115
				c-0.891,0.247-0.771-0.195-2.256,0.069c-0.348-0.019-1.036,0.023-1.553,0.035c-1.463,0.228-2.176-0.088-3.709,0.069
				c-1.207-0.08-2.692,0.081-3.705-0.011c-1.176,0.115-1.543,0.251-2.633,0.07c-0.179,0.116-1.054,0.106-1.42,0.148
				c-1.668-0.18-2.279,0.402-3.605,0.534c-0.574,0.057-1.253,0.054-1.592,0.088c-0.34,0.034-0.813-0.432-1.149-0.265
				c-0.265,0.767-0.942,1.119-1.237,1.856c0.412,0.266,0.881,0.439,1.592,0.442c0.709,0.003,2.084-0.146,3.271-0.176
				c0.905-0.026,2.037-0.169,3.095-0.178c2.514-0.02,5.364-0.122,7.248-0.531c0.381,0.209,0.793,0.386,1.326,0.442
				c0.166,0.129,0.012,0.579,0.178,0.708c0.596,0.026,1.438,0.349,1.943-0.176c0.021-0.378-0.075-0.385,0-0.708
				c0.621-0.208,0.109,0.716,0.531,0.708c0.677,0.067,0.107-0.584,0.266-0.708c0.432-0.426,1.6-0.484,2.121-0.089
				c0.463-0.568,1.448-0.258,2.033,0c0.994-0.563,3.479-0.348,3.447-0.177c0.022,0.406-0.398,0.367-0.354,0.796
				c0.574,0.349,2.179,0.2,2.209,0.089c0.056-0.295,0.263-0.303,0.09-0.619c-0.338-0.161-0.813,0.129-0.948-0.437
				c-0.017-0.506,4.297-0.43,7.139-0.536c1.49,0.178,3.191,0.47,4.781-0.199c0.512-1.368,0.281-1.674-0.187-2.188
				C66.285,26.47,65.543,27.125,64.646,27.232z M68.181,28.646c-0.015,0.104-0.14,0.097-0.265,0.089
				c-0.129,0.611,0.291,1.013,0.974,1.061c0.18,0.409,0.391,0.789,0.795,0.973c0.119-0.028,0.17-0.126,0.354-0.089
				c0-0.235,0-0.471,0-0.707C69.396,29.553,68.679,29.211,68.181,28.646z M58.545,30.416c0.291,1.08,1.729,0.071,2.651,0.176
				c0.015-0.22-0.14-0.273-0.177-0.442C60.205,30.444,59.174,30.041,58.545,30.416z M63.231,30.503
				c0.181,0.115,0.16,0.429,0.531,0.354C64.532,30.438,63.496,29.796,63.231,30.503z M34.234,31.387
				c0.112,0.121,0.77,0.152,0.777-0.074C34.898,31.194,34.244,31.164,34.234,31.387z M60.844,32.2
				c-0.754-0.111-1.643,0.034-2.299-0.017c-0.983-0.077-1.729-0.268-2.69-0.041c-0.267,0.063-1.89,0.08-2.147,0.123
				c-1.797,0.295-2.799,0.32-4.178,0.36c-1.379,0.039-2.82,0.009-4.449-0.083c-1.901,0.092-3.397,0.382-4.922,0.437
				c-1.523,0.054-2.859-0.042-3.718-0.076c-0.858-0.034-1.796-0.138-2.382-0.101c-1.934,0.238-5.92,0.262-6.719,0.354
				c-0.799,0.092-1.318,0.213-1.944,0.353c-0.173,0.021-0.254,0.05-0.089,0.354c1.213,1.77,3.652,0.04,6.011,0.795
				c0.015,1.288-2.588-0.005-2.651,0.973c1.213-0.17,2.731,0.21,3.891,0.265c0.964,0.045,1.928-0.197,2.917-0.265
				c1.505-0.104,3.065,0.085,4.42-0.177c0.761-0.147,1.19-0.234,1.769,0.088c0.23-0.035,0.268-0.264,0.53-0.265
				c1.168,0.538,3.235-0.794,3.574,0.513c0.036,0.127-1.392,0.427-0.923,0.636c1.207,0.001,4.636,0.022,4.332-0.354
				c-0.637-0.536-2.021,0.091-2.74-0.619c-0.364-0.771,3.669,0.385,5.395-0.443c1.899,0.602,5.774-0.884,6.274,0.177
				c0.084,0.5-2.024,0.401-2.388,0c-0.43,0.039-0.969,0.208-0.885,0.619c-0.1,0.156,0.531,0.418,0.974,0.354
				c1.998-0.351,5.329,0.102,6.649-0.351c0.438-0.138,0.582-0.169,0.959-0.462c0.611-0.737,1.689-0.705,2.732-0.957
				c0.254-0.091,0.141-0.534-0.219-0.542c-1.031-0.044-1.479-0.235-2.646-0.036c-0.235,0-0.952,0.034-1.202,0.048
				c-1.394,0.101-2.816-0.161-4.066,0c-0.846,0.108-1.67,0.661-2.209-0.089c0.643-0.507,1.135-0.402,2.031-0.353
				c1.053,0.057,2.383-0.173,3.447-0.178c2.18-0.008,3.84,0.239,5.526-0.236c0.612-0.558,0.246-1.294-0.552-1.207
				C63.769,32.003,62.979,31.822,60.844,32.2z M73.576,36.25c-0.781-0.638-1.644-1.133-2.39-1.769
				c-0.744-0.636-1.802-1.458-2.033-1.68c-0.229-0.221-0.159-0.394-0.668,0.054c-0.506,0.449-0.394,1.239,0.313,1.625
				c0.709,0.388,1.982,1.602,2.652,2.21c0.67,0.607,2.644,2.482,3.127,2.49c0.482,0.008,1.56,0.663,1.293,0.162
				C75.606,38.843,74.494,37.322,73.576,36.25z M73.485,35.277c-0.312-0.396-1.071-1.949-1.687-2.044
				C70.987,33.354,72.946,35.412,73.485,35.277z M67.916,35.455c0.225,0.349,2.049,1.838,2.563,2.211
				c0.515,0.371,1.746,1.611,2.651,2.385c0.25-0.536-0.014-0.847-0.442-1.236c-0.431-0.39-2.504-2.487-2.916-2.829
				c-0.412-0.343-0.821-0.71-1.237-1.061c-0.236,0-0.56-0.188-0.707,0C67.681,35.113,67.692,35.106,67.916,35.455z M27.517,35.719
				c0.278-0.015,0.526-0.062,0.53-0.353C27.765,35.138,27.274,35.393,27.517,35.719z M68.14,36.586
				c-0.388-0.512-0.482-0.668-0.755-0.955c-0.733-0.574-1.032-0.404-1.969,0.118c-0.153,0.407-0.615,0.54-0.506,1.208
				c0.658,0.577,1.414,0.929,2.217,1.908c1.254,0.84,1.791,1.901,3.313,2.647c0.729,0.012,1.473,0.195,1.982-0.224
				c0-0.235-0.096-0.616-0.289-0.8C70.26,39.327,69.713,37.852,68.14,36.586z M49.881,36.163c-0.072,0.223,0.295,0.389,0.619,0.353
				c0.297-0.418,1.34-0.329,1.855-0.265c0.596,0.065,0.623-0.493,0.266-0.531C51.752,35.762,50.15,35.083,49.881,36.163z
				 M39.186,36.337c0.105,0.364,0.995,0.324,1.326,0.177C40.398,35.92,39.323,35.782,39.186,36.337z M40.776,36.516
				c0.408,0.034,0.729,0.155,1.062,0.266c0.154-0.211,0.735-0.327,0.529-0.619C41.965,35.801,40.787,35.922,40.776,36.516z
				 M44.047,36.426C44.059,35.609,43.153,36.514,44.047,36.426L44.047,36.426z M61.64,37.134c-0.625,0.028-1.171-0.044-1.769,0
				c-0.219,0.017-0.434-0.02-0.596-0.03c-0.373-0.025-0.557-0.071-0.818-0.059c-0.508,0.023-0.676,0.088-1.266,0.151
				c-0.385,0.04-0.828,0.142-1.299,0.114c-1.408-0.082-2.703,0.256-3.996,0.15c-0.213-0.016-0.918-0.031-1.133-0.061
				c-0.637-0.086-1.217-0.065-1.861-0.042c-0.32,0.119-1.316,0.124-1.675,0.207c-1.845-0.191-2.25,0.046-3.979-0.077
				c-0.285,0.051-1.021,0.024-1.635,0.111c-1.92-0.069-2.052,0.167-4.117,0.265c-1.889-0.392-5.308,0.334-5.563,0.419
				c-0.783,0.833,0.884,1.78,1.268,1.71c1.991-0.188,4.063-0.01,5.951-0.23c1.348,0.057,2.831-0.099,4.04,0.022
				c1.669-0.391,2.668-0.094,4.201-0.126c1.969-0.185,2.535-0.353,3.549-0.166c0.269-0.026,1.729-0.109,2.013-0.122
				c3.977,0.103,8.344,0.003,9.526,0.027c0.261,0.003,0.981,0.181,1.365,0.702c0.332,0.218,0.454,0.418,0.745,0.582
				c0.535,0.438,0.729,0.5,1.072,0.922c0.979,0.594,1.203,1.056,1.797,1.612c0.459,0.353,1.013,0.982,1.334,0.725
				c1.289-1.645-1.065-2.405-1.965-3.656c-0.912-0.368-1.488-1.801-2.367-1.913c-0.459-0.059-0.198,0.14-0.922,0.103
				c-0.412-0.634-0.285-0.956-0.931-1.164C62.187,37.149,62.103,37.248,61.64,37.134z M60.026,41.271
				c-1.002-0.092-1.969,0.022-2.994,0.034c-1.59,0.018-2.069,0.104-3.465,0.058c-0.437,0.068-1.772,0.022-2.209,0.126
				c-2.071-0.035-3.649,0.092-6.078,0.265c-0.575,0.092-1.692,0.104-2.924,0.173c-0.909-0.012-1.508,0-2.544,0.057
				c-1.348,0.127-4.434-0.196-6.372,0.276c-0.253,0.069-0.178,1.042-0.178,1.68c0.022,0.248,0.2,0.577,0.618,0.707
				c1.354,0.379,2.66,0.27,3.891,0.354c0.18,0.013,0.877-0.07,1.078-0.074c1.038-0.017,1.793,0.099,2.813,0.074
				c1.795-0.044,3.635-0.309,5.274-0.144c0.983-0.089,1.192-0.031,1.797-0.033c0.29-0.001,0.687-0.063,1.044-0.082
				c0.325-0.017,0.596-0.078,0.9-0.096c0.801-0.044,1.799-0.115,2.563-0.073c0.37,0.02,0.53,0.014,0.887-0.015
				c0.276-0.023,1.467,0.025,1.819-0.031c2.158-0.349,5.351,0.294,4.927-2.956C60.739,41.212,60.385,41.275,60.026,41.271z
				 M64.026,43.146c-0.899,0.016-0.942-0.825-1.942-0.707c0.008,1.146-1.392,1.896-0.533,2.829c1.979,0.733,2.455,2.714,5.256,2.37
				c2.332-1.824-1.873-2.484-2.16-4.138c0.479,0.025,0.744,0.706,1.326,0.53c-0.461-0.718-1.045-1.312-1.854-1.68
				C63.918,42.551,64.388,42.999,64.026,43.146z M64.205,49.953c-0.853-1.006-2.177-1.539-3.183-2.387
				c-0.604,0.282-0.586,1.184-0.709,1.945c0.78,0.928,2.092,1.328,2.918,2.21C64.344,51.803,64.356,50.939,64.205,49.953z
				 M62.916,53.629c0.752,0.293,1.108,0.785,1.817,0.479c-0.471-0.854-1.131-1.521-2.209-1.768c-0.114-0.65-0.604-0.928-1.326-0.973
				C60.754,52.846,62.08,52.887,62.916,53.629z"/>
		</g>
	</g>
	<g>
		<path fill="#010101" d="M13.853,83.682h-1.881c-0.416-0.652-0.792-1.217-1.128-1.693c-0.338-0.475-0.701-0.965-1.094-1.471H9.035
			v2.215c0,0.113,0.019,0.215,0.053,0.303c0.037,0.086,0.115,0.152,0.231,0.199c0.06,0.021,0.163,0.045,0.312,0.063
			c0.146,0.021,0.271,0.031,0.373,0.035v0.352L7.053,83.9v-0.354c0.078-0.006,0.191-0.23,0.341-0.25
			c0.149-0.018,0.254-0.037,0.313-0.063c0.099-0.043,0.168-0.105,0.213-0.188s0.066-0.188,0.066-0.314v-5.051
			c0-0.113-0.018-0.217-0.049-0.305c-0.033-0.09-0.109-0.156-0.23-0.203c-0.082-0.027-0.189-0.055-0.32-0.08
			c-0.131-0.023-0.243,0.176-0.334,0.17v-0.35l3.223-0.217c0.296,0,0.572,0.031,0.831,0.092c0.261,0.061,0.494,0.158,0.704,0.293
			c0.203,0.131,0.365,0.303,0.486,0.514c0.121,0.213,0.184,0.467,0.184,0.766c0,0.27-0.041,0.508-0.123,0.713
			c-0.082,0.207-0.203,0.387-0.363,0.537c-0.147,0.143-0.326,0.264-0.531,0.367c-0.207,0.104-0.436,0.189-0.686,0.264
			c0.346,0.455,0.631,0.84,0.859,1.15c0.228,0.313,0.508,0.689,0.838,1.137c0.145,0.197,0.275,0.342,0.393,0.436
			c0.116,0.098,0.231,0.172,0.346,0.23c0.086,0.041,0.192,0.074,0.32,0.098c0.129,0.025,0.234,0.037,0.32,0.039L13.853,83.682
			L13.853,83.682z M11.264,78.477c0-0.422-0.121-0.758-0.364-1.004c-0.242-0.248-0.586-0.371-1.028-0.371H9.035v2.992H9.68
			c0.451,0,0.83-0.146,1.132-0.436C11.111,79.369,11.264,78.977,11.264,78.477z"/>
		<path fill="#010101" d="M17.153,83.682h-2.343v-0.326c0.074-0.006,0.152-0.012,0.232-0.02c0.08-0.006,0.149-0.02,0.209-0.039
			c0.092-0.029,0.16-0.08,0.205-0.154c0.045-0.072,0.065-0.168,0.065-0.287v-2.994c0-0.104-0.022-0.201-0.071-0.287
			c-0.048-0.086-0.113-0.16-0.199-0.219c-0.062-0.039-0.151-0.072-0.271-0.102c-0.118-0.027-0.228-0.045-0.325-0.051v-0.326
			l1.713-0.105l0.069,0.066v3.957c0,0.115,0.021,0.209,0.065,0.285c0.043,0.076,0.113,0.131,0.207,0.168
			c0.071,0.029,0.143,0.055,0.211,0.07c0.068,0.018,0.145,0.031,0.229,0.037v0.324h0.002V83.682z M16.539,76.855
			c0,0.188-0.063,0.35-0.185,0.488c-0.124,0.141-0.274,0.211-0.456,0.211c-0.167,0-0.313-0.066-0.436-0.201
			c-0.123-0.131-0.186-0.283-0.186-0.455c0-0.18,0.063-0.338,0.186-0.473s0.269-0.201,0.436-0.201c0.188,0,0.341,0.063,0.461,0.188
			C16.479,76.541,16.539,76.688,16.539,76.855z"/>
		<path fill="#010101" d="M21.765,81.305c0.134,0.117,0.237,0.254,0.31,0.408c0.071,0.152,0.108,0.344,0.108,0.566
			c0,0.449-0.168,0.814-0.505,1.102c-0.336,0.285-0.771,0.428-1.307,0.428c-0.283,0-0.543-0.051-0.781-0.152
			c-0.236-0.102-0.406-0.195-0.508-0.279l-0.1,0.32h-0.369l-0.049-1.688h0.34c0.025,0.127,0.082,0.277,0.167,0.449
			c0.085,0.17,0.188,0.324,0.31,0.463c0.129,0.146,0.281,0.268,0.461,0.365c0.179,0.1,0.38,0.148,0.604,0.148
			c0.314,0,0.557-0.072,0.729-0.217c0.17-0.145,0.257-0.35,0.257-0.615c0-0.141-0.027-0.258-0.081-0.355
			c-0.055-0.102-0.135-0.188-0.239-0.264c-0.108-0.076-0.241-0.146-0.397-0.205c-0.157-0.061-0.334-0.121-0.526-0.18
			c-0.155-0.047-0.325-0.109-0.515-0.189c-0.188-0.08-0.352-0.176-0.484-0.283c-0.145-0.113-0.264-0.256-0.354-0.422
			c-0.092-0.168-0.139-0.365-0.139-0.592c0-0.396,0.146-0.732,0.443-1.008c0.295-0.275,0.689-0.414,1.186-0.414
			c0.189,0,0.385,0.021,0.583,0.072s0.36,0.107,0.485,0.178l0.111-0.254h0.354l0.074,1.559h-0.341
			c-0.068-0.348-0.217-0.633-0.444-0.852c-0.229-0.223-0.507-0.328-0.834-0.328c-0.269,0-0.481,0.064-0.636,0.203
			c-0.154,0.135-0.23,0.299-0.23,0.486c0,0.148,0.024,0.271,0.076,0.369c0.051,0.102,0.127,0.186,0.229,0.252
			c0.1,0.064,0.224,0.127,0.373,0.188c0.148,0.057,0.334,0.121,0.554,0.191c0.216,0.068,0.421,0.148,0.612,0.24
			C21.481,81.088,21.64,81.191,21.765,81.305z"/>
		<path fill="#010101" d="M26.717,83.471c-0.213,0.088-0.414,0.162-0.604,0.223c-0.188,0.063-0.423,0.092-0.698,0.092
			c-0.406,0-0.692-0.104-0.858-0.309s-0.248-0.494-0.248-0.867V79.32h-0.876V78.85h0.896v-1.512h0.896v1.512h1.394v0.471h-1.384
			v2.713c0,0.203,0.009,0.373,0.022,0.51c0.015,0.137,0.05,0.254,0.104,0.355c0.054,0.096,0.132,0.168,0.236,0.217
			s0.245,0.074,0.423,0.074c0.082,0,0.203-0.008,0.361-0.023c0.16-0.014,0.271-0.031,0.338-0.055v0.359H26.717z"/>
		<path fill="#010101" d="M32.742,81.205c0,0.342-0.055,0.678-0.162,1.006c-0.108,0.33-0.264,0.611-0.463,0.842
			c-0.228,0.262-0.49,0.457-0.789,0.584c-0.3,0.129-0.635,0.191-1.005,0.191c-0.309,0-0.603-0.057-0.883-0.174
			c-0.278-0.117-0.526-0.287-0.743-0.51c-0.213-0.223-0.384-0.488-0.511-0.809c-0.126-0.313-0.188-0.672-0.188-1.063
			c0-0.76,0.221-1.377,0.662-1.859s1.021-0.723,1.736-0.723c0.682,0,1.241,0.229,1.684,0.686
			C32.521,79.834,32.742,80.443,32.742,81.205z M31.723,81.215c0-0.246-0.024-0.506-0.073-0.779
			c-0.05-0.273-0.124-0.506-0.222-0.695c-0.105-0.203-0.244-0.367-0.414-0.49c-0.172-0.123-0.381-0.184-0.627-0.184
			c-0.254,0-0.471,0.061-0.648,0.186c-0.179,0.125-0.324,0.295-0.438,0.516c-0.104,0.197-0.178,0.428-0.221,0.684
			s-0.063,0.504-0.063,0.742c0,0.313,0.024,0.604,0.075,0.875c0.052,0.268,0.133,0.506,0.244,0.715
			c0.111,0.211,0.252,0.375,0.422,0.496c0.17,0.119,0.379,0.18,0.629,0.18c0.41,0,0.736-0.199,0.977-0.596
			C31.603,82.461,31.723,81.914,31.723,81.215z"/>
		<path fill="#010101" d="M37.961,79.453c0,0.168-0.041,0.316-0.123,0.445c-0.082,0.131-0.209,0.193-0.379,0.193
			c-0.185,0-0.324-0.049-0.422-0.145c-0.097-0.094-0.145-0.201-0.145-0.314c0-0.07,0.006-0.139,0.018-0.193
			c0.012-0.063,0.021-0.119,0.031-0.18c-0.154,0-0.335,0.064-0.541,0.188c-0.207,0.127-0.383,0.303-0.525,0.533v2.822
			c0,0.113,0.021,0.209,0.065,0.279c0.044,0.072,0.114,0.127,0.209,0.162c0.082,0.033,0.188,0.059,0.317,0.074
			s0.242,0.027,0.337,0.033v0.326h-2.56v-0.324c0.075-0.006,0.153-0.012,0.233-0.02c0.08-0.006,0.149-0.02,0.209-0.039
			c0.092-0.029,0.16-0.08,0.204-0.154c0.045-0.072,0.066-0.168,0.066-0.287v-2.994c0-0.102-0.023-0.201-0.072-0.299
			c-0.047-0.1-0.112-0.178-0.198-0.236c-0.063-0.039-0.136-0.068-0.222-0.086s-0.178-0.029-0.275-0.037v-0.324l1.614-0.105
			l0.069,0.066v0.688h0.023c0.203-0.27,0.43-0.471,0.68-0.605c0.248-0.137,0.478-0.207,0.684-0.207c0.207,0,0.375,0.066,0.505,0.201
			S37.961,79.227,37.961,79.453z"/>
		<path fill="#010101" d="M43.777,83.592c-0.154,0.057-0.29,0.102-0.406,0.137c-0.117,0.033-0.248,0.051-0.396,0.051
			c-0.256,0-0.46-0.059-0.612-0.178c-0.151-0.121-0.25-0.295-0.293-0.525h-0.028c-0.213,0.236-0.441,0.416-0.688,0.541
			c-0.244,0.125-0.539,0.188-0.885,0.188c-0.362,0-0.662-0.109-0.897-0.334c-0.233-0.225-0.351-0.516-0.351-0.877
			c0-0.188,0.025-0.354,0.078-0.5s0.132-0.279,0.236-0.396c0.082-0.102,0.189-0.189,0.323-0.264
			c0.136-0.078,0.263-0.143,0.379-0.188c0.147-0.057,0.448-0.16,0.897-0.311c0.453-0.15,0.757-0.27,0.914-0.355v-0.486
			c0-0.041-0.01-0.125-0.027-0.246s-0.057-0.236-0.115-0.346c-0.064-0.121-0.158-0.227-0.277-0.316s-0.291-0.135-0.51-0.135
			c-0.15,0-0.291,0.025-0.421,0.074c-0.13,0.053-0.221,0.105-0.272,0.16c0,0.066,0.016,0.162,0.047,0.291s0.047,0.246,0.047,0.354
			c0,0.113-0.053,0.221-0.155,0.314c-0.104,0.096-0.247,0.145-0.431,0.145c-0.164,0-0.285-0.059-0.362-0.176
			c-0.077-0.115-0.114-0.246-0.114-0.393c0-0.15,0.053-0.293,0.16-0.434c0.106-0.139,0.244-0.262,0.415-0.367
			c0.147-0.094,0.326-0.17,0.536-0.234s0.415-0.096,0.615-0.096c0.275,0,0.516,0.02,0.721,0.057s0.393,0.119,0.559,0.244
			c0.168,0.121,0.295,0.285,0.383,0.494c0.087,0.209,0.13,0.477,0.13,0.805c0,0.469-0.004,0.885-0.015,1.248
			c-0.01,0.361-0.016,0.758-0.016,1.188c0,0.129,0.021,0.229,0.066,0.305s0.111,0.141,0.203,0.193
			c0.051,0.027,0.127,0.045,0.234,0.049c0.106,0.004,0.215,0.006,0.327,0.006L43.777,83.592L43.777,83.592z M42.061,80.994
			c-0.279,0.082-0.523,0.162-0.732,0.242c-0.211,0.078-0.406,0.176-0.586,0.295c-0.164,0.111-0.294,0.244-0.389,0.395
			c-0.096,0.152-0.145,0.336-0.145,0.545c0,0.273,0.071,0.477,0.215,0.604c0.144,0.129,0.324,0.193,0.543,0.193
			c0.234,0,0.438-0.061,0.615-0.172c0.178-0.113,0.328-0.246,0.448-0.4L42.061,80.994z"/>
		<path fill="#010101" d="M50.424,83.682h-2.371v-0.326c0.074-0.006,0.158-0.012,0.248-0.02c0.091-0.006,0.164-0.02,0.225-0.039
			c0.092-0.029,0.159-0.082,0.204-0.154c0.044-0.072,0.065-0.17,0.065-0.287v-2.496c0-0.344-0.08-0.609-0.244-0.797
			c-0.162-0.188-0.359-0.281-0.594-0.281c-0.175,0-0.334,0.027-0.479,0.082s-0.271,0.121-0.385,0.199
			c-0.108,0.076-0.194,0.156-0.26,0.244c-0.063,0.086-0.11,0.156-0.14,0.209v2.791c0,0.109,0.022,0.203,0.068,0.273
			c0.046,0.072,0.114,0.129,0.206,0.168c0.068,0.031,0.144,0.059,0.225,0.074c0.08,0.016,0.163,0.027,0.249,0.033v0.324h-2.378
			v-0.324c0.075-0.006,0.154-0.014,0.232-0.021c0.082-0.008,0.15-0.02,0.211-0.041c0.092-0.025,0.16-0.08,0.203-0.15
			c0.045-0.074,0.066-0.172,0.066-0.289v-2.992c0-0.111-0.023-0.215-0.07-0.309c-0.049-0.096-0.115-0.17-0.199-0.229
			c-0.063-0.039-0.137-0.066-0.223-0.084c-0.086-0.021-0.177-0.031-0.275-0.037v-0.326l1.613-0.105l0.07,0.066v0.686h0.023
			c0.078-0.078,0.178-0.172,0.296-0.283c0.118-0.109,0.229-0.199,0.335-0.268c0.119-0.08,0.266-0.146,0.433-0.197
			c0.168-0.053,0.354-0.08,0.565-0.08c0.467,0,0.812,0.146,1.035,0.438c0.226,0.289,0.338,0.68,0.338,1.158v2.525
			c0,0.113,0.02,0.207,0.06,0.277c0.039,0.068,0.106,0.125,0.202,0.164c0.078,0.033,0.146,0.057,0.204,0.068
			c0.058,0.014,0.137,0.023,0.237,0.029v0.324h0.002V83.682z"/>
		<path fill="#010101" d="M54.826,83.471c-0.216,0.088-0.416,0.162-0.605,0.223c-0.189,0.063-0.424,0.092-0.699,0.092
			c-0.404,0-0.691-0.104-0.857-0.309s-0.248-0.494-0.248-0.867V79.32h-0.877V78.85h0.896v-1.512h0.895v1.512h1.395v0.471H53.34
			v2.713c0,0.203,0.008,0.373,0.021,0.51c0.017,0.137,0.052,0.254,0.104,0.355c0.054,0.096,0.134,0.168,0.238,0.217
			c0.104,0.049,0.244,0.074,0.422,0.074c0.082,0,0.203-0.008,0.361-0.023c0.158-0.014,0.271-0.031,0.338-0.055v0.359H54.826z"/>
		<path fill="#010101" d="M60.422,82.539c-0.203,0.389-0.475,0.695-0.815,0.926c-0.34,0.23-0.731,0.344-1.176,0.344
			c-0.392,0-0.731-0.068-1.025-0.205c-0.295-0.139-0.534-0.324-0.727-0.563c-0.189-0.234-0.332-0.512-0.427-0.828
			c-0.094-0.313-0.141-0.645-0.141-0.998c0-0.314,0.051-0.623,0.15-0.928c0.098-0.303,0.244-0.576,0.439-0.818
			c0.188-0.232,0.418-0.422,0.694-0.563c0.276-0.146,0.588-0.215,0.935-0.215c0.354,0,0.655,0.057,0.909,0.168
			c0.253,0.109,0.458,0.264,0.613,0.457c0.151,0.184,0.265,0.398,0.338,0.646c0.074,0.25,0.11,0.521,0.11,0.814v0.326h-3.213
			c0,0.318,0.029,0.605,0.091,0.867c0.062,0.26,0.155,0.488,0.288,0.686c0.127,0.191,0.296,0.342,0.502,0.451
			c0.205,0.111,0.453,0.166,0.738,0.166c0.291,0,0.543-0.068,0.754-0.205c0.213-0.137,0.416-0.385,0.613-0.74L60.422,82.539z
			 M59.336,80.689c0-0.186-0.018-0.381-0.047-0.59c-0.031-0.209-0.082-0.385-0.149-0.525c-0.076-0.15-0.181-0.271-0.312-0.367
			c-0.132-0.096-0.301-0.143-0.507-0.143c-0.345,0-0.632,0.143-0.858,0.43c-0.229,0.285-0.354,0.686-0.371,1.195H59.336
			L59.336,80.689z"/>
		<path fill="#010101" d="M70.959,80.701c-0.146,0.012-0.289,0.041-0.438,0.086c-0.146,0.045-0.258,0.115-0.336,0.213
			c-0.053,0.061-0.104,0.146-0.155,0.262c-0.054,0.113-0.114,0.25-0.188,0.404c-0.071,0.158-0.146,0.313-0.223,0.461
			c-0.076,0.152-0.173,0.305-0.293,0.455c0.098,0.117,0.219,0.244,0.357,0.383c0.143,0.139,0.263,0.236,0.361,0.299
			c0.1,0.057,0.235,0.104,0.416,0.143c0.18,0.039,0.326,0.063,0.438,0.066v0.26h-1.508l-0.545-0.623
			c-0.08,0.088-0.175,0.18-0.275,0.271c-0.104,0.096-0.215,0.176-0.327,0.244c-0.128,0.072-0.255,0.129-0.384,0.172
			c-0.127,0.041-0.278,0.063-0.45,0.063c-0.181,0-0.361-0.025-0.539-0.078c-0.179-0.053-0.341-0.135-0.484-0.25
			c-0.145-0.113-0.258-0.258-0.346-0.432c-0.088-0.178-0.131-0.387-0.131-0.631c0-0.303,0.079-0.576,0.239-0.82
			c0.158-0.246,0.457-0.506,0.894-0.781c-0.197-0.262-0.353-0.488-0.461-0.678c-0.107-0.191-0.164-0.404-0.164-0.643
			c0-0.166,0.033-0.32,0.102-0.461s0.162-0.264,0.283-0.367c0.111-0.096,0.248-0.17,0.408-0.225c0.162-0.055,0.326-0.08,0.49-0.08
			c0.196,0,0.366,0.031,0.516,0.092c0.146,0.064,0.27,0.146,0.359,0.244c0.086,0.094,0.149,0.199,0.196,0.322
			c0.045,0.121,0.065,0.244,0.065,0.367c0,0.291-0.09,0.543-0.271,0.754c-0.18,0.211-0.433,0.398-0.75,0.568
			c0.229,0.311,0.453,0.594,0.674,0.848c0.22,0.256,0.431,0.506,0.632,0.754c0.164-0.262,0.291-0.508,0.381-0.738
			s0.137-0.434,0.137-0.609c0-0.078-0.059-0.141-0.172-0.186s-0.271-0.088-0.471-0.129v-0.26h1.959v0.26H70.959L70.959,80.701z
			 M68.658,82.896c-0.228-0.287-0.48-0.604-0.769-0.945c-0.283-0.344-0.511-0.633-0.683-0.869c-0.197,0.137-0.336,0.297-0.418,0.48
			s-0.123,0.395-0.123,0.631c0,0.332,0.094,0.607,0.283,0.826s0.441,0.326,0.76,0.326c0.179,0,0.354-0.037,0.523-0.115
			C68.405,83.154,68.547,83.043,68.658,82.896z M68.373,79.512c0-0.248-0.056-0.439-0.164-0.572
			c-0.109-0.133-0.267-0.199-0.468-0.199c-0.114,0-0.208,0.023-0.284,0.07c-0.074,0.045-0.142,0.104-0.191,0.176
			c-0.051,0.068-0.084,0.141-0.105,0.219c-0.021,0.078-0.033,0.148-0.033,0.209c0,0.168,0.045,0.338,0.131,0.51
			c0.089,0.176,0.226,0.381,0.412,0.625c0.248-0.143,0.431-0.295,0.539-0.459C68.315,79.922,68.373,79.73,68.373,79.512z"/>
		<path fill="#010101" d="M81.312,80.428c0.203,0.139,0.373,0.318,0.506,0.541c0.136,0.225,0.203,0.494,0.203,0.813
			c0,0.324-0.069,0.607-0.213,0.846c-0.142,0.24-0.324,0.439-0.552,0.592c-0.221,0.15-0.469,0.268-0.746,0.348
			c-0.274,0.078-0.563,0.117-0.856,0.117h-3.31v-0.352c0.08-0.008,0.195-0.02,0.347-0.043c0.149-0.02,0.259-0.047,0.324-0.076
			c0.103-0.045,0.174-0.105,0.217-0.184s0.063-0.178,0.063-0.299v-5.02c0-0.111-0.02-0.211-0.059-0.297
			c-0.037-0.084-0.111-0.152-0.223-0.205c-0.1-0.051-0.209-0.088-0.33-0.113s-0.225-0.041-0.307-0.049v-0.35h3.225
			c0.25,0,0.486,0.021,0.717,0.072c0.229,0.049,0.445,0.137,0.65,0.262c0.193,0.115,0.354,0.27,0.479,0.467s0.188,0.438,0.188,0.721
			c0,0.244-0.045,0.465-0.133,0.656c-0.09,0.191-0.213,0.355-0.375,0.494c-0.149,0.131-0.321,0.242-0.518,0.332
			c-0.195,0.09-0.406,0.16-0.635,0.209v0.045c0.201,0.023,0.424,0.072,0.672,0.148C80.897,80.184,81.119,80.289,81.312,80.428z
			 M80.123,79.373c0.119-0.141,0.203-0.295,0.252-0.463c0.047-0.168,0.071-0.365,0.071-0.596c0-0.387-0.104-0.689-0.313-0.904
			c-0.209-0.221-0.541-0.328-0.992-0.328c-0.104,0-0.236,0.002-0.396,0.008c-0.158,0.004-0.291,0.01-0.398,0.012v2.688h0.623
			c0.27,0,0.498-0.035,0.689-0.104C79.849,79.615,80.002,79.512,80.123,79.373z M80.806,81.604c0-0.414-0.142-0.752-0.416-1.02
			c-0.279-0.266-0.675-0.396-1.188-0.396c-0.212,0-0.388,0.002-0.531,0.006c-0.146,0.006-0.252,0.01-0.324,0.012v2.461
			c0,0.207,0.084,0.363,0.252,0.471c0.166,0.105,0.398,0.154,0.697,0.154c0.488,0,0.861-0.143,1.121-0.428
			C80.674,82.578,80.806,82.158,80.806,81.604z"/>
		<path fill="#010101" d="M88.226,83.592c-0.154,0.057-0.289,0.102-0.406,0.137c-0.116,0.033-0.248,0.051-0.396,0.051
			c-0.256,0-0.461-0.059-0.611-0.178c-0.152-0.121-0.252-0.295-0.293-0.525H86.49c-0.215,0.236-0.441,0.416-0.688,0.541
			c-0.243,0.125-0.538,0.188-0.883,0.188c-0.364,0-0.664-0.109-0.897-0.334s-0.353-0.516-0.353-0.877c0-0.188,0.025-0.354,0.078-0.5
			s0.131-0.279,0.234-0.396c0.084-0.102,0.191-0.189,0.326-0.264c0.135-0.078,0.26-0.143,0.379-0.188
			c0.146-0.057,0.445-0.16,0.896-0.311s0.756-0.27,0.914-0.355v-0.486c0-0.041-0.011-0.125-0.027-0.246
			c-0.02-0.121-0.057-0.236-0.115-0.346c-0.064-0.121-0.158-0.227-0.277-0.316s-0.289-0.135-0.51-0.135
			c-0.15,0-0.291,0.025-0.422,0.074c-0.129,0.053-0.221,0.105-0.271,0.16c0,0.066,0.017,0.162,0.047,0.291
			c0.031,0.129,0.047,0.246,0.047,0.354c0,0.113-0.053,0.221-0.155,0.314c-0.104,0.096-0.246,0.145-0.431,0.145
			c-0.164,0-0.284-0.059-0.36-0.176c-0.078-0.115-0.115-0.246-0.115-0.393c0-0.15,0.054-0.293,0.158-0.434
			c0.106-0.139,0.248-0.262,0.416-0.367c0.149-0.094,0.328-0.17,0.537-0.234c0.211-0.064,0.416-0.096,0.614-0.096
			c0.275,0,0.517,0.02,0.724,0.057c0.203,0.037,0.39,0.119,0.558,0.244c0.168,0.121,0.295,0.285,0.383,0.494
			c0.086,0.209,0.129,0.477,0.129,0.805c0,0.469-0.004,0.885-0.014,1.248c-0.011,0.361-0.017,0.758-0.017,1.188
			c0,0.129,0.021,0.229,0.065,0.305s0.112,0.141,0.203,0.193c0.051,0.027,0.129,0.045,0.234,0.049s0.217,0.006,0.328,0.006
			L88.226,83.592L88.226,83.592z M86.506,80.994c-0.278,0.082-0.522,0.162-0.731,0.242c-0.211,0.078-0.403,0.176-0.586,0.295
			c-0.164,0.111-0.293,0.244-0.39,0.395c-0.096,0.152-0.144,0.336-0.144,0.545c0,0.273,0.071,0.477,0.214,0.604
			c0.146,0.129,0.322,0.193,0.545,0.193c0.232,0,0.438-0.061,0.613-0.172c0.178-0.113,0.326-0.246,0.447-0.4L86.506,80.994z"/>
		<path fill="#010101" d="M93.229,79.453c0,0.168-0.041,0.316-0.123,0.445c-0.082,0.131-0.209,0.193-0.379,0.193
			c-0.187,0-0.326-0.049-0.422-0.145c-0.097-0.094-0.146-0.201-0.146-0.314c0-0.07,0.006-0.139,0.016-0.193
			c0.013-0.063,0.023-0.119,0.033-0.18c-0.153,0-0.334,0.064-0.541,0.188c-0.207,0.127-0.383,0.303-0.526,0.533v2.822
			c0,0.113,0.022,0.209,0.065,0.279c0.045,0.072,0.113,0.127,0.209,0.162c0.082,0.033,0.188,0.059,0.318,0.074
			c0.129,0.018,0.24,0.027,0.336,0.033v0.326h-2.559v-0.324c0.074-0.006,0.152-0.012,0.232-0.02c0.08-0.006,0.147-0.02,0.209-0.039
			c0.092-0.029,0.16-0.08,0.204-0.154c0.044-0.072,0.066-0.168,0.066-0.287v-2.994c0-0.102-0.022-0.201-0.072-0.299
			c-0.047-0.1-0.112-0.178-0.198-0.236c-0.063-0.039-0.136-0.068-0.224-0.086c-0.084-0.018-0.176-0.029-0.272-0.037v-0.324
			l1.612-0.105l0.068,0.066v0.688h0.024c0.203-0.27,0.43-0.471,0.678-0.605c0.25-0.139,0.479-0.207,0.687-0.207
			s0.375,0.066,0.505,0.201C93.162,79.049,93.229,79.227,93.229,79.453z"/>
		<g>
			<path fill="#010101" d="M17.539,89.668c-0.129,0.006-0.287,0.035-0.471,0.086c-0.184,0.055-0.335,0.115-0.454,0.191
				c-0.169,0.104-0.305,0.238-0.407,0.4c-0.101,0.164-0.201,0.355-0.302,0.58c-0.332,0.789-0.832,2.021-1.497,3.691
				c-0.666,1.672-1.352,3.414-2.057,5.229h-0.619c-0.715-1.924-1.404-3.773-2.07-5.559s-1.119-2.99-1.356-3.615
				c-0.06-0.15-0.14-0.289-0.238-0.404c-0.101-0.115-0.231-0.229-0.396-0.33c-0.135-0.086-0.282-0.148-0.446-0.191
				C7.062,89.705,6.91,89.68,6.77,89.668v-0.527h4.376v0.527c-0.372,0.021-0.688,0.059-0.942,0.111
				c-0.257,0.057-0.384,0.15-0.384,0.291c0,0.055,0.011,0.121,0.029,0.193c0.021,0.072,0.036,0.135,0.053,0.18
				c0.185,0.484,0.481,1.281,0.894,2.383s1,2.668,1.76,4.701c0.378-0.918,0.813-2.006,1.304-3.258
				c0.492-1.254,0.823-2.113,0.991-2.58c0.164-0.453,0.26-0.77,0.288-0.939c0.026-0.174,0.04-0.314,0.04-0.426
				c0-0.115-0.051-0.209-0.152-0.287c-0.104-0.076-0.236-0.143-0.406-0.197c-0.164-0.049-0.33-0.086-0.498-0.111
				c-0.17-0.023-0.342-0.043-0.516-0.061v-0.527h3.934V89.668L17.539,89.668z"/>
			<path fill="#010101" d="M29.897,96.6l-0.201,3.113h-8.778v-0.527c0.148-0.01,0.349-0.031,0.597-0.063
				c0.248-0.033,0.409-0.064,0.483-0.102c0.158-0.074,0.271-0.172,0.332-0.291c0.063-0.119,0.094-0.271,0.094-0.453v-7.604
				c0-0.164-0.028-0.311-0.082-0.438c-0.055-0.127-0.17-0.229-0.344-0.309c-0.134-0.064-0.313-0.121-0.541-0.172
				c-0.226-0.051-0.404-0.078-0.539-0.09v-0.529h8.183v2.549h-0.56c-0.101-0.377-0.313-0.777-0.645-1.203
				c-0.331-0.424-0.646-0.656-0.941-0.697c-0.154-0.02-0.34-0.033-0.553-0.045c-0.214-0.01-0.458-0.014-0.73-0.014H24.01v4.203
				h1.193c0.381,0,0.661-0.037,0.838-0.109c0.176-0.07,0.332-0.191,0.465-0.361c0.109-0.143,0.203-0.336,0.279-0.576
				c0.077-0.238,0.129-0.469,0.153-0.684h0.56v4.145h-0.56c-0.021-0.236-0.073-0.488-0.16-0.756
				c-0.087-0.266-0.178-0.459-0.272-0.576c-0.152-0.193-0.328-0.318-0.523-0.383c-0.195-0.059-0.456-0.088-0.779-0.088h-1.191v3.168
				c0,0.318,0.021,0.568,0.066,0.752c0.045,0.188,0.133,0.322,0.262,0.416c0.129,0.098,0.306,0.156,0.529,0.186
				c0.223,0.025,0.541,0.041,0.952,0.041c0.164,0,0.382,0,0.647,0c0.27,0,0.494-0.012,0.68-0.029
				c0.188-0.021,0.384-0.057,0.585-0.107s0.345-0.123,0.429-0.213c0.229-0.238,0.469-0.6,0.719-1.084
				c0.252-0.484,0.412-0.842,0.48-1.068h0.536V96.6z"/>
			<path fill="#010101" d="M44.879,89.668c-0.14,0.006-0.353,0.045-0.641,0.119c-0.289,0.076-0.494,0.152-0.619,0.232
				c-0.179,0.123-0.299,0.359-0.361,0.715c-0.062,0.354-0.092,0.801-0.092,1.342v7.742h-0.648l-6.408-8.652v5.455
				c0,0.611,0.038,1.08,0.114,1.408c0.077,0.328,0.194,0.563,0.354,0.701c0.113,0.105,0.351,0.211,0.707,0.305
				c0.357,0.096,0.594,0.145,0.709,0.15v0.525h-4.338v-0.525c0.135-0.014,0.359-0.063,0.678-0.146
				c0.319-0.088,0.518-0.166,0.597-0.234c0.175-0.141,0.294-0.352,0.358-0.639c0.063-0.285,0.096-0.771,0.096-1.465v-5.207
				c0-0.23-0.038-0.457-0.118-0.686c-0.079-0.23-0.187-0.406-0.32-0.529c-0.179-0.164-0.421-0.305-0.727-0.422
				c-0.306-0.115-0.554-0.182-0.741-0.189v-0.529H36.5l5.941,8.063v-5.029c0-0.613-0.04-1.088-0.119-1.42
				c-0.078-0.33-0.193-0.549-0.343-0.658c-0.14-0.094-0.366-0.188-0.683-0.273c-0.314-0.09-0.555-0.141-0.719-0.148v-0.529h4.301
				V89.668L44.879,89.668z"/>
			<path fill="#010101" d="M57.679,96.6l-0.201,3.113h-8.776v-0.527c0.148-0.01,0.348-0.031,0.596-0.063
				c0.248-0.033,0.41-0.064,0.484-0.102c0.159-0.074,0.27-0.172,0.331-0.291c0.063-0.119,0.093-0.271,0.093-0.453v-7.604
				c0-0.164-0.025-0.311-0.08-0.438c-0.056-0.127-0.17-0.229-0.344-0.309c-0.135-0.064-0.314-0.121-0.539-0.172
				c-0.227-0.051-0.406-0.078-0.541-0.09v-0.529h8.184v2.549h-0.561c-0.101-0.377-0.313-0.777-0.646-1.203
				c-0.33-0.424-0.646-0.656-0.941-0.697c-0.153-0.02-0.34-0.033-0.553-0.045c-0.213-0.01-0.457-0.014-0.729-0.014h-1.662v4.203
				h1.192c0.384,0,0.662-0.037,0.839-0.109c0.176-0.07,0.331-0.191,0.465-0.361c0.108-0.143,0.203-0.336,0.28-0.576
				c0.076-0.238,0.128-0.469,0.152-0.684h0.56v4.145h-0.56c-0.021-0.236-0.074-0.488-0.16-0.756
				c-0.086-0.266-0.179-0.459-0.272-0.576c-0.152-0.193-0.328-0.318-0.523-0.383c-0.197-0.059-0.455-0.088-0.779-0.088h-1.191v3.168
				c0,0.318,0.021,0.568,0.066,0.752c0.046,0.188,0.133,0.322,0.262,0.416c0.129,0.098,0.308,0.156,0.529,0.186
				c0.223,0.027,0.541,0.041,0.953,0.041c0.164,0,0.381,0,0.646,0c0.27,0,0.496-0.012,0.68-0.029
				c0.188-0.021,0.385-0.057,0.586-0.107c0.199-0.051,0.344-0.123,0.428-0.213c0.229-0.238,0.469-0.6,0.721-1.084
				c0.25-0.484,0.41-0.842,0.479-1.068h0.535L57.679,96.6L57.679,96.6z"/>
			<path fill="#010101" d="M70.129,96.412l-0.352,3.301h-8.495v-0.26l6.653-9.725H65.5c-0.283,0-0.521,0.004-0.711,0.014
				c-0.191,0.012-0.367,0.031-0.525,0.063c-0.326,0.063-0.695,0.334-1.104,0.811c-0.412,0.479-0.721,0.982-0.93,1.514h-0.521
				l0.319-2.986h7.923v0.262l-6.654,9.725h2.512c0.422,0,0.871-0.029,1.35-0.09c0.477-0.059,0.785-0.16,0.932-0.305
				c0.322-0.311,0.623-0.689,0.9-1.133c0.277-0.447,0.484-0.844,0.617-1.188h0.521V96.412L70.129,96.412z"/>
			<path fill="#010101" d="M78.666,99.713h-4.763v-0.527c0.136-0.01,0.328-0.025,0.582-0.045s0.435-0.051,0.537-0.09
				c0.162-0.063,0.283-0.152,0.356-0.266c0.074-0.109,0.111-0.266,0.111-0.465v-7.66c0-0.174-0.027-0.32-0.082-0.436
				c-0.055-0.117-0.186-0.217-0.387-0.297c-0.15-0.061-0.338-0.113-0.563-0.168c-0.226-0.053-0.41-0.082-0.557-0.094v-0.529h4.762
				v0.529c-0.151,0.006-0.338,0.023-0.551,0.059c-0.215,0.029-0.4,0.07-0.559,0.121c-0.188,0.061-0.316,0.156-0.381,0.291
				c-0.065,0.137-0.098,0.281-0.098,0.445v7.654c0,0.162,0.036,0.309,0.106,0.436c0.071,0.127,0.194,0.23,0.368,0.305
				c0.104,0.039,0.275,0.082,0.511,0.131c0.235,0.047,0.437,0.07,0.601,0.078v0.525h0.004V99.713z"/>
			<path fill="#010101" d="M92.903,99.713h-4.396v-0.527c0.388-0.025,0.709-0.074,0.966-0.148c0.256-0.074,0.385-0.166,0.385-0.275
				c0-0.045-0.006-0.1-0.017-0.162c-0.01-0.064-0.024-0.121-0.045-0.172l-0.875-2.369h-3.713c-0.141,0.348-0.252,0.648-0.34,0.906
				c-0.087,0.262-0.164,0.498-0.234,0.719c-0.065,0.213-0.108,0.389-0.135,0.52c-0.024,0.135-0.037,0.244-0.037,0.328
				c0,0.199,0.156,0.354,0.472,0.463c0.313,0.109,0.664,0.174,1.058,0.193v0.525H82.01v-0.525c0.129-0.012,0.289-0.039,0.484-0.086
				c0.192-0.049,0.354-0.109,0.477-0.189c0.199-0.135,0.354-0.273,0.463-0.42c0.109-0.148,0.217-0.35,0.32-0.609
				c0.531-1.324,1.117-2.816,1.758-4.471c0.641-1.656,1.213-3.127,1.715-4.418h0.597l3.524,9.121
				c0.074,0.193,0.158,0.35,0.254,0.469c0.094,0.119,0.227,0.236,0.395,0.352c0.113,0.068,0.264,0.127,0.447,0.176
				c0.184,0.047,0.338,0.072,0.461,0.078L92.903,99.713L92.903,99.713z M88.649,95.393l-1.603-4.104l-1.58,4.104H88.649z"/>
		</g>
	</g>
</g>
</svg>
