<?xml version="1.0" encoding="utf-8"?>
<!-- Generator: Adobe Illustrator 15.0.0, SVG Export Plug-In . SVG Version: 6.00 Build 0)  -->
<!DOCTYPE svg PUBLIC "-//W3C//DTD SVG 1.0//EN" "http://www.w3.org/TR/2001/REC-SVG-20010904/DTD/svg10.dtd">
<svg version="1.0" id="Layer_1" xmlns="http://www.w3.org/2000/svg" xmlns:xlink="http://www.w3.org/1999/xlink" x="0px" y="0px"
	 width="100px" height="100px" viewBox="0 0 100 100" enable-background="new 0 0 100 100" xml:space="preserve">
<g>
	<g>
		<path d="M25.791,47.744V9.507h-5.02V5.393c1.414-0.167,2.76-0.702,4.038-1.605c1.277-0.903,2.197-1.999,2.759-3.289h4.114v47.245
			H25.791z"/>
		<path d="M55.323,38.829c0,2.598-0.914,4.8-2.742,6.608c-1.829,1.807-4.021,2.712-6.578,2.712c-2.598,0-4.806-0.91-6.624-2.728
			c-1.819-1.819-2.728-4.016-2.728-6.593V9.351c0-2.598,0.914-4.805,2.742-6.624C41.224,0.91,43.426,0,46.003,0
			c2.598,0,4.802,0.914,6.609,2.744c1.808,1.828,2.711,4.032,2.711,6.607V38.829z M49.214,9.228c0-0.937-0.333-1.735-0.998-2.4
			c-0.665-0.665-1.464-0.998-2.4-0.998c-0.935,0-1.729,0.333-2.384,0.998c-0.655,0.665-0.982,1.464-0.982,2.4v29.507
			c0,0.935,0.327,1.735,0.982,2.4c0.654,0.665,1.449,0.998,2.384,0.998c0.936,0,1.735-0.333,2.4-0.998
			c0.665-0.665,0.998-1.465,0.998-2.4V9.228z"/>
		<path d="M79.077,38.829c0,2.598-0.914,4.8-2.744,6.608c-1.828,1.807-4.02,2.712-6.576,2.712c-2.598,0-4.807-0.91-6.624-2.728
			c-1.819-1.819-2.728-4.016-2.728-6.593V9.351c0-2.598,0.914-4.805,2.742-6.624C64.977,0.91,67.179,0,69.756,0
			c2.598,0,4.802,0.914,6.609,2.744c1.807,1.828,2.711,4.032,2.711,6.607V38.829z M72.967,9.228c0-0.937-0.333-1.735-0.998-2.4
			c-0.665-0.665-1.466-0.998-2.4-0.998s-1.73,0.333-2.385,0.998c-0.654,0.665-0.98,1.464-0.98,2.4v29.507
			c0,0.935,0.326,1.735,0.98,2.4c0.654,0.665,1.45,0.998,2.385,0.998s1.735-0.333,2.4-0.998c0.665-0.665,0.998-1.465,0.998-2.4
			V9.228z"/>
	</g>
	<g>
		<path d="M24.705,72.181c-1.131,0-2.09-0.398-2.881-1.194c-0.792-0.794-1.187-1.747-1.187-2.859v-9.271
			c0-1.131,0.398-2.091,1.193-2.881c0.796-0.791,1.754-1.187,2.875-1.187c1.129,0,2.087,0.397,2.874,1.192
			c0.786,0.796,1.179,1.753,1.179,2.875v1.938h-2.657v-1.992c0-0.407-0.144-0.755-0.433-1.044c-0.291-0.289-0.639-0.434-1.045-0.434
			c-0.405,0-0.752,0.145-1.037,0.434c-0.284,0.289-0.426,0.637-0.426,1.044V68.1c0,0.407,0.142,0.752,0.426,1.037
			c0.285,0.284,0.631,0.427,1.037,0.427c0.407,0,0.755-0.141,1.045-0.426c0.289-0.283,0.433-0.628,0.433-1.033v-3.339h-1.424v-2.576
			h4.081v5.938c0,1.13-0.398,2.089-1.192,2.874C26.769,71.787,25.816,72.181,24.705,72.181z"/>
		<path d="M35.281,71.963h-2.562V54.979h2.562V71.963z"/>
		<path d="M43.336,54.763c1.13,0,2.09,0.397,2.88,1.192c0.791,0.795,1.187,1.753,1.187,2.873V68.1c0,1.13-0.398,2.089-1.193,2.881
			c-0.796,0.79-1.754,1.186-2.875,1.186c-1.129,0-2.086-0.396-2.874-1.192c-0.786-0.795-1.179-1.753-1.179-2.874v-9.271
			c0-1.129,0.398-2.089,1.192-2.881C41.272,55.157,42.226,54.763,43.336,54.763z M44.734,58.773c0-0.405-0.143-0.751-0.428-1.036
			c-0.284-0.284-0.631-0.428-1.038-0.428c-0.407,0-0.753,0.144-1.042,0.428c-0.291,0.285-0.435,0.631-0.435,1.036v9.3
			c0,0.405,0.145,0.752,0.435,1.036c0.289,0.285,0.635,0.428,1.042,0.428c0.407,0,0.753-0.143,1.038-0.428
			c0.285-0.284,0.428-0.631,0.428-1.036V58.773z"/>
		<path d="M55.446,54.979c1.427,0,2.475,0.394,3.145,1.179c0.587,0.688,0.881,1.646,0.881,2.874v2.466
			c0,1.203-0.457,2.219-1.369,3.051L60,71.963h-2.771l-1.553-6.397c-0.072,0-0.149,0-0.23,0h-1.478v6.397h-2.562V54.979H55.446z
			 M56.977,59.073c0-0.985-0.488-1.478-1.463-1.478h-1.546v5.436h1.546c0.406,0,0.751-0.146,1.035-0.435
			c0.287-0.289,0.428-0.637,0.428-1.044V59.073z"/>
		<path d="M66.811,54.966l3.399,11.423V54.966h2.563v16.997h-2.751l-3.525-10.885v10.885h-2.563V54.966H66.811z"/>
		<path d="M79.364,71.963h-2.563V54.979h2.563V71.963z"/>
	</g>
	<g>
		<path d="M48.714,81.359c0,0.645-0.226,1.194-0.678,1.651c-0.451,0.457-0.997,0.686-1.635,0.686h-2.313v-9.769h2.313
			c0.644,0,1.189,0.229,1.639,0.686c0.448,0.457,0.674,1.004,0.674,1.644V81.359z M45.56,82.239h0.889
			c0.233,0,0.431-0.084,0.591-0.253c0.161-0.17,0.242-0.367,0.242-0.596v-5.11c0-0.234-0.083-0.434-0.246-0.6
			c-0.164-0.167-0.36-0.249-0.587-0.249H45.56V82.239z"/>
		<path d="M52.084,81.452l-0.358,2.244h-1.533l1.66-9.762h2.025l1.636,9.762h-1.549l-0.344-2.244H52.084z M52.857,76.172
			l-0.546,3.848h1.092L52.857,76.172z"/>
	</g>
	<g>
		<path d="M24.274,85.362c1.056,0,1.896,0.331,2.522,0.998c0.581,0.634,0.873,1.444,0.873,2.431v2.088
			c0,0.949-0.332,1.76-0.992,2.433c-0.662,0.673-1.462,1.01-2.403,1.01h-1.25v5.413h-2.168V85.362H24.274z M25.57,88.826
			c0-0.376-0.113-0.677-0.339-0.906c-0.226-0.23-0.525-0.345-0.901-0.345h-1.306v4.601h1.306c0.345,0,0.637-0.122,0.879-0.367
			c0.24-0.244,0.361-0.539,0.361-0.885V88.826z"/>
		<path d="M31.162,99.938V85.554h6.171v2.181h-4.004v3.923h2.926v2.179h-2.926v3.923h4.004v2.179H31.162z"/>
		<path d="M44.026,100.122c-0.957,0-1.77-0.335-2.437-1.004c-0.669-0.669-1.004-1.478-1.004-2.427v-7.846
			c0-0.955,0.336-1.768,1.008-2.438c0.674-0.669,1.484-1.004,2.433-1.004c0.955,0,1.766,0.337,2.432,1.01
			c0.665,0.673,0.997,1.483,0.997,2.432v1.641h-2.247V88.8c0-0.344-0.124-0.639-0.367-0.883c-0.246-0.245-0.54-0.367-0.884-0.367
			c-0.344,0-0.636,0.122-0.877,0.367c-0.24,0.244-0.361,0.539-0.361,0.883v7.869c0,0.344,0.121,0.638,0.361,0.878
			c0.242,0.241,0.534,0.361,0.877,0.361c0.345,0,0.638-0.12,0.884-0.361c0.243-0.24,0.367-0.534,0.367-0.878v-1.984h2.247v2.007
			c0,0.957-0.336,1.768-1.008,2.433C45.773,99.789,44.967,100.122,44.026,100.122z"/>
		<path d="M54.39,85.383c0.955,0,1.768,0.336,2.437,1.008c0.67,0.674,1.004,1.485,1.004,2.433v7.846c0,0.957-0.336,1.77-1.008,2.438
			c-0.674,0.668-1.484,1.003-2.433,1.003c-0.957,0-1.767-0.336-2.433-1.01c-0.665-0.673-0.996-1.483-0.996-2.432v-7.846
			c0-0.957,0.336-1.769,1.008-2.438C52.641,85.717,53.45,85.383,54.39,85.383z M55.573,88.777c0-0.345-0.121-0.637-0.363-0.878
			c-0.24-0.24-0.533-0.36-0.877-0.36s-0.639,0.12-0.883,0.36c-0.245,0.241-0.367,0.533-0.367,0.878v7.868
			c0,0.346,0.122,0.637,0.367,0.879c0.244,0.24,0.539,0.361,0.883,0.361s0.637-0.121,0.877-0.361
			c0.242-0.242,0.363-0.533,0.363-0.879V88.777z"/>
		<path d="M64.925,85.565c1.208,0,2.097,0.333,2.662,0.998c0.497,0.581,0.745,1.392,0.745,2.433v2.087
			c0,1.018-0.387,1.877-1.158,2.58l1.605,6.274h-2.344l-1.314-5.413c-0.063,0-0.127,0-0.196,0h-1.251v5.413h-2.166V85.565H64.925z
			 M66.223,89.03c0-0.833-0.414-1.251-1.24-1.251h-1.309v4.6h1.309c0.345,0,0.639-0.122,0.879-0.366
			c0.24-0.245,0.361-0.54,0.361-0.884V89.03z"/>
		<path d="M74.252,96.636l-0.526,3.302h-2.257l2.443-14.372h2.981l2.409,14.372h-2.279l-0.507-3.302H74.252z M75.392,88.857
			l-0.804,5.667h1.607L75.392,88.857z"/>
	</g>
</g>
</svg>
