<?xml version="1.0" encoding="utf-8"?>
<!-- Generator: Adobe Illustrator 15.0.0, SVG Export Plug-In . SVG Version: 6.00 Build 0)  -->
<!DOCTYPE svg PUBLIC "-//W3C//DTD SVG 1.0//EN" "http://www.w3.org/TR/2001/REC-SVG-20010904/DTD/svg10.dtd">
<svg version="1.0" id="Layer_1" xmlns="http://www.w3.org/2000/svg" xmlns:xlink="http://www.w3.org/1999/xlink" x="0px" y="0px"
	 width="100px" height="100px" viewBox="0 0 100 100" enable-background="new 0 0 100 100" xml:space="preserve">
<g id="XMLID_1_">
	<g>
		<circle cx="96.637" cy="47.205" r="3.408"/>
		<path d="M98.025,27.108c-0.511,0-0.955-0.18-1.316-0.533c-0.362-0.354-0.546-0.793-0.546-1.306c0-0.513,0.184-0.953,0.546-1.31
			c0.361-0.355,0.806-0.535,1.316-0.535c0.514,0,0.957,0.18,1.317,0.535c0.36,0.356,0.544,0.797,0.544,1.31
			c0,0.51-0.184,0.948-0.544,1.305C98.982,26.928,98.539,27.108,98.025,27.108z M96.952,26.329c0.295,0.288,0.655,0.435,1.069,0.435
			c0.419,0,0.779-0.147,1.074-0.435c0.292-0.289,0.441-0.646,0.441-1.061c0-0.418-0.149-0.776-0.441-1.064
			c-0.295-0.288-0.655-0.433-1.074-0.433c-0.416,0-0.778,0.147-1.071,0.437c-0.295,0.288-0.443,0.644-0.443,1.061
			C96.506,25.684,96.657,26.04,96.952,26.329z"/>
		<path d="M89.142,26.095v-3.053c0-0.244,0.102-0.342,0.353-0.342h1.285c0.15,0,0.227,0.06,0.227,0.176
			c0,0.113-0.076,0.171-0.227,0.171h-1.29v3.047c0,0.228,0.098,0.402,0.293,0.52c0.16,0.099,0.363,0.149,0.609,0.149
			c0.202,0,0.433-0.031,0.688-0.091c0.271-0.064,0.489-0.142,0.646-0.237c0.061-0.035,0.104-0.053,0.133-0.053
			c0.109,0,0.166,0.058,0.166,0.173c0,0.127-0.221,0.256-0.67,0.396c-0.325,0.102-0.64,0.155-0.938,0.155
			c-0.351,0-0.647-0.08-0.877-0.235C89.275,26.693,89.142,26.431,89.142,26.095z"/>
		<path d="M83.781,43.797c1.883,0,3.409,1.526,3.409,3.409s-1.526,3.407-3.409,3.407H60.092v6.527h16.84
			c5.665,0,10.258,4.593,10.258,10.26c0,5.665-4.593,10.258-10.258,10.258H56.683c-1.883,0-3.409-1.526-3.409-3.409
			s1.526-3.409,3.409-3.409h20.249c1.899,0,3.439-1.542,3.439-3.439c0-1.901-1.54-3.442-3.439-3.442H56.683
			c-1.883,0-3.409-1.525-3.409-3.408V47.206c0-1.883,1.526-3.409,3.409-3.409H83.781z"/>
		<path d="M80.991,23.959c0.362-0.355,0.806-0.535,1.318-0.535c0.514,0,0.955,0.18,1.315,0.535c0.36,0.356,0.544,0.797,0.544,1.31
			c0,0.51-0.184,0.948-0.544,1.305c-0.36,0.354-0.802,0.535-1.315,0.535c-0.513,0-0.956-0.18-1.318-0.533
			c-0.362-0.354-0.546-0.793-0.546-1.306C80.445,24.756,80.628,24.315,80.991,23.959z M81.234,26.329
			c0.295,0.288,0.655,0.435,1.072,0.435c0.416,0,0.778-0.147,1.071-0.435c0.295-0.289,0.443-0.646,0.443-1.061
			c0-0.418-0.148-0.776-0.443-1.064c-0.293-0.288-0.655-0.433-1.071-0.433c-0.419,0-0.779,0.147-1.073,0.437
			c-0.295,0.288-0.442,0.644-0.442,1.061C80.791,25.684,80.94,26.04,81.234,26.329z"/>
		<path d="M75.469,22.462c0.135-0.057,0.288-0.12,0.524-0.12c0.186,0,0.336,0.151,0.336,0.338v4.102
			c0,0.004,0.002,0.097-0.055,0.155c-0.028,0.031-0.068,0.045-0.116,0.045c-0.049,0-0.091-0.015-0.118-0.045
			c-0.057-0.058-0.055-0.151-0.055-0.155v-4.059c-0.207,0.004-0.555,0.171-0.958,0.366c-0.044,0.022-0.088,0.044-0.133,0.065
			l-0.04,0.015c-0.153,0.06-0.263,0.104-0.384,0.105c-0.122-0.002-0.233-0.045-0.386-0.105l-0.039-0.015
			c-0.045-0.021-0.091-0.043-0.134-0.065c-0.402-0.195-0.75-0.362-0.957-0.366v4.059c0,0.004,0.002,0.097-0.055,0.155
			c-0.031,0.031-0.069,0.045-0.118,0.045s-0.089-0.015-0.118-0.045c-0.057-0.058-0.053-0.151-0.053-0.155V22.68
			c0-0.093,0.034-0.178,0.098-0.242c0.064-0.062,0.147-0.096,0.238-0.096c0.237,0,0.388,0.063,0.522,0.12l0.027,0.011
			c0.069,0.027,0.152,0.069,0.242,0.115c0.224,0.111,0.504,0.251,0.731,0.254c0.227-0.003,0.505-0.144,0.73-0.254
			c0.09-0.045,0.173-0.087,0.242-0.115L75.469,22.462z"/>
		<path d="M61.731,26.764c0.419,0,0.779-0.147,1.073-0.435c0.293-0.289,0.442-0.646,0.442-1.061c0-0.418-0.149-0.776-0.442-1.064
			c-0.294-0.288-0.654-0.433-1.073-0.433c-0.418,0-0.778,0.147-1.071,0.437c-0.295,0.288-0.443,0.644-0.443,1.061
			c0,0.415,0.148,0.771,0.445,1.061C60.957,26.617,61.317,26.764,61.731,26.764z M63.594,25.269c0,0.51-0.182,0.948-0.542,1.305
			c-0.36,0.354-0.805,0.535-1.317,0.535s-0.957-0.18-1.317-0.533c-0.361-0.354-0.546-0.793-0.546-1.306
			c0-0.513,0.185-0.953,0.546-1.31c0.36-0.355,0.805-0.535,1.317-0.535s0.957,0.18,1.317,0.535
			C63.413,24.315,63.594,24.756,63.594,25.269z"/>
		<path d="M55.064,26.953c-0.325,0.102-0.642,0.155-0.938,0.155c-0.354,0-0.647-0.08-0.877-0.235
			c-0.264-0.18-0.396-0.442-0.396-0.778v-3.053c0-0.244,0.102-0.342,0.353-0.342h1.284c0.151,0,0.228,0.06,0.228,0.176
			c0,0.113-0.076,0.171-0.228,0.171H53.2v3.047c0,0.228,0.098,0.402,0.293,0.52c0.16,0.099,0.363,0.149,0.609,0.149
			c0.201,0,0.433-0.031,0.688-0.091c0.271-0.064,0.489-0.142,0.646-0.237c0.059-0.035,0.102-0.053,0.133-0.053
			c0.109,0,0.164,0.058,0.164,0.173C55.732,26.684,55.513,26.813,55.064,26.953z"/>
		<path d="M46.243,26.764c0.202,0,0.433-0.031,0.688-0.091c0.271-0.064,0.489-0.142,0.646-0.237c0.06-0.035,0.104-0.053,0.132-0.053
			c0.109,0,0.166,0.058,0.166,0.173c0,0.127-0.22,0.256-0.67,0.396c-0.325,0.102-0.64,0.155-0.938,0.155
			c-0.351,0-0.647-0.08-0.875-0.235c-0.266-0.18-0.398-0.442-0.398-0.778v-3.053c0-0.244,0.102-0.342,0.353-0.342h1.284
			c0.151,0,0.228,0.06,0.228,0.176c0,0.113-0.077,0.171-0.228,0.171h-1.29v3.047c0,0.228,0.098,0.402,0.293,0.52
			C45.793,26.713,45.999,26.764,46.243,26.764z"/>
		<path d="M36.416,63.958H24.904c-1.883,0-3.409-1.525-3.409-3.408s1.526-3.409,3.409-3.409h11.69c1.801,0,3.262-1.463,3.262-3.264
			s-1.461-3.264-3.262-3.264h-20.42c-1.883,0-3.409-1.524-3.409-3.407s1.526-3.409,3.409-3.409h20.42
			c8.717,0,13.325,10.316,7.508,16.807c5.854,6.624,1.153,17.055-7.686,17.055H16.174c-1.883,0-3.409-1.526-3.409-3.409
			s1.526-3.409,3.409-3.409h20.242c1.899,0,3.44-1.542,3.44-3.439C39.856,65.499,38.315,63.958,36.416,63.958z"/>
		<path d="M39.303,24.108c-0.28-0.222-0.615-0.336-0.995-0.336c-0.38,0-0.715,0.113-0.993,0.335c-0.276,0.222-0.451,0.52-0.52,0.891
			h3.029C39.756,24.63,39.581,24.33,39.303,24.108z M37.033,26.567c-0.393-0.365-0.591-0.829-0.591-1.379
			c0-0.505,0.189-0.931,0.559-1.268c0.362-0.33,0.8-0.497,1.308-0.497c0.591,0,0.997,0.162,1.355,0.54
			c0.329,0.348,0.479,0.788,0.479,1.052c0,0.191-0.131,0.329-0.311,0.329h-3.04c0.059,0.431,0.24,0.778,0.539,1.033
			c0.3,0.255,0.675,0.386,1.113,0.386c0.584,0,0.77-0.105,1.15-0.402c0.051-0.04,0.094-0.062,0.133-0.062
			c0.109,0,0.166,0.058,0.166,0.173c0,0.043-0.022,0.089-0.065,0.134c-0.164,0.169-0.275,0.231-0.508,0.342
			c-0.247,0.116-0.625,0.158-0.875,0.158C37.891,27.108,37.417,26.926,37.033,26.567z"/>
		<path d="M29.96,23.659c0.229-0.154,0.524-0.234,0.875-0.234c0.294,0,0.609,0.053,0.935,0.154c0.447,0.14,0.664,0.27,0.664,0.396
			c0,0.115-0.054,0.173-0.162,0.173c-0.031,0-0.075-0.018-0.135-0.053c-0.155-0.094-0.373-0.173-0.644-0.236
			c-0.253-0.06-0.482-0.091-0.682-0.091c-0.246,0-0.449,0.051-0.607,0.149c-0.195,0.118-0.293,0.293-0.293,0.521v2.35
			c0,0.004-0.017,0.202-0.176,0.202c-0.16,0-0.169-0.2-0.169-0.202v-2.35C29.565,24.101,29.698,23.839,29.96,23.659z"/>
		<path d="M23.429,24.59c0.226-0.102,0.396-0.242,0.505-0.417c0.097-0.157,0.146-0.317,0.146-0.479c0-0.295-0.125-0.542-0.376-0.739
			c-0.229-0.18-0.5-0.271-0.802-0.271h-1.175v2.05h1.054C23.001,24.736,23.22,24.687,23.429,24.59z M23.94,22.702
			c0.322,0.256,0.484,0.589,0.484,0.993c0,0.417-0.162,0.748-0.48,0.984c-0.196,0.147-0.404,0.257-0.613,0.326
			c-0.152,0.051-0.345,0.075-0.571,0.075h-1.034v1.701c0,0.004,0.004,0.099-0.053,0.159c-0.029,0.029-0.067,0.043-0.114,0.043
			c-0.173,0-0.177-0.2-0.177-0.202v-4.1c0-0.209,0.127-0.338,0.333-0.338h1.155C23.284,22.342,23.644,22.463,23.94,22.702z"/>
		<path d="M99.741,32.025c-1.379,0-97.931,0-99.573,0C0.049,32.025,0,31.978,0,31.858c0-0.119,0.049-0.167,0.167-0.167
			c1.643,0,98.194,0,99.573,0c0.118,0,0.167,0.049,0.167,0.167C99.908,31.978,99.859,32.025,99.741,32.025z"/>
		<path d="M8.69,24.106c-0.277,0.222-0.451,0.52-0.521,0.891h3.029c-0.067-0.367-0.242-0.667-0.52-0.89
			c-0.282-0.222-0.617-0.336-0.995-0.336C9.303,23.771,8.969,23.884,8.69,24.106z M8.406,26.567
			c-0.391-0.365-0.589-0.829-0.589-1.379c0-0.505,0.188-0.931,0.559-1.268c0.36-0.33,0.8-0.497,1.308-0.497
			c0.591,0,0.997,0.162,1.354,0.54c0.329,0.348,0.48,0.788,0.48,1.052c0,0.191-0.131,0.329-0.313,0.329h-3.04
			c0.06,0.431,0.24,0.778,0.539,1.033c0.302,0.255,0.677,0.386,1.115,0.386c0.583,0,0.769-0.105,1.147-0.402
			c0.051-0.04,0.097-0.062,0.135-0.062c0.109,0,0.164,0.058,0.164,0.173c0,0.043-0.021,0.089-0.063,0.134
			c-0.166,0.169-0.276,0.231-0.507,0.342c-0.248,0.116-0.626,0.158-0.875,0.158C9.265,27.108,8.791,26.926,8.406,26.567z"/>
		<path d="M3.615,24.791v-0.262c0-0.193-0.033-0.553-0.1-0.717c-0.093-0.233-0.229-0.457-0.402-0.666
			c-0.249-0.306-0.589-0.46-1.01-0.46c0,0-1.412,0-1.746,0c0,1.315,0,2.632,0,3.948c0.334,0,1.746,0,1.746,0
			c0.273,0,0.539-0.093,0.786-0.275c0.236-0.171,0.418-0.389,0.544-0.651C3.551,25.463,3.615,25.052,3.615,24.791z M3.958,24.599
			v0.12c0,0.839-0.366,1.584-0.979,1.996c-0.258,0.175-0.564,0.262-0.91,0.262H0.284c-0.149,0-0.226-0.058-0.226-0.171v-4.293
			v-0.005c0.001-0.109,0.078-0.166,0.226-0.166H2.07c0.548,0,0.984,0.193,1.297,0.571c0.186,0.224,0.338,0.507,0.444,0.82
			C3.908,24.022,3.958,24.323,3.958,24.599z"/>
	</g>
	<g>
		
			<line fill="none" stroke="#000000" stroke-width="0.25" stroke-miterlimit="10" x1="56.683" y1="77.658" x2="76.932" y2="77.658"/>
		<line fill="none" stroke="#000000" stroke-width="0.25" stroke-miterlimit="10" x1="56.683" y1="70.84" x2="76.932" y2="70.84"/>
		
			<line fill="none" stroke="#000000" stroke-width="0.25" stroke-miterlimit="10" x1="56.683" y1="63.958" x2="76.932" y2="63.958"/>
		
			<line fill="none" stroke="#000000" stroke-width="0.25" stroke-miterlimit="10" x1="56.683" y1="43.797" x2="83.781" y2="43.797"/>
		
			<line fill="none" stroke="#000000" stroke-width="0.25" stroke-miterlimit="10" x1="60.092" y1="50.613" x2="83.781" y2="50.613"/>
		<path fill="none" stroke="#000000" stroke-width="0.25" stroke-miterlimit="10" d="M56.683,70.84
			c-1.883,0-3.409,1.526-3.409,3.409s1.526,3.409,3.409,3.409"/>
		<path fill="none" stroke="#000000" stroke-width="0.25" stroke-miterlimit="10" d="M76.932,63.958
			c1.899,0,3.439,1.541,3.439,3.442c0,1.897-1.54,3.439-3.439,3.439"/>
		<path fill="none" stroke="#000000" stroke-width="0.25" stroke-miterlimit="10" d="M76.932,57.141
			c5.665,0,10.258,4.593,10.258,10.26c0,5.665-4.593,10.258-10.258,10.258"/>
		<path fill="none" stroke="#000000" stroke-width="0.25" stroke-miterlimit="10" d="M83.781,43.797
			c1.883,0,3.409,1.526,3.409,3.409s-1.526,3.407-3.409,3.407"/>
		
			<line fill="none" stroke="#000000" stroke-width="0.25" stroke-miterlimit="10" x1="60.092" y1="57.141" x2="76.932" y2="57.141"/>
		<path fill="none" stroke="#000000" stroke-width="0.25" stroke-miterlimit="10" d="M53.274,60.55c0,1.883,1.526,3.408,3.409,3.408
			"/>
		<line fill="none" stroke="#000000" stroke-width="0.25" stroke-miterlimit="10" x1="53.274" y1="47.206" x2="53.274" y2="60.55"/>
		<path fill="none" stroke="#000000" stroke-width="0.25" stroke-miterlimit="10" d="M56.683,43.797
			c-1.883,0-3.409,1.526-3.409,3.409"/>
		
			<line fill="none" stroke="#000000" stroke-width="0.25" stroke-miterlimit="10" x1="60.092" y1="50.613" x2="60.092" y2="57.141"/>
		
			<line fill="none" stroke="#000000" stroke-width="0.25" stroke-miterlimit="10" x1="24.904" y1="57.141" x2="36.594" y2="57.141"/>
		
			<line fill="none" stroke="#000000" stroke-width="0.25" stroke-miterlimit="10" x1="16.174" y1="77.658" x2="36.416" y2="77.658"/>
		<line fill="none" stroke="#000000" stroke-width="0.25" stroke-miterlimit="10" x1="16.174" y1="70.84" x2="36.416" y2="70.84"/>
		<polyline fill="none" stroke="#000000" stroke-width="0.25" stroke-miterlimit="10" points="24.904,63.958 36.416,63.958 
			36.594,63.958 		"/>
		<path fill="none" stroke="#000000" stroke-width="0.25" stroke-miterlimit="10" d="M36.594,43.797
			c8.717,0,13.325,10.316,7.508,16.807"/>
		<path fill="none" stroke="#000000" stroke-width="0.25" stroke-miterlimit="10" d="M36.416,63.958c1.899,0,3.44,1.541,3.44,3.442
			c0,1.897-1.541,3.439-3.44,3.439"/>
		<path fill="none" stroke="#000000" stroke-width="0.25" stroke-miterlimit="10" d="M44.102,60.604
			c5.854,6.624,1.153,17.055-7.686,17.055"/>
		<path fill="none" stroke="#000000" stroke-width="0.25" stroke-miterlimit="10" d="M24.904,63.958
			c-1.883,0-3.409-1.525-3.409-3.408s1.526-3.409,3.409-3.409"/>
		<path fill="none" stroke="#000000" stroke-width="0.25" stroke-miterlimit="10" d="M16.174,77.658
			c-1.883,0-3.409-1.526-3.409-3.409s1.526-3.409,3.409-3.409"/>
		
			<line fill="none" stroke="#000000" stroke-width="0.25" stroke-miterlimit="10" x1="16.174" y1="43.797" x2="36.594" y2="43.797"/>
		
			<line fill="none" stroke="#000000" stroke-width="0.25" stroke-miterlimit="10" x1="16.174" y1="50.613" x2="36.594" y2="50.613"/>
		<path fill="none" stroke="#000000" stroke-width="0.25" stroke-miterlimit="10" d="M36.594,50.613
			c1.801,0,3.262,1.463,3.262,3.264s-1.461,3.264-3.262,3.264"/>
		<path fill="none" stroke="#000000" stroke-width="0.25" stroke-miterlimit="10" d="M16.174,50.613
			c-1.883,0-3.409-1.524-3.409-3.407s1.526-3.409,3.409-3.409"/>
		<circle fill="none" stroke="#000000" stroke-width="0.25" stroke-miterlimit="10" cx="96.637" cy="47.205" r="3.408"/>
		<path fill="none" stroke="#000000" stroke-width="0.25" stroke-miterlimit="10" d="M76.159,26.982
			c-0.049,0-0.091-0.015-0.118-0.045c-0.057-0.058-0.055-0.151-0.055-0.155v-4.059c-0.207,0.004-0.555,0.171-0.958,0.366
			c-0.044,0.022-0.088,0.044-0.133,0.065l-0.04,0.015c-0.153,0.06-0.263,0.104-0.384,0.105c-0.122-0.002-0.233-0.045-0.386-0.105
			l-0.039-0.015c-0.045-0.021-0.091-0.043-0.134-0.065c-0.402-0.195-0.75-0.362-0.957-0.366v4.059c0,0.004,0.002,0.097-0.055,0.155
			c-0.031,0.031-0.069,0.045-0.118,0.045s-0.089-0.015-0.118-0.045c-0.057-0.058-0.053-0.151-0.053-0.155V22.68
			c0-0.093,0.034-0.178,0.098-0.242c0.064-0.062,0.147-0.096,0.238-0.096c0.237,0,0.388,0.063,0.522,0.12l0.027,0.011
			c0.069,0.027,0.152,0.069,0.242,0.115c0.224,0.111,0.504,0.251,0.731,0.254c0.227-0.003,0.505-0.144,0.73-0.254
			c0.09-0.045,0.173-0.087,0.242-0.115l0.025-0.011c0.135-0.057,0.288-0.12,0.524-0.12c0.186,0,0.336,0.151,0.336,0.338v4.102
			c0,0.004,0.002,0.097-0.055,0.155C76.247,26.968,76.207,26.982,76.159,26.982z"/>
		<path fill="none" stroke="#000000" stroke-width="0.25" stroke-miterlimit="10" d="M98.025,27.108
			c-0.511,0-0.955-0.18-1.316-0.533c-0.362-0.354-0.546-0.793-0.546-1.306c0-0.513,0.184-0.953,0.546-1.31
			c0.361-0.355,0.806-0.535,1.316-0.535c0.514,0,0.957,0.18,1.317,0.535c0.36,0.356,0.544,0.797,0.544,1.31
			c0,0.51-0.184,0.948-0.544,1.305C98.982,26.928,98.539,27.108,98.025,27.108z"/>
		<path fill="none" stroke="#000000" stroke-width="0.25" stroke-miterlimit="10" d="M98.021,23.771
			c-0.416,0-0.778,0.147-1.071,0.437c-0.295,0.288-0.443,0.644-0.443,1.061c0,0.415,0.15,0.771,0.445,1.061
			c0.295,0.288,0.655,0.435,1.069,0.435c0.419,0,0.779-0.147,1.074-0.435c0.292-0.289,0.441-0.646,0.441-1.061
			c0-0.418-0.149-0.776-0.441-1.064C98.8,23.917,98.44,23.771,98.021,23.771z"/>
		<path fill="none" stroke="#000000" stroke-width="0.25" stroke-miterlimit="10" d="M29.734,26.99c-0.16,0-0.169-0.2-0.169-0.202
			v-2.35c0-0.336,0.133-0.599,0.395-0.779c0.229-0.154,0.524-0.234,0.875-0.234c0.294,0,0.609,0.053,0.935,0.154
			c0.447,0.14,0.664,0.27,0.664,0.396c0,0.115-0.054,0.173-0.162,0.173c-0.031,0-0.075-0.018-0.135-0.053
			c-0.155-0.094-0.373-0.173-0.644-0.236c-0.253-0.06-0.482-0.091-0.682-0.091c-0.246,0-0.449,0.051-0.607,0.149
			c-0.195,0.118-0.293,0.293-0.293,0.521v2.35C29.911,26.792,29.894,26.99,29.734,26.99z"/>
		<path fill="none" stroke="#000000" stroke-width="0.25" stroke-miterlimit="10" d="M90.416,27.108
			c-0.351,0-0.647-0.08-0.877-0.235c-0.264-0.18-0.396-0.442-0.396-0.778v-3.053c0-0.244,0.102-0.342,0.353-0.342h1.285
			c0.15,0,0.227,0.06,0.227,0.176c0,0.113-0.076,0.171-0.227,0.171h-1.29v3.047c0,0.228,0.098,0.402,0.293,0.52
			c0.16,0.099,0.363,0.149,0.609,0.149c0.202,0,0.433-0.031,0.688-0.091c0.271-0.064,0.489-0.142,0.646-0.237
			c0.061-0.035,0.104-0.053,0.133-0.053c0.109,0,0.166,0.058,0.166,0.173c0,0.127-0.221,0.256-0.67,0.396
			C91.029,27.055,90.714,27.108,90.416,27.108z"/>
		<path fill="none" stroke="#000000" stroke-width="0.25" stroke-miterlimit="10" d="M54.125,27.108
			c-0.354,0-0.647-0.08-0.877-0.235c-0.264-0.18-0.396-0.442-0.396-0.778v-3.053c0-0.244,0.102-0.342,0.353-0.342h1.284
			c0.151,0,0.228,0.06,0.228,0.176c0,0.113-0.076,0.171-0.228,0.171H53.2v3.047c0,0.228,0.098,0.402,0.293,0.52
			c0.16,0.099,0.363,0.149,0.609,0.149c0.201,0,0.433-0.031,0.688-0.091c0.271-0.064,0.489-0.142,0.646-0.237
			c0.059-0.035,0.102-0.053,0.133-0.053c0.109,0,0.164,0.058,0.164,0.173c0,0.127-0.219,0.256-0.668,0.396
			C54.739,27.055,54.422,27.108,54.125,27.108z"/>
		<path fill="none" stroke="#000000" stroke-width="0.25" stroke-miterlimit="10" d="M46.267,27.108
			c-0.351,0-0.647-0.08-0.875-0.235c-0.266-0.18-0.398-0.442-0.398-0.778v-3.053c0-0.244,0.102-0.342,0.353-0.342h1.284
			c0.151,0,0.228,0.06,0.228,0.176c0,0.113-0.077,0.171-0.228,0.171h-1.29v3.047c0,0.228,0.098,0.402,0.293,0.52
			c0.16,0.099,0.365,0.149,0.609,0.149c0.202,0,0.433-0.031,0.688-0.091c0.271-0.064,0.489-0.142,0.646-0.237
			c0.06-0.035,0.104-0.053,0.132-0.053c0.109,0,0.166,0.058,0.166,0.173c0,0.127-0.22,0.256-0.67,0.396
			C46.88,27.055,46.565,27.108,46.267,27.108z"/>
		<path fill="none" stroke="#000000" stroke-width="0.25" stroke-miterlimit="10" d="M82.309,27.108
			c-0.513,0-0.956-0.18-1.318-0.533c-0.362-0.354-0.546-0.793-0.546-1.306c0-0.513,0.184-0.953,0.546-1.31
			c0.362-0.355,0.806-0.535,1.318-0.535c0.514,0,0.955,0.18,1.315,0.535c0.36,0.356,0.544,0.797,0.544,1.31
			c0,0.51-0.184,0.948-0.544,1.305C83.264,26.928,82.823,27.108,82.309,27.108z"/>
		<path fill="none" stroke="#000000" stroke-width="0.25" stroke-miterlimit="10" d="M82.306,23.771
			c-0.419,0-0.779,0.147-1.073,0.437c-0.295,0.288-0.442,0.644-0.442,1.061c0,0.415,0.149,0.771,0.443,1.061
			c0.295,0.288,0.655,0.435,1.072,0.435c0.416,0,0.778-0.147,1.071-0.435c0.295-0.289,0.443-0.646,0.443-1.061
			c0-0.418-0.148-0.776-0.443-1.064C83.084,23.917,82.722,23.771,82.306,23.771z"/>
		<path fill="none" stroke="#000000" stroke-width="0.25" stroke-miterlimit="10" d="M61.735,27.108
			c-0.513,0-0.957-0.18-1.317-0.533c-0.361-0.354-0.546-0.793-0.546-1.306c0-0.513,0.185-0.953,0.546-1.31
			c0.36-0.355,0.805-0.535,1.317-0.535s0.957,0.18,1.317,0.535c0.36,0.356,0.542,0.797,0.542,1.31c0,0.51-0.182,0.948-0.542,1.305
			C62.692,26.928,62.248,27.108,61.735,27.108z"/>
		<path fill="none" stroke="#000000" stroke-width="0.25" stroke-miterlimit="10" d="M61.731,23.771
			c-0.418,0-0.778,0.147-1.071,0.437c-0.295,0.288-0.443,0.644-0.443,1.061c0,0.415,0.148,0.771,0.445,1.061
			c0.295,0.288,0.655,0.435,1.069,0.435c0.419,0,0.779-0.147,1.073-0.435c0.293-0.289,0.442-0.646,0.442-1.061
			c0-0.418-0.149-0.776-0.442-1.064C62.51,23.917,62.15,23.771,61.731,23.771z"/>
		<path fill="none" stroke="#000000" stroke-width="0.25" stroke-miterlimit="10" d="M21.559,26.982c-0.173,0-0.177-0.2-0.177-0.202
			v-4.1c0-0.209,0.127-0.338,0.333-0.338h1.155c0.413,0,0.773,0.122,1.07,0.36c0.322,0.256,0.484,0.589,0.484,0.993
			c0,0.417-0.162,0.748-0.48,0.984c-0.196,0.147-0.404,0.257-0.613,0.326c-0.152,0.051-0.345,0.075-0.571,0.075h-1.034v1.701
			c0,0.004,0.004,0.099-0.053,0.159C21.645,26.968,21.606,26.982,21.559,26.982z"/>
		<path fill="none" stroke="#000000" stroke-width="0.25" stroke-miterlimit="10" d="M21.726,24.736h1.054
			c0.222,0,0.44-0.049,0.649-0.146c0.226-0.102,0.396-0.242,0.505-0.417c0.097-0.157,0.146-0.317,0.146-0.479
			c0-0.295-0.125-0.542-0.376-0.739c-0.229-0.18-0.5-0.271-0.802-0.271h-1.175V24.736z"/>
		<path fill="none" stroke="#000000" stroke-width="0.25" stroke-miterlimit="10" d="M9.818,27.108
			c-0.553,0-1.028-0.182-1.412-0.541c-0.391-0.365-0.589-0.829-0.589-1.379c0-0.505,0.188-0.931,0.559-1.268
			c0.36-0.33,0.8-0.497,1.308-0.497c0.591,0,0.997,0.162,1.354,0.54c0.329,0.348,0.48,0.788,0.48,1.052
			c0,0.191-0.131,0.329-0.313,0.329h-3.04c0.06,0.431,0.24,0.778,0.539,1.033c0.302,0.255,0.677,0.386,1.115,0.386
			c0.583,0,0.769-0.105,1.147-0.402c0.051-0.04,0.097-0.062,0.135-0.062c0.109,0,0.164,0.058,0.164,0.173
			c0,0.043-0.021,0.089-0.063,0.134c-0.166,0.169-0.276,0.231-0.507,0.342C10.446,27.066,10.067,27.108,9.818,27.108z"/>
		<path fill="none" stroke="#000000" stroke-width="0.25" stroke-miterlimit="10" d="M8.17,24.998h3.029
			c-0.067-0.367-0.242-0.667-0.52-0.89c-0.282-0.222-0.617-0.336-0.995-0.336c-0.38,0-0.715,0.113-0.993,0.335
			C8.414,24.328,8.239,24.626,8.17,24.998z"/>
		<path fill="none" stroke="#000000" stroke-width="0.25" stroke-miterlimit="10" d="M38.442,27.108
			c-0.551,0-1.026-0.182-1.41-0.541c-0.393-0.365-0.591-0.829-0.591-1.379c0-0.505,0.189-0.931,0.559-1.268
			c0.362-0.33,0.8-0.497,1.308-0.497c0.591,0,0.997,0.162,1.355,0.54c0.329,0.348,0.479,0.788,0.479,1.052
			c0,0.191-0.131,0.329-0.311,0.329h-3.04c0.059,0.431,0.24,0.778,0.539,1.033c0.3,0.255,0.675,0.386,1.113,0.386
			c0.584,0,0.77-0.105,1.15-0.402c0.051-0.04,0.094-0.062,0.133-0.062c0.109,0,0.166,0.058,0.166,0.173
			c0,0.043-0.022,0.089-0.065,0.134c-0.164,0.169-0.275,0.231-0.508,0.342C39.07,27.066,38.692,27.108,38.442,27.108z"/>
		<path fill="none" stroke="#000000" stroke-width="0.25" stroke-miterlimit="10" d="M36.794,24.998h3.029
			c-0.067-0.367-0.242-0.667-0.521-0.89c-0.28-0.222-0.615-0.336-0.995-0.336c-0.38,0-0.715,0.113-0.993,0.335
			C37.038,24.328,36.863,24.626,36.794,24.998z"/>
		<path fill="none" stroke="#000000" stroke-width="0.25" stroke-miterlimit="10" d="M0.357,22.686c0,1.315,0,2.632,0,3.948
			c0.334,0,1.746,0,1.746,0c0.273,0,0.539-0.093,0.786-0.275c0.236-0.171,0.418-0.389,0.544-0.651
			c0.118-0.244,0.182-0.655,0.182-0.917v-0.262c0-0.193-0.033-0.553-0.1-0.717c-0.093-0.233-0.229-0.457-0.402-0.666
			c-0.249-0.306-0.589-0.46-1.01-0.46C2.103,22.686,0.691,22.686,0.357,22.686z"/>
		<path fill="none" stroke="#000000" stroke-width="0.25" stroke-miterlimit="10" d="M0.059,22.507
			c0.001-0.109,0.078-0.166,0.226-0.166H2.07c0.548,0,0.984,0.193,1.297,0.571c0.186,0.224,0.338,0.507,0.444,0.82
			c0.096,0.289,0.147,0.589,0.147,0.866v0.12c0,0.839-0.366,1.584-0.979,1.996c-0.258,0.175-0.564,0.262-0.91,0.262H0.284
			c-0.149,0-0.226-0.058-0.226-0.171"/>
		<polyline fill="none" stroke="#000000" stroke-width="0.25" stroke-miterlimit="10" points="0.059,26.806 0.059,22.513 
			0.059,22.507 		"/>
		<path fill="none" stroke="#000000" stroke-width="0.25" stroke-miterlimit="10" d="M99.741,32.025c-1.379,0-97.931,0-99.573,0
			C0.049,32.025,0,31.978,0,31.858c0-0.119,0.049-0.167,0.167-0.167c1.643,0,98.194,0,99.573,0c0.118,0,0.167,0.049,0.167,0.167
			C99.908,31.978,99.859,32.025,99.741,32.025z"/>
	</g>
</g>
</svg>
