<?xml version="1.0" encoding="utf-8"?>
<!-- Generator: Adobe Illustrator 15.0.0, SVG Export Plug-In . SVG Version: 6.00 Build 0)  -->
<!DOCTYPE svg PUBLIC "-//W3C//DTD SVG 1.0//EN" "http://www.w3.org/TR/2001/REC-SVG-20010904/DTD/svg10.dtd">
<svg version="1.0" id="Layer_1" xmlns="http://www.w3.org/2000/svg" xmlns:xlink="http://www.w3.org/1999/xlink" x="0px" y="0px"
	 width="100px" height="100px" viewBox="0 0 100 100" enable-background="new 0 0 100 100" xml:space="preserve">
<circle cx="49.989" cy="49.988" r="49.989"/>
<line fill="none" stroke="#FFFFFF" stroke-width="0.1867" x1="24.562" y1="53.232" x2="75.521" y2="53.232"/>
<g>
	<path fill="#FFFFFF" d="M4.443,57.321c0-0.618,0.382-0.828,1.025-0.828c0.198,0,0.369,0.031,0.554,0.051v0.497
		C5.9,57.033,5.78,57.027,5.666,57.027c-0.415,0-0.586,0.052-0.586,0.325v0.465h0.942v0.496H5.08v2.841H4.443v-2.841H3.762v-0.496
		h0.681V57.321z"/>
	<path fill="#FFFFFF" d="M10.495,58.861c0.083-0.834,0.656-1.159,1.655-1.159c0.682,0,1.535,0.173,1.535,0.949v1.796
		c0,0.197,0.089,0.286,0.287,0.286c0.07,0,0.159-0.013,0.223-0.024v0.445c-0.153,0.025-0.343,0.038-0.496,0.038
		c-0.319,0-0.529-0.09-0.573-0.465c-0.255,0.343-0.879,0.541-1.42,0.541c-1.108,0-1.356-0.573-1.356-1.007
		c0-0.61,0.363-0.923,1.432-1.037l0.726-0.077c0.356-0.037,0.58-0.101,0.58-0.4c0-0.459-0.446-0.548-0.961-0.548
		c-0.548,0-1.013,0.146-1.032,0.662H10.495z M13.086,59.409c-0.096,0.108-0.268,0.153-0.624,0.197l-0.72,0.089
		c-0.497,0.063-0.758,0.198-0.758,0.549c0,0.311,0.313,0.527,0.777,0.527c0.719,0,1.324-0.382,1.324-0.936V59.409z"/>
	<path fill="#FFFFFF" d="M19.207,60.103c0,0.3,0.242,0.669,1.051,0.669c0.821,0,1.019-0.286,1.019-0.521s-0.121-0.376-0.63-0.446
		l-1.051-0.141c-0.478-0.063-0.904-0.368-0.904-0.884c0-0.675,0.586-1.077,1.521-1.077c1.095,0,1.573,0.472,1.63,1.121h-0.636
		c-0.019-0.337-0.337-0.624-1-0.624c-0.407,0-0.878,0.114-0.878,0.51c0,0.223,0.102,0.351,0.553,0.413l0.904,0.122
		c0.841,0.114,1.166,0.413,1.166,0.884c0,0.777-0.655,1.141-1.674,1.141c-0.764,0-1.637-0.198-1.706-1.166H19.207z"/>
	<path fill="#FFFFFF" d="M26.671,56.569h0.637v1.751h0.013c0.299-0.464,0.828-0.618,1.305-0.618c0.803,0,1.401,0.345,1.401,1.178
		v2.274H29.39v-2.146c0-0.49-0.306-0.771-0.987-0.771c-0.58,0-1.095,0.338-1.095,0.994v1.923h-0.637V56.569z"/>
	<path fill="#FFFFFF" d="M34.938,56.569h0.636v0.7h-0.636V56.569z M34.938,57.817h0.636v3.337h-0.636V57.817z"/>
	<path fill="#FFFFFF" d="M42.276,57.702c1.299,0,1.935,0.822,1.935,1.784c0,0.961-0.636,1.782-1.935,1.782
		c-1.299,0-1.936-0.821-1.936-1.782C40.34,58.524,40.977,57.702,42.276,57.702z M42.276,58.237c-0.923,0-1.261,0.643-1.261,1.249
		c0,0.604,0.338,1.247,1.261,1.247c0.923,0,1.261-0.644,1.261-1.247C43.537,58.88,43.199,58.237,42.276,58.237z"/>
	<path fill="#FFFFFF" d="M48.976,57.817h0.637v0.503h0.012c0.299-0.464,0.829-0.618,1.306-0.618c0.802,0,1.399,0.345,1.399,1.178
		v2.274h-0.636v-2.146c0-0.49-0.306-0.771-0.988-0.771c-0.578,0-1.094,0.338-1.094,0.994v1.923h-0.637V57.817z"/>
	<path fill="#FFFFFF" d="M59.032,57.702c1.3,0,1.936,0.822,1.936,1.784c0,0.961-0.636,1.782-1.936,1.782s-1.936-0.821-1.936-1.782
		C57.096,58.524,57.732,57.702,59.032,57.702z M59.032,58.237c-0.923,0-1.26,0.643-1.26,1.249c0,0.604,0.337,1.247,1.26,1.247
		c0.922,0,1.262-0.644,1.262-1.247C60.293,58.88,59.954,58.237,59.032,58.237z"/>
	<path fill="#FFFFFF" d="M69.086,61.154h-0.636v-0.503h-0.013c-0.299,0.465-0.828,0.617-1.305,0.617
		c-0.803,0-1.401-0.344-1.401-1.179v-2.272h0.637v2.146c0,0.491,0.305,0.771,0.987,0.771c0.578,0,1.095-0.337,1.095-0.993v-1.923
		h0.636V61.154z"/>
	<path fill="#FFFFFF" d="M74.28,56.792h0.636v1.025h0.955v0.496h-0.955v2.057c0,0.268,0.19,0.363,0.516,0.363
		c0.146,0,0.293-0.019,0.439-0.044v0.534c-0.216,0.038-0.451,0.045-0.712,0.045c-0.625,0-0.879-0.306-0.879-0.79v-2.165h-0.688
		v-0.496h0.688V56.792z"/>
	<path fill="#FFFFFF" d="M80.489,56.569h0.637v4.585h-0.637V56.569z"/>
	<path fill="#FFFFFF" d="M86.568,59.677c0.051,0.688,0.661,1.057,1.229,1.057c0.362,0,0.859-0.12,1.076-0.592h0.675
		c-0.319,0.802-1.064,1.127-1.719,1.127c-1.3,0-1.938-0.821-1.938-1.782c0-0.962,0.638-1.784,1.938-1.784
		c0.877,0,1.807,0.51,1.807,1.892v0.083H86.568z M88.96,59.18c-0.095-0.604-0.566-0.942-1.164-0.942
		c-0.586,0-1.113,0.345-1.21,0.942H88.96z"/>
	<path fill="#FFFFFF" d="M94.699,56.792h0.638v1.025h0.955v0.496h-0.955v2.057c0,0.268,0.192,0.363,0.516,0.363
		c0.146,0,0.293-0.019,0.439-0.044v0.534c-0.217,0.038-0.452,0.045-0.713,0.045c-0.624,0-0.88-0.306-0.88-0.79v-2.165h-0.687v-0.496
		h0.687V56.792z"/>
</g>
<path fill="#ED1C24" d="M55.372,45.888c-0.381,0.868-0.873,1.413-1.479,1.632c-0.416,0.152-0.842,0.178-1.277,0.078
	c-0.435-0.1-0.81-0.306-1.126-0.618c-0.648,1.179-1.47,1.95-2.46,2.311c-0.813,0.296-1.603,0.303-2.368,0.019
	c-0.823-0.285-1.378-0.823-1.667-1.617c-0.438-1.199,0.017-2.651,1.363-4.353c-1.077-0.395-1.708-0.929-1.896-1.601
	c-0.166-0.58-0.068-1.144,0.294-1.69c0.343-0.507,0.817-0.871,1.422-1.09c0.644-0.235,1.224-0.277,1.739-0.128
	c0.579,0.171,0.982,0.568,1.209,1.194c0.16,0.437,0.12,0.883-0.118,1.339c-0.084,0.143-0.358,0.513-0.827,1.11
	c0.455,0.171,1.092,0.545,1.908,1.125c0.816,0.579,1.378,1.054,1.682,1.426c0.289-1.273,0.33-2.193,0.125-2.758
	c-0.083-0.229-0.273-0.361-0.567-0.4c-0.244-0.024-0.491,0.021-0.742,0.135l-0.14-0.387l2.983-1.103l0.15,0.417
	c-0.543,0.232-0.911,0.9-1.105,2.003c-0.102,0.834-0.202,1.668-0.302,2.503c0.322,0.241,0.649,0.487,0.976,0.739
	c0.425,0.271,0.796,0.351,1.113,0.235c0.348-0.126,0.572-0.372,0.677-0.734L55.372,45.888z M48.241,40.414
	c-0.141-0.387-0.391-0.68-0.75-0.881c-0.359-0.2-0.729-0.232-1.104-0.095c-0.277,0.101-0.499,0.311-0.664,0.629
	c-0.165,0.319-0.197,0.617-0.096,0.894c0.173,0.477,0.82,0.914,1.944,1.314c0.199-0.286,0.392-0.58,0.58-0.885
	C48.337,41.086,48.368,40.761,48.241,40.414z M51.105,46.665c-0.38-0.491-1.01-1.064-1.889-1.721
	c-0.859-0.631-1.586-1.073-2.184-1.327c-0.755,1.195-1.002,2.15-0.743,2.865c0.242,0.665,0.658,1.175,1.249,1.532
	c0.632,0.378,1.27,0.448,1.914,0.213C50.115,47.985,50.667,47.465,51.105,46.665z"/>
<g>
	<path fill="#FFFFFF" d="M12.481,40.964h-0.438c-0.236-0.763-0.449-1.234-0.641-1.415c-0.246-0.225-0.757-0.337-1.531-0.337
		l-2.527-0.017c-0.449,0-0.673,0.134-0.673,0.404v3.907l2.409,0.017c0.617,0,1.055-0.112,1.313-0.337
		c0.258-0.224,0.438-0.651,0.539-1.28h0.422v3.907h-0.422c-0.067-0.574-0.191-0.966-0.37-1.179
		c-0.225-0.258-0.613-0.394-1.162-0.404l-2.729-0.05l-0.017,3.788c0,0.54,0.129,0.91,0.387,1.111
		c0.202,0.169,0.584,0.265,1.145,0.288v0.336H3.455v-0.336c0.517-0.012,0.881-0.09,1.095-0.236c0.258-0.18,0.387-0.528,0.387-1.044
		v-7.864c0-0.528-0.118-0.881-0.353-1.062c-0.18-0.134-0.557-0.23-1.129-0.286v-0.32h8.959L12.481,40.964z"/>
	<path fill="#FFFFFF" d="M22.585,46.841l-0.775,2.863H12.7v-0.336c0.527-0.012,0.906-0.11,1.136-0.295
		c0.23-0.185,0.346-0.531,0.346-1.036v-7.813c0-0.55-0.124-0.904-0.37-1.062c-0.125-0.089-0.495-0.185-1.112-0.286v-0.32h9.009
		l0.067,2.391l-0.488,0.018c-0.057-0.259-0.18-0.629-0.37-1.111c-0.225-0.359-0.87-0.584-1.937-0.674
		c-0.258-0.022-0.999-0.033-2.223-0.033c-0.561,0-0.841,0.192-0.841,0.572v3.824h2.93c0.516,0,0.887-0.152,1.111-0.455
		c0.169-0.225,0.292-0.617,0.371-1.179h0.404v3.907h-0.404c-0.045-0.584-0.186-1.008-0.421-1.271
		c-0.236-0.264-0.635-0.396-1.196-0.396h-2.795v4.411c0,0.361,0.538,0.541,1.616,0.541c1.336,0,2.245-0.096,2.728-0.287
		c0.74-0.281,1.347-0.938,1.818-1.971H22.585z"/>
	<path fill="#FFFFFF" d="M33.195,46.841l-0.775,2.863h-9.11v-0.336c0.527-0.012,0.906-0.11,1.136-0.295
		c0.231-0.185,0.346-0.531,0.346-1.036v-7.813c0-0.55-0.124-0.904-0.371-1.062c-0.124-0.089-0.494-0.185-1.111-0.286v-0.32h9.009
		l0.067,2.391l-0.488,0.018c-0.056-0.259-0.18-0.629-0.37-1.111c-0.225-0.359-0.87-0.584-1.937-0.674
		c-0.259-0.022-0.999-0.033-2.223-0.033c-0.561,0-0.841,0.192-0.841,0.572v3.824h2.93c0.516,0,0.887-0.152,1.111-0.455
		c0.169-0.225,0.292-0.617,0.371-1.179h0.404v3.907h-0.404c-0.045-0.584-0.186-1.008-0.421-1.271
		c-0.235-0.264-0.634-0.396-1.195-0.396h-2.795v4.411c0,0.361,0.538,0.541,1.616,0.541c1.336,0,2.245-0.096,2.728-0.287
		c0.74-0.281,1.347-0.938,1.818-1.971H33.195z"/>
	<path fill="#FFFFFF" d="M43.585,46.774l-0.809,2.93h-9.06v-0.336c0.528-0.012,0.903-0.108,1.128-0.288
		c0.225-0.179,0.337-0.522,0.337-1.026v-8c0-0.46-0.141-0.769-0.422-0.926c-0.167-0.112-0.516-0.197-1.043-0.253v-0.32h4.766v0.32
		c-0.573,0.067-0.943,0.152-1.111,0.253c-0.304,0.168-0.456,0.5-0.456,0.993v8.219c0,0.493,0.398,0.739,1.196,0.739
		c1.516,0,2.521-0.083,3.015-0.251c0.886-0.281,1.56-0.965,2.021-2.054H43.585z"/>
	<path fill="#FFFFFF" d="M66.436,47.8c-1.101,1.427-2.639,2.14-4.614,2.14c-1.684,0-3.039-0.527-4.066-1.583
		c-1.026-1.055-1.54-2.431-1.54-4.125c0-1.752,0.538-3.175,1.616-4.269c1.078-1.095,2.486-1.642,4.226-1.642
		c0.338,0,0.822,0.093,1.457,0.277c0.635,0.185,1.108,0.278,1.423,0.278c0.405,0,0.651-0.185,0.741-0.555h0.388l0.151,3.788h-0.421
		c-0.539-2.077-1.746-3.115-3.622-3.115c-1.334,0-2.362,0.533-3.08,1.599c-0.606,0.921-0.91,2.089-0.91,3.503
		c0,1.459,0.32,2.638,0.96,3.537c0.729,1.043,1.791,1.564,3.184,1.564c1.38,0,2.644-0.571,3.788-1.717L66.436,47.8z"/>
	<path fill="#FFFFFF" d="M78.393,49.704h-4.699v-0.336c0.551-0.012,0.935-0.101,1.154-0.269c0.219-0.169,0.328-0.541,0.328-1.111
		V44.4h-5.068v3.721c0,0.495,0.14,0.831,0.421,1.011c0.213,0.146,0.565,0.224,1.061,0.236v0.336h-4.698v-0.336
		c0.527,0,0.907-0.09,1.137-0.269s0.345-0.522,0.345-1.028v-7.965c0-0.483-0.135-0.808-0.403-0.977
		c-0.169-0.101-0.528-0.186-1.078-0.253v-0.32h4.698v0.32c-0.552,0.067-0.91,0.152-1.079,0.253
		c-0.268,0.168-0.402,0.493-0.402,0.977v3.537h5.068v-3.132c0-0.652-0.073-1.064-0.219-1.238c-0.146-0.174-0.566-0.306-1.264-0.396
		v-0.32h4.699v0.32c-0.606,0.079-0.994,0.186-1.163,0.32c-0.213,0.19-0.32,0.572-0.32,1.145v7.646c0,0.538,0.119,0.903,0.354,1.093
		c0.203,0.18,0.579,0.276,1.13,0.288V49.704z"/>
	<path fill="#FFFFFF" d="M84.657,49.704h-5.035v-0.336c0.584,0,0.981-0.063,1.195-0.186c0.304-0.169,0.455-0.522,0.455-1.061v-7.981
		c0-0.505-0.158-0.848-0.471-1.027c-0.214-0.124-0.607-0.203-1.18-0.236v-0.32h5.035v0.32c-0.583,0.034-0.977,0.107-1.179,0.219
		c-0.314,0.18-0.472,0.527-0.472,1.045v7.981c0,0.528,0.157,0.875,0.472,1.045c0.213,0.123,0.606,0.189,1.179,0.201V49.704z"/>
	<path fill="#FFFFFF" d="M95.72,47.8c-1.1,1.427-2.638,2.14-4.613,2.14c-1.684,0-3.041-0.527-4.067-1.583
		c-1.027-1.055-1.54-2.431-1.54-4.125c0-1.752,0.538-3.175,1.615-4.269c1.079-1.095,2.487-1.642,4.228-1.642
		c0.337,0,0.823,0.093,1.455,0.277c0.637,0.185,1.11,0.278,1.424,0.278c0.405,0,0.651-0.185,0.742-0.555h0.386l0.153,3.788h-0.421
		c-0.54-2.077-1.747-3.115-3.62-3.115c-1.337,0-2.365,0.533-3.084,1.599c-0.606,0.921-0.908,2.089-0.908,3.503
		c0,1.459,0.319,2.638,0.959,3.537c0.731,1.043,1.791,1.564,3.184,1.564c1.382,0,2.645-0.571,3.788-1.717L95.72,47.8z"/>
</g>
</svg>
