<?xml version="1.0" encoding="utf-8"?>
<!-- Generator: Adobe Illustrator 15.0.0, SVG Export Plug-In . SVG Version: 6.00 Build 0)  -->
<!DOCTYPE svg PUBLIC "-//W3C//DTD SVG 1.0//EN" "http://www.w3.org/TR/2001/REC-SVG-20010904/DTD/svg10.dtd">
<svg version="1.0" id="Layer_1" xmlns="http://www.w3.org/2000/svg" xmlns:xlink="http://www.w3.org/1999/xlink" x="0px" y="0px"
	 width="100px" height="100px" viewBox="0 0 100 100" enable-background="new 0 0 100 100" xml:space="preserve">
<g>
	<rect x="0" y="30.137" fill="#010101" width="100" height="2.74"/>
	<rect x="0" y="67.124" fill="#010101" width="100" height="2.739"/>
	<rect y="30.137" fill="#010101" width="2.741" height="39.726"/>
	<rect x="9.589" y="44.521" fill="#010101" width="2.74" height="10.959"/>
	<rect x="23.288" y="36.302" fill="#010101" width="2.74" height="27.397"/>
	<rect x="9.589" y="44.521" fill="#010101" width="10.959" height="2.74"/>
	<rect x="9.589" y="52.739" fill="#010101" width="13.699" height="2.74"/>
	<rect x="36.987" y="44.521" fill="#010101" width="2.739" height="10.96"/>
	<rect x="42.466" y="44.521" fill="#010101" width="2.74" height="10.958"/>
	<rect x="50.686" y="50" fill="#010101" width="2.74" height="5.479"/>
	<rect x="58.905" y="44.521" fill="#010101" width="2.739" height="10.958"/>
	<rect x="28.768" y="52.739" fill="#010101" width="10.958" height="2.74"/>
	<rect x="26.028" y="44.521" fill="#010101" width="13.698" height="2.74"/>
	<rect x="42.466" y="44.521" fill="#010101" width="19.178" height="2.74"/>
	<rect x="97.261" y="30.137" fill="#010101" width="2.739" height="39.726"/>
</g>
</svg>
