<svg xmlns="http://www.w3.org/2000/svg" width="416" height="32" viewBox="0 0 416 32"><path d="M32 16c0-8.837-7.163-16-16-16s-16 7.163-16 16 7.163 16 16 16 16-7.163 16-16zm-29 0c0-7.18 5.82-13 13-13s13 5.82 13 13-5.82 13-13 13-13-5.82-13-13zm14.414 9.414l8-8c.781-.781.781-2.047 0-2.828s-2.047-.781-2.828 0l-4.586 4.586v-11.172c0-1.105-.895-2-2-2s-2 .895-2 2v11.172l-4.586-4.586c-.781-.781-2.047-.781-2.829 0-.391.391-.586.902-.586 1.414s.195 1.024.586 1.414l8 8c.781.781 2.047.781 2.828 0zM80 16c0 8.837-7.163 16-16 16s-16-7.163-16-16 7.163-16 16-16 16 7.163 16 16zm-29 0c0 7.18 5.82 13 13 13s13-5.82 13-13-5.82-13-13-13-13 5.82-13 13zm14.414-9.414l8 8c.781.781.781 2.047 0 2.828s-2.047.781-2.828 0l-4.586-4.586v11.172c0 1.105-.895 2-2 2s-2-.895-2-2v-11.172l-4.586 4.586c-.781.781-2.047.781-2.829 0-.391-.391-.586-.902-.586-1.414s.195-1.024.586-1.414l8-8c.781-.781 2.047-.781 2.828 0zM112 0c-8.837 0-16 7.163-16 16s7.163 16 16 16 16-7.163 16-16-7.163-16-16-16zm9.195 11.284l.014.614c0 6.269-4.772 13.499-13.499 13.499-2.679 0-5.173-.785-7.273-2.132.371.044.749.066 1.132.066 2.223 0 4.268-.759 5.892-2.031-2.076-.038-3.828-1.41-4.432-3.295.29.055.587.085.893.085.433 0 .852-.058 1.25-.166-2.17-.436-3.806-2.354-3.806-4.652v-.06c.64.355 1.371.569 2.149.593-1.273-.851-2.111-2.303-2.111-3.949 0-.869.234-1.684.642-2.385 2.34 2.87 5.836 4.759 9.779 4.957-.081-.347-.123-.709-.123-1.081 0-2.62 2.124-4.744 4.744-4.744 1.365 0 2.598.576 3.463 1.498 1.081-.213 2.096-.608 3.013-1.151-.354 1.108-1.107 2.038-2.086 2.625.96-.115 1.874-.37 2.725-.747-.636.951-1.44 1.787-2.367 2.456zM160 0c8.837 0 16 7.163 16 16 0 8.159-6.107 14.892-14 15.876v-11.876h5.5l.5-4h-6v-2c0-1.105.895-2 2-2h4v-4h-4c-3.314 0-6 2.686-6 6v2h-3v4h3v11.876c-7.893-.984-14-7.717-14-15.876 0-8.837 7.163-16 16-16zM205.656 25.568c0 2.346-1.45 4.2-5.555 4.349-2.406-1.368-4.422-3.342-5.841-5.715.74-1.828 3.053-3.22 5.697-3.191.751.008 1.45.129 2.086.334 1.747 1.215 3.156 1.974 3.51 3.358.066.28.103.569.103.864zm2.344-25.568c-4.623 0-8.787 1.962-11.708 5.097 1.154-.639 2.517-1.02 3.966-1.02h8.014l-1.791 1.879h-2.103c1.484.85 2.274 2.601 2.274 4.532 0 1.772-.982 3.199-2.368 4.283-1.352 1.056-1.609 1.499-1.609 2.398 0 .767 1.616 1.909 2.359 2.467 2.588 1.941 3.112 3.162 3.112 5.59 0 2.46-2.154 4.91-5.808 5.742 1.761.667 3.67 1.033 5.664 1.033 8.837 0 16-7.163 16-16s-7.163-16-16-16zm8 12v4h-2v-4h-4v-2h4v-4h2v4h4v2h-4zm-12.57-1.392c.373 2.837-.87 4.662-3.029 4.598-2.16-.065-4.213-2.047-4.586-4.883-.373-2.837 1.076-5.008 3.235-4.944 2.159.065 4.007 2.392 4.379 5.228zm-4.527 9.457c-2.334 0-4.316.805-5.714 1.996-.766-1.869-1.189-3.915-1.189-6.06 0-1.774.289-3.48.822-5.075.23 3.108 2.417 5.506 6.03 5.506.266 0 .524-.014.777-.032-.248.476-.426 1.006-.426 1.562 0 .937.515 1.471 1.152 2.09l-1.454.013zM256 0c-8.837 0-16 7.163-16 16s7.163 16 16 16 16-7.163 16-16-7.163-16-16-16zm9.502 25.502c-1.235 1.235-2.672 2.204-4.272 2.881-.406.172-.819.323-1.238.453v-2.398c0-1.26-.432-2.188-1.297-2.781.542-.052 1.039-.125 1.492-.219s.932-.229 1.438-.406.958-.388 1.359-.633.786-.563 1.156-.953.68-.833.93-1.328.448-1.089.594-1.781.219-1.456.219-2.289c0-1.615-.526-2.99-1.578-4.125.479-1.25.427-2.609-.156-4.078l-.391-.047c-.271-.031-.758.083-1.461.344s-1.492.688-2.367 1.281c-1.24-.344-2.526-.516-3.859-.516-1.344 0-2.625.172-3.844.516-.552-.375-1.075-.685-1.57-.93-.495-.245-.891-.411-1.188-.5s-.573-.143-.828-.164-.419-.026-.492-.016l-.156.031c-.583 1.479-.635 2.839-.156 4.078-1.052 1.135-1.578 2.51-1.578 4.125 0 .833.073 1.596.219 2.289s.344 1.286.594 1.781.56.938.93 1.328.755.708 1.156.953.854.456 1.359.633.984.313 1.438.406.95.167 1.492.219c-.854.583-1.281 1.51-1.281 2.781v2.445c-.472-.14-.937-.306-1.394-.5-1.6-.677-3.037-1.646-4.272-2.881-1.235-1.235-2.204-2.672-2.881-4.272-.7-1.655-1.055-3.414-1.055-5.23s.355-3.575 1.055-5.23c.677-1.6 1.646-3.037 2.881-4.272s2.672-2.204 4.272-2.881c1.655-.7 3.415-1.055 5.23-1.055s3.575.355 5.23 1.055c1.6.677 3.037 1.646 4.272 2.881 1.235 1.235 2.204 2.672 2.881 4.272.7 1.655 1.055 3.415 1.055 5.23s-.355 3.575-1.055 5.23c-.677 1.6-1.646 3.037-2.881 4.272zM304 0c-8.837 0-16 7.163-16 16s7.163 16 16 16 16-7.163 16-16-7.163-16-16-16zm1.551 21.379c-1.454-.113-2.064-.833-3.203-1.525-.627 3.287-1.393 6.438-3.661 8.084-.7-4.968 1.028-8.699 1.83-12.66-1.368-2.303.165-6.939 3.051-5.796 3.551 1.405-3.075 8.563 1.373 9.457 4.644.933 6.54-8.058 3.661-10.982-4.161-4.222-12.112-.096-11.135 5.949.238 1.478 1.765 1.926.61 3.966-2.663-.59-3.458-2.691-3.356-5.491.165-4.584 4.118-7.793 8.084-8.236 5.015-.561 9.722 1.841 10.372 6.559.732 5.325-2.264 11.092-7.627 10.677zM350 18l-2-2-6 6 6 6 2-2-4-4zm4 8l2 2 6-6-6-6-2 2 4 4zm10.232-19.768l-4.465-4.464c-.972-.972-2.893-1.768-4.268-1.768h-15c-1.375 0-2.5 1.125-2.5 2.5v27c0 1.375 1.125 2.5 2.5 2.5h23c1.375 0 2.5-1.125 2.5-2.5v-19c0-1.375-.796-3.296-1.768-4.268zm-1.414 1.414c.098.098.195.218.29.354h-5.108v-5.108c.136.095.256.192.354.29l4.465 4.464zm1.182 21.854c0 .271-.229.5-.5.5h-23c-.271 0-.5-.229-.5-.5v-27c0-.271.229-.5.5-.5h15c.151 0 .32.019.5.053v7.947h7.947c.034.18.053.349.053.5v19zM386 6h28v6h-28zm0 8h28v6h-28zm0 8h28v6h-28z" fill="#443d3d"/></svg>