<?xml version="1.0" encoding="utf-8"?>
<!-- Generated by IcoMoon.io -->
<!DOCTYPE svg PUBLIC "-//W3C//DTD SVG 1.1//EN" "http://www.w3.org/Graphics/SVG/1.1/DTD/svg11.dtd">
<svg version="1.1" xmlns="http://www.w3.org/2000/svg" xmlns:xlink="http://www.w3.org/1999/xlink" width="416" height="32" viewBox="0 0 416 32">
<g transform="translate(0 0)">
	<path d="M32 16c0-8.837-7.163-16-16-16s-16 7.163-16 16 7.163 16 16 16 16-7.163 16-16zM3 16c0-7.18 5.82-13 13-13s13 5.82 13 13-5.82 13-13 13-13-5.82-13-13zM17.414 25.414l8-8c0.781-0.781 0.781-2.047 0-2.828s-2.047-0.781-2.828 0l-4.586 4.586v-11.172c0-1.105-0.895-2-2-2s-2 0.895-2 2v11.172l-4.586-4.586c-0.781-0.781-2.047-0.781-2.829 0-0.391 0.391-0.586 0.902-0.586 1.414s0.195 1.024 0.586 1.414l8 8c0.781 0.781 2.047 0.781 2.828 0z" fill="#443d3d" />
</g>
<g transform="translate(48 0)">
	<path d="M32 16c0 8.837-7.163 16-16 16s-16-7.163-16-16 7.163-16 16-16 16 7.163 16 16zM3 16c0 7.18 5.82 13 13 13s13-5.82 13-13-5.82-13-13-13-13 5.82-13 13zM17.414 6.586l8 8c0.781 0.781 0.781 2.047 0 2.828s-2.047 0.781-2.828 0l-4.586-4.586v11.172c0 1.105-0.895 2-2 2s-2-0.895-2-2v-11.172l-4.586 4.586c-0.781 0.781-2.047 0.781-2.829 0-0.391-0.391-0.586-0.902-0.586-1.414s0.195-1.024 0.586-1.414l8-8c0.781-0.781 2.047-0.781 2.828 0z" fill="#443d3d" />
</g>
<g transform="translate(96 0)">
	<path d="M16 0c-8.837 0-16 7.163-16 16s7.163 16 16 16 16-7.163 16-16-7.163-16-16-16zM25.195 11.284c0.009 0.203 0.014 0.408 0.014 0.614 0 6.269-4.772 13.499-13.499 13.499-2.679 0-5.173-0.785-7.273-2.132 0.371 0.044 0.749 0.066 1.132 0.066 2.223 0 4.268-0.759 5.892-2.031-2.076-0.038-3.828-1.41-4.432-3.295 0.29 0.055 0.587 0.085 0.893 0.085 0.433 0 0.852-0.058 1.25-0.166-2.17-0.436-3.806-2.354-3.806-4.652 0-0.020 0-0.040 0-0.060 0.64 0.355 1.371 0.569 2.149 0.593-1.273-0.851-2.111-2.303-2.111-3.949 0-0.869 0.234-1.684 0.642-2.385 2.34 2.87 5.836 4.759 9.779 4.957-0.081-0.347-0.123-0.709-0.123-1.081 0-2.62 2.124-4.744 4.744-4.744 1.365 0 2.598 0.576 3.463 1.498 1.081-0.213 2.096-0.608 3.013-1.151-0.354 1.108-1.107 2.038-2.086 2.625 0.96-0.115 1.874-0.37 2.725-0.747-0.636 0.951-1.44 1.787-2.367 2.456z" fill="#443d3d" />
</g>
<g transform="translate(144 0)">
	<path d="M16 0c8.837 0 16 7.163 16 16 0 8.159-6.107 14.892-14 15.876v-11.876h5.5l0.5-4h-6v-2c0-1.105 0.895-2 2-2h4v-4h-4c-3.314 0-6 2.686-6 6v2h-3v4h3v11.876c-7.893-0.984-14-7.717-14-15.876 0-8.837 7.163-16 16-16z" fill="#443d3d" />
</g>
<g transform="translate(192 0)">
	<path d="M13.656 25.568c0 2.346-1.45 4.2-5.555 4.349-2.406-1.368-4.422-3.342-5.841-5.715 0.74-1.828 3.053-3.22 5.697-3.191 0.751 0.008 1.45 0.129 2.086 0.334 1.747 1.215 3.156 1.974 3.51 3.358 0.066 0.28 0.103 0.569 0.103 0.864zM16 0c-4.623 0-8.787 1.962-11.708 5.097 1.154-0.639 2.517-1.020 3.966-1.020 2.096 0 8.014 0 8.014 0l-1.791 1.879h-2.103c1.484 0.85 2.274 2.601 2.274 4.532 0 1.772-0.982 3.199-2.368 4.283-1.352 1.056-1.609 1.499-1.609 2.398 0 0.767 1.616 1.909 2.359 2.467 2.588 1.941 3.112 3.162 3.112 5.59 0 2.46-2.154 4.91-5.808 5.742 1.761 0.667 3.67 1.033 5.664 1.033 8.837 0 16-7.163 16-16s-7.163-16-16-16zM24 12v4h-2v-4h-4v-2h4v-4h2v4h4v2h-4zM11.43 10.608c0.373 2.837-0.87 4.662-3.029 4.598-2.16-0.065-4.213-2.047-4.586-4.883-0.373-2.837 1.076-5.008 3.235-4.944 2.159 0.065 4.007 2.392 4.379 5.228zM6.903 20.065c-2.334 0-4.316 0.805-5.714 1.996-0.766-1.869-1.189-3.915-1.189-6.060 0-1.774 0.289-3.48 0.822-5.075 0.23 3.108 2.417 5.506 6.030 5.506 0.266 0 0.524-0.014 0.777-0.032-0.248 0.476-0.426 1.006-0.426 1.562 0 0.937 0.515 1.471 1.152 2.090-0.481 0-0.946 0.013-1.454 0.013z" fill="#443d3d" />
</g>
<g transform="translate(240 0)">
	<path d="M16 0c-8.837 0-16 7.163-16 16s7.163 16 16 16 16-7.163 16-16-7.163-16-16-16zM25.502 25.502c-1.235 1.235-2.672 2.204-4.272 2.881-0.406 0.172-0.819 0.323-1.238 0.453v-2.398c0-1.26-0.432-2.188-1.297-2.781 0.542-0.052 1.039-0.125 1.492-0.219s0.932-0.229 1.438-0.406 0.958-0.388 1.359-0.633 0.786-0.563 1.156-0.953 0.68-0.833 0.93-1.328 0.448-1.089 0.594-1.781 0.219-1.456 0.219-2.289c0-1.615-0.526-2.99-1.578-4.125 0.479-1.25 0.427-2.609-0.156-4.078l-0.391-0.047c-0.271-0.031-0.758 0.083-1.461 0.344s-1.492 0.688-2.367 1.281c-1.24-0.344-2.526-0.516-3.859-0.516-1.344 0-2.625 0.172-3.844 0.516-0.552-0.375-1.075-0.685-1.57-0.93-0.495-0.245-0.891-0.411-1.188-0.5s-0.573-0.143-0.828-0.164-0.419-0.026-0.492-0.016-0.125 0.021-0.156 0.031c-0.583 1.479-0.635 2.839-0.156 4.078-1.052 1.135-1.578 2.51-1.578 4.125 0 0.833 0.073 1.596 0.219 2.289s0.344 1.286 0.594 1.781 0.56 0.938 0.93 1.328 0.755 0.708 1.156 0.953 0.854 0.456 1.359 0.633 0.984 0.313 1.438 0.406 0.95 0.167 1.492 0.219c-0.854 0.583-1.281 1.51-1.281 2.781v2.445c-0.472-0.14-0.937-0.306-1.394-0.5-1.6-0.677-3.037-1.646-4.272-2.881-1.235-1.235-2.204-2.672-2.881-4.272-0.7-1.655-1.055-3.414-1.055-5.23s0.355-3.575 1.055-5.23c0.677-1.6 1.646-3.037 2.881-4.272s2.672-2.204 4.272-2.881c1.655-0.7 3.415-1.055 5.23-1.055s3.575 0.355 5.23 1.055c1.6 0.677 3.037 1.646 4.272 2.881 1.235 1.235 2.204 2.672 2.881 4.272 0.7 1.655 1.055 3.415 1.055 5.23s-0.355 3.575-1.055 5.23c-0.677 1.6-1.646 3.037-2.881 4.272z" fill="#443d3d" />
</g>
<g transform="translate(288 0)">
	<path d="M16 0c-8.837 0-16 7.163-16 16s7.163 16 16 16c8.837 0 16-7.163 16-16s-7.163-16-16-16zM17.551 21.379c-1.454-0.113-2.064-0.833-3.203-1.525-0.627 3.287-1.393 6.438-3.661 8.084-0.7-4.968 1.028-8.699 1.83-12.66-1.368-2.303 0.165-6.939 3.051-5.796 3.551 1.405-3.075 8.563 1.373 9.457 4.644 0.933 6.54-8.058 3.661-10.982-4.161-4.222-12.112-0.096-11.135 5.949 0.238 1.478 1.765 1.926 0.61 3.966-2.663-0.59-3.458-2.691-3.356-5.491 0.165-4.584 4.118-7.793 8.084-8.236 5.015-0.561 9.722 1.841 10.372 6.559 0.732 5.325-2.264 11.092-7.627 10.677z" fill="#443d3d" />
</g>
<g transform="translate(336 0)">
	<path d="M14 18l-2-2-6 6 6 6 2-2-4-4zM18 26l2 2 6-6-6-6-2 2 4 4zM28.232 6.232l-4.465-4.464c-0.972-0.972-2.893-1.768-4.268-1.768h-15c-1.375 0-2.5 1.125-2.5 2.5v27c0 1.375 1.125 2.5 2.5 2.5h23c1.375 0 2.5-1.125 2.5-2.5v-19c0-1.375-0.796-3.296-1.768-4.268zM26.818 7.646c0.098 0.098 0.195 0.218 0.29 0.354h-5.108v-5.108c0.136 0.095 0.256 0.192 0.354 0.29l4.465 4.464zM28 29.5c0 0.271-0.229 0.5-0.5 0.5h-23c-0.271 0-0.5-0.229-0.5-0.5v-27c0-0.271 0.229-0.5 0.5-0.5h15c0.151 0 0.32 0.019 0.5 0.053v7.947h7.947c0.034 0.18 0.053 0.349 0.053 0.5v19z" fill="#443d3d" />
</g>
<g transform="translate(384 0)">
	<path d="M2 6h28v6h-28zM2 14h28v6h-28zM2 22h28v6h-28z" fill="#443d3d" />
</g>
</svg>
