<?xml version="1.0" encoding="utf-8"?>
<!-- Generator: Adobe Illustrator 15.0.0, SVG Export Plug-In . SVG Version: 6.00 Build 0)  -->
<!DOCTYPE svg PUBLIC "-//W3C//DTD SVG 1.0//EN" "http://www.w3.org/TR/2001/REC-SVG-20010904/DTD/svg10.dtd">
<svg version="1.0" id="Layer_1" xmlns="http://www.w3.org/2000/svg" xmlns:xlink="http://www.w3.org/1999/xlink" x="0px" y="0px"
	 width="46.801px" height="49.178px" viewBox="0 0 46.801 49.178" enable-background="new 0 0 46.801 49.178" xml:space="preserve">
<g>
	<g>
		<path fill="#FFFFFF" d="M29.021,1.414l-11.347-1.17c0,0-2.55-0.101-2.812,3.364c-0.262,3.465-2.255,25.507-2.255,25.507
			s-0.692,2.987,2.159,3.349c2.851,0.363,10.97,0.912,10.97,0.912s2.466,0.507,2.786-2.936c0.32-3.441,2.37-26.277,2.37-26.277
			S31.231,2.048,29.021,1.414z"/>
		<path fill="#FFFFFF" d="M29.798,1.989l-11.346-1.17c0,0-2.55-0.102-2.812,3.363c-0.262,3.466-2.255,25.507-2.255,25.507
			s-0.691,2.987,2.16,3.35c2.851,0.362,10.97,0.912,10.97,0.912s2.466,0.506,2.786-2.935c0.32-3.442,2.37-26.279,2.37-26.279
			S32.009,2.623,29.798,1.989z"/>
		<path fill="#272626" d="M24.601,3.8c-1.037-0.102-2.074-0.204-3.112-0.305c-0.183-0.019-0.261-0.169-0.247-0.312
			c0.001-0.016,0.008-0.031,0.013-0.047c0-0.017-0.005-0.033-0.004-0.049c0.015-0.143,0.118-0.251,0.301-0.233
			c0.558,0.055,1.112,0.131,1.668,0.186c0.077,0.007,0.155,0.015,0.231,0.023c0.403,0.039,0.807,0.079,1.21,0.118
			c0.184,0.018,0.265,0.146,0.25,0.288C24.91,3.486,24.904,3.489,24.9,3.505c0.001,0.016,0.005,0.026,0.003,0.042
			C24.89,3.69,24.785,3.818,24.601,3.8z"/>
		<path fill="#D2D5E7" d="M31.315,3.083c-0.225-0.232-0.559,0.062-0.428,0.33c0.482,0.983,0.001,2.305-0.087,3.346
			c-0.083,0.969-0.202,1.935-0.286,2.903c-0.152,1.75-0.406,3.519-0.478,5.282c-0.046,0.041-0.085,0.092-0.102,0.164
			c-0.371,1.641-0.405,3.43-0.463,5.107c-0.042,1.18-0.204,2.354-0.184,3.532c-0.038,0.033-0.068,0.076-0.078,0.139
			c-0.19,1.302-0.285,2.619-0.404,3.928c-0.1,1.098-0.018,2.249-0.206,3.341c-0.039,0.029-0.075,0.066-0.103,0.123
			c-0.24,0.5-0.285,0.963-0.68,1.387c-0.333,0.357-0.771,0.649-1.248,0.789c-0.05-0.021-0.107-0.034-0.173-0.025
			c-0.779,0.116-1.484,0.032-2.269-0.083c-0.716-0.107-1.48-0.021-2.181-0.152c-0.284-0.053-0.388,0.33-0.119,0.43
			c0.815,0.303,1.839,0.212,2.7,0.374c0.65,0.122,1.382,0.155,2.032,0.024c0.053-0.011,0.094-0.032,0.127-0.057
			c0.766-0.152,1.472-0.626,1.938-1.259c0.02-0.011,0.04-0.025,0.059-0.047c0.417-0.479,0.711-1.286,0.619-1.916
			c-0.007-0.046-0.028-0.083-0.055-0.115c0.106-0.739,0.128-1.503,0.128-2.231c0-1.476,0.353-2.95,0.397-4.424
			c0.519-2.412,0.639-4.989,0.782-7.468c0.362-2.39,0.414-4.835,0.694-7.237c0.149-1.287,0.107-2.606,0.337-3.879
			C31.718,4.658,31.87,3.656,31.315,3.083z"/>
		<path fill="#272626" d="M12.318,28.765c0.343-3.578,0.549-7.17,0.899-10.748l0.559-5.714c0.191-1.947,0.711-7.118,1.002-9.053
			c0.002-0.016,0.062-0.024,0.066-0.038c0.065-0.845,0.253-1.658,0.806-2.357c0.24-0.303,0.569-0.535,0.922-0.687
			c0.232-0.101,0.563-0.188,0.844-0.152c0.032-0.013,0.073-0.019,0.116-0.014c1.972,0.146,3.942,0.366,5.91,0.563
			c0.99,0.099,1.98,0.198,2.97,0.297c0.498,0.05,0.995,0.103,1.492,0.156c0.515,0.055,1.032,0.083,1.527,0.248
			c0.057,0.019,0.084,0.067,0.086,0.12c0.539,0.244,1.016,0.693,1.301,1.15c0.268,0.428,0.349,0.959,0.367,1.455
			c0.006,0.125-0.014,0.252-0.014,0.385c0.011,0.028-0.008,0.059-0.013,0.096c-0.004,0.053-0.01,0.106-0.016,0.16
			c-0.02,0.203,0,0.411-0.034,0.607l-1.303,13.84c-0.185,1.904-0.365,3.808-0.55,5.711c-0.023,0.232-0.044,0.465-0.065,0.698
			c-0.044,0.681-0.097,1.36-0.179,2.036c-0.01,0.08-0.136,0.082-0.127,0c0.108-0.984,0.167-1.968,0.211-2.958
			c0.043-0.998,0.215-2.001,0.29-3.001c0.002-0.025,0.029-0.031,0.044-0.021c0.13-1.73,0.268-3.461,0.43-5.189
			c0.239-2.554,0.734-8.326,1.013-10.876c0.134-1.217,0.04-2.517-0.83-3.268c-0.266-0.273-0.593-0.508-0.936-0.648
			c-0.856,0.053-1.757-0.119-2.6-0.199c-0.991-0.095-1.978-0.189-2.969-0.283c-2.016-0.192-4.038-0.362-6.05-0.607
			c-0.013-0.001-0.022-0.004-0.035-0.006c-0.225,0.04-0.47,0.031-0.687,0.1c-0.336,0.106-0.617,0.329-0.843,0.593
			c-0.457,0.533-0.65,1.249-0.775,1.95c0.069,0.026,0.124,0.091,0.12,0.189c-0.088,1.904-0.618,7.023-0.803,8.92l-0.56,5.714
			c-0.376,3.854-0.791,7.707-1.171,11.561c-0.003,0.036-0.015,0.065-0.031,0.089c-0.026,0.603,0.051,1.206,0.391,1.723
			c0.257,0.389,0.652,0.65,1.079,0.815c0.224,0.087,0.474,0.179,0.729,0.244c0.019-0.02,0.044-0.037,0.078-0.046
			c0.381-0.113,0.834-0.027,1.225,0.013c0.441,0.045,0.882,0.089,1.323,0.134c0.884,0.09,1.768,0.176,2.651,0.274
			c1.782,0.198,3.57,0.37,5.346,0.615c0.03,0.002,0.053,0.011,0.071,0.025c0.675-0.001,1.3-0.179,1.848-0.636
			c0.119-0.042,0.229-0.122,0.317-0.25c0.184-0.27,0.337-0.554,0.469-0.849c0.252-0.935,0.223-1.902,0.472-2.831
			c0.024-0.086,0.156-0.068,0.156,0.022c0,0.605-0.058,1.239-0.191,1.851c-0.04,0.859-0.257,1.669-0.934,2.308
			c-0.696,0.656-1.824,0.952-2.746,0.69c-0.057-0.016-0.087-0.051-0.101-0.096c-1.586-0.105-3.169-0.26-4.752-0.393
			c-0.886-0.075-1.77-0.163-2.654-0.246c-0.441-0.042-0.882-0.082-1.323-0.125c-0.317-0.03-0.683-0.037-0.999-0.138
			c-0.868,0.015-1.874-0.395-2.391-1.043C12.132,30.851,12.038,29.706,12.318,28.765z"/>
		<path fill="#272626" d="M14.192,32.217c0.211,0.176,0.456,0.311,0.714,0.411c0.223,0.087,0.473,0.179,0.728,0.244
			c0.02-0.021,0.044-0.038,0.078-0.048c0.381-0.113,0.834-0.026,1.225,0.013c0.441,0.045,0.882,0.09,1.322,0.135
			c0.884,0.09,1.768,0.175,2.652,0.273c1.781,0.199,3.57,0.369,5.346,0.616c0.029,0.002,0.052,0.011,0.071,0.025
			c0.695-0.001,1.337-0.188,1.898-0.678c0.563-0.492,0.747-1.176,0.882-1.875c-0.069-0.03-0.122-0.097-0.116-0.196
			c0.112-1.915,0.349-3.826,0.536-5.734c0.186-1.904,0.373-3.807,0.561-5.711l1.215-13.258c0.018-0.057,0.032-0.116,0.038-0.177
			c0.038-0.408,0.03-0.824,0.104-1.227c0.016-0.088,0.017-0.177,0.004-0.262c0.015-0.409,0.005-0.82-0.129-1.21
			c-0.191-0.553-0.752-1.153-1.381-1.445c-0.171-0.203-0.369-0.372-0.586-0.512c0.274,0.036,0.544,0.083,0.809,0.172
			c0.057,0.018,0.083,0.068,0.086,0.12c0.538,0.244,1.016,0.692,1.3,1.149c0.268,0.429,0.348,0.96,0.368,1.455
			c0.005,0.125-0.015,0.251-0.015,0.385c0.01,0.029-0.008,0.06-0.012,0.096c-0.006,0.053-0.01,0.107-0.016,0.16
			c-0.019,0.202,0,0.411-0.034,0.606l-1.303,13.84c-0.185,1.904-0.364,3.807-0.551,5.711c-0.188,1.921-0.326,3.856-0.583,5.77
			c-0.023,0.906-0.229,1.764-0.939,2.435c-0.696,0.656-1.824,0.951-2.746,0.69c-0.056-0.016-0.087-0.053-0.102-0.097
			c-1.586-0.105-3.169-0.26-4.752-0.393c-0.886-0.075-1.769-0.163-2.654-0.246c-0.441-0.042-0.882-0.083-1.324-0.125
			c-0.318-0.03-0.683-0.037-0.998-0.139c-0.869,0.016-1.874-0.395-2.392-1.043c-0.053-0.066-0.101-0.135-0.146-0.207
			C13.613,32.107,13.896,32.21,14.192,32.217z"/>
		<path fill="#272626" d="M14.788,12.389c-0.171,1.748-0.323,3.5-0.495,5.25c-0.347,3.557-0.698,7.115-0.991,10.677
			c-0.006,0.051,0.022,0.084,0.058,0.099c0.008,0.028,0.025,0.052,0.056,0.06c0.536,0.136,1.119,0.141,1.668,0.196
			c0.604,0.061,1.207,0.121,1.81,0.181c1.207,0.121,2.415,0.24,3.621,0.359c2.415,0.237,4.831,0.453,7.246,0.682
			c0.068,0.006,0.107-0.043,0.112-0.095c0.001-0.009,0.001-0.017,0-0.025c0.021-0.02,0.037-0.046,0.042-0.083
			c0.246-1.749,0.374-3.522,0.546-5.28c0.175-1.798,0.351-3.598,0.526-5.396c0.176-1.803,0.352-3.604,0.528-5.407
			c0.167-1.701,0.656-6.62,0.689-8.33c0.12-0.012,0.133-0.183,0.006-0.205c-0.01-0.001-0.021-0.003-0.031-0.004
			c-0.013-0.008-0.028-0.011-0.042-0.008c-0.827-0.14-1.669-0.214-2.508-0.288c-2.116-0.241-4.24-0.435-6.363-0.624
			c-1.829-0.177-3.66-0.344-5.489-0.514c-0.084-0.009-0.136,0.052-0.143,0.117c-0.002,0.023-0.008,0.047,0,0.069
			c-0.195,0.879-0.223,1.83-0.311,2.724C15.24,7.419,14.874,11.512,14.788,12.389z M13.513,28.292
			c0.401-3.536,0.735-7.081,1.081-10.624c0.177-1.804,0.37-3.607,0.546-5.411c0.086-0.876,0.453-4.969,0.538-5.845
			c0.081-0.819,0.221-1.676,0.21-2.503c1.776,0.183,3.536,0.365,5.313,0.541c2.158,0.229,4.314,0.455,6.476,0.631
			c0.794,0.086,1.587,0.171,2.381,0.195c-0.306,1.734-0.719,6.713-0.891,8.464c-0.177,1.802-0.367,3.604-0.543,5.406
			c-0.177,1.799-0.38,3.597-0.556,5.396c-0.167,1.704-0.312,3.413-0.526,5.123c0,0.001,0,0.002,0,0.004
			c-2.312-0.24-4.683-0.491-7.053-0.722c-1.207-0.118-2.359-0.235-3.567-0.351c-0.603-0.057-1.208-0.115-1.811-0.172
			C14.583,28.374,14.043,28.274,13.513,28.292z"/>
		<g>
			<path fill="#272626" d="M18.947,31.098c0.097,0.824,0.935,1.461,1.779,1.282c0.729-0.154,1.297-0.883,1.013-1.637
				c-0.207-0.549-0.615-1.146-1.218-1.105c-0.009-0.029-0.028-0.055-0.066-0.059C19.699,29.496,18.855,30.33,18.947,31.098z
				 M19.158,30.932c0.132-0.683,0.635-1.085,1.301-1.181c1.344-0.035,1.638,2.668-0.052,2.437
				C19.805,32.105,19.011,31.685,19.158,30.932z"/>
			<path fill="#272626" d="M19.75,31.448c0.041,0.123,0.229,0.132,0.356,0.135c0.198,0.042,0.461,0.086,0.661,0.043
				c0.123-0.026,0.169-0.153,0.179-0.265c0.013-0.141,0.015-0.289,0.043-0.427c0.019-0.088,0.049-0.189,0.013-0.278
				c-0.061-0.152-0.21-0.17-0.357-0.176c-0.007,0-0.01,0.005-0.016,0.006c-0.058-0.02-0.117-0.032-0.181-0.035
				c-0.13-0.009-0.254-0.041-0.383-0.05c-0.209-0.014-0.217,0.262-0.253,0.4c-0.034,0.132-0.039,0.269-0.059,0.404
				C19.741,31.292,19.724,31.364,19.75,31.448z M19.869,31.259c0.028-0.157,0.025-0.322,0.074-0.477
				c0.019-0.058,0.018-0.138,0.042-0.192c0.048-0.113,0.169-0.054,0.243-0.042c0.155,0.026,0.318-0.017,0.46,0.07
				c0.024,0.016,0.049,0.006,0.063-0.011c0.083,0.022,0.158,0.066,0.136,0.182c-0.013,0.068-0.031,0.135-0.039,0.204
				c-0.014,0.13-0.001,0.309-0.051,0.431c-0.068,0.167-0.544,0.03-0.688,0.034c-0.009,0-0.014,0.005-0.021,0.007
				C19.958,31.459,19.839,31.437,19.869,31.259z"/>
		</g>
	</g>
	<path fill="#D2D5E7" d="M39.356,27.653c0.121-0.15,0.19-0.352,0.152-0.591c-0.192-1.178-0.642-2.65-1.494-3.524
		c-0.366-0.375-0.925-0.668-1.45-0.706c-0.124-0.009-1.065-0.003-1.52-0.041c-0.106-0.095-0.218-0.178-0.335-0.244
		c-0.046-0.043-0.106-0.071-0.168-0.082c-0.37-0.155-0.774-0.15-1.174,0.1c-0.398,0.033-0.764,0.108-1.149-0.017
		c-0.465-0.151-0.932-0.283-1.399-0.415c-0.156-0.568-0.393-1.171-0.74-1.568c-0.106-0.122-0.212-0.226-0.331-0.335
		c0.229,0.211-0.082-0.113-0.116-0.144c-0.237-0.212-0.469-0.256-0.775-0.184c-0.076,0.019-0.147,0.042-0.217,0.065
		c-0.122-0.114-0.359-0.129-0.498-0.019c-0.286,0.232-0.443,0.697-0.567,1.027c-0.081,0.216-0.125,0.438-0.152,0.661
		c-0.03,0.109-0.033,0.212-0.023,0.32c-0.005,0.214,0.002,0.43,0.026,0.644c0.004,0.029,0.015,0.053,0.023,0.079
		c-0.039,0.178-0.132,0.321-0.258,0.47c-0.495-1.444-1.069-2.872-1.508-4.317c-0.565-1.871-1.246-3.648-2.51-5.158
		c-0.143-0.17-0.326-0.198-0.488-0.141c-0.425-0.291-0.843-0.242-1.084,0.644c-0.014,0.056-0.017,0.11-0.009,0.162
		c-0.025,0.072-0.04,0.152-0.04,0.24c0.021,2.5,0.835,4.952,1.28,7.395c0.226,1.24,0.411,2.496,0.643,3.731
		c0.119,0.628,0.166,1.266,0.202,1.903c-0.034,0.143-0.067,0.284-0.098,0.431c-0.114,0.56-0.12,1.251-0.26,1.842
		c-0.568,0.087-1.183-0.005-1.756-0.02c-0.367-0.71-0.713-1.43-1.019-2.154c-0.534-1.271-0.808-2.928-1.689-3.975
		c-0.011-0.012-0.022-0.021-0.035-0.032c0.298,1.405,0.351,2.988,0.165,4.378c-0.146,1.086-0.767,2.03-1.157,3.048
		c0.26,0.575,0.573,1.13,0.906,1.675h21.32C40.104,30.885,39.846,29.288,39.356,27.653z"/>
	<g>
		<path fill="#D2D5E7" d="M16.703,32.803c-0.322-0.499,0.01-1.325,0.681-1.332c0.317-0.924,0.798-1.805,1.225-2.678
			c0.58-1.187,1.165-2.378,1.61-3.623c0.359-1.004,0.816-2.35,0.614-3.342c-0.091-0.45-0.182-0.693-0.526-0.971
			c-0.298-0.241-0.878-0.377-1.338-0.417c-0.144-0.012-0.268-0.053-0.374-0.114c-0.124,0.145-0.026,0.371,0.179,0.391
			c0.004,0,0.008,0.001,0.013,0.002c0.015,0.04,0.043,0.077,0.091,0.102c2.221,1.218-0.045,4.206-0.661,5.755
			c-0.661,1.666-1.059,3.727-2.05,5.213C15.839,32.281,16.245,32.747,16.703,32.803z"/>
		<path fill="#D2D5E7" d="M17.178,33.132c-0.167-0.044-0.296-0.123-0.391-0.222c-0.002,0.005-0.003,0.01-0.005,0.015
			c-0.119,0.18-0.188,0.399-0.201,0.605c-0.024,0.357,0.061,0.705,0.116,1.056c-0.351,0.605-0.617,1.268-0.886,1.912
			c-0.246,0.59-0.399,1.132-0.75,1.682c-0.284,0.445-0.495,0.879-0.546,1.391c-0.405,0.291-0.753,0.636-1.13,0.962
			c-0.201,0.174-0.424,0.319-0.614,0.505c-0.108,0.106-0.247,0.188-0.368,0.28c-0.06,0.046-0.41,0.245-0.133,0.152
			c-0.324,0.109-0.439,0.497-0.199,0.752c0.227,0.24,0.542,0.251,0.862,0.171c-0.22,0.199-0.416,0.42-0.547,0.686
			c-0.075,0.15-0.105,0.351,0,0.499c0.809,1.14,0.514,2.273-0.057,3.507c-0.312,0.675-0.551,1.343,0.046,1.905
			c0.147,0.138,0.398,0.239,0.6,0.158c0.979-0.394,1.604-1.98,1.923-2.917c0.357-1.047,0.401-2.596-0.718-3.214
			c-0.148-0.082-0.303-0.102-0.451-0.083c0.012-0.027,0.022-0.051,0.033-0.081c0.053-0.061,0.101-0.128,0.149-0.195
			c0.521-0.168,0.836-0.625,1.158-1.045c0.345-0.448,0.659-0.917,0.799-1.459c0.665-0.633,1.177-1.66,1.46-2.485
			c0.294-0.858,0.417-1.699,0.536-2.555c0.198-0.131,0.325-0.356,0.356-0.609c0.403,0.057,0.74-0.056,1.022-0.425
			c0.16-0.208,0.15-0.517,0.048-0.77C18.589,33.443,17.869,33.316,17.178,33.132z"/>
		<g>
			<path fill="#FFFFFF" d="M20.871,22.019c-0.123-0.825-0.726-1.28-1.431-1.551c-0.046,0.02-0.095,0.034-0.154,0.039
				c-0.953,0.087-1.417,0.804-1.857,1.549c-0.004,0.052-0.015,0.106-0.04,0.165c-0.616,1.464-1.491,2.772-2.377,4.083
				c-0.07,0.104-0.157,0.165-0.249,0.195c-0.315,0.527-0.649,1.044-0.998,1.551c-0.065,0.095-0.145,0.154-0.229,0.187l-0.021,0.203
				c-0.065,0.671-1.105,0.569-1.039-0.101l0.126-1.291c0.004-0.041,0.012-0.078,0.022-0.113c-0.067-0.088-0.104-0.204-0.091-0.346
				l1.221-12.479c-0.187,0.186-0.367,0.372-0.539,0.549c-0.738,0.76-1.442,1.555-2.095,2.391c-0.616,0.786-1.282,1.565-1.704,2.476
				c-0.092,0.135-0.181,0.273-0.259,0.422c-0.188,0.361-0.346,0.732-0.495,1.112c-0.345,0.888-0.59,1.794-0.796,2.723
				c-0.025,0.113-0.049,0.226-0.073,0.34c-0.033,0.097-0.068,0.193-0.1,0.291c-0.309,0.943-0.549,1.912-0.833,2.861
				c-0.165,0.548-0.55,1.358-0.465,2c-0.579,1.78-1.187,3.553-1.72,5.348c-0.16,0.539-0.317,1.081-0.465,1.625
				c-0.059,0.087-0.103,0.185-0.125,0.291c-0.211,1-0.514,2.021-0.577,3.05c-0.003,0.035-0.008,0.07-0.012,0.105
				c-0.003,0.043-0.007,0.091-0.012,0.139c-0.054,0.286-0.025,0.573,0.075,0.82c0.029,0.086,0.068,0.17,0.121,0.251
				c0.128,0.198,0.299,0.324,0.486,0.388c0.06,0.569,0.24,1.021,0.918,1.25c0.49,0.166,0.908-0.13,1.211-0.529
				c0.029,0.027,0.059,0.052,0.089,0.075c0.031,0.279,0.111,0.554,0.275,0.817c0.253,0.407,0.695,0.499,1.135,0.411
				c0.335-0.066,0.599-0.277,0.816-0.542c0.02,0.018,0.039,0.035,0.059,0.053c0.071,0.272,0.224,0.512,0.478,0.692
				c0.007-0.003,0.012-0.009,0.021-0.01c0.263-0.074,0.528-0.14,0.793-0.203c0.755-0.791,1.723-1.299,2.508-2.08
				c0.996-0.991,2.11-1.894,2.768-3.166c0.851-1.646,1.11-3.694,2.2-5.209c-0.106-0.107-0.169-0.257-0.153-0.417
				c0.019-0.197,0.152-0.358,0.326-0.429c-0.036-0.13-0.027-0.276,0.055-0.42c0.443-0.774,0.874-1.562,1.268-2.364
				c0.598-1.519,1.129-3.066,1.608-4.619C20.799,23.771,21,22.887,20.871,22.019z"/>
			<path fill="#272626" d="M12.906,22.786c-0.001-0.03-0.002-0.061-0.003-0.092c-0.017-0.405,0.037-0.81,0.13-1.204L12.906,22.786z"
				/>
			<path fill="#272626" d="M12.429,47.036c0.27-0.33,0.543-0.574,0.66-1c0.099-0.359,0.174-0.72,0.294-1.073
				c0.053-0.155,0.299-0.104,0.252,0.059c-0.126,0.443-0.188,0.898-0.297,1.345c-0.106,0.437-0.089,0.778-0.408,1.132
				C12.633,47.83,12.152,47.374,12.429,47.036z"/>
			<path fill="#272626" d="M0.098,45.611C0.1,45.614,0.1,45.616,0.102,45.616c-0.058-0.084-0.091-0.176-0.1-0.288
				c-0.01-0.125,0.032-0.221,0.078-0.331c0.046-0.109,0.104-0.2,0.18-0.295c0.19-0.237,0.577-0.227,0.789-0.03
				c0.219,0.203,0.239,0.56,0.037,0.781c-0.008,0.015-0.019,0.029-0.026,0.045c-0.076,0.15-0.193,0.271-0.356,0.323
				c-0.159,0.05-0.279,0.017-0.421-0.039c-0.077-0.029-0.123-0.093-0.17-0.155c-0.002-0.002-0.005-0.006-0.008-0.01
				C0.1,45.616,0.1,45.614,0.098,45.611z"/>
			<path fill="#D2D5E7" d="M19.255,20.523c-0.131,0.042-0.185,0.248-0.042,0.317c1.875,0.883,0.283,3.958-0.311,5.115
				c-0.918,1.789-2.04,3.498-2.497,5.477c-0.018,0.076-0.019,0.144-0.01,0.208c-0.398,1.033-0.677,2.118-0.914,3.197
				c-0.415,1.895-1.111,3.356-2.144,4.983c-0.225,0.354,0.288,0.742,0.575,0.444c2.41-2.501,2.966-5.884,3.835-9.144
				c0.003-0.011,0.003-0.021,0.005-0.031c0.652-1.14,1.078-2.497,1.593-3.673c0.54-1.235,1.164-2.351,1.474-3.674
				C21.033,22.838,20.723,20.056,19.255,20.523z"/>
			<path fill="#D2D5E7" d="M12.442,27.656c0.299-4.101,1.003-8.166,1.108-12.281c-0.045-0.12-0.102-0.23-0.174-0.328
				c-0.279-0.377-0.852-0.117-0.758,0.287c-0.176,0.035-0.333,0.119-0.448,0.242c-0.134,0.035-0.259,0.107-0.347,0.223
				c-0.096,0.125-0.204,0.32-0.301,0.545c-0.28,0.369-0.702,0.733-1.007,0.948c-0.221,0.157-0.3,0.432-0.246,0.664
				c-0.185,0.094-0.36,0.252-0.519,0.5c-0.127,0.201,0.13,0.469,0.332,0.333c1.531-1.041,1.819,1.702,1.866,3.822
				c-0.208,1.565-0.357,3.406-0.181,4.885c0.039,0.328,0.473,0.517,0.664,0.181C12.436,27.671,12.438,27.664,12.442,27.656z"/>
			<path fill="#272626" d="M0.309,43.567c0,0.539,0.652,0.857,1.089,0.569c0.345-0.226,0.542-0.518,0.757-0.863
				c0.185-0.3,0.408-0.465,0.657-0.703c0.047-0.046,0.095-0.09,0.142-0.136c0.022-0.009,0.062-0.028,0.119-0.058
				c0.073-0.031,0.256-0.156,0.348-0.156c0.048,0,0.095-0.002,0.14-0.006c0.031,0.016,0.063,0.032,0.099,0.047
				c0.212,0.087,0.509,0.125,0.701,0.247c0.221,0.139,0.432,0.299,0.706,0.299c0.155,0.001,0.392,0.135,0.593,0.186
				c0.28,0.072,0.561,0.121,0.847,0.164c0.202,0.029,0.503-0.001,0.685,0.09c0.483,0.244,0.955,0.433,1.507,0.368
				c0.604-0.072,1.193,0.136,1.805,0.104c0.659-0.036,1.302-0.025,1.961-0.02c0.224,0.001,0.555-0.104,0.769-0.046
				c0.244,0.065,0.495,0.098,0.738,0.161c0.189,0.05,0.33,0.042,0.459,0.186c0.154,0.17,0.314,0.288,0.415,0.474
				c0.014,0.074,0.015,0.144-0.002,0.204c-0.082,0.297-0.436,0.475-0.547,0.787c-0.112,0.311-0.145,0.723-0.209,1.054
				c-0.072,0.371-0.119,0.739-0.078,1.114c-0.038,0.122-0.047,0.254-0.091,0.38c-0.067,0.191-0.297,0.438-0.452,0.574
				c-0.46,0.409,0.207,1.208,0.691,0.827c0.472-0.37,0.294-0.798,0.43-1.244c0.037-0.06,0.055-0.096,0.051-0.108
				c0.033-0.021,0.064-0.044,0.09-0.073c0.103-0.11,0.091-0.225,0.134-0.361c0.106-0.339,0.246-0.685,0.419-0.997
				c0.281-0.505,0.895-1.043,0.791-1.693c-0.063-0.395-0.226-0.698-0.423-0.991c-0.156-0.434-0.468-0.798-0.84-1.095
				c0.056-0.021,0.111-0.053,0.159-0.103c0.982-0.988,1.277-2.411,2.038-3.554c0.318-0.478,0.454-1.047,0.716-1.557
				c0.277-0.542,0.508-1.115,0.751-1.675c0.412-0.949,0.762-2.037,1.299-2.834l-0.944-0.093c-0.031-0.002-0.058-0.03-0.086-0.037
				c-0.006,0.011-0.012,0.003-0.019,0.015c-0.244,0.436-0.453,0.883-0.651,1.333c-0.166,0.288-0.328,0.576-0.48,0.875
				c-0.032,0.062-0.038,0.122-0.026,0.175c-0.184,0.312-0.352,0.633-0.468,0.974c-0.096,0.285-0.189,0.565-0.287,0.842
				c-0.051,0.118-0.101,0.235-0.149,0.353c-0.211,0.522-0.447,0.985-0.719,1.477c-0.297,0.537-0.592,1.065-0.836,1.63
				c-0.241,0.555-0.575,1.027-0.876,1.547c-0.042,0.073-0.059,0.144-0.061,0.212c-0.094-0.051-0.189-0.099-0.283-0.142
				c-0.576-0.263-1.218-0.213-1.839-0.256c1.583-1.013,2.972-2.354,3.874-3.989c0.331-0.601,0.52-1.255,0.782-1.886
				c0.252-0.606,0.412-1.158,0.507-1.809c0.088-0.602,0.192-1.146,0.395-1.723c0.02-0.058,0.039-0.117,0.06-0.175
				c0.072-0.013,0.137-0.053,0.173-0.132c0.382-0.823,0.711-1.666,1.054-2.503c0.015-0.006,0.027-0.013,0.042-0.019
				c0.023-0.054,0.047-0.107,0.07-0.162c-0.02-0.087-0.018-0.185,0.02-0.29c0.492-1.391,1.1-2.733,1.701-4.081
				c0.019-0.042,0.042-0.081,0.068-0.114c0.07-0.161,0.143-0.322,0.217-0.481c0.021-0.043,0.044-0.08,0.071-0.114
				c0.019-0.046,0.038-0.092,0.057-0.14c0.125-0.359,0.23-0.724,0.303-1.097c0.177-0.911,0.05-1.572-0.583-2.273
				c-0.299-0.331-0.471-0.579-0.897-0.749c-0.336-0.132-0.771-0.148-1.127-0.123c-0.827,0.057-1.303,1.285-1.672,1.866
				c-0.269,0.425-0.584,0.874-0.789,1.333c-0.207,0.464-0.384,0.946-0.617,1.398c-0.254,0.493-0.535,0.919-0.869,1.361
				c-0.139,0.182-0.258,0.374-0.361,0.573c-0.26,0.25-0.39,0.586-0.664,0.844c-0.359,0.337-0.671,0.711-1.04,1.036
				c-0.01,0.01-0.022,0.02-0.033,0.029c-0.009-0.185-0.072-0.375-0.122-0.56c0.002-0.023,0.002-0.04,0.002-0.04
				c0.084-0.056,0.041-0.189-0.047-0.212c0.038-0.147,0.08-0.295,0.129-0.44c-0.023-0.054-0.032-0.112-0.036-0.173
				c0.049-0.221,0.103-0.441,0.159-0.662c0.072-0.275,0.175-0.554,0.101-0.836c-0.028-0.11-0.154-0.115-0.205-0.02
				c-0.123,0.228-0.179,0.513-0.206,0.787l0.096-0.984c-0.043,0.442-0.172,0.876-0.283,1.305c-0.081,0.311-0.152,0.584-0.164,0.9
				c-0.004,0.098,0.005,0.227,0.008,0.358c-0.033,0.052-0.06,0.107-0.077,0.161c-0.06,0.183-0.096,0.378-0.15,0.564
				c-0.052,0.178-0.094,0.34-0.061,0.525c0.003,0.021,0.012,0.038,0.02,0.055c-0.096,0.11-0.179,0.227-0.239,0.358
				c-0.199,0.43-0.516,0.81-0.774,1.208c-0.149,0.228,0.184,0.413,0.36,0.256c0.198-0.176,0.337-0.401,0.528-0.583
				c0.139-0.134,0.302-0.261,0.399-0.431c0.265-0.467,0.723-0.735,1.098-1.101c0.32-0.314,0.58-0.658,0.86-1.006
				c0.138-0.173,0.235-0.393,0.338-0.606c0.095,0.017,0.196-0.013,0.241-0.117c0.21-0.468,0.473-0.896,0.818-1.279
				c0.228-0.253,0.368-0.589,0.524-0.892c0.21-0.407,0.391-0.832,0.568-1.255c0.151-0.364,0.375-0.654,0.561-0.994
				c0.112-0.207,0.24-0.403,0.369-0.598c0.295,0.343,0.774,0.522,1.18,0.689c0.165,0.068,0.337,0.126,0.518,0.108
				c0.175-0.018,0.126-0.069,0.236-0.093c0.058-0.011,0.108-0.074,0.119-0.135c0.051-0.026,0.082-0.089,0.08-0.143
				c-0.012-0.306,0.195-0.535,0.148-0.856c-0.028-0.197-0.079-0.383-0.224-0.532c-0.267-0.278-0.614-0.511-1-0.511
				c0.126-0.079,0.264-0.116,0.411-0.076c0.336,0.087,0.75,0.063,0.949,0.417c0.183,0.322,0.456,0.607,0.575,0.965
				c0.263,0.782-0.233,1.803-0.478,2.542c-0.156,0.468-0.411,0.895-0.601,1.349c-0.155,0.368-0.261,0.759-0.407,1.132
				c-0.486,1.248-0.91,2.516-1.348,3.78c-0.564,0.902-1.012,1.901-1.203,2.942c-0.219,1.196-0.603,2.409-1.16,3.502
				c-0.585,1.148-1.521,2.206-2.483,3.059c-0.703,0.624-1.545,1.103-2.382,1.568c-0.213-0.004-0.428-0.014-0.64-0.044
				c-0.38-0.049-0.727-0.134-1.11-0.076c-0.212,0.031-0.427,0.08-0.639,0.024c-0.277-0.072-0.559-0.195-0.852-0.186
				c-0.266,0.008-0.542,0.081-0.809,0.044c-0.338-0.045-0.646-0.159-0.974-0.226c-0.103-0.021-0.206-0.039-0.311-0.043
				c-0.017-0.011-0.054-0.03-0.115-0.056c-0.241-0.135-0.469-0.188-0.728-0.273c-0.144-0.048-0.272-0.118-0.409-0.173
				c-0.011-0.178-0.021-0.356-0.032-0.535c-0.031-0.52-0.079-1.017-0.017-1.536c0.038-0.319,0.057-0.65,0.064-0.978
				c0.14-0.398,0.215-0.819,0.284-1.242c0.109-0.335,0.215-0.672,0.299-1.014c0.155-0.491,0.317-0.98,0.472-1.471
				c0.002-0.009,0.005-0.016,0.007-0.023c0.046-0.105,0.09-0.209,0.128-0.315c0.028-0.033,0.051-0.071,0.067-0.119
				c0.374-1.133,0.668-2.29,0.995-3.437c0.045-0.127,0.094-0.255,0.147-0.379c0.263-0.616,0.445-1.291,0.652-1.927
				c0.231-0.712,0.456-1.417,0.701-2.125c0.358-1.034,0.651-2.08,0.891-3.142c0.197-0.519,0.365-1.046,0.528-1.581
				c0.288-0.947,0.673-1.829,1.177-2.682c0.786-1.328,1.839-2.394,2.981-3.446c0.091,0.185,0.155,0.453,0.179,0.572
				c0.051,0.25,0.036,0.509,0.106,0.752c0.057,0.194,0.303,0.231,0.394,0.039c0.028-0.062,0.046-0.131,0.061-0.202
				c0.051-0.039,0.09-0.097,0.097-0.178c0.04-0.48-0.031-0.964-0.227-1.407c-0.037-0.085-0.099-0.132-0.166-0.149l0.115-1.182
				c-0.178,0.08-0.206,0.174-0.301,0.268c-0.458,0.45-1.004,0.808-1.463,1.252c-0.438,0.423-0.849,0.877-1.297,1.291
				c-0.173,0.161-0.349,0.321-0.534,0.471c-0.265,0.35-0.527,0.702-0.808,1.036c0.022,0.016,0.048,0.028,0.077,0.036
				c-0.063,0.096-0.124,0.199-0.177,0.312c-0.114,0.242-0.238,0.481-0.358,0.72c-0.109,0.199-0.214,0.399-0.312,0.603
				c-0.661,1.373-1.055,2.892-1.333,4.389c-0.173,0.674-0.386,1.343-0.617,1.999c-0.478,1.355-0.858,2.743-1.36,4.092
				c-0.283,0.754-0.491,1.561-0.715,2.336c-0.2,0.69-0.354,1.393-0.517,2.093c-0.001,0.006-0.003,0.012-0.004,0.018
				c-0.022,0.055-0.041,0.112-0.057,0.17c-0.015,0.06-0.028,0.12-0.041,0.18c-0.064,0.05-0.117,0.123-0.149,0.223
				c-0.469,1.472-1.112,2.919-1.144,4.485c-0.012,0.614,0.042,1.147,0.225,1.711C2.917,40.988,2.872,40.99,2.83,40.99
				c-0.504-0.002-0.759,0.007-1.163,0.35C0.966,41.933,0.311,42.569,0.309,43.567z M18.494,21.044
				c0.375-0.061,0.967,0.249,1.08,0.646c0.099,0.345-0.056,0.604-0.126,0.918c-0.033,0.013-0.061,0.032-0.083,0.06
				c-0.046,0.004-0.088,0.02-0.12,0.058c-0.06,0.072-0.385-0.125-0.453-0.158c-0.206-0.104-0.412-0.189-0.604-0.325
				c-0.135-0.094-0.249-0.183-0.391-0.235c0.072-0.114,0.145-0.23,0.211-0.348c0.098-0.172,0.244-0.434,0.428-0.633
				C18.452,21.038,18.471,21.045,18.494,21.044z"/>
		</g>
	</g>
	<g>
		<path fill="#FFFFFF" d="M45.93,41.35c-0.551-0.848-1.217-1.603-1.787-2.44c-0.523-0.769-0.613-1.897-1.176-2.615
			c0.107-1.963-0.131-3.871-0.278-5.895c-0.144-1.983-0.578-3.585-1.259-5.202c0.105-0.163,0.151-0.372,0.087-0.604
			c-0.317-1.15-0.922-2.566-1.862-3.343c-0.404-0.334-0.992-0.565-1.518-0.546c-0.125,0.003-1.059,0.111-1.516,0.123
			c-0.116-0.084-0.236-0.153-0.358-0.207c-0.052-0.039-0.114-0.061-0.176-0.064c-0.384-0.114-0.786-0.066-1.156,0.226
			c-0.393,0.075-0.748,0.188-1.145,0.106c-0.479-0.1-0.957-0.182-1.436-0.263c-0.217-0.547-0.517-1.123-0.904-1.479
			c-0.118-0.11-0.235-0.202-0.365-0.298c0.251,0.185-0.093-0.103-0.13-0.13c-0.259-0.187-0.495-0.205-0.791-0.1
			c-0.074,0.026-0.142,0.057-0.208,0.088c-0.133-0.101-0.372-0.09-0.498,0.035c-0.259,0.261-0.365,0.739-0.454,1.083
			c-0.058,0.223-0.077,0.448-0.08,0.673c-0.019,0.11-0.01,0.215,0.011,0.321c0.017,0.213,0.048,0.426,0.095,0.637
			c0.006,0.029,0.02,0.052,0.031,0.077c-0.02,0.181-0.097,0.333-0.207,0.494c-0.646-1.383-1.37-2.74-1.961-4.13
			c-0.764-1.799-1.631-3.494-3.049-4.859c-0.16-0.154-0.345-0.162-0.501-0.088c-0.454-0.243-0.864-0.149-1.009,0.757
			c-0.008,0.057-0.005,0.111,0.008,0.162c-0.017,0.074-0.024,0.155-0.013,0.243c0.289,2.484,1.361,4.833,2.065,7.214
			c0.358,1.208,0.677,2.438,1.041,3.641c0.185,0.611,0.3,1.241,0.404,1.87c-0.018,0.146-0.036,0.29-0.051,0.439
			c-0.053,0.568,0.016,1.257-0.061,1.859c-0.555,0.146-1.176,0.123-1.748,0.168c-0.441-0.666-0.861-1.344-1.243-2.031
			c-0.668-1.207-1.118-2.825-2.106-3.77c-0.054-0.053-0.114-0.086-0.174-0.107c-0.511-0.611-1.729-0.117-1.533,0.716
			c0.385,1.627,0.191,3.335,0.664,5.002c0.566,2,2.042,3.576,3.303,5.181c1.583,2.017,3.65,5.133,6.22,6.428
			c-0.074,0.295-0.042,0.625-0.017,0.921c0,0.095,0.015,0.188,0.043,0.279c-0.003-0.008,0.041,0.392,0.046,0.243
			c-0.009,0.266,0.011,0.482,0.104,0.736c0.003,0.008,0.009,0.017,0.013,0.026c-0.14,0.336,0.032,0.828,0.445,0.845
			c2.305,0.093,4.59-0.324,6.87-0.617c2.783-0.357,5.662-0.599,8.384-1.292c0.176-0.045,0.298-0.136,0.383-0.244
			c0.086,0.038,0.172,0.078,0.259,0.117C45.88,41.839,46.059,41.549,45.93,41.35z"/>
		<path fill="#272626" d="M43.347,24.5c-0.145-1.043-0.395-2.002-0.968-2.894c-0.067-0.105-0.242-0.002-0.188,0.11
			c0.868,1.809,0.89,3.951,1.198,5.904c0.048,0.305,0.506,0.247,0.475-0.061C43.762,26.52,43.491,25.528,43.347,24.5z"/>
		<path fill="#272626" d="M43.88,24.207c-0.104,0.417-0.042,0.854,0.086,1.259c0.063,0.199,0.411,0.159,0.415-0.054
			c0.009-0.389-0.134-0.75-0.056-1.142C44.382,23.981,43.948,23.931,43.88,24.207z"/>
		<path fill="#272626" d="M30.816,12.771c-0.095-0.737-0.734-2.196-1.657-1.669c-0.189,0.108-0.072,0.422,0.134,0.321
			c0.786-0.383,1.279,2.121,1.383,2.634c0.209,1.039,0.357,2.144,0.795,3.119c0.079,0.177,0.38,0.111,0.34-0.092
			C31.527,15.646,31.001,14.213,30.816,12.771z"/>
		<path fill="#272626" d="M27.728,11.68c-0.364,0.033-0.727,0.209-1.079,0.307c-0.444,0.123-0.86,0.328-1.299,0.463
			c-0.065,0.02-0.036,0.126,0.031,0.114c0.459-0.084,0.867-0.277,1.318-0.39c0.364-0.09,0.722-0.19,1.078-0.313
			C27.882,11.825,27.831,11.671,27.728,11.68z"/>
		<path fill="#272626" d="M27.653,14.173c-0.153,0.059-0.312,0.095-0.462,0.163c-0.094,0.042-0.034,0.186,0.062,0.146
			c0.152-0.062,0.31-0.1,0.459-0.17C27.797,14.27,27.744,14.14,27.653,14.173z"/>
		<path fill="#272626" d="M32.887,12.959c-0.124-0.674-0.382-1.532-1.171-1.473c-0.112,0.008-0.108,0.178-0.001,0.193
			c0.931,0.141,1.095,2.433,1.244,3.158c0.171,0.829,0.295,1.628,0.547,2.439c0.047,0.154,0.264,0.074,0.257-0.069
			C33.69,15.789,33.143,14.358,32.887,12.959z"/>
		<path fill="#272626" d="M43.868,29.826c-0.023-0.143-0.238-0.116-0.224,0.028c0.02,0.211,0.039,0.424,0.064,0.634
			c0.019,0.165,0.279,0.132,0.257-0.034C43.937,30.245,43.902,30.036,43.868,29.826z"/>
		<path fill="#D2D5E7" d="M26.726,26.226c-0.299-1.521-0.458-3.075-0.767-4.599c-0.313-1.543-1.135-3.076-1.854-4.463
			c-0.42-0.81-0.876-1.564-1.047-2.467c-0.058-0.309-0.101-0.771,0.032-1.062c0.104-0.229,0.307-0.325,0.369-0.565
			c0.043-0.167-0.218-0.273-0.31-0.131c-0.048,0.075-0.31,0.198-0.382,0.252c-0.163,0.123-0.366,0.369-0.384,0.582
			c-0.059,0.717-0.133,1.435,0.094,2.138c0.223,0.688,0.611,1.338,0.9,2.003c0.331,0.758,0.677,1.502,0.991,2.268
			c0.501,1.226,0.69,2.442,0.915,3.724c0.035,0.269,0.072,0.539,0.11,0.808c-0.093,0.06-0.161,0.165-0.153,0.296
			c0.043,0.667,0.24,1.297,0.361,1.952c0.05,0.268,0.07,0.541,0.091,0.812c0.013,0.168,0.074,0.9-0.069,1.007
			c-0.082,0.061-0.104,0.165-0.086,0.259c-0.283,0.107-0.21,0.586,0.112,0.518c0.558-0.12,1.047-0.472,1.284-0.996
			C27.255,27.847,26.864,26.931,26.726,26.226z"/>
		<path fill="#D2D5E7" d="M29.798,18.463c-0.856,0.261-0.762,1.256-0.724,1.989c0.025,0.455,0.078,0.845,0.151,1.295
			c0.057,0.353,0.101,0.304-0.067,0.008c-0.056-0.1-0.103-0.189-0.166-0.288c-0.084-0.133-0.283-0.029-0.269,0.112
			c0.036,0.359,0.035,0.737,0.353,0.982c0.306,0.237,0.607,0.082,0.756-0.231c0.211-0.446-0.079-1.019-0.121-1.464
			c-0.027-0.283,0.022-0.58,0.004-0.864c-0.034-0.531,0.049-0.757,0.374-1.158C30.259,18.636,30.02,18.396,29.798,18.463z"/>
		<path fill="#272626" d="M46.363,41.252c-0.134-0.075-0.305-0.046-0.39,0.09c-0.088,0.139-0.033,0.297,0.089,0.39
			c-0.059-0.045,0.016,0.018,0.027,0.028c0.012,0.013,0.089,0.11,0.046,0.049c0.016,0.023,0.11,0.162,0.051,0.075
			c0.02,0.029,0.05,0.122,0.02,0.022c0.048,0.157,0.192,0.264,0.36,0.227c0.158-0.036,0.267-0.202,0.227-0.362
			C46.737,41.551,46.559,41.363,46.363,41.252z"/>
		<path fill="#272626" d="M31.485,44.7c-0.031-0.075-0.088-0.138-0.141-0.2c-0.07-0.088-0.192-0.142-0.303-0.139
			c-0.167,0.005-0.311,0.117-0.318,0.292c-0.008,0.162,0.132,0.315,0.292,0.32c0.003,0.002,0.006,0.003,0.009,0.005
			c0.068,0.054,0.145,0.083,0.234,0.083C31.458,45.059,31.555,44.875,31.485,44.7z"/>
		<path fill="#272626" d="M37.841,21.432c-0.068,0.011-0.147,0.028-0.212,0c-0.156-0.07-0.265,0.181-0.123,0.267
			c0.128,0.078,0.265,0.066,0.403,0.027C38.097,21.673,38.033,21.398,37.841,21.432z"/>
		<path fill="#272626" d="M34.002,21.403c-0.09,0.026-0.181,0.054-0.271,0.08c-0.214,0.063-0.143,0.375,0.079,0.338
			c0.092-0.015,0.185-0.03,0.277-0.046C34.331,21.735,34.238,21.333,34.002,21.403z"/>
		<path fill="#272626" d="M29.332,22.594l-0.042,0.02c-0.198,0.01-0.138,0.342,0.074,0.277c0.084-0.026,0.12-0.076,0.156-0.152
			C29.575,22.625,29.428,22.521,29.332,22.594z"/>
		<path fill="#D2D5E7" d="M42.792,35.191c-0.097,0.072-0.178,0.155-0.256,0.241c0.254-0.61,0.503-1.481,0.233-2.026
			c-0.073-0.149-0.326-0.187-0.388-0.001c-0.161,0.485,0,1.003-0.143,1.492c-0.087,0.303-0.188,0.607-0.382,0.859
			c-0.061,0.078-0.186,0.202-0.323,0.303c-0.087,0.017-0.176,0.031-0.268,0.043c-0.707,0.091-1.359,0.252-2.051,0.429
			c-0.663,0.17-1.288,0.447-1.948,0.606c-0.384,0.093-0.714,0.194-1.114,0.145c-0.291-0.036-0.555-0.051-0.846-0.028
			c-0.612,0.047-1.204,0.072-1.813,0.18c-0.668,0.119-1.307,0.336-1.968,0.481c-0.479,0.105-0.951,0.225-1.429,0.314
			c-0.496-0.144-1.009-0.249-1.502-0.38c-0.388-0.102-0.745-0.298-1.078-0.537c-0.029-0.021-0.059-0.043-0.089-0.065
			c-0.332-0.248-0.639-0.532-0.929-0.801c-1.236-1.146-2.19-2.494-3.231-3.808c-1.072-1.352-2.05-2.806-2.593-4.449
			c-0.253-0.766-0.366-1.586-0.602-2.358c-0.123-0.401-0.22-0.816-0.326-1.223c-0.031-0.117-0.067-0.243-0.098-0.373
			c-0.037-0.345,0.02-0.691,0.434-0.567c0.036,0.01,0.071,0.008,0.101-0.005c0.219,0.129,0.414,0.303,0.649,0.393
			c0.063,0.064,0.124,0.131,0.178,0.206c0.167,0.228,0.211,0.699,0.545,0.732c0.083,0.008,0.162-0.059,0.148-0.146
			c-0.045-0.297-0.294-0.65-0.477-0.887c-0.038-0.049-0.081-0.094-0.125-0.137c-0.002-0.002-0.002-0.005-0.003-0.006
			c-0.192-0.316-0.582-0.514-0.958-0.581c-0.006-0.003-0.012-0.007-0.017-0.011c-0.033-0.02-0.067-0.018-0.094-0.006
			c-0.03-0.003-0.059-0.008-0.089-0.009c-0.061-0.041-0.123-0.073-0.191-0.093c-0.039-0.044-0.101-0.066-0.165-0.065
			c-0.12,0.003-0.238,0.046-0.318,0.136c-0.035,0.039-0.044,0.093-0.035,0.143c-0.061,0.105-0.095,0.232-0.124,0.344
			c-0.216,0.869,0.053,1.885,0.103,2.766c0.057,1.008,0.384,1.998,0.521,2.993c0.139,1.006,0.854,2.034,1.371,2.886
			c1.139,1.88,2.558,3.643,4.268,5.034c0.449,0.365,0.937,0.679,1.396,1.033c0.402,0.309,0.781,0.606,1.267,0.773
			c0.122,0.042,0.25,0.092,0.382,0.139c-0.072,0.099-0.083,0.25,0.033,0.332c0.179,0.128,0.41,0.261,0.646,0.32
			c-0.014,0.449-0.161,0.894-0.2,1.367c-0.042,0.486,0.078,1.037,0.313,1.491c0.021,0.1,0.061,0.195,0.113,0.284
			c-0.023,0.171-0.073,0.333-0.044,0.514c0.014,0.087,0.086,0.182,0.183,0.185c0.436,0.017,0.826-0.116,1.203-0.321
			c0.171-0.042,0.326-0.108,0.441-0.192c0.299-0.108,0.585-0.215,0.666-0.59c0.042-0.196-0.092-0.512-0.119-0.706
			c-0.063-0.458-0.117-0.912-0.103-1.375c0.013-0.382,0.126-0.712,0.27-1.034c0.078-0.133,0.156-0.268,0.207-0.416
			c0.298-0.136,0.604-0.256,0.906-0.376c0.788-0.17,1.576-0.327,2.386-0.41c0.682-0.07,1.325-0.044,1.991-0.241
			c0.821-0.242,1.597-0.566,2.432-0.765c0.407-0.098,0.802-0.248,1.219-0.294c0.399-0.043,0.775-0.084,1.162-0.197
			c0.574-0.166,1.197-0.722,1.319-1.308C43.516,35.208,43.061,34.99,42.792,35.191z"/>
		<path fill="#272626" d="M45.779,40.25c-0.089-0.688-0.752-1.205-1.005-1.859c-0.174-0.451-0.353-0.861-0.592-1.254
			c0.031-0.342-0.083-0.659-0.437-0.882c-0.106-0.066-0.218-0.111-0.333-0.14c0-0.077-0.015-0.155-0.04-0.232
			c-0.052-0.722-0.138-1.434-0.135-2.159c0.004-0.815,0.127-1.842-0.231-2.59c-0.006-0.016-0.018-0.027-0.028-0.041
			c-0.061-0.456-0.119-0.912-0.168-1.367c-0.013,0.006-0.028,0.011-0.041,0.016c-0.048-0.615-0.14-1.232-0.193-1.842
			c-0.082-0.925-0.156-1.89-0.375-2.792c-0.176-0.731-0.23-1.574-0.593-2.237c-0.194-0.353-0.395-0.635-0.625-0.892
			c-0.265-0.568-0.901-1.081-1.345-1.428c-0.7-0.548-1.372-0.135-2.116-0.125c-0.025-0.057-0.063-0.11-0.125-0.149
			c-0.533-0.346-1.366-0.581-2.007-0.575c-0.281,0.002-0.557,0.294-0.77,0.436c-0.26,0.175-0.671,0.261-1.049,0.258
			c0,0.026-0.006,0.051-0.008,0.077c-0.308-0.093-0.542-0.223-0.801-0.56c-0.277-0.361-0.423-0.803-0.704-1.165
			c-0.562-0.727-1.654-0.619-2.444-0.558c-0.067,0.006-0.124,0.045-0.163,0.098c-0.016,0.005-0.033,0.01-0.048,0.02
			c-0.033,0.002-0.066,0.005-0.099,0.019c-0.15,0.06-0.232,0.156-0.347,0.265c-0.115,0.108-0.117,0.239-0.06,0.337
			c-0.153,0.246-0.261,0.508-0.341,0.874c-0.052,0.237-0.049,0.595,0.016,0.872c-0.465-1.094-0.882-2.227-1.421-3.284
			c-0.685-1.344-1.428-2.703-2.277-3.972c-0.147-0.284-0.316-0.548-0.522-0.755c-0.021-0.031-0.042-0.062-0.063-0.091
			c-0.05-0.069-0.112-0.102-0.176-0.11c-0.299-0.201-0.667-0.283-1.139-0.156c-2.153,0.579-1.338,2.8-0.444,4.581
			c-0.004,0.042-0.003,0.084,0.011,0.128c0.305,0.893,0.567,1.894,1.003,2.726c0.23,0.44,0.378,0.792,0.445,1.282
			c0.011,0.086,0.036,0.167,0.062,0.245c-0.009,0-0.02,0-0.029,0c0.057,0.199,0.115,0.397,0.161,0.601
			c0.264,1.18,0.469,2.372,0.715,3.556c0.095,0.462,0.735,3.073,0.133,3.631c-0.029-0.106-0.107-0.193-0.25-0.221
			c-0.707-0.132-1.019-0.919-1.407-1.45c-0.199-0.273-0.405-0.556-0.615-0.835c-0.474-1.53-0.721-3.355-2.379-3.948
			c-0.581-0.208-1.547-0.171-1.893,0.445c-0.26,0.462-0.153,1.04,0.045,1.586c0.146,1.77,0.369,3.521,0.855,5.18
			c-0.003,0.016-0.013,0.029-0.008,0.051c0.074,0.349,0.206,0.7,0.468,0.948c0.066,0.063,0.006,0.216,0.07,0.291
			c0.071,0.083,0.152,0.157,0.229,0.233c0.845,1.779,2.027,3.542,3.284,4.844c0.627,0.649,1.387,1.155,2.113,1.7
			c0.025,0.008,0.049,0.022,0.074,0.031c0.278,0.326,0.584,0.612,0.952,0.853c0.275,0.181,0.537,0.407,0.806,0.612
			c0.081,0.087,0.164,0.174,0.253,0.253c0.197,0.178,0.439,0.406,0.709,0.55c-0.056,0.097-0.102,0.204-0.129,0.328
			c-0.077,0.336-0.052,0.714,0.049,1.069c0.052,0.259,0.128,0.511,0.236,0.754c0.183,0.417,0.201,0.87,0.414,1.277
			c0.196,0.379,0.715,0.252,0.719-0.174c0.003-0.291,0.221-0.623-0.33-0.842l-0.001-0.004c-0.014-0.114,0.082-0.24,0.046-0.35
			c0.003-0.032,0.077-0.073,0.073-0.105c-0.002-0.011,0.031-0.028,0.029-0.039c-0.015-0.009-0.008-0.027-0.022-0.038
			c-0.06-0.184-0.107-0.369-0.156-0.555c-0.068-0.263-0.017-0.542,0.005-0.814c0.007-0.01,0.015-0.022,0.022-0.031
			c0.136-0.16,0.294-0.253,0.462-0.297c0.549-0.316,1.17-0.727,1.77-0.876c0.765-0.192,1.623-0.291,2.409-0.293
			c0.674-0.003,1.348,0.039,1.997-0.179c0.706-0.236,1.382-0.619,2.139-0.669c0.715-0.045,1.292-0.26,1.979-0.435
			c0.72-0.183,1.474-0.247,2.173-0.501c0.39-0.145,0.774-0.323,1.031-0.222c0.246,0.584,0.311,1.194,0.548,1.788
			c0.104,0.258,0.216,0.51,0.341,0.759c0.159,0.316,0.533,0.538,0.724,0.85C45.152,41.044,45.845,40.753,45.779,40.25z
			 M24.117,13.513c0.012,0.014,0.025,0.026,0.038,0.041c0.14,0.168,0.274,0.342,0.407,0.517c0.034,0.058,0.067,0.115,0.101,0.172
			c-0.211,0.028-0.417,0.126-0.614,0.202c-0.208,0.08-0.428,0.16-0.62,0.274c-0.448,0.263-0.38-0.736-0.237-0.907
			C23.375,13.592,23.828,13.425,24.117,13.513z M19.327,24.112c0.301,0.061,0.437,0.86,0.445,1.037
			c0.009,0.194,0.087,0.518-0.109,0.617c-0.05,0.025-0.091,0.056-0.13,0.09c-0.053-0.293-0.121-0.582-0.214-0.864
			C19.33,24.694,19.348,24.394,19.327,24.112z M41.304,36.466c-0.508,0.092-1.033,0.145-1.528,0.289
			c-0.551,0.163-1.063,0.347-1.642,0.395c-0.92,0.076-1.615,0.44-2.481,0.689c-0.985,0.283-2.11,0.152-3.13,0.289
			c-0.889,0.12-1.815,0.303-2.528,0.873c-0.282,0.225-0.612,0.375-0.914,0.541c-0.135-0.113-0.303-0.194-0.461-0.292
			c-0.112-0.069-0.22-0.142-0.325-0.216c-1.143-1.13-2.479-2.147-3.723-3.103c-2.117-1.628-2.993-4.684-4.6-6.78
			c-0.019-0.024-0.042-0.039-0.062-0.056c-0.008-0.039-0.02-0.078-0.026-0.116c-0.156-0.894-0.165-1.841-0.291-2.755
			c0.019-0.011,0.036-0.027,0.049-0.051c0.193-0.325,0.461-0.21,0.426-0.64c-0.03-0.37-0.057-0.706-0.167-1.063
			c-0.1-0.32-0.34-0.631-0.604-0.606c-0.001-0.006-0.001-0.012-0.003-0.019c-0.097-0.51,0.42-0.587,0.891-0.541
			c0.547,0.055,0.917,0.663,1.119,1.088c0.328,0.69,0.614,1.393,0.798,2.139c0.114,0.461,0.164,0.79,0.513,1.1
			c0.006,0.04,0.016,0.079,0.019,0.121c0.511,0.754,1.019,1.813,2.02,1.822c0.009,0,0.017-0.001,0.025-0.002
			c0.476,0.227,1.045-0.015,1.174-0.606c0.234-1.071-0.013-2.124-0.189-3.187c-0.207-1.255-0.461-2.522-0.737-3.763
			c0.127-0.74-0.149-1.623-0.407-2.31c-0.163-0.435-0.473-0.816-0.648-1.256c-0.109-0.276-0.226-0.558-0.353-0.835
			c-0.134-0.401-0.298-0.796-0.426-1.193c-0.167-0.515-0.393-0.998-0.46-1.541c-0.003-0.144-0.026-0.283-0.068-0.419
			c-0.335-0.865,0.555-1.743,1.36-1.131c-0.237-0.015-0.492,0.086-0.699,0.19c-0.35,0.176-0.434,0.591-0.371,0.946
			c0.054,0.303,0.154,0.654,0.526,0.547c0.208-0.06,0.412-0.188,0.617-0.264c0.258-0.095,0.561-0.139,0.807-0.265
			c0.707,1.227,1.346,2.509,1.966,3.753c0.417,0.834,0.898,1.635,1.347,2.45c0.3,0.547,0.262,1.161,0.715,1.601
			c0.14,0.136,0.365-0.006,0.379-0.173c0.041-0.047,0.068-0.111,0.067-0.194c-0.007-0.25-0.065-0.499-0.03-0.747
			c0.046-0.316-0.131-0.605-0.159-0.917c-0.033-0.346,0.056-0.686,0.178-1.004c0.071-0.184,0.202-0.324,0.306-0.48
			c0.011-0.007,0.021-0.014,0.033-0.021c0.268,0.186,0.53,0.129,0.921,0.162c0.727,0.06,0.995,0.895,1.325,1.421
			c0.533,0.848,1.216,1.016,2.144,0.867c0.06-0.01,0.104-0.032,0.144-0.061c0.22-0.037,0.442-0.101,0.664-0.194
			c0.354-0.149,0.573-0.422,0.966-0.308c0.365,0.108,0.747,0.214,1.128,0.259c0.029,0.021,0.062,0.039,0.105,0.05
			c0.556,0.156,1.157,0.195,1.728,0.146c0.369-0.03,0.816,0.588,1.038,0.822c0.192,0.204,0.352,0.43,0.547,0.623
			c0.631,1.144,0.946,2.455,1.038,3.776c0.079,1.126,0.283,2.52,0.682,3.678c-0.008,0.001-0.016,0.003-0.023,0.005
			c0.057,0.604,0.131,1.206,0.225,1.805c0.014,0.09,0.023,0.185,0.034,0.277c-0.015,0.478,0.029,0.962,0.043,1.439
			c0.016,0.551,0.083,1.057,0.173,1.564c-0.015,0.002-0.031,0.005-0.047,0.009c0.022,0.103,0.049,0.205,0.086,0.304
			c0.005,0.016,0.02,0.026,0.028,0.041c0.042,0.22,0.087,0.445,0.135,0.673C42.212,36.193,41.721,36.39,41.304,36.466z"/>
	</g>
</g>
</svg>
