<svg version="1" xmlns="http://www.w3.org/2000/svg" width="46.801" height="49.178" viewBox="0 0 46.801 49.178"><path fill="#fff" d="M29.021 1.414l-11.347-1.17s-2.55-.101-2.812 3.364-2.255 25.507-2.255 25.507-.692 2.987 2.159 3.349c2.851.363 10.97.912 10.97.912s2.466.507 2.786-2.936c.32-3.441 2.37-26.277 2.37-26.277s.339-2.115-1.871-2.749zM29.798 1.989l-11.346-1.17s-2.55-.102-2.812 3.363c-.262 3.466-2.255 25.507-2.255 25.507s-.691 2.987 2.16 3.35c2.851.362 10.97.912 10.97.912s2.466.506 2.786-2.935c.32-3.442 2.37-26.279 2.37-26.279s.338-2.114-1.873-2.748z"/><path fill="#272626" d="M24.601 3.8l-3.112-.305c-.183-.019-.261-.169-.247-.312l.013-.047-.004-.049c.015-.143.118-.251.301-.233l1.668.186.231.023 1.21.118c.184.018.265.146.25.288l-.011.036.003.042c-.013.143-.118.271-.302.253z"/><path fill="#D2D5E7" d="M31.315 3.083c-.225-.232-.559.062-.428.33.482.983.001 2.305-.087 3.346l-.286 2.903c-.152 1.75-.406 3.519-.478 5.282-.046.041-.085.092-.102.164-.371 1.641-.405 3.43-.463 5.107-.042 1.18-.204 2.354-.184 3.532l-.078.139c-.19 1.302-.285 2.619-.404 3.928-.1 1.098-.018 2.249-.206 3.341l-.103.123c-.24.5-.285.963-.68 1.387-.333.357-.771.649-1.248.789l-.173-.025c-.779.116-1.484.032-2.269-.083-.716-.107-1.48-.021-2.181-.152-.284-.053-.388.33-.119.43.815.303 1.839.212 2.7.374.65.122 1.382.155 2.032.024l.127-.057c.766-.152 1.472-.626 1.938-1.259l.059-.047c.417-.479.711-1.286.619-1.916l-.055-.115c.106-.739.128-1.503.128-2.231 0-1.476.353-2.95.397-4.424.519-2.412.639-4.989.782-7.468.362-2.39.414-4.835.694-7.237.149-1.287.107-2.606.337-3.879.134-.731.286-1.733-.269-2.306z"/><path fill="#272626" d="M12.318 28.765c.343-3.578.549-7.17.899-10.748l.559-5.714c.191-1.947.711-7.118 1.002-9.053l.066-.038c.065-.845.253-1.658.806-2.357.24-.303.569-.535.922-.687.232-.101.563-.188.844-.152l.116-.014c1.972.146 3.942.366 5.91.563l2.97.297 1.492.156c.515.055 1.032.083 1.527.248.057.019.084.067.086.12.539.244 1.016.693 1.301 1.15.268.428.349.959.367 1.455l-.014.385-.013.096-.016.16c-.02.203 0 .411-.034.607l-1.303 13.84-.55 5.711-.065.698c-.044.681-.097 1.36-.179 2.036-.01.08-.136.082-.127 0 .108-.984.167-1.968.211-2.958.043-.998.215-2.001.29-3.001l.044-.021c.13-1.73.268-3.461.43-5.189.239-2.554.734-8.326 1.013-10.876.134-1.217.04-2.517-.83-3.268-.266-.273-.593-.508-.936-.648-.856.053-1.757-.119-2.6-.199l-2.969-.283c-2.016-.192-4.038-.362-6.05-.607l-.035-.006c-.225.04-.47.031-.687.1-.336.106-.617.329-.843.593-.457.533-.65 1.249-.775 1.95.069.026.124.091.12.189-.088 1.904-.618 7.023-.803 8.92l-.56 5.714c-.376 3.854-.791 7.707-1.171 11.561l-.031.089c-.026.603.051 1.206.391 1.723.257.389.652.65 1.079.815.224.087.474.179.729.244l.078-.046c.381-.113.834-.027 1.225.013l1.323.134c.884.09 1.768.176 2.651.274 1.782.198 3.57.37 5.346.615l.071.025c.675-.001 1.3-.179 1.848-.636.119-.042.229-.122.317-.25.184-.27.337-.554.469-.849l.472-2.831c.024-.086.156-.068.156.022 0 .605-.058 1.239-.191 1.851-.04.859-.257 1.669-.934 2.308-.696.656-1.824.952-2.746.69l-.101-.096c-1.586-.105-3.169-.26-4.752-.393-.886-.075-1.77-.163-2.654-.246l-1.323-.125c-.317-.03-.683-.037-.999-.138-.868.015-1.874-.395-2.391-1.043-.634-.794-.728-1.939-.448-2.88zM14.192 32.217c.211.176.456.311.714.411.223.087.473.179.728.244l.078-.048c.381-.113.834-.026 1.225.013l1.322.135c.884.09 1.768.175 2.652.273 1.781.199 3.57.369 5.346.616l.071.025c.695-.001 1.337-.188 1.898-.678.563-.492.747-1.176.882-1.875-.069-.03-.122-.097-.116-.196.112-1.915.349-3.826.536-5.734.186-1.904.373-3.807.561-5.711l1.215-13.258.038-.177c.038-.408.03-.824.104-1.227.016-.088.017-.177.004-.262.015-.409.005-.82-.129-1.21-.191-.553-.752-1.153-1.381-1.445-.171-.203-.369-.372-.586-.512.274.036.544.083.809.172.057.018.083.068.086.12.538.244 1.016.692 1.3 1.149.268.429.348.96.368 1.455l-.015.385-.012.096-.016.16c-.019.202 0 .411-.034.606l-1.303 13.84c-.185 1.904-.364 3.807-.551 5.711-.188 1.921-.326 3.856-.583 5.77-.023.906-.229 1.764-.939 2.435-.696.656-1.824.951-2.746.69l-.102-.097c-1.586-.105-3.169-.26-4.752-.393-.886-.075-1.769-.163-2.654-.246l-1.324-.125c-.318-.03-.683-.037-.998-.139-.869.016-1.874-.395-2.392-1.043l-.146-.207c.263.167.546.27.842.277zM14.788 12.389l-.495 5.25c-.347 3.557-.698 7.115-.991 10.677l.058.099.056.06c.536.136 1.119.141 1.668.196l1.81.181 3.621.359c2.415.237 4.831.453 7.246.682.068.006.107-.043.112-.095v-.025l.042-.083c.246-1.749.374-3.522.546-5.28l.526-5.396.528-5.407c.167-1.701.656-6.62.689-8.33.12-.012.133-.183.006-.205l-.031-.004-.042-.008c-.827-.14-1.669-.214-2.508-.288-2.116-.241-4.24-.435-6.363-.624-1.829-.177-3.66-.344-5.489-.514-.084-.009-.136.052-.143.117v.069c-.195.879-.223 1.83-.311 2.724-.083.875-.449 4.968-.535 5.845zm-1.275 15.903c.401-3.536.735-7.081 1.081-10.624l.546-5.411.538-5.845c.081-.819.221-1.676.21-2.503 1.776.183 3.536.365 5.313.541 2.158.229 4.314.455 6.476.631.794.086 1.587.171 2.381.195-.306 1.734-.719 6.713-.891 8.464l-.543 5.406-.556 5.396c-.167 1.704-.312 3.413-.526 5.123v.004c-2.312-.24-4.683-.491-7.053-.722l-3.567-.351-1.811-.172c-.528-.05-1.068-.15-1.598-.132z"/><g fill="#272626"><path d="M18.947 31.098c.097.824.935 1.461 1.779 1.282.729-.154 1.297-.883 1.013-1.637-.207-.549-.615-1.146-1.218-1.105l-.066-.059c-.756-.083-1.6.751-1.508 1.519zm.211-.166c.132-.683.635-1.085 1.301-1.181 1.344-.035 1.638 2.668-.052 2.437-.602-.083-1.396-.503-1.249-1.256zM19.75 31.448c.041.123.229.132.356.135.198.042.461.086.661.043.123-.026.169-.153.179-.265l.043-.427c.019-.088.049-.189.013-.278-.061-.152-.21-.17-.357-.176l-.016.006-.181-.035-.383-.05c-.209-.014-.217.262-.253.4l-.059.404c-.012.087-.029.159-.003.243zm.119-.189c.028-.157.025-.322.074-.477l.042-.192c.048-.113.169-.054.243-.042.155.026.318-.017.46.07l.063-.011c.083.022.158.066.136.182l-.039.204c-.014.13-.001.309-.051.431-.068.167-.544.03-.688.034l-.021.007c-.13-.006-.249-.028-.219-.206z"/></g><path fill="#D2D5E7" d="M39.356 27.653c.121-.15.19-.352.152-.591-.192-1.178-.642-2.65-1.494-3.524-.366-.375-.925-.668-1.45-.706-.124-.009-1.065-.003-1.52-.041-.106-.095-.218-.178-.335-.244l-.168-.082c-.37-.155-.774-.15-1.174.1-.398.033-.764.108-1.149-.017-.465-.151-.932-.283-1.399-.415-.156-.568-.393-1.171-.74-1.568-.106-.122-.212-.226-.331-.335.229.211-.082-.113-.116-.144-.237-.212-.469-.256-.775-.184l-.217.065c-.122-.114-.359-.129-.498-.019-.286.232-.443.697-.567 1.027-.081.216-.125.438-.152.661-.03.109-.033.212-.023.32-.005.214.002.43.026.644l.023.079c-.039.178-.132.321-.258.47-.495-1.444-1.069-2.872-1.508-4.317-.565-1.871-1.246-3.648-2.51-5.158-.143-.17-.326-.198-.488-.141-.425-.291-.843-.242-1.084.644l-.009.162-.04.24c.021 2.5.835 4.952 1.28 7.395.226 1.24.411 2.496.643 3.731.119.628.166 1.266.202 1.903l-.098.431c-.114.56-.12 1.251-.26 1.842-.568.087-1.183-.005-1.756-.02-.367-.71-.713-1.43-1.019-2.154-.534-1.271-.808-2.928-1.689-3.975l-.035-.032c.298 1.405.351 2.988.165 4.378-.146 1.086-.767 2.03-1.157 3.048.26.575.573 1.13.906 1.675h21.32c.05-1.916-.208-3.513-.698-5.148zM16.703 32.803c-.322-.499.01-1.325.681-1.332.317-.924.798-1.805 1.225-2.678.58-1.187 1.165-2.378 1.61-3.623.359-1.004.816-2.35.614-3.342-.091-.45-.182-.693-.526-.971-.298-.241-.878-.377-1.338-.417-.144-.012-.268-.053-.374-.114-.124.145-.026.371.179.391l.013.002.091.102c2.221 1.218-.045 4.206-.661 5.755-.661 1.666-1.059 3.727-2.05 5.213-.328.492.078.958.536 1.014zM17.178 33.132c-.167-.044-.296-.123-.391-.222l-.005.015c-.119.18-.188.399-.201.605-.024.357.061.705.116 1.056-.351.605-.617 1.268-.886 1.912-.246.59-.399 1.132-.75 1.682-.284.445-.495.879-.546 1.391-.405.291-.753.636-1.13.962-.201.174-.424.319-.614.505-.108.106-.247.188-.368.28-.06.046-.41.245-.133.152-.324.109-.439.497-.199.752.227.24.542.251.862.171-.22.199-.416.42-.547.686-.075.15-.105.351 0 .499.809 1.14.514 2.273-.057 3.507-.312.675-.551 1.343.046 1.905.147.138.398.239.6.158.979-.394 1.604-1.98 1.923-2.917.357-1.047.401-2.596-.718-3.214-.148-.082-.303-.102-.451-.083l.033-.081.149-.195c.521-.168.836-.625 1.158-1.045.345-.448.659-.917.799-1.459.665-.633 1.177-1.66 1.46-2.485.294-.858.417-1.699.536-2.555.198-.131.325-.356.356-.609.403.057.74-.056 1.022-.425.16-.208.15-.517.048-.77-.701.133-1.421.006-2.112-.178z"/><path fill="#fff" d="M20.871 22.019c-.123-.825-.726-1.28-1.431-1.551l-.154.039c-.953.087-1.417.804-1.857 1.549l-.04.165c-.616 1.464-1.491 2.772-2.377 4.083-.07.104-.157.165-.249.195-.315.527-.649 1.044-.998 1.551-.065.095-.145.154-.229.187l-.021.203c-.065.671-1.105.569-1.039-.101l.126-1.291.022-.113c-.067-.088-.104-.204-.091-.346l1.221-12.479-.539.549c-.738.76-1.442 1.555-2.095 2.391-.616.786-1.282 1.565-1.704 2.476-.092.135-.181.273-.259.422-.188.361-.346.732-.495 1.112-.345.888-.59 1.794-.796 2.723l-.073.34-.1.291c-.309.943-.549 1.912-.833 2.861-.165.548-.55 1.358-.465 2-.579 1.78-1.187 3.553-1.72 5.348-.16.539-.317 1.081-.465 1.625-.059.087-.103.185-.125.291-.211 1-.514 2.021-.577 3.05l-.012.105-.012.139c-.054.286-.025.573.075.82l.121.251c.128.198.299.324.486.388.06.569.24 1.021.918 1.25.49.166.908-.13 1.211-.529l.089.075c.031.279.111.554.275.817.253.407.695.499 1.135.411.335-.066.599-.277.816-.542l.059.053c.071.272.224.512.478.692l.021-.01c.263-.074.528-.14.793-.203.755-.791 1.723-1.299 2.508-2.08.996-.991 2.11-1.894 2.768-3.166.851-1.646 1.11-3.694 2.2-5.209-.106-.107-.169-.257-.153-.417.019-.197.152-.358.326-.429-.036-.13-.027-.276.055-.42.443-.774.874-1.562 1.268-2.364.598-1.519 1.129-3.066 1.608-4.619.258-.831.459-1.715.33-2.583z"/><path fill="#272626" d="M12.906 22.786l-.003-.092c-.017-.405.037-.81.13-1.204l-.127 1.296zM12.429 47.036c.27-.33.543-.574.66-1 .099-.359.174-.72.294-1.073.053-.155.299-.104.252.059-.126.443-.188.898-.297 1.345-.106.437-.089.778-.408 1.132-.297.331-.778-.125-.501-.463zM.098 45.611l.004.005c-.058-.084-.091-.176-.1-.288-.01-.125.032-.221.078-.331.046-.109.104-.2.18-.295.19-.237.577-.227.789-.03.219.203.239.56.037.781l-.026.045c-.076.15-.193.271-.356.323-.159.05-.279.017-.421-.039-.077-.029-.123-.093-.17-.155l-.008-.01-.007-.006z"/><path fill="#D2D5E7" d="M19.255 20.523c-.131.042-.185.248-.042.317 1.875.883.283 3.958-.311 5.115-.918 1.789-2.04 3.498-2.497 5.477l-.01.208c-.398 1.033-.677 2.118-.914 3.197-.415 1.895-1.111 3.356-2.144 4.983-.225.354.288.742.575.444 2.41-2.501 2.966-5.884 3.835-9.144l.005-.031c.652-1.14 1.078-2.497 1.593-3.673.54-1.235 1.164-2.351 1.474-3.674.214-.904-.096-3.686-1.564-3.219zM12.442 27.656c.299-4.101 1.003-8.166 1.108-12.281-.045-.12-.102-.23-.174-.328-.279-.377-.852-.117-.758.287-.176.035-.333.119-.448.242-.134.035-.259.107-.347.223-.096.125-.204.32-.301.545-.28.369-.702.733-1.007.948-.221.157-.3.432-.246.664-.185.094-.36.252-.519.5-.127.201.13.469.332.333 1.531-1.041 1.819 1.702 1.866 3.822-.208 1.565-.357 3.406-.181 4.885.039.328.473.517.664.181l.011-.021z"/><path fill="#272626" d="M.309 43.567c0 .539.652.857 1.089.569.345-.226.542-.518.757-.863.185-.3.408-.465.657-.703l.142-.136.119-.058c.073-.031.256-.156.348-.156l.14-.006.099.047c.212.087.509.125.701.247.221.139.432.299.706.299.155.001.392.135.593.186.28.072.561.121.847.164.202.029.503-.001.685.09.483.244.955.433 1.507.368.604-.072 1.193.136 1.805.104.659-.036 1.302-.025 1.961-.02.224.001.555-.104.769-.046l.738.161c.189.05.33.042.459.186.154.17.314.288.415.474l-.002.204c-.082.297-.436.475-.547.787-.112.311-.145.723-.209 1.054-.072.371-.119.739-.078 1.114l-.091.38c-.067.191-.297.438-.452.574-.46.409.207 1.208.691.827.472-.37.294-.798.43-1.244l.051-.108.09-.073c.103-.11.091-.225.134-.361.106-.339.246-.685.419-.997.281-.505.895-1.043.791-1.693-.063-.395-.226-.698-.423-.991-.156-.434-.468-.798-.84-1.095l.159-.103c.982-.988 1.277-2.411 2.038-3.554.318-.478.454-1.047.716-1.557.277-.542.508-1.115.751-1.675.412-.949.762-2.037 1.299-2.834l-.944-.093-.086-.037-.019.015c-.244.436-.453.883-.651 1.333-.166.288-.328.576-.48.875-.032.062-.038.122-.026.175-.184.312-.352.633-.468.974l-.287.842-.149.353c-.211.522-.447.985-.719 1.477-.297.537-.592 1.065-.836 1.63-.241.555-.575 1.027-.876 1.547-.042.073-.059.144-.061.212l-.283-.142c-.576-.263-1.218-.213-1.839-.256 1.583-1.013 2.972-2.354 3.874-3.989.331-.601.52-1.255.782-1.886.252-.606.412-1.158.507-1.809.088-.602.192-1.146.395-1.723l.06-.175c.072-.013.137-.053.173-.132.382-.823.711-1.666 1.054-2.503l.042-.019.07-.162c-.02-.087-.018-.185.02-.29.492-1.391 1.1-2.733 1.701-4.081l.068-.114.217-.481.071-.114.057-.14c.125-.359.23-.724.303-1.097.177-.911.05-1.572-.583-2.273-.299-.331-.471-.579-.897-.749-.336-.132-.771-.148-1.127-.123-.827.057-1.303 1.285-1.672 1.866-.269.425-.584.874-.789 1.333-.207.464-.384.946-.617 1.398-.254.493-.535.919-.869 1.361-.139.182-.258.374-.361.573-.26.25-.39.586-.664.844-.359.337-.671.711-1.04 1.036l-.033.029c-.009-.185-.072-.375-.122-.56l.002-.04c.084-.056.041-.189-.047-.212l.129-.44-.036-.173.159-.662c.072-.275.175-.554.101-.836-.028-.11-.154-.115-.205-.02-.123.228-.179.513-.206.787l.096-.984c-.043.442-.172.876-.283 1.305-.081.311-.152.584-.164.9l.008.358-.077.161-.15.564c-.052.178-.094.34-.061.525l.02.055c-.096.11-.179.227-.239.358-.199.43-.516.81-.774 1.208-.149.228.184.413.36.256l.528-.583c.139-.134.302-.261.399-.431.265-.467.723-.735 1.098-1.101.32-.314.58-.658.86-1.006.138-.173.235-.393.338-.606.095.017.196-.013.241-.117.21-.468.473-.896.818-1.279.228-.253.368-.589.524-.892.21-.407.391-.832.568-1.255.151-.364.375-.654.561-.994.112-.207.24-.403.369-.598.295.343.774.522 1.18.689.165.068.337.126.518.108.175-.018.126-.069.236-.093.058-.011.108-.074.119-.135.051-.026.082-.089.08-.143-.012-.306.195-.535.148-.856-.028-.197-.079-.383-.224-.532-.267-.278-.614-.511-1-.511.126-.079.264-.116.411-.076.336.087.75.063.949.417.183.322.456.607.575.965.263.782-.233 1.803-.478 2.542-.156.468-.411.895-.601 1.349-.155.368-.261.759-.407 1.132-.486 1.248-.91 2.516-1.348 3.78-.564.902-1.012 1.901-1.203 2.942-.219 1.196-.603 2.409-1.16 3.502-.585 1.148-1.521 2.206-2.483 3.059-.703.624-1.545 1.103-2.382 1.568-.213-.004-.428-.014-.64-.044-.38-.049-.727-.134-1.11-.076-.212.031-.427.08-.639.024-.277-.072-.559-.195-.852-.186-.266.008-.542.081-.809.044-.338-.045-.646-.159-.974-.226l-.311-.043-.115-.056c-.241-.135-.469-.188-.728-.273l-.409-.173-.032-.535c-.031-.52-.079-1.017-.017-1.536.038-.319.057-.65.064-.978.14-.398.215-.819.284-1.242.109-.335.215-.672.299-1.014l.472-1.471.007-.023.128-.315.067-.119c.374-1.133.668-2.29.995-3.437l.147-.379c.263-.616.445-1.291.652-1.927.231-.712.456-1.417.701-2.125.358-1.034.651-2.08.891-3.142.197-.519.365-1.046.528-1.581.288-.947.673-1.829 1.177-2.682.786-1.328 1.839-2.394 2.981-3.446.091.185.155.453.179.572.051.25.036.509.106.752.057.194.303.231.394.039l.061-.202c.051-.039.09-.097.097-.178.04-.48-.031-.964-.227-1.407-.037-.085-.099-.132-.166-.149l.115-1.182c-.178.08-.206.174-.301.268-.458.45-1.004.808-1.463 1.252-.438.423-.849.877-1.297 1.291-.173.161-.349.321-.534.471-.265.35-.527.702-.808 1.036l.077.036-.177.312-.358.72c-.109.199-.214.399-.312.603-.661 1.373-1.055 2.892-1.333 4.389-.173.674-.386 1.343-.617 1.999-.478 1.355-.858 2.743-1.36 4.092-.283.754-.491 1.561-.715 2.336-.2.69-.354 1.393-.517 2.093l-.004.018-.057.17-.041.18c-.064.05-.117.123-.149.223-.469 1.472-1.112 2.919-1.144 4.485-.012.614.042 1.147.225 1.711l-.137.012c-.504-.002-.759.007-1.163.35-.701.593-1.356 1.229-1.358 2.227zm18.185-22.523c.375-.061.967.249 1.08.646.099.345-.056.604-.126.918l-.083.06-.12.058c-.06.072-.385-.125-.453-.158-.206-.104-.412-.189-.604-.325-.135-.094-.249-.183-.391-.235l.211-.348c.098-.172.244-.434.428-.633l.058.017z"/><path fill="#fff" d="M45.93 41.35c-.551-.848-1.217-1.603-1.787-2.44-.523-.769-.613-1.897-1.176-2.615.107-1.963-.131-3.871-.278-5.895-.144-1.983-.578-3.585-1.259-5.202.105-.163.151-.372.087-.604-.317-1.15-.922-2.566-1.862-3.343-.404-.334-.992-.565-1.518-.546-.125.003-1.059.111-1.516.123-.116-.084-.236-.153-.358-.207l-.176-.064c-.384-.114-.786-.066-1.156.226-.393.075-.748.188-1.145.106-.479-.1-.957-.182-1.436-.263-.217-.547-.517-1.123-.904-1.479-.118-.11-.235-.202-.365-.298.251.185-.093-.103-.13-.13-.259-.187-.495-.205-.791-.1l-.208.088c-.133-.101-.372-.09-.498.035-.259.261-.365.739-.454 1.083-.058.223-.077.448-.08.673-.019.11-.01.215.011.321.017.213.048.426.095.637l.031.077c-.02.181-.097.333-.207.494-.646-1.383-1.37-2.74-1.961-4.13-.764-1.799-1.631-3.494-3.049-4.859-.16-.154-.345-.162-.501-.088-.454-.243-.864-.149-1.009.757l.008.162-.013.243c.289 2.484 1.361 4.833 2.065 7.214.358 1.208.677 2.438 1.041 3.641.185.611.3 1.241.404 1.87l-.051.439c-.053.568.016 1.257-.061 1.859-.555.146-1.176.123-1.748.168-.441-.666-.861-1.344-1.243-2.031-.668-1.207-1.118-2.825-2.106-3.77l-.174-.107c-.511-.611-1.729-.117-1.533.716.385 1.627.191 3.335.664 5.002.566 2 2.042 3.576 3.303 5.181 1.583 2.017 3.65 5.133 6.22 6.428-.074.295-.042.625-.017.921 0 .095.015.188.043.279-.003-.008.041.392.046.243-.009.266.011.482.104.736l.013.026c-.14.336.032.828.445.845 2.305.093 4.59-.324 6.87-.617 2.783-.357 5.662-.599 8.384-1.292.176-.045.298-.136.383-.244l.259.117c.244.103.423-.187.294-.386z"/><path fill="#272626" d="M43.347 24.5c-.145-1.043-.395-2.002-.968-2.894-.067-.105-.242-.002-.188.11.868 1.809.89 3.951 1.198 5.904.048.305.506.247.475-.061-.102-1.039-.373-2.031-.517-3.059zM43.88 24.207c-.104.417-.042.854.086 1.259.063.199.411.159.415-.054.009-.389-.134-.75-.056-1.142.057-.289-.377-.339-.445-.063zM30.816 12.771c-.095-.737-.734-2.196-1.657-1.669-.189.108-.072.422.134.321.786-.383 1.279 2.121 1.383 2.634.209 1.039.357 2.144.795 3.119.079.177.38.111.34-.092-.284-1.438-.81-2.871-.995-4.313zM27.728 11.68c-.364.033-.727.209-1.079.307-.444.123-.86.328-1.299.463-.065.02-.036.126.031.114.459-.084.867-.277 1.318-.39.364-.09.722-.19 1.078-.313.105-.036.054-.19-.049-.181zM27.653 14.173l-.462.163c-.094.042-.034.186.062.146l.459-.17c.085-.042.032-.172-.059-.139zM32.887 12.959c-.124-.674-.382-1.532-1.171-1.473-.112.008-.108.178-.001.193.931.141 1.095 2.433 1.244 3.158.171.829.295 1.628.547 2.439.047.154.264.074.257-.069-.073-1.418-.62-2.849-.876-4.248zM43.868 29.826c-.023-.143-.238-.116-.224.028l.064.634c.019.165.279.132.257-.034l-.097-.628z"/><path fill="#D2D5E7" d="M26.726 26.226c-.299-1.521-.458-3.075-.767-4.599-.313-1.543-1.135-3.076-1.854-4.463-.42-.81-.876-1.564-1.047-2.467-.058-.309-.101-.771.032-1.062.104-.229.307-.325.369-.565.043-.167-.218-.273-.31-.131-.048.075-.31.198-.382.252-.163.123-.366.369-.384.582-.059.717-.133 1.435.094 2.138.223.688.611 1.338.9 2.003.331.758.677 1.502.991 2.268.501 1.226.69 2.442.915 3.724l.11.808c-.093.06-.161.165-.153.296.043.667.24 1.297.361 1.952.05.268.07.541.091.812.013.168.074.9-.069 1.007-.082.061-.104.165-.086.259-.283.107-.21.586.112.518.558-.12 1.047-.472 1.284-.996.322-.715-.069-1.631-.207-2.336zM29.798 18.463c-.856.261-.762 1.256-.724 1.989.025.455.078.845.151 1.295l-.067.008-.166-.288c-.084-.133-.283-.029-.269.112.036.359.035.737.353.982.306.237.607.082.756-.231.211-.446-.079-1.019-.121-1.464-.027-.283.022-.58.004-.864-.034-.531.049-.757.374-1.158.17-.208-.069-.448-.291-.381z"/><path fill="#272626" d="M46.363 41.252c-.134-.075-.305-.046-.39.09-.088.139-.033.297.089.39l.027.028.046.049.051.075.02.022c.048.157.192.264.36.227.158-.036.267-.202.227-.362-.056-.22-.234-.408-.43-.519zM31.485 44.7l-.141-.2c-.07-.088-.192-.142-.303-.139-.167.005-.311.117-.318.292-.008.162.132.315.292.32l.009.005c.068.054.145.083.234.083.2-.002.297-.186.227-.361zM37.841 21.432c-.068.011-.147.028-.212 0-.156-.07-.265.181-.123.267.128.078.265.066.403.027.188-.053.124-.328-.068-.294zM34.002 21.403l-.271.08c-.214.063-.143.375.079.338l.277-.046c.244-.04.151-.442-.085-.372zM29.332 22.594l-.042.02c-.198.01-.138.342.074.277.084-.026.12-.076.156-.152.055-.114-.092-.218-.188-.145z"/><path fill="#D2D5E7" d="M42.792 35.191c-.097.072-.178.155-.256.241.254-.61.503-1.481.233-2.026-.073-.149-.326-.187-.388-.001-.161.485 0 1.003-.143 1.492-.087.303-.188.607-.382.859-.061.078-.186.202-.323.303l-.268.043c-.707.091-1.359.252-2.051.429-.663.17-1.288.447-1.948.606-.384.093-.714.194-1.114.145-.291-.036-.555-.051-.846-.028-.612.047-1.204.072-1.813.18-.668.119-1.307.336-1.968.481-.479.105-.951.225-1.429.314-.496-.144-1.009-.249-1.502-.38-.388-.102-.745-.298-1.078-.537l-.089-.065c-.332-.248-.639-.532-.929-.801-1.236-1.146-2.19-2.494-3.231-3.808-1.072-1.352-2.05-2.806-2.593-4.449-.253-.766-.366-1.586-.602-2.358-.123-.401-.22-.816-.326-1.223l-.098-.373c-.037-.345.02-.691.434-.567l.101-.005c.219.129.414.303.649.393l.178.206c.167.228.211.699.545.732.083.008.162-.059.148-.146-.045-.297-.294-.65-.477-.887l-.125-.137-.003-.006c-.192-.316-.582-.514-.958-.581l-.017-.011-.094-.006-.089-.009-.191-.093c-.039-.044-.101-.066-.165-.065-.12.003-.238.046-.318.136l-.035.143c-.061.105-.095.232-.124.344-.216.869.053 1.885.103 2.766.057 1.008.384 1.998.521 2.993.139 1.006.854 2.034 1.371 2.886 1.139 1.88 2.558 3.643 4.268 5.034.449.365.937.679 1.396 1.033.402.309.781.606 1.267.773l.382.139c-.072.099-.083.25.033.332.179.128.41.261.646.32-.014.449-.161.894-.2 1.367-.042.486.078 1.037.313 1.491.021.1.061.195.113.284-.023.171-.073.333-.044.514.014.087.086.182.183.185.436.017.826-.116 1.203-.321.171-.042.326-.108.441-.192.299-.108.585-.215.666-.59.042-.196-.092-.512-.119-.706-.063-.458-.117-.912-.103-1.375.013-.382.126-.712.27-1.034.078-.133.156-.268.207-.416.298-.136.604-.256.906-.376.788-.17 1.576-.327 2.386-.41.682-.07 1.325-.044 1.991-.241.821-.242 1.597-.566 2.432-.765.407-.098.802-.248 1.219-.294.399-.043.775-.084 1.162-.197.574-.166 1.197-.722 1.319-1.308.077-.36-.378-.578-.647-.377z"/><path fill="#272626" d="M45.779 40.25c-.089-.688-.752-1.205-1.005-1.859-.174-.451-.353-.861-.592-1.254.031-.342-.083-.659-.437-.882-.106-.066-.218-.111-.333-.14l-.04-.232c-.052-.722-.138-1.434-.135-2.159.004-.815.127-1.842-.231-2.59l-.028-.041c-.061-.456-.119-.912-.168-1.367l-.041.016c-.048-.615-.14-1.232-.193-1.842-.082-.925-.156-1.89-.375-2.792-.176-.731-.23-1.574-.593-2.237-.194-.353-.395-.635-.625-.892-.265-.568-.901-1.081-1.345-1.428-.7-.548-1.372-.135-2.116-.125-.025-.057-.063-.11-.125-.149-.533-.346-1.366-.581-2.007-.575-.281.002-.557.294-.77.436-.26.175-.671.261-1.049.258l-.008.077c-.308-.093-.542-.223-.801-.56l-.704-1.165c-.562-.727-1.654-.619-2.444-.558-.067.006-.124.045-.163.098l-.048.02-.099.019c-.15.06-.232.156-.347.265-.115.108-.117.239-.06.337-.153.246-.261.508-.341.874-.052.237-.049.595.016.872-.465-1.094-.882-2.227-1.421-3.284-.685-1.344-1.428-2.703-2.277-3.972-.147-.284-.316-.548-.522-.755l-.063-.091c-.05-.069-.112-.102-.176-.11-.299-.201-.667-.283-1.139-.156-2.153.579-1.338 2.8-.444 4.581l.011.128c.305.893.567 1.894 1.003 2.726.23.44.378.792.445 1.282l.062.245h-.029l.161.601c.264 1.18.469 2.372.715 3.556.095.462.735 3.073.133 3.631-.029-.106-.107-.193-.25-.221-.707-.132-1.019-.919-1.407-1.45l-.615-.835c-.474-1.53-.721-3.355-2.379-3.948-.581-.208-1.547-.171-1.893.445-.26.462-.153 1.04.045 1.586.146 1.77.369 3.521.855 5.18l-.008.051c.074.349.206.7.468.948l.07.291.229.233c.845 1.779 2.027 3.542 3.284 4.844.627.649 1.387 1.155 2.113 1.7l.074.031c.278.326.584.612.952.853.275.181.537.407.806.612l.253.253c.197.178.439.406.709.55-.056.097-.102.204-.129.328-.077.336-.052.714.049 1.069.052.259.128.511.236.754.183.417.201.87.414 1.277.196.379.715.252.719-.174.003-.291.221-.623-.33-.842l-.001-.004.046-.35.073-.105.029-.039-.022-.038-.156-.555c-.068-.263-.017-.542.005-.814l.022-.031c.136-.16.294-.253.462-.297.549-.316 1.17-.727 1.77-.876.765-.192 1.623-.291 2.409-.293.674-.003 1.348.039 1.997-.179.706-.236 1.382-.619 2.139-.669.715-.045 1.292-.26 1.979-.435.72-.183 1.474-.247 2.173-.501.39-.145.774-.323 1.031-.222.246.584.311 1.194.548 1.788.104.258.216.51.341.759.159.316.533.538.724.85.287.463.98.172.914-.331zm-21.662-26.737l.038.041.407.517.101.172c-.211.028-.417.126-.614.202-.208.08-.428.16-.62.274-.448.263-.38-.736-.237-.907.183-.22.636-.387.925-.299zm-4.79 10.599c.301.061.437.86.445 1.037.009.194.087.518-.109.617l-.13.09c-.053-.293-.121-.582-.214-.864.011-.298.029-.598.008-.88zm21.977 12.354c-.508.092-1.033.145-1.528.289-.551.163-1.063.347-1.642.395-.92.076-1.615.44-2.481.689-.985.283-2.11.152-3.13.289-.889.12-1.815.303-2.528.873-.282.225-.612.375-.914.541-.135-.113-.303-.194-.461-.292l-.325-.216c-1.143-1.13-2.479-2.147-3.723-3.103-2.117-1.628-2.993-4.684-4.6-6.78l-.062-.056-.026-.116c-.156-.894-.165-1.841-.291-2.755l.049-.051c.193-.325.461-.21.426-.64-.03-.37-.057-.706-.167-1.063-.1-.32-.34-.631-.604-.606l-.003-.019c-.097-.51.42-.587.891-.541.547.055.917.663 1.119 1.088.328.69.614 1.393.798 2.139.114.461.164.79.513 1.1l.019.121c.511.754 1.019 1.813 2.02 1.822l.025-.002c.476.227 1.045-.015 1.174-.606.234-1.071-.013-2.124-.189-3.187-.207-1.255-.461-2.522-.737-3.763.127-.74-.149-1.623-.407-2.31-.163-.435-.473-.816-.648-1.256-.109-.276-.226-.558-.353-.835l-.426-1.193c-.167-.515-.393-.998-.46-1.541-.003-.144-.026-.283-.068-.419-.335-.865.555-1.743 1.36-1.131-.237-.015-.492.086-.699.19-.35.176-.434.591-.371.946.054.303.154.654.526.547.208-.06.412-.188.617-.264.258-.095.561-.139.807-.265.707 1.227 1.346 2.509 1.966 3.753.417.834.898 1.635 1.347 2.45.3.547.262 1.161.715 1.601.14.136.365-.006.379-.173.041-.047.068-.111.067-.194-.007-.25-.065-.499-.03-.747.046-.316-.131-.605-.159-.917-.033-.346.056-.686.178-1.004.071-.184.202-.324.306-.48l.033-.021c.268.186.53.129.921.162.727.06.995.895 1.325 1.421.533.848 1.216 1.016 2.144.867l.144-.061c.22-.037.442-.101.664-.194.354-.149.573-.422.966-.308.365.108.747.214 1.128.259l.105.05c.556.156 1.157.195 1.728.146.369-.03.816.588 1.038.822.192.204.352.43.547.623.631 1.144.946 2.455 1.038 3.776.079 1.126.283 2.52.682 3.678l-.023.005c.057.604.131 1.206.225 1.805l.034.277c-.015.478.029.962.043 1.439.016.551.083 1.057.173 1.564l-.047.009.086.304.028.041.135.673c-.479.082-.97.279-1.387.355z"/></svg>