<?xml version="1.0" encoding="utf-8"?>
<!-- Generator: Adobe Illustrator 15.0.0, SVG Export Plug-In . SVG Version: 6.00 Build 0)  -->
<!DOCTYPE svg PUBLIC "-//W3C//DTD SVG 1.0//EN" "http://www.w3.org/TR/2001/REC-SVG-20010904/DTD/svg10.dtd">
<svg version="1.0" id="Layer_1" xmlns="http://www.w3.org/2000/svg" xmlns:xlink="http://www.w3.org/1999/xlink" x="0px" y="0px"
	 width="100px" height="100px" viewBox="0 0 100 100" enable-background="new 0 0 100 100" xml:space="preserve">
<g>
	<g>
		<g>
			<path fill-rule="evenodd" clip-rule="evenodd" d="M46.877,7.709c0.042,0.336-0.038,0.552-0.265,0.619
				c-0.283-0.012-0.39-0.201-0.354-0.53C46.373,7.676,46.642,7.709,46.877,7.709z"/>
			<path fill-rule="evenodd" clip-rule="evenodd" d="M48.645,9.212c-0.127,0.344-0.23,0.713-0.796,0.619
				C47.044,9.368,48.174,8.639,48.645,9.212z"/>
			<path fill-rule="evenodd" clip-rule="evenodd" d="M52.004,33.7c-0.169,0.582-0.876,0.146-1.326,0.177
				c-0.601,0.04-1.372,0.569-1.679,0C49.533,32.946,50.926,33.86,52.004,33.7z"/>
			<path fill-rule="evenodd" clip-rule="evenodd" d="M55.365,33.7c-0.327,0.497-1.219,0.215-1.504-0.089
				C54.193,33.177,54.997,33.602,55.365,33.7z"/>
			<path fill-rule="evenodd" clip-rule="evenodd" d="M48.645,33.611c0.297,0.809-0.997,0.967-1.414,0.441
				C47.389,33.604,48.2,33.498,48.645,33.611z"/>
			<path fill-rule="evenodd" clip-rule="evenodd" d="M44.932,33.965c-1.098,0.781-2.614,0.436-3.978,0.441
				c-0.91,0.005-1.781,0.455-2.652,0.177c0.241-1.079,1.628-0.428,2.563-0.442c0.55-0.008,1.179-0.057,1.769-0.089
				C43.479,34.007,44.415,33.232,44.932,33.965z"/>
			<path fill-rule="evenodd" clip-rule="evenodd" d="M46.524,34.229c-0.206,0-0.413,0-0.619,0
				C45.732,33.734,46.697,33.734,46.524,34.229z"/>
			<path fill-rule="evenodd" clip-rule="evenodd" d="M36.976,34.407c-0.074,0.574-0.443,0.114-0.795,0.177
				c-0.438,0.078-0.863,0.444-1.238,0.441c-0.532-0.004-1.064-0.441-1.502-0.441C34.044,34.054,36.141,34.122,36.976,34.407z"/>
			<path fill-rule="evenodd" clip-rule="evenodd" d="M37.595,34.229c0.276-0.041,0.395,0.077,0.354,0.354c-0.117,0-0.236,0-0.354,0
				C37.595,34.466,37.595,34.348,37.595,34.229z"/>
			<path fill-rule="evenodd" clip-rule="evenodd" d="M32.822,34.496c-0.006,0.38-0.56,0.265-0.796,0.177
				C31.938,34.276,32.731,34.167,32.822,34.496z"/>
			<path fill-rule="evenodd" clip-rule="evenodd" d="M62.098,34.368c0.322,0.001,0.897,0.081,0.78,0.393
				c-0.073,0.203-0.543,0.242-0.707,0.087C61.839,34.782,61.741,34.546,62.098,34.368z"/>
			<path fill-rule="evenodd" clip-rule="evenodd" d="M57.928,49.966c0.124,0.752-3.676,0.58-3.625,0.265
				C54.303,49.678,57.495,49.43,57.928,49.966z"/>
			<path fill-rule="evenodd" clip-rule="evenodd" d="M48.734,50.231c-0.139,0.421-0.694,0.359-1.22,0.359
				C46.893,50.159,48.253,49.815,48.734,50.231z"/>
			<path fill-rule="evenodd" clip-rule="evenodd" d="M52.093,50.32c-0.027,0.158-0.579,0.304-0.973,0.354
				c-0.77-0.305-1.279,0.22-1.945-0.354C49.468,49.768,51.806,49.741,52.093,50.32z"/>
			<path fill-rule="evenodd" clip-rule="evenodd" d="M53.861,50.143c-0.001,0.273-0.663,0.437-0.618,0
				C53.41,49.968,53.66,50.1,53.861,50.143z"/>
			<path fill-rule="evenodd" clip-rule="evenodd" d="M50.22,51.87c0,0.704-2.811,0.61-2.901,0.218
				c-0.011-0.219,0.149-0.534,0.402-0.519C48.766,51.636,49.441,51.427,50.22,51.87z"/>
			<path fill-rule="evenodd" clip-rule="evenodd" d="M51.475,57.838c0.868,0.104,1.449,0.495,1.768,1.149
				C52.511,59.088,51.625,58.609,51.475,57.838z"/>
			<path fill-rule="evenodd" clip-rule="evenodd" d="M46.435,58.987c-1.332-0.271-1.954,0.853-2.829,1.326
				c-0.544-0.847,0.442-1.515,1.326-1.503C45.376,58.291,47.021,57.696,46.435,58.987z"/>
			<path fill-rule="evenodd" clip-rule="evenodd" d="M51.562,60.313c0,0.176,0,0.354,0,0.529c-0.445,0.134-0.956,0.01-0.972-0.529
				C50.841,60.073,51.285,60.134,51.562,60.313z"/>
			<path fill-rule="evenodd" clip-rule="evenodd" d="M45.728,61.639c-0.477,0.18-1.39,0.487-1.68,0.089
				C44.059,61.185,45.785,61.16,45.728,61.639z"/>
			<path fill-rule="evenodd" clip-rule="evenodd" d="M42.9,67.209c0.003-0.151-0.066-0.229-0.178-0.266
				c0.137-0.394,0.402-0.659,0.707-0.885c0.022-0.669-0.297-1.348,0.354-1.502C44.875,65.387,44.688,67.604,42.9,67.209z"/>
			<path fill-rule="evenodd" clip-rule="evenodd" d="M59.849,68.621c-0.023-0.711,0.056-1.195-0.006-1.489
				c0.011-0.563,0.07-0.563,0.057-0.894c-0.017-0.381,0.005-0.369,0.027-0.757c0.04-0.674-0.114-0.384-0.144-1.146
				c-0.035-0.956,0.126-0.88,0-1.671c-0.055-0.351-0.021-0.666-0.068-1.048c-0.073-0.587-0.168-0.159-0.107-0.888
				c0.111-1.345,0.034-0.957,0.152-1.894c0.037-0.289-0.081-0.27-0.064-0.563c0.037-0.63,0.064-0.689,0.088-1.29
				c0.021-0.529-0.03-1.078,0-1.623c0.051-0.92,0-2.605-0.088-2.918c-0.729-0.955-3.509-0.328-5.04-0.265
				c-0.484,0.021-1.479-0.129-2.298-0.088c-0.637,0.031-1.296,0.559-1.587-0.321c0.058-0.828,2.89-0.288,4.179-0.438
				c1.911-0.091,3.308-0.268,5.188-0.214c-0.025-0.301,0.068-0.716-0.088-0.884c-0.334-0.132-1.401,0.162-1.592-0.354
				c0.195-0.305,0.741-0.26,1.061-0.441c0.006-1.074-0.051-1.661,0.089-2.829c-0.046-0.722-1.982-0.271-3.538-0.384
				c-1.254-0.092-2.31,0.038-3.491,0.084c-0.694,0.027-0.964,0.189-2.141,0.046c-0.282-0.034-1.063,0.009-1.351-0.011
				c-0.882-0.063-1.182,0.118-2.126,0.087c-0.217,0.078-0.37,0.126-0.702,0.089c-1.671,0.018-2.89-0.05-4.501,0.096
				c-1.144,0.038-2.642-0.029-3.456,0.523c-0.541,0.809,0.08,1.759-0.088,2.564c1.061,1.239,3.689,0.297,5.378,0.48
				c0.353-0.039,0.676-0.044,0.99-0.084c0.461,0.046,0.759-0.05,1.297,0.046c0.345-0.015,0.737-0.212,0.733,0.353
				c-0.172,0.421-0.61,0.123-0.887,0.116c-1.29,0.086-2.595-0.067-4.064,0.149c-0.309,0.046-0.72,0.087-1.043,0.096
				c-0.666,0.019-3.119-0.346-3.377,0.435c-0.073,0.338,0.013,0.379,0.354,0.441c1.208,0.03,1.597,0.037,2.728-0.047
				c1.336,0,1.72-0.05,2.809,0.031c0.86,0,1.461-0.136,2.165-0.093c0.669,0.041,1.289,0,1.492,0.374
				c-0.234,0.608-2.317,0.324-3.536,0.354c-0.369,0.008-0.77,0.011-1.164,0.007c-0.959-0.008-1.918-0.075-2.726,0.435
				c-0.213,0.884-0.344,1.818-0.265,2.829c0.028,0.376,0.051,0.73,0.047,1.081c-0.005,0.464-0.102,0.945-0.136,1.482
				c-0.072,1.137,0.031,2.647,0.021,3.64c-0.012,1.082-0.216,0.645-0.021,1.821c0.04,0.238,0.031,0.552,0.04,0.81
				c0.015,0.413-0.011,0.252-0.04,0.688c-0.063,0.941-0.099-0.632,0,0.328c0.037,0.365,0.08,0.505,0.086,1.047
				c0.014,1.266-0.135-0.409,0.18,0.865c1.434-0.047,2.43,1.506,2.368,1.667C41.75,69.2,40.531,69.262,40.392,69
				c-0.31-0.426-0.414-0.921-0.853-0.994c-0.437,0.073-0.492,0.968-0.521,1.079c-0.062,0.338-0.783,0.66-0.805,0.246
				c-0.068-1.347-0.27-0.042-0.178-2.354c0.03-0.746,0.057-1.032,0.123-1.98c0.092-1.304-0.074-0.134-0.034-1.261
				c0.047-1.356,0.034,0.105-0.089-1.215c0.146-2.839-0.276-6.362,0.023-9.255c-0.039-0.33-0.094-0.371-0.2-0.561
				c-0.376-0.184-0.812,0.061-1.148-0.089c-1.214-0.534-0.799-2.045,0.442-2.474c0.27-1.2,0.299-2.216-0.068-3.4
				c-0.149-0.582-2.249-1.563-3.999-1.727c-0.752-0.475-0.777-2.354-0.442-3.359c-0.557-1.299-1.571-2.141-2.298-3.271
				c-0.667-0.274-1.638-0.702-2.299-1.15c-0.229-0.155-0.365-0.554-0.618-0.708c-0.353-0.212-0.841-0.131-1.149-0.441
				c-0.287-0.289-0.273-0.865-0.531-1.15c-0.104-0.116-0.476-0.061-0.707-0.264c-0.207-0.185-0.192-0.506-0.354-0.62
				c-0.102-0.072-0.434-0.038-0.53-0.087c-1.1-0.57-2.028-2.382-0.354-3.094c0.342-0.146,0.653-0.161,0.987-0.273
				c0.121-0.041,0.116-0.044,0.339-0.169c0.642-0.362,1.042-0.843,1.641-1.396c0.261-0.556,0.603-0.909,0.923-1.168
				c0.32-0.259,3.073-0.31,4.155-0.53c-0.111-0.869-0.645-1.936-0.354-3.094c-1.443-0.207-2.856-0.444-3.891-1.062
				c-0.481-0.564-0.742-0.539-1.236-1.325c-0.495-0.787-0.786-1.6-0.797-2.476c-0.01-0.791,0.2-1.382,0.619-2.034
				c0.419-0.651,0.857-1.324,2.034-1.237c0.869,1.439,0.476,5.296,1.503,5.657c1.026,0.362,1.073,0.062,1.679-0.088
				c0.181-0.556,0.694-0.78,1.062-1.15c-0.15-2.223,0.865-5.687,1.06-6.188c0.196-0.5,1.335-1.672,2.653-1.856
				c0.185-0.374-0.004-0.522,0.795-0.884c0.8-0.362,1.888-0.308,2.563-0.53c0.676-0.223,2-0.281,2.122-1.149
				c-0.842-0.425-1.864-0.671-3.094-0.708c-0.651-0.477-1.672-1.937-2.652-2.122c-0.807-0.151-1.694,0.2-2.563-0.265
				c-1.221-1.398-3.004-2.411-5.445-2.702c-0.964-0.438-2.53-0.226-2.688-1.542c0.935-1.11,3.395-0.3,4.467-0.333
				c1.139,0.11,2.336-0.146,3.578-0.02c0.989,0.099,2.164,0.499,2.652-0.089c0.356,0.096,0.85,0.022,1.326,0
				c0.137-0.006,0.279,0.244,0.442,0.265c1.134,0.148,2.564-0.416,3.535-0.088c0.245-0.138,0.492-0.274,0.796-0.354
				c0.794,0.372,1.955-0.761,2.387,0.089c-0.66,1.309-2.971,0.32-4.066,0.884c-0.359,0.006-0.427-0.28-0.796-0.265
				c-0.995,0.63-2.957-0.206-3.89,0.53c0.352,0.494,1.329-0.197,1.769,0.442c0.334-0.196,0.941-0.119,1.326-0.265
				c0.312,0.071,0.3,0.465,0.706,0.442c1.803-0.616,4.019-0.248,5.747,0.177c0.014,0.356-0.264,0.733,0.177,0.795
				c0.712-0.243,0.083-0.873,0.885-1.06c1.351-0.155,3.179,0.24,4.508,0c0.478-0.087,1.231-0.513,1.237-1.15
				c-0.317-0.524-1.144-0.344-1.591-0.089c-1.27-0.611-3.737,0.48-4.598-0.441c0.8-0.567,1.975-0.253,3.006-0.354
				c0.725-0.07,1.476-0.315,2.21,0c-0.075-0.595,0.849-0.003,1.238,0.177c1.314,0.606,1.138-0.376,1.768-0.354
				c0.386-0.327,0.903-0.803,1.297-1.096c0.931-0.699,1.949-0.299,3.212-0.406c0.655,1.052,1.967,1.302,2.387,2.563
				c0.179,0.534,0.071,1.286,0.266,1.945c0.093,0.313,0.371,0.578,0.442,0.883c0.074,0.317-0.014,0.654,0.088,0.973
				c0.294,0.918,1.192,1.557,1.415,2.387c-0.02,1.948,0.295,3.294,0.088,5.039c1.019,0.277,2.167,0.426,3.007,0.884
				c0.341,0.518,0.364,1.031,0.795,1.503c0.372,0.408,1.089,0.492,1.414,0.885c0.174,0.209,0.077,0.579,0.265,0.883
				c0.334,0.544,0.804,0.504,0.885,1.062c0.034,0.239-0.139,0.568-0.178,0.884c-0.071,0.604,0.048,1.303,0,1.856
				c-0.046,0.555-0.309,1.146-0.353,1.68c-0.123,1.476,0.288,2.887,0,4.508c0.912,1.15,2.312,1.813,2.563,3.625
				c1.247,0.727,2.307,1.641,2.74,3.182c0.543,0.01,0.519,0.633,0.885,0.972c0.299,0.277,0.789,0.291,1.061,0.619
				c0.572,0.694,0.861,1.787,0.977,2.581c-0.373,0.718-0.833,1.07-1.685,1.309c-0.55,0.774-0.788,1.435-1.872,1.651
				c-0.485,0.096-1.014,0.173-1.486,0.205c-0.597,0.041-0.989,0.012-1.503,0.354c-0.506,0.272-0.29,0.756-0.619,1.503
				c-0.307,0.697-0.96,0.925-1.061,1.326c-0.165,0.66,0.416,1.284,0,2.033c-0.75,0.959-2.202,1.217-3.359,1.769
				c-0.743,0.96-0.679,1.94-0.441,3.447c0.421,0.518,1.782,1.278,0.883,2.21c-0.415,0.432-0.861,0.109-1.149,0.531
				c-0.282,0.415-0.01,0.671,0,1.415c0.012,0.827-0.052,1.985,0,3.182c0.04,0.906-0.055,1.459-0.104,2.202
				c-0.021,0.293-0.041,0.894-0.071,1.158c-0.053,0.459,0.048,1.397,0.088,2.295c0.155,3.438,0.086,1.441,0.088,1.813
				c0.005,0.528,0.184,1.192,0.09,1.326c-0.114,0.24-0.805,0.24-0.885,0c-0.306-1.109,0.171-0.494,0-1.681
				c-0.044-0.3-0.091-1.44-0.088-1.68c0.01-0.992-0.161-4.448-0.073-6.132c0.046-0.872,0.14-3.187-0.192-4.075
				c-0.135-0.361-0.406-0.737-0.797-0.973c-0.99-0.547-1.936-1.468-2.121-0.796c-0.616,1.82-0.14,2.344-0.343,4.508
				c-0.03,0.327,0,1.25-0.01,1.583c-0.047,1.482,0.074,0.241,0.033,1.947c-0.05,2.026,0.161,1.652,0.055,3.754
				c0.044,0.392-0.029-0.144-0.044,1.007c-0.009,0.628,0.081,0.9,0.132,1.385c0.037,0.347,0.061,0.149,0.079,0.486
				c0.038,0.699,0.078,1.059-0.1,1.336C60.707,69.606,59.853,69.262,59.849,68.621z M29.461,3.554
				c0.246,0.596,2.008,0.779,2.388,0.177C31.299,3.279,30.1,3.574,29.461,3.554z M56.69,4.527c0.118,0.426,0.62,0.506,1.238,0.354
				c1.06,0.346,0.551,1.808,0.53,2.651c0.396,0.3,0.943,0.099,1.503,0.089c0-0.294,0-0.589,0-0.884
				c-0.923-0.44-0.668-2.026-0.442-2.741C58.729,3.443,56.349,3.292,56.69,4.527z M48.38,4.969c0.188,0.227,0.394,0.155,0.619,0
				c0.08-0.375-0.145-0.445-0.354-0.531C48.596,4.654,48.302,4.626,48.38,4.969z M38.479,4.792c-1.528-0.352-3.916,0.103-5.835,0
				c0.041,0.52,0.585,0.535,0.884,0.795c2.071-0.213,4.052,0.096,6.101-0.177c0.094-0.506-0.125-0.701-0.354-0.883
				C38.841,4.446,38.636,4.595,38.479,4.792z M50.678,8.152c0.522-0.312,0.413-0.969,0.708-1.503
				c0.269-0.486,1.459-1.31,0.908-1.934c-0.176,0-0.644,0.431-0.819,0.431C51.288,6.135,49.916,7.292,50.678,8.152z M47.054,5.853
				c0.036-0.112,0.114-0.181,0.265-0.177c0.023-0.289-0.104-0.425-0.354-0.441C46.737,5.401,46.781,5.743,47.054,5.853z
				 M55.806,5.942c0.089,1.039,0.931,1.461,1.768,1.502c0.308-0.419,0.371-1.209-0.088-1.502
				C56.758,6.195,56.425,5.583,55.806,5.942z M45.198,7.798c-1.503,0.665-2.862-0.125-4.154-0.442c-0.208-0.051-0.501,0.048-0.708,0
				c-0.679-0.159-1.572-0.662-2.033,0.353c0.65,0.145,0.875,0.716,1.326,1.062c1.3,0.064,2.935,0.153,4.686-0.089
				c0.278,0.075,0.369,0.336,0.618,0.441c0.385,0.002,1.048-0.518,0.973,0.266c-0.716,0.258-2.889-0.376-3.271,0.531
				c0.845,1.258,2.756,0.632,4.42,1.238c0.481-0.48,1.265-0.681,1.945-0.531c0.586-0.75-0.257-1.378-0.354-2.21
				c-0.234-0.001-0.521,0.049-0.53-0.177c0.004-0.121-0.041-0.194-0.088-0.265c0.119-0.382,0.61-0.392,1.148-0.354
				c0-0.234,0.034-0.504-0.088-0.619c-0.405-0.021-0.344,0.422-0.707,0.442c-0.486-0.356-1.47-0.108-2.121-0.088
				c-0.176,0.119,0.027,0.617-0.266,0.619C45.6,8.044,45.406,7.914,45.198,7.798z M53.507,8.593
				c-0.646,0.304,0.35,0.313,0.506,0.334c0-0.089-0.152-0.334-0.152-0.423C53.694,8.485,53.667,8.605,53.507,8.593z M54.038,10.272
				c0.231,0.025,0.38-0.032,0.354-0.265c-0.122,0.003-0.21-0.297-0.594-0.162C53.771,9.965,54,10.088,54.038,10.272z M47.496,12.041
				c-0.749-0.232-1.592-0.179-2.475-0.62c-0.229,0.035-0.267,0.265-0.53,0.266c-0.396-0.253-1.245-0.052-1.503-0.442
				c-1.257-0.328-2.352-0.268-3.448,0c-1.097,0.268-3.06,1.89-3.801,3.625c0,0.294,0,0.589,0,0.884
				c-0.485,1.843-2.104,4.442-2.211,4.773c-0.105,0.332-0.358,0.703-0.618,0.973c-0.051,1.163-0.628,2.051-0.441,3.182
				c-0.04,0.313-0.299,0.41-0.354,0.707c0.099,1.412,0.826,2.124,2.299,1.945c0.651-1.056-0.081-1.758-0.266-2.387
				c-0.353-1.205,0.592-1.793,0.619-2.829c0.016-0.577-0.522-0.995,0.089-1.592c0.627-0.051,0.855-0.253,1.464-0.322
				c0.397,0.056,0.458,0.138,0.393,0.411c-0.379,0.122-0.706,0.052-0.609,0.65c-0.061,0.276,0.75,0.299,1.316,0.234
				c1.618-1.647,3.85-2.327,3.889-5.659c0.264-0.149,0.516-0.31,0.885-0.353c0.313-1.206,1.363-3.487,2.564-3.006
				c-0.65,1.118-2.712,2.257-1.415,3.978c0.845-0.322,1.362,0.23,1.68,0.707c1.426-0.018,2.491-0.097,4.066-0.087
				c0.27,0.143,0.263,0.561,0.618,0.619c0.309-0.104,0.194-0.632,0.619-0.619c0.96,0.16,0.319,1.919,1.326,2.033
				c0.396-0.405-0.181-0.56-0.265-0.973c0.152-1.051-0.296-1.678-0.442-2.299c0.024-0.181,0.236-0.176,0.354-0.265
				c0.493,0.223,0.605,0.576,0.973,1.061c-0.208,0.932,0.346,1.505,0.354,2.476c0.191,0.519,0.702,1.005,0.884,1.679
				c0.319,1.181-0.23,2.705,0.619,3.448c0.062-0.705,0.508-1.023,1.062-1.238c0.022-1.463-1.193-1.781-0.885-3.005
				c0.105-0.415,0.63-0.532,0.885-0.708c0.378-0.262,0.932-1.175,0.972-1.503c0.068-0.559-0.274-0.936-0.531-1.415
				c0.271-0.229,0.663-0.339,0.797-0.707c-0.976-0.793-2.086-1.451-2.829-2.475c-0.521,0.173-0.952,0.17-1.503,0
				c-0.531-0.794-1.186-1.467-2.388-1.592c0.044,0.457-0.121,0.704-0.53,0.708C48.964,11.692,48.065,11.884,47.496,12.041z
				 M33.441,19.025c1.064-0.388,1.383-2.434,0.972-3.713C33.688,15.951,33.525,17.963,33.441,19.025z M61.551,16.638
				c0.291,0.388,0.972,0.385,1.415,0.619C63.694,16.75,61.088,14.929,61.551,16.638z M60.314,17.963
				c0.066,0.206,0.688,0.31,0.619-0.088C60.913,17.748,60.206,17.67,60.314,17.963z M56.868,17.963
				c-0.715,1.462,0.01,3.121-0.619,4.686c0.327,0.144,0.203,0.739,0.619,0.796c0.102-0.074,0.236-0.116,0.442-0.089
				c0.252-1.393,0.229-3.674,0.088-5.393C57.12,18.008,57.052,17.771,56.868,17.963z M52.712,24.418
				c-0.211-1.562,0.53-2.966-0.442-4.156c-1.212-0.352-2.796-0.775-3.713-1.679c-0.639,0.178-1.187-0.372-1.769-0.531
				c-0.8,0.108-0.985-0.065-1.768-0.089c-1.16,1.317-2.663,3.671-1.945,5.747c0.89-0.101,0.999,0.295,1.769,0.442
				c0.287,0.979,1.381,1.152,1.149,2.651c0.453,0.483,1.179,0.244,1.773,0.226c0.374-0.012,0.528,0.009,0.967,0.04
				c1.589,0.111,3.637-0.26,4.685-0.265C53.493,25.911,52.82,25.217,52.712,24.418z M60.138,19.113
				c-0.248-1.447-1.808,0.72-0.53,1.238C59.887,20.189,60.176,19.335,60.138,19.113z M64.558,19.467
				c0.185-0.211,0.053-0.641-0.177-0.708C64.258,18.909,64.177,19.551,64.558,19.467z M68.537,19.555
				c-0.213,0.886-0.252,2.019-0.177,3.183c0.467-0.446,0.19-1.072,0.265-1.768c0.326-0.372,0.146-0.726,0.177-1.415
				C68.712,19.555,68.625,19.555,68.537,19.555z M64.381,20.881c-0.029,0.207-0.106,0.365-0.177,0.53
				c0.83,0.045,2.294,0.567,2.652-0.177C66.273,20.646,65.244,20.971,64.381,20.881z M62.526,21.677c0.087,0,0.176,0,0.265,0
				c0.024-0.202-0.022-0.333-0.178-0.354C62.584,21.443,62.487,21.492,62.526,21.677z M36.27,22.295
				c-0.731,0.625-1.4,1.312-1.239,2.829c0.665,0.45,1.034,0.195,1.856,0.088c0.745,0.478,0.488,1.409,0.973,2.122
				c0.951-0.144,1.251-0.305,1.919-0.328c1.105-0.243,1.436,0.285,1.795-0.203c-0.309-1.048-1.171-1.541-0.973-3.094
				c-0.519-0.484-0.589-1.415-0.884-2.122C38.087,21.426,37.691,22.145,36.27,22.295z M41.131,22.119
				c0.244,0.218-0.022,0.81,0.707,0.707c0.13-0.416,0.109-0.919-0.354-0.972C41.46,22.036,41.093,21.875,41.131,22.119z
				 M61.375,22.295c-0.103,0.781,0.329,1.026,0.796,1.238c0.427,0.539-0.158,1.138-0.354,1.591
				C63.385,26.166,63.1,21.542,61.375,22.295z M59.078,22.738c0.404,0.958-0.655,2.457,0.618,2.652
				c0.164-0.572,0.541-0.932,0.618-1.591c-0.518-0.268-0.465-0.752-0.53-1.326C59.447,22.459,59.358,22.695,59.078,22.738z
				 M66.415,25.125c0.248,0.013,0.255-0.216,0.265-0.442c-0.113-0.006-0.121-0.113-0.265-0.088
				C66.241,24.76,66.387,24.917,66.415,25.125z M64.646,27.069c-2.994,0.361-5.125,0.048-7.336,0.249
				c-0.381,0.081-1.049,0.149-1.729,0.218c-1.808,0.277-2.128,0-3.763,0.185c-0.453,0.069-1.377,0.079-1.796,0.115
				c-0.891,0.247-0.771-0.195-2.256,0.069c-0.348-0.019-1.036,0.023-1.553,0.035c-1.463,0.228-2.176-0.088-3.708,0.069
				c-1.208-0.08-2.693,0.081-3.706-0.011c-1.175,0.115-1.542,0.251-2.632,0.07c-0.179,0.116-1.054,0.106-1.42,0.148
				c-1.669-0.18-2.279,0.402-3.606,0.534c-0.574,0.057-1.253,0.054-1.592,0.088c-0.339,0.034-0.813-0.432-1.149-0.265
				c-0.264,0.767-0.943,1.119-1.237,1.856c0.412,0.266,0.881,0.439,1.591,0.442s2.085-0.145,3.271-0.176
				c0.905-0.026,2.037-0.169,3.094-0.178c2.514-0.02,5.365-0.122,7.249-0.531c0.381,0.209,0.793,0.386,1.326,0.442
				c0.166,0.129,0.011,0.579,0.177,0.708c0.597,0.026,1.438,0.349,1.944-0.176c0.021-0.378-0.075-0.385,0-0.708
				c0.621-0.208,0.109,0.716,0.531,0.708c0.677,0.067,0.108-0.584,0.266-0.708c0.432-0.426,1.599-0.484,2.121-0.089
				c0.463-0.568,1.448-0.258,2.033,0c0.994-0.563,3.478-0.348,3.447-0.177c0.023,0.406-0.399,0.367-0.354,0.796
				c0.575,0.349,2.179,0.2,2.21,0.089c0.054-0.295,0.261-0.303,0.089-0.619c-0.338-0.161-0.813,0.129-0.948-0.437
				c-0.017-0.506,4.297-0.43,7.137-0.536c1.491,0.178,3.193,0.47,4.783-0.199c0.511-1.368,0.281-1.674-0.187-2.188
				C66.286,26.307,65.544,26.962,64.646,27.069z M68.182,28.483c-0.014,0.104-0.139,0.097-0.265,0.089
				c-0.128,0.611,0.292,1.013,0.973,1.061c0.181,0.409,0.391,0.789,0.795,0.973c0.12-0.028,0.17-0.126,0.354-0.089
				c0-0.235,0-0.471,0-0.707C69.397,29.39,68.679,29.048,68.182,28.483z M58.546,30.252c0.291,1.08,1.729,0.071,2.652,0.176
				c0.014-0.22-0.139-0.273-0.176-0.442C60.205,30.281,59.176,29.877,58.546,30.252z M63.232,30.34
				c0.181,0.115,0.161,0.429,0.531,0.354C64.533,30.275,63.496,29.634,63.232,30.34z M34.236,31.224
				c0.112,0.121,0.769,0.152,0.777-0.074C34.9,31.031,34.245,31,34.236,31.224z M60.845,32.037
				c-0.753-0.111-1.642,0.034-2.299-0.017c-0.983-0.077-1.729-0.268-2.691-0.041c-0.266,0.063-1.888,0.08-2.148,0.123
				c-1.797,0.295-2.798,0.32-4.177,0.36c-1.379,0.039-2.821,0.009-4.449-0.083c-1.902,0.092-3.398,0.382-4.922,0.437
				c-1.523,0.054-2.859-0.042-3.718-0.076c-0.859-0.034-1.796-0.138-2.382-0.101c-1.933,0.238-5.92,0.262-6.719,0.354
				s-1.318,0.213-1.944,0.353c-0.173,0.021-0.254,0.05-0.089,0.354c1.213,1.77,3.653,0.04,6.011,0.795
				c0.015,1.288-2.588-0.005-2.651,0.973c1.212-0.17,2.731,0.21,3.89,0.265c0.964,0.045,1.928-0.197,2.917-0.265
				c1.505-0.104,3.065,0.085,4.42-0.177c0.761-0.147,1.19-0.234,1.769,0.088c0.23-0.035,0.267-0.264,0.53-0.265
				c1.168,0.538,3.235-0.794,3.574,0.513c0.036,0.127-1.392,0.427-0.922,0.636c1.207,0.001,4.635,0.022,4.331-0.354
				c-0.637-0.536-2.021,0.091-2.74-0.619c-0.364-0.771,3.669,0.385,5.394-0.443c1.901,0.602,5.775-0.884,6.276,0.177
				c0.084,0.5-2.025,0.401-2.388,0c-0.43,0.039-0.968,0.208-0.884,0.619c-0.099,0.156,0.531,0.418,0.973,0.354
				c1.998-0.351,5.329,0.102,6.649-0.351c0.438-0.138,0.582-0.169,0.959-0.462c0.612-0.737,1.691-0.705,2.734-0.957
				c0.253-0.091,0.139-0.534-0.219-0.542c-1.031-0.044-1.48-0.235-2.645-0.036c-0.236,0-0.953,0.034-1.202,0.048
				c-1.393,0.101-2.817-0.161-4.067,0c-0.846,0.108-1.671,0.661-2.21-0.089c0.643-0.507,1.136-0.402,2.032-0.353
				c1.053,0.057,2.382-0.173,3.448-0.178c2.179-0.008,3.84,0.239,5.527-0.236c0.613-0.558,0.245-1.294-0.551-1.207
				C63.77,31.84,62.98,31.659,60.845,32.037z M73.576,36.087c-0.781-0.638-1.642-1.133-2.388-1.769
				c-0.745-0.636-1.802-1.458-2.033-1.68c-0.231-0.221-0.161-0.394-0.668,0.054c-0.507,0.449-0.393,1.239,0.314,1.625
				c0.708,0.388,1.982,1.602,2.651,2.21c0.671,0.607,2.643,2.482,3.128,2.49c0.483,0.008,1.558,0.663,1.293,0.162
				C75.608,38.68,74.495,37.159,73.576,36.087z M73.486,35.114c-0.311-0.396-1.072-1.949-1.685-2.044
				C70.989,33.191,72.947,35.248,73.486,35.114z M67.917,35.291c0.224,0.349,2.049,1.838,2.564,2.211
				c0.514,0.371,1.746,1.611,2.651,2.385c0.251-0.536-0.014-0.847-0.442-1.236c-0.43-0.39-2.504-2.487-2.917-2.829
				c-0.412-0.343-0.821-0.71-1.237-1.061c-0.236,0-0.56-0.188-0.708,0C67.681,34.95,67.693,34.943,67.917,35.291z M27.517,35.556
				c0.279-0.015,0.527-0.062,0.53-0.353C27.765,34.975,27.276,35.229,27.517,35.556z M68.141,36.423
				c-0.388-0.512-0.483-0.668-0.754-0.955c-0.735-0.574-1.034-0.404-1.97,0.118c-0.154,0.407-0.614,0.54-0.506,1.208
				c0.66,0.577,1.415,0.929,2.217,1.908c1.255,0.84,1.792,1.901,3.314,2.647c0.727,0.012,1.472,0.195,1.982-0.224
				c0-0.235-0.095-0.616-0.289-0.8C70.262,39.163,69.715,37.688,68.141,36.423z M49.883,35.999
				c-0.073,0.223,0.295,0.389,0.619,0.353c0.297-0.418,1.34-0.329,1.855-0.265c0.595,0.065,0.623-0.493,0.266-0.531
				C51.753,35.599,50.152,34.919,49.883,35.999z M39.186,36.175c0.105,0.364,0.995,0.324,1.326,0.177
				C40.4,35.758,39.324,35.619,39.186,36.175z M40.778,36.352c0.408,0.034,0.729,0.155,1.061,0.266
				c0.154-0.211,0.736-0.327,0.53-0.619C41.967,35.638,40.787,35.76,40.778,36.352z M44.048,36.263
				C44.059,35.447,43.155,36.351,44.048,36.263L44.048,36.263z M61.641,36.971c-0.626,0.028-1.17-0.044-1.769,0
				c-0.218,0.017-0.432-0.02-0.594-0.03c-0.374-0.025-0.557-0.071-0.82-0.059c-0.507,0.023-0.675,0.088-1.265,0.151
				c-0.385,0.04-0.828,0.142-1.299,0.114c-1.407-0.082-2.703,0.256-3.996,0.15c-0.213-0.016-0.918-0.031-1.132-0.061
				c-0.636-0.086-1.216-0.065-1.861-0.042c-0.321,0.119-1.316,0.124-1.675,0.207c-1.844-0.191-2.25,0.046-3.979-0.077
				c-0.285,0.051-1.022,0.024-1.635,0.111c-1.92-0.069-2.052,0.167-4.118,0.265c-1.888-0.392-5.307,0.334-5.562,0.419
				c-0.783,0.833,0.884,1.78,1.268,1.71c1.991-0.188,4.063-0.01,5.951-0.23c1.347,0.057,2.831-0.099,4.04,0.022
				c1.669-0.391,2.668-0.094,4.201-0.126c1.969-0.185,2.535-0.353,3.549-0.166c0.268-0.026,1.729-0.109,2.012-0.122
				c3.977,0.103,8.345,0.003,9.527,0.027c0.26,0.003,0.982,0.181,1.365,0.702c0.332,0.218,0.456,0.418,0.746,0.582
				c0.535,0.438,0.729,0.5,1.072,0.922c0.98,0.594,1.203,1.056,1.797,1.612c0.46,0.353,1.012,0.982,1.335,0.725
				c1.289-1.645-1.066-2.405-1.965-3.656c-0.913-0.368-1.489-1.801-2.367-1.913c-0.459-0.059-0.199,0.14-0.922,0.103
				c-0.413-0.634-0.286-0.956-0.931-1.164C62.188,36.987,62.104,37.084,61.641,36.971z M60.027,41.108
				c-1.002-0.092-1.969,0.022-2.994,0.034c-1.589,0.018-2.07,0.104-3.465,0.058c-0.436,0.068-1.772,0.022-2.209,0.126
				c-2.072-0.035-3.649,0.092-6.078,0.265c-0.576,0.092-1.692,0.104-2.924,0.173c-0.909-0.012-1.508,0-2.544,0.057
				c-1.347,0.127-4.434-0.196-6.372,0.276c-0.253,0.069-0.178,1.042-0.178,1.68c0.023,0.248,0.201,0.577,0.619,0.707
				c1.353,0.379,2.659,0.27,3.89,0.354c0.18,0.013,0.877-0.07,1.078-0.074c1.038-0.017,1.793,0.099,2.812,0.074
				c1.795-0.044,3.635-0.309,5.275-0.144c0.984-0.089,1.192-0.031,1.797-0.033c0.29-0.001,0.687-0.063,1.044-0.082
				c0.325-0.017,0.595-0.078,0.9-0.096c0.801-0.044,1.799-0.115,2.563-0.073c0.371,0.02,0.53,0.014,0.886-0.015
				c0.277-0.023,1.467,0.025,1.82-0.031c2.159-0.349,5.35,0.294,4.927-2.956C60.74,41.05,60.386,41.113,60.027,41.108z
				 M64.027,42.982c-0.899,0.016-0.942-0.825-1.943-0.707c0.008,1.146-1.391,1.896-0.532,2.829c1.979,0.733,2.455,2.714,5.255,2.37
				c2.332-1.824-1.874-2.484-2.16-4.138c0.477,0.025,0.744,0.706,1.326,0.53c-0.461-0.718-1.045-1.312-1.855-1.68
				C63.919,42.388,64.388,42.835,64.027,42.982z M64.205,49.789c-0.852-1.006-2.175-1.539-3.182-2.387
				c-0.603,0.282-0.586,1.184-0.709,1.945c0.781,0.928,2.092,1.327,2.918,2.21C64.345,51.638,64.357,50.776,64.205,49.789z
				 M62.916,53.466c0.752,0.293,1.11,0.785,1.819,0.478c-0.471-0.854-1.131-1.521-2.209-1.768c-0.116-0.651-0.605-0.927-1.327-0.973
				C60.756,52.681,62.08,52.723,62.916,53.466z"/>
		</g>
	</g>
	<g>
		<path d="M13.853,83.518h-1.881c-0.416-0.653-0.792-1.217-1.128-1.693c-0.337-0.476-0.701-0.966-1.094-1.472H9.035v2.215
			c0,0.114,0.019,0.215,0.054,0.303c0.037,0.087,0.114,0.152,0.231,0.199c0.06,0.022,0.163,0.045,0.311,0.063
			c0.147,0.02,0.271,0.032,0.374,0.035v0.35l-2.952,0.216v-0.35c0.078-0.007,0.191-0.234,0.341-0.251
			c0.15-0.017,0.254-0.037,0.313-0.063c0.099-0.043,0.169-0.104,0.214-0.187c0.044-0.082,0.066-0.188,0.066-0.315v-5.05
			c0-0.114-0.017-0.216-0.049-0.305c-0.033-0.089-0.11-0.156-0.231-0.202c-0.082-0.029-0.189-0.056-0.32-0.081
			c-0.131-0.024-0.243,0.176-0.334,0.17v-0.35l3.223-0.216c0.296,0,0.572,0.03,0.831,0.091c0.26,0.061,0.494,0.158,0.704,0.293
			c0.203,0.132,0.366,0.302,0.487,0.514s0.183,0.467,0.183,0.766c0,0.269-0.041,0.507-0.123,0.713
			c-0.082,0.207-0.203,0.386-0.364,0.537c-0.147,0.142-0.325,0.263-0.531,0.366c-0.207,0.104-0.435,0.191-0.685,0.264
			c0.345,0.456,0.631,0.84,0.859,1.151c0.228,0.313,0.508,0.69,0.838,1.137c0.145,0.197,0.275,0.342,0.393,0.436
			c0.116,0.094,0.231,0.171,0.346,0.229c0.086,0.042,0.192,0.074,0.32,0.098s0.234,0.037,0.32,0.04V83.518z M11.264,78.313
			c0-0.423-0.121-0.758-0.364-1.005c-0.242-0.247-0.586-0.371-1.028-0.371H9.035v2.992H9.68c0.452,0,0.83-0.145,1.132-0.435
			C11.113,79.205,11.264,78.812,11.264,78.313z"/>
		<path d="M17.155,83.518h-2.343v-0.326c0.074-0.006,0.152-0.012,0.233-0.019c0.08-0.007,0.149-0.021,0.209-0.04
			c0.092-0.029,0.16-0.08,0.204-0.154c0.045-0.073,0.066-0.169,0.066-0.288v-2.993c0-0.104-0.023-0.201-0.071-0.287
			c-0.048-0.087-0.113-0.16-0.199-0.219c-0.062-0.04-0.152-0.073-0.271-0.101c-0.118-0.028-0.227-0.045-0.325-0.052v-0.325
			l1.713-0.107l0.069,0.068v3.956c0,0.115,0.021,0.21,0.066,0.285c0.043,0.076,0.112,0.132,0.207,0.168
			c0.071,0.03,0.142,0.054,0.21,0.071c0.069,0.018,0.145,0.03,0.23,0.036V83.518z M16.54,76.691c0,0.188-0.063,0.351-0.185,0.489
			c-0.124,0.14-0.275,0.21-0.456,0.21c-0.167,0-0.313-0.066-0.436-0.2c-0.123-0.132-0.185-0.283-0.185-0.455
			c0-0.18,0.062-0.338,0.185-0.473c0.123-0.134,0.269-0.201,0.436-0.201c0.188,0,0.341,0.063,0.461,0.188
			C16.479,76.377,16.54,76.523,16.54,76.691z"/>
		<path d="M21.765,81.141c0.134,0.117,0.237,0.254,0.31,0.408c0.071,0.153,0.108,0.343,0.108,0.566c0,0.449-0.168,0.816-0.505,1.102
			c-0.336,0.285-0.771,0.428-1.307,0.428c-0.282,0-0.542-0.051-0.78-0.152c-0.237-0.102-0.407-0.195-0.509-0.28l-0.099,0.32h-0.369
			l-0.049-1.688h0.34c0.025,0.128,0.082,0.278,0.167,0.45c0.085,0.17,0.188,0.325,0.31,0.464c0.129,0.145,0.281,0.266,0.461,0.365
			c0.178,0.099,0.379,0.147,0.603,0.147c0.314,0,0.557-0.071,0.728-0.215s0.257-0.349,0.257-0.616c0-0.139-0.027-0.256-0.081-0.356
			c-0.055-0.101-0.134-0.188-0.239-0.264c-0.108-0.075-0.241-0.144-0.398-0.204s-0.333-0.121-0.526-0.18
			c-0.155-0.046-0.325-0.109-0.515-0.189c-0.188-0.081-0.351-0.176-0.484-0.283c-0.145-0.114-0.263-0.256-0.354-0.423
			c-0.092-0.168-0.138-0.364-0.138-0.591c0-0.396,0.147-0.733,0.443-1.009c0.295-0.275,0.689-0.413,1.186-0.413
			c0.189,0,0.385,0.024,0.583,0.073c0.198,0.05,0.36,0.108,0.485,0.177l0.112-0.255h0.354l0.074,1.56h-0.34
			c-0.069-0.349-0.218-0.634-0.445-0.853c-0.229-0.219-0.507-0.328-0.834-0.328c-0.269,0-0.481,0.067-0.636,0.203
			c-0.154,0.135-0.23,0.299-0.23,0.49c0,0.147,0.024,0.271,0.076,0.369c0.051,0.099,0.127,0.183,0.229,0.251
			c0.099,0.065,0.223,0.127,0.372,0.185s0.334,0.122,0.554,0.194c0.216,0.069,0.421,0.149,0.612,0.241
			C21.482,80.927,21.64,81.028,21.765,81.141z"/>
		<path d="M26.719,83.306c-0.213,0.089-0.415,0.163-0.605,0.224c-0.189,0.062-0.423,0.092-0.699,0.092
			c-0.406,0-0.692-0.104-0.858-0.309s-0.248-0.494-0.248-0.868v-3.288h-0.876v-0.472h0.896v-1.511h0.896v1.511h1.394v0.472h-1.384
			v2.712c0,0.203,0.008,0.374,0.022,0.51c0.015,0.137,0.05,0.255,0.105,0.356c0.053,0.096,0.131,0.167,0.236,0.217
			c0.105,0.049,0.246,0.074,0.423,0.074c0.082,0,0.203-0.008,0.362-0.023c0.159-0.015,0.271-0.033,0.337-0.056V83.306z"/>
		<path d="M32.742,81.042c0,0.342-0.054,0.677-0.162,1.006c-0.108,0.33-0.263,0.61-0.463,0.84c-0.227,0.262-0.49,0.457-0.789,0.585
			s-0.634,0.192-1.004,0.192c-0.309,0-0.603-0.058-0.883-0.175c-0.278-0.116-0.526-0.286-0.743-0.51
			c-0.213-0.22-0.384-0.488-0.511-0.805c-0.126-0.316-0.188-0.672-0.188-1.065c0-0.758,0.221-1.378,0.662-1.86
			s1.021-0.723,1.736-0.723c0.681,0,1.241,0.229,1.683,0.686C32.521,79.671,32.742,80.28,32.742,81.042z M31.723,81.052
			c0-0.247-0.024-0.507-0.073-0.78c-0.05-0.274-0.124-0.506-0.222-0.696c-0.105-0.203-0.244-0.366-0.414-0.489
			c-0.172-0.124-0.38-0.185-0.627-0.185c-0.253,0-0.47,0.062-0.648,0.187c-0.179,0.124-0.324,0.295-0.437,0.512
			c-0.104,0.2-0.179,0.429-0.222,0.685c-0.042,0.256-0.063,0.504-0.063,0.742c0,0.315,0.025,0.606,0.076,0.874
			s0.132,0.506,0.244,0.716c0.111,0.21,0.252,0.375,0.421,0.495c0.17,0.12,0.379,0.18,0.629,0.18c0.411,0,0.736-0.199,0.977-0.596
			C31.603,82.298,31.723,81.75,31.723,81.052z"/>
		<path d="M37.962,79.289c0,0.168-0.041,0.316-0.123,0.446s-0.208,0.194-0.379,0.194c-0.184,0-0.323-0.048-0.421-0.143
			c-0.097-0.095-0.145-0.201-0.145-0.315c0-0.072,0.006-0.138,0.018-0.196c0.011-0.06,0.021-0.119,0.031-0.178
			c-0.154,0-0.335,0.063-0.541,0.187c-0.207,0.126-0.383,0.302-0.526,0.532v2.825c0,0.114,0.021,0.208,0.066,0.28
			c0.044,0.072,0.114,0.126,0.209,0.162c0.082,0.032,0.188,0.058,0.317,0.074s0.242,0.027,0.337,0.033v0.326h-2.559v-0.326
			c0.075-0.006,0.153-0.012,0.233-0.019s0.15-0.021,0.209-0.04c0.092-0.029,0.16-0.08,0.204-0.154
			c0.045-0.073,0.066-0.169,0.066-0.288v-2.993c0-0.102-0.023-0.201-0.071-0.3s-0.113-0.177-0.199-0.236
			c-0.063-0.039-0.136-0.067-0.221-0.085c-0.086-0.019-0.178-0.03-0.276-0.037v-0.325l1.614-0.107l0.069,0.068v0.685h0.024
			c0.203-0.267,0.43-0.468,0.679-0.605s0.478-0.207,0.684-0.207c0.207,0,0.375,0.066,0.505,0.201S37.962,79.063,37.962,79.289z"/>
		<path d="M43.779,83.428c-0.154,0.057-0.29,0.102-0.407,0.136c-0.116,0.034-0.247,0.052-0.396,0.052
			c-0.256,0-0.46-0.06-0.612-0.179c-0.152-0.12-0.25-0.295-0.293-0.525h-0.029c-0.213,0.237-0.441,0.417-0.687,0.542
			c-0.244,0.124-0.539,0.187-0.884,0.187c-0.363,0-0.663-0.111-0.898-0.334c-0.233-0.224-0.351-0.515-0.351-0.877
			c0-0.187,0.025-0.354,0.078-0.501s0.132-0.281,0.236-0.398c0.082-0.099,0.19-0.187,0.324-0.264
			c0.135-0.077,0.262-0.139,0.379-0.185c0.148-0.056,0.448-0.159,0.898-0.31c0.452-0.151,0.756-0.27,0.913-0.355V79.93
			c0-0.042-0.009-0.125-0.027-0.246c-0.018-0.121-0.057-0.236-0.115-0.345c-0.065-0.122-0.158-0.228-0.278-0.317
			c-0.119-0.09-0.29-0.135-0.51-0.135c-0.15,0-0.29,0.025-0.42,0.075c-0.13,0.052-0.221,0.104-0.273,0.16
			c0,0.066,0.016,0.162,0.047,0.291c0.031,0.128,0.047,0.245,0.047,0.354c0,0.114-0.052,0.22-0.155,0.314
			c-0.104,0.096-0.247,0.143-0.431,0.143c-0.164,0-0.285-0.058-0.362-0.175c-0.077-0.116-0.114-0.246-0.114-0.392
			c0-0.15,0.053-0.294,0.159-0.433c0.107-0.138,0.245-0.261,0.416-0.369c0.147-0.091,0.326-0.17,0.536-0.233
			s0.415-0.096,0.615-0.096c0.275,0,0.516,0.019,0.721,0.057c0.205,0.037,0.392,0.118,0.559,0.243
			c0.168,0.121,0.295,0.286,0.382,0.495c0.087,0.208,0.13,0.477,0.13,0.804c0,0.469-0.004,0.886-0.015,1.248
			c-0.01,0.362-0.015,0.759-0.015,1.188c0,0.128,0.022,0.229,0.066,0.305c0.045,0.076,0.112,0.14,0.204,0.192
			c0.05,0.029,0.127,0.045,0.234,0.049c0.106,0.004,0.215,0.006,0.327,0.006V83.428z M42.061,80.83
			c-0.279,0.082-0.523,0.163-0.733,0.242c-0.21,0.078-0.405,0.177-0.586,0.295c-0.164,0.112-0.293,0.245-0.388,0.397
			c-0.096,0.153-0.144,0.335-0.144,0.545c0,0.273,0.071,0.474,0.215,0.602c0.143,0.128,0.323,0.192,0.543,0.192
			c0.233,0,0.438-0.057,0.615-0.17c0.178-0.114,0.327-0.247,0.448-0.401L42.061,80.83z"/>
		<path d="M50.426,83.518h-2.372v-0.326c0.075-0.006,0.158-0.012,0.248-0.019c0.091-0.007,0.165-0.021,0.225-0.04
			c0.092-0.029,0.159-0.081,0.204-0.155c0.044-0.072,0.066-0.17,0.066-0.287v-2.495c0-0.345-0.081-0.609-0.244-0.797
			s-0.36-0.281-0.594-0.281c-0.175,0-0.335,0.027-0.479,0.082c-0.145,0.054-0.272,0.12-0.384,0.199
			c-0.109,0.075-0.195,0.156-0.26,0.244c-0.063,0.086-0.111,0.156-0.14,0.208v2.791c0,0.11,0.022,0.203,0.068,0.274
			c0.046,0.073,0.114,0.129,0.206,0.168c0.069,0.032,0.144,0.058,0.225,0.074c0.08,0.017,0.163,0.027,0.249,0.033v0.326h-2.378
			v-0.326c0.075-0.006,0.154-0.012,0.233-0.019c0.081-0.007,0.15-0.021,0.21-0.04c0.092-0.029,0.16-0.08,0.204-0.154
			c0.045-0.073,0.066-0.169,0.066-0.288v-2.993c0-0.111-0.023-0.214-0.071-0.307c-0.048-0.094-0.114-0.17-0.199-0.229
			c-0.063-0.039-0.137-0.067-0.222-0.085c-0.086-0.019-0.177-0.03-0.275-0.037v-0.325l1.613-0.107l0.07,0.068v0.685h0.023
			c0.079-0.079,0.178-0.173,0.296-0.283s0.229-0.2,0.335-0.269c0.12-0.079,0.266-0.145,0.433-0.197
			c0.168-0.053,0.355-0.079,0.565-0.079c0.467,0,0.812,0.146,1.036,0.437c0.225,0.29,0.337,0.677,0.337,1.158v2.525
			c0,0.114,0.02,0.207,0.06,0.277c0.039,0.07,0.106,0.126,0.202,0.165c0.078,0.033,0.146,0.056,0.204,0.069
			c0.058,0.013,0.137,0.022,0.238,0.028V83.518z"/>
		<path d="M54.826,83.306c-0.214,0.089-0.416,0.163-0.606,0.224c-0.189,0.062-0.422,0.092-0.698,0.092
			c-0.406,0-0.693-0.104-0.858-0.309c-0.166-0.205-0.249-0.494-0.249-0.868v-3.288h-0.876v-0.472h0.896v-1.511h0.896v1.511h1.393
			v0.472h-1.384v2.712c0,0.203,0.008,0.374,0.022,0.51c0.016,0.137,0.051,0.255,0.105,0.356c0.053,0.096,0.132,0.167,0.237,0.217
			c0.104,0.049,0.245,0.074,0.423,0.074c0.082,0,0.202-0.008,0.361-0.023c0.159-0.015,0.271-0.033,0.338-0.056V83.306z"/>
		<path d="M60.424,82.375c-0.204,0.388-0.475,0.696-0.816,0.926s-0.733,0.344-1.177,0.344c-0.39,0-0.731-0.068-1.025-0.206
			c-0.295-0.138-0.535-0.324-0.726-0.562c-0.19-0.235-0.332-0.512-0.426-0.827c-0.094-0.314-0.141-0.646-0.141-0.998
			c0-0.315,0.05-0.624,0.15-0.928c0.099-0.304,0.246-0.577,0.44-0.819c0.187-0.233,0.419-0.421,0.696-0.563
			c0.276-0.144,0.588-0.214,0.933-0.214c0.354,0,0.657,0.056,0.91,0.167c0.252,0.111,0.458,0.264,0.614,0.457
			c0.152,0.185,0.264,0.401,0.338,0.649c0.074,0.251,0.11,0.521,0.11,0.813v0.325h-3.213c0,0.319,0.03,0.607,0.091,0.868
			c0.061,0.26,0.156,0.488,0.288,0.686c0.128,0.19,0.295,0.341,0.502,0.451c0.206,0.11,0.453,0.165,0.738,0.165
			c0.292,0,0.544-0.068,0.755-0.205c0.212-0.137,0.416-0.384,0.613-0.739L60.424,82.375z M59.337,80.525
			c0-0.184-0.017-0.381-0.047-0.589c-0.031-0.21-0.081-0.385-0.15-0.525c-0.075-0.15-0.179-0.273-0.31-0.368
			c-0.132-0.095-0.3-0.142-0.507-0.142c-0.345,0-0.631,0.143-0.859,0.429c-0.228,0.286-0.352,0.685-0.371,1.195H59.337z"/>
		<path d="M70.961,80.538c-0.146,0.012-0.29,0.04-0.438,0.085c-0.146,0.046-0.257,0.116-0.336,0.214
			c-0.051,0.059-0.104,0.146-0.155,0.261c-0.053,0.113-0.114,0.25-0.188,0.405c-0.073,0.157-0.147,0.311-0.224,0.461
			c-0.075,0.152-0.172,0.303-0.292,0.454c0.098,0.117,0.218,0.245,0.358,0.383c0.142,0.138,0.262,0.236,0.362,0.298
			c0.098,0.057,0.235,0.104,0.415,0.143c0.179,0.039,0.326,0.062,0.44,0.066v0.26h-1.509l-0.544-0.622
			c-0.081,0.087-0.174,0.179-0.276,0.272c-0.104,0.094-0.214,0.175-0.328,0.243c-0.127,0.073-0.254,0.13-0.382,0.172
			c-0.128,0.041-0.279,0.063-0.452,0.063c-0.18,0-0.36-0.026-0.538-0.078c-0.178-0.053-0.341-0.136-0.486-0.251
			c-0.143-0.112-0.257-0.257-0.345-0.432c-0.088-0.176-0.131-0.386-0.131-0.63c0-0.302,0.08-0.576,0.24-0.821
			c0.158-0.246,0.457-0.506,0.894-0.781c-0.198-0.261-0.352-0.487-0.461-0.677c-0.109-0.191-0.164-0.404-0.164-0.642
			c0-0.167,0.033-0.322,0.101-0.462c0.067-0.141,0.161-0.263,0.283-0.368c0.112-0.095,0.248-0.169,0.409-0.223
			c0.161-0.055,0.325-0.081,0.49-0.081c0.196,0,0.367,0.031,0.515,0.093c0.147,0.063,0.269,0.145,0.36,0.243
			c0.086,0.093,0.15,0.2,0.196,0.322c0.045,0.122,0.067,0.245,0.067,0.367c0,0.292-0.09,0.544-0.271,0.755s-0.432,0.4-0.75,0.569
			c0.229,0.31,0.453,0.592,0.673,0.847c0.219,0.255,0.43,0.506,0.632,0.753c0.163-0.262,0.29-0.508,0.381-0.738
			c0.089-0.23,0.135-0.433,0.135-0.609c0-0.078-0.058-0.14-0.171-0.185c-0.114-0.045-0.271-0.088-0.47-0.129v-0.26h1.958V80.538z
			 M68.659,82.733c-0.228-0.288-0.481-0.604-0.768-0.946c-0.283-0.343-0.511-0.633-0.682-0.869c-0.198,0.137-0.337,0.297-0.419,0.48
			c-0.081,0.185-0.122,0.396-0.122,0.632c0,0.332,0.094,0.606,0.283,0.825s0.442,0.327,0.76,0.327c0.178,0,0.353-0.038,0.524-0.115
			S68.548,82.879,68.659,82.733z M68.374,79.348c0-0.249-0.055-0.439-0.165-0.573c-0.109-0.133-0.265-0.198-0.467-0.198
			c-0.114,0-0.208,0.022-0.284,0.069c-0.075,0.046-0.141,0.104-0.192,0.176c-0.05,0.068-0.084,0.141-0.106,0.22
			c-0.022,0.077-0.033,0.147-0.033,0.208c0,0.168,0.044,0.339,0.131,0.51c0.088,0.173,0.225,0.381,0.411,0.625
			c0.249-0.142,0.43-0.295,0.54-0.459C68.317,79.759,68.374,79.567,68.374,79.348z"/>
		<path d="M81.312,80.264c0.203,0.139,0.373,0.318,0.507,0.541c0.135,0.224,0.202,0.495,0.202,0.813c0,0.324-0.07,0.606-0.212,0.846
			c-0.141,0.239-0.325,0.437-0.552,0.591c-0.22,0.15-0.468,0.266-0.745,0.345c-0.276,0.078-0.563,0.118-0.858,0.118h-3.308v-0.35
			c0.079-0.007,0.194-0.021,0.345-0.042c0.151-0.021,0.259-0.047,0.325-0.076c0.102-0.046,0.174-0.108,0.216-0.185
			c0.043-0.077,0.065-0.177,0.065-0.298v-5.02c0-0.112-0.02-0.21-0.059-0.296c-0.037-0.085-0.111-0.153-0.223-0.206
			c-0.098-0.05-0.208-0.088-0.329-0.113s-0.224-0.042-0.307-0.049v-0.35h3.225c0.249,0,0.487,0.024,0.716,0.073
			c0.228,0.049,0.445,0.137,0.651,0.261c0.193,0.115,0.354,0.271,0.478,0.468c0.125,0.197,0.187,0.436,0.187,0.719
			c0,0.246-0.044,0.465-0.132,0.657c-0.09,0.191-0.214,0.356-0.375,0.494c-0.151,0.131-0.323,0.242-0.518,0.332
			c-0.195,0.09-0.406,0.16-0.634,0.209v0.045c0.201,0.023,0.424,0.073,0.672,0.149C80.898,80.019,81.119,80.126,81.312,80.264z
			 M80.123,79.21c0.12-0.141,0.204-0.296,0.252-0.463c0.047-0.168,0.072-0.366,0.072-0.597c0-0.385-0.105-0.687-0.314-0.904
			c-0.209-0.22-0.541-0.328-0.992-0.328c-0.104,0-0.236,0.002-0.396,0.008c-0.158,0.004-0.292,0.009-0.4,0.012v2.687h0.624
			c0.269,0,0.499-0.034,0.69-0.104S80.004,79.348,80.123,79.21z M80.806,81.44c0-0.414-0.14-0.753-0.416-1.019
			c-0.278-0.266-0.674-0.398-1.189-0.398c-0.211,0-0.387,0.002-0.531,0.007s-0.252,0.009-0.325,0.012v2.461
			c0,0.207,0.084,0.363,0.252,0.469c0.167,0.104,0.399,0.156,0.698,0.156c0.489,0,0.862-0.143,1.122-0.428
			C80.675,82.415,80.806,81.995,80.806,81.44z"/>
		<path d="M88.226,83.428c-0.154,0.057-0.289,0.102-0.406,0.136s-0.248,0.052-0.396,0.052c-0.255,0-0.461-0.06-0.612-0.179
			c-0.152-0.12-0.251-0.295-0.293-0.525h-0.029c-0.214,0.237-0.442,0.417-0.688,0.542c-0.244,0.124-0.538,0.187-0.883,0.187
			c-0.364,0-0.663-0.111-0.898-0.334c-0.234-0.224-0.352-0.515-0.352-0.877c0-0.187,0.026-0.354,0.079-0.501
			c0.052-0.147,0.131-0.281,0.235-0.398c0.083-0.099,0.191-0.187,0.325-0.264c0.135-0.077,0.26-0.139,0.379-0.185
			c0.147-0.056,0.446-0.159,0.898-0.31c0.451-0.151,0.755-0.27,0.913-0.355V79.93c0-0.042-0.01-0.125-0.027-0.246
			c-0.019-0.121-0.057-0.236-0.116-0.345c-0.064-0.122-0.158-0.228-0.278-0.317c-0.119-0.09-0.289-0.135-0.508-0.135
			c-0.151,0-0.292,0.025-0.422,0.075c-0.13,0.052-0.221,0.104-0.272,0.16c0,0.066,0.015,0.162,0.047,0.291
			c0.03,0.128,0.047,0.245,0.047,0.354c0,0.114-0.053,0.22-0.156,0.314c-0.104,0.096-0.246,0.143-0.43,0.143
			c-0.164,0-0.285-0.058-0.362-0.175c-0.077-0.116-0.115-0.246-0.115-0.392c0-0.15,0.054-0.294,0.159-0.433
			c0.107-0.138,0.247-0.261,0.416-0.369c0.149-0.091,0.327-0.17,0.537-0.233s0.415-0.096,0.615-0.096
			c0.275,0,0.515,0.019,0.722,0.057c0.204,0.037,0.39,0.118,0.558,0.243c0.167,0.121,0.294,0.286,0.382,0.495
			c0.087,0.208,0.13,0.477,0.13,0.804c0,0.469-0.005,0.886-0.015,1.248c-0.009,0.362-0.015,0.759-0.015,1.188
			c0,0.128,0.021,0.229,0.066,0.305c0.044,0.076,0.112,0.14,0.203,0.192c0.05,0.029,0.129,0.045,0.234,0.049
			c0.106,0.004,0.217,0.006,0.328,0.006V83.428z M86.508,80.83c-0.28,0.082-0.523,0.163-0.733,0.242
			c-0.211,0.078-0.404,0.177-0.585,0.295c-0.164,0.112-0.294,0.245-0.39,0.397c-0.096,0.153-0.143,0.335-0.143,0.545
			c0,0.273,0.072,0.474,0.214,0.602c0.144,0.128,0.323,0.192,0.544,0.192c0.233,0,0.438-0.057,0.614-0.17
			c0.178-0.114,0.327-0.247,0.448-0.401L86.508,80.83z"/>
		<path d="M93.23,79.289c0,0.168-0.041,0.316-0.123,0.446s-0.209,0.194-0.379,0.194c-0.185,0-0.325-0.048-0.421-0.143
			c-0.097-0.095-0.145-0.201-0.145-0.315c0-0.072,0.005-0.138,0.016-0.196c0.012-0.06,0.023-0.119,0.033-0.178
			c-0.155,0-0.335,0.063-0.541,0.187c-0.207,0.126-0.383,0.302-0.527,0.532v2.825c0,0.114,0.023,0.208,0.065,0.28
			c0.046,0.072,0.114,0.126,0.21,0.162c0.082,0.032,0.188,0.058,0.318,0.074c0.129,0.017,0.24,0.027,0.336,0.033v0.326h-2.559
			v-0.326c0.076-0.006,0.153-0.012,0.233-0.019c0.081-0.007,0.149-0.021,0.21-0.04c0.091-0.029,0.16-0.08,0.204-0.154
			c0.044-0.073,0.066-0.169,0.066-0.288v-2.993c0-0.102-0.023-0.201-0.072-0.3c-0.047-0.099-0.112-0.177-0.198-0.236
			c-0.063-0.039-0.136-0.067-0.223-0.085c-0.084-0.019-0.177-0.03-0.274-0.037v-0.325l1.613-0.107l0.069,0.068v0.685h0.024
			c0.204-0.267,0.43-0.468,0.679-0.605c0.25-0.138,0.479-0.207,0.686-0.207c0.206,0,0.374,0.066,0.504,0.201
			S93.23,79.063,93.23,79.289z"/>
		<g>
			<path d="M17.539,89.505c-0.129,0.006-0.286,0.034-0.47,0.086c-0.184,0.053-0.335,0.115-0.454,0.19
				c-0.169,0.104-0.305,0.238-0.407,0.402c-0.101,0.164-0.202,0.357-0.302,0.581c-0.332,0.789-0.832,2.021-1.497,3.692
				c-0.666,1.672-1.352,3.414-2.057,5.228h-0.619c-0.715-1.923-1.405-3.775-2.071-5.559c-0.666-1.784-1.118-2.989-1.356-3.614
				c-0.06-0.154-0.139-0.29-0.238-0.407c-0.1-0.116-0.231-0.227-0.396-0.331c-0.134-0.085-0.282-0.148-0.446-0.19
				S6.91,89.516,6.77,89.505v-0.529h4.376v0.529c-0.372,0.02-0.688,0.058-0.942,0.111c-0.257,0.056-0.384,0.152-0.384,0.291
				c0,0.055,0.01,0.12,0.029,0.194c0.021,0.074,0.037,0.134,0.053,0.179c0.184,0.486,0.481,1.281,0.894,2.382
				c0.412,1.102,0.999,2.669,1.759,4.702c0.378-0.919,0.813-2.006,1.304-3.259c0.492-1.253,0.823-2.113,0.991-2.58
				c0.164-0.453,0.26-0.766,0.288-0.939c0.026-0.174,0.04-0.315,0.04-0.425c0-0.115-0.051-0.21-0.152-0.287
				c-0.103-0.077-0.237-0.143-0.406-0.197c-0.164-0.05-0.33-0.087-0.499-0.112c-0.169-0.024-0.341-0.044-0.515-0.06v-0.529h3.934
				V89.505z"/>
			<path d="M29.899,96.436l-0.201,3.114h-8.779v-0.528c0.149-0.01,0.349-0.031,0.597-0.063s0.409-0.065,0.484-0.101
				c0.158-0.074,0.27-0.172,0.331-0.291c0.063-0.119,0.094-0.271,0.094-0.454v-7.601c0-0.164-0.028-0.31-0.082-0.437
				c-0.055-0.127-0.169-0.229-0.343-0.31c-0.134-0.064-0.314-0.121-0.541-0.171c-0.226-0.05-0.405-0.079-0.54-0.09v-0.529h8.183
				v2.549h-0.559c-0.101-0.377-0.314-0.778-0.645-1.203c-0.331-0.425-0.646-0.657-0.942-0.697c-0.154-0.02-0.339-0.034-0.552-0.045
				c-0.214-0.01-0.458-0.015-0.73-0.015h-1.662v4.203h1.192c0.382,0,0.662-0.036,0.838-0.108c0.177-0.071,0.332-0.192,0.466-0.361
				c0.109-0.144,0.202-0.336,0.279-0.577c0.077-0.24,0.129-0.469,0.153-0.683h0.559v4.144H26.94c-0.02-0.238-0.073-0.49-0.16-0.756
				s-0.178-0.458-0.272-0.577c-0.153-0.194-0.329-0.32-0.524-0.381c-0.196-0.059-0.456-0.089-0.779-0.089h-1.192v3.169
				c0,0.317,0.022,0.568,0.067,0.752s0.132,0.322,0.261,0.416c0.129,0.095,0.306,0.155,0.529,0.183s0.541,0.041,0.953,0.041
				c0.164,0,0.381,0,0.648,0c0.269,0,0.494-0.01,0.679-0.03c0.188-0.02,0.384-0.056,0.585-0.107s0.344-0.124,0.428-0.213
				c0.229-0.238,0.469-0.6,0.72-1.084s0.411-0.841,0.48-1.069H29.899z"/>
			<path d="M44.881,89.505c-0.14,0.006-0.353,0.045-0.641,0.119c-0.289,0.075-0.495,0.151-0.619,0.231
				c-0.179,0.124-0.299,0.362-0.361,0.715c-0.062,0.354-0.093,0.801-0.093,1.342v7.743h-0.648l-6.408-8.652v5.455
				c0,0.611,0.038,1.08,0.114,1.408c0.077,0.328,0.195,0.562,0.354,0.7c0.114,0.109,0.351,0.212,0.708,0.306
				c0.357,0.095,0.594,0.145,0.708,0.149v0.528h-4.337v-0.528c0.134-0.01,0.359-0.059,0.678-0.146s0.517-0.165,0.596-0.235
				c0.175-0.139,0.294-0.351,0.358-0.637c0.064-0.285,0.097-0.773,0.097-1.465v-5.208c0-0.229-0.039-0.457-0.119-0.686
				c-0.079-0.229-0.186-0.405-0.32-0.529c-0.179-0.164-0.421-0.304-0.727-0.421c-0.306-0.116-0.553-0.18-0.741-0.19v-0.529h3.021
				l5.942,8.062v-5.028c0-0.616-0.04-1.089-0.119-1.42c-0.079-0.33-0.193-0.55-0.343-0.659c-0.139-0.094-0.366-0.187-0.682-0.275
				c-0.315-0.09-0.555-0.139-0.719-0.149v-0.529h4.3V89.505z"/>
			<path d="M57.68,96.436l-0.201,3.114h-8.778v-0.528c0.149-0.01,0.348-0.031,0.597-0.063c0.248-0.032,0.41-0.065,0.484-0.101
				c0.159-0.074,0.27-0.172,0.331-0.291c0.063-0.119,0.093-0.271,0.093-0.454v-7.601c0-0.164-0.026-0.31-0.081-0.437
				s-0.169-0.229-0.343-0.31c-0.135-0.064-0.314-0.121-0.54-0.171s-0.406-0.079-0.541-0.09v-0.529h8.184v2.549h-0.56
				c-0.1-0.377-0.314-0.778-0.645-1.203c-0.331-0.425-0.646-0.657-0.942-0.697c-0.154-0.02-0.339-0.034-0.552-0.045
				c-0.214-0.01-0.457-0.015-0.73-0.015h-1.662v4.203h1.192c0.383,0,0.662-0.036,0.839-0.108c0.176-0.071,0.331-0.192,0.465-0.361
				c0.109-0.144,0.203-0.336,0.28-0.577c0.077-0.24,0.128-0.469,0.152-0.683h0.56v4.144h-0.56c-0.02-0.238-0.073-0.49-0.159-0.756
				c-0.087-0.266-0.178-0.458-0.273-0.577c-0.153-0.194-0.329-0.32-0.525-0.381c-0.196-0.059-0.455-0.089-0.778-0.089h-1.192v3.169
				c0,0.317,0.022,0.568,0.067,0.752s0.131,0.322,0.261,0.416c0.129,0.095,0.306,0.155,0.529,0.183s0.541,0.041,0.954,0.041
				c0.164,0,0.38,0,0.647,0c0.269,0,0.495-0.01,0.678-0.03c0.188-0.02,0.385-0.056,0.586-0.107s0.344-0.124,0.429-0.213
				c0.229-0.238,0.468-0.6,0.719-1.084s0.41-0.841,0.48-1.069H57.68z"/>
			<path d="M70.13,96.249l-0.35,3.301h-8.496v-0.261l6.653-9.725h-2.436c-0.283,0-0.521,0.005-0.712,0.015
				c-0.191,0.011-0.366,0.03-0.525,0.061c-0.327,0.064-0.696,0.335-1.105,0.812c-0.411,0.477-0.72,0.981-0.929,1.513H61.71
				l0.319-2.988h7.922v0.262l-6.654,9.725h2.511c0.422,0,0.872-0.03,1.35-0.09c0.477-0.06,0.786-0.161,0.931-0.306
				c0.322-0.308,0.623-0.686,0.901-1.132c0.278-0.447,0.484-0.842,0.618-1.186H70.13z"/>
			<path d="M78.667,99.55h-4.762v-0.528c0.134-0.01,0.328-0.025,0.582-0.045c0.253-0.02,0.433-0.05,0.537-0.09
				c0.162-0.063,0.282-0.152,0.356-0.265c0.074-0.111,0.112-0.267,0.112-0.466v-7.66c0-0.174-0.028-0.319-0.082-0.436
				c-0.055-0.117-0.185-0.215-0.387-0.295c-0.15-0.06-0.338-0.115-0.563-0.167c-0.226-0.053-0.41-0.083-0.556-0.094v-0.529h4.762
				v0.529c-0.153,0.006-0.338,0.024-0.551,0.057c-0.214,0.031-0.4,0.073-0.559,0.122c-0.188,0.06-0.316,0.157-0.38,0.291
				c-0.064,0.135-0.098,0.283-0.098,0.447v7.653c0,0.163,0.037,0.309,0.108,0.436c0.072,0.127,0.194,0.228,0.369,0.302
				c0.104,0.04,0.274,0.083,0.51,0.131c0.235,0.047,0.436,0.073,0.6,0.078V99.55z"/>
			<path d="M92.905,99.55H88.51v-0.528c0.387-0.025,0.708-0.074,0.964-0.149c0.257-0.074,0.385-0.166,0.385-0.275
				c0-0.045-0.006-0.099-0.016-0.164c-0.01-0.064-0.024-0.122-0.045-0.171l-0.875-2.37H85.21c-0.14,0.348-0.252,0.65-0.339,0.909
				c-0.087,0.258-0.165,0.497-0.235,0.715c-0.065,0.214-0.109,0.389-0.134,0.521c-0.025,0.135-0.037,0.244-0.037,0.328
				c0,0.199,0.155,0.353,0.47,0.463c0.313,0.109,0.665,0.174,1.058,0.193v0.528H82.01v-0.528c0.129-0.01,0.29-0.039,0.484-0.086
				c0.193-0.047,0.353-0.11,0.477-0.189c0.199-0.135,0.354-0.275,0.462-0.421c0.109-0.147,0.217-0.35,0.321-0.608
				c0.531-1.326,1.117-2.817,1.758-4.471c0.641-1.654,1.212-3.128,1.715-4.419h0.596l3.525,9.121
				c0.074,0.193,0.158,0.351,0.253,0.47c0.094,0.119,0.227,0.236,0.395,0.35c0.114,0.069,0.263,0.128,0.447,0.176
				c0.184,0.047,0.338,0.073,0.462,0.078V99.55z M88.651,95.229l-1.603-4.104l-1.579,4.104H88.651z"/>
		</g>
	</g>
</g>
</svg>
